M48
; DRILL file {KiCad (5.1.6)-1} date 11/13/21 14:56:02
; FORMAT={-:-/ absolute / metric / decimal}
; #@! TF.CreationDate,2021-11-13T14:56:02-08:00
; #@! TF.GenerationSoftware,Kicad,Pcbnew,(5.1.6)-1
; #@! TF.FileFunction,Plated,1,2,PTH
FMAT,2
METRIC
T1C0.400
T2C0.800
T3C1.000
T4C1.020
T5C1.100
T6C2.500
%
G90
G05
T1
X68.072Y-64.389
X71.755Y-76.327
X80.137Y-84.074
X87.757Y-70.739
X90.297Y-64.135
X97.536Y-53.975
X135.001Y-59.055
X138.43Y-54.61
T2
X112.014Y-49.244
X114.466Y-61.484
X114.466Y-63.484
X114.554Y-49.244
X116.466Y-61.484
X116.466Y-63.484
X118.466Y-61.484
X118.466Y-63.484
T3
X70.993Y-51.689
X70.993Y-54.229
X70.993Y-56.769
X70.993Y-59.309
X70.993Y-61.849
X70.993Y-64.389
X70.993Y-66.929
X70.993Y-69.469
X162.433Y-66.929
X162.433Y-69.469
X162.433Y-72.009
X162.433Y-74.549
X162.433Y-77.089
X162.433Y-79.629
X162.433Y-82.169
X162.433Y-84.709
X162.433Y-87.249
X69.977Y-106.807
X72.517Y-106.807
X75.057Y-106.807
X77.597Y-106.807
X80.137Y-106.807
X82.677Y-106.807
X85.217Y-106.807
X87.757Y-106.807
X98.933Y-96.901
X98.933Y-99.441
X98.933Y-101.981
X98.933Y-104.521
X98.933Y-107.061
X75.057Y-76.327
X77.597Y-76.327
X80.137Y-76.327
X82.677Y-76.327
X85.217Y-76.327
X87.757Y-76.327
X90.297Y-76.327
X98.933Y-76.327
X98.933Y-78.867
X98.933Y-81.407
X100.584Y-53.975
X100.584Y-56.515
X100.584Y-59.055
X100.584Y-61.595
X100.584Y-64.135
X100.584Y-66.675
X126.873Y-66.929
X126.873Y-69.469
X126.873Y-72.009
X126.873Y-74.549
X126.873Y-77.089
X126.873Y-79.629
X126.873Y-82.169
X126.873Y-84.709
X126.873Y-87.249
X165.862Y-59.563
X127.127Y-53.721
X77.724Y-53.975
X77.724Y-56.515
X77.724Y-59.055
X77.724Y-61.595
X77.724Y-64.135
X77.724Y-66.675
T4
X144.399Y-54.737
X147.399Y-54.737
X155.194Y-54.864
X158.194Y-54.864
T5
X105.664Y-48.514
X105.664Y-51.054
X105.664Y-53.594
X105.664Y-56.134
X105.664Y-58.674
X105.664Y-61.214
X105.664Y-63.754
X105.664Y-66.294
X105.664Y-68.834
X105.664Y-71.374
X105.664Y-73.914
X105.664Y-76.454
X105.664Y-78.994
X105.664Y-81.534
X105.664Y-84.074
X105.664Y-86.614
X105.664Y-89.154
X105.664Y-91.694
X105.664Y-94.234
X105.664Y-96.774
X105.664Y-99.314
X105.664Y-101.854
X105.664Y-104.394
X105.664Y-106.934
X108.204Y-94.234
X108.715Y-54.813
X108.715Y-57.353
X108.715Y-59.893
X108.715Y-62.433
X108.715Y-64.973
X110.744Y-94.234
X113.284Y-94.234
X115.824Y-94.234
X118.364Y-51.054
X118.364Y-94.234
X120.904Y-48.514
X120.904Y-51.054
X120.904Y-53.594
X120.904Y-56.134
X120.904Y-58.674
X120.904Y-61.214
X120.904Y-63.754
X120.904Y-66.294
X120.904Y-68.834
X120.904Y-71.374
X120.904Y-73.914
X120.904Y-76.454
X120.904Y-78.994
X120.904Y-81.534
X120.904Y-84.074
X120.904Y-86.614
X120.904Y-89.154
X120.904Y-91.694
X120.904Y-94.234
X120.904Y-96.774
X120.904Y-99.314
X120.904Y-101.854
X120.904Y-104.394
X120.904Y-106.934
T6
X58.293Y-50.419
X58.293Y-70.739
T0
M30
