%TF.GenerationSoftware,KiCad,Pcbnew,(5.1.6)-1*%
%TF.CreationDate,2021-11-13T14:54:40-08:00*%
%TF.ProjectId,ARESnoseConeSystem2022,41524553-6e6f-4736-9543-6f6e65537973,rev?*%
%TF.SameCoordinates,Original*%
%TF.FileFunction,Soldermask,Top*%
%TF.FilePolarity,Negative*%
%FSLAX46Y46*%
G04 Gerber Fmt 4.6, Leading zero omitted, Abs format (unit mm)*
G04 Created by KiCad (PCBNEW (5.1.6)-1) date 2021-11-13 14:54:40*
%MOMM*%
%LPD*%
G01*
G04 APERTURE LIST*
%ADD10R,1.800000X1.800000*%
%ADD11R,1.103300X0.608000*%
%ADD12O,1.800000X1.800000*%
%ADD13C,4.400000*%
%ADD14C,1.400000*%
%ADD15C,1.700000*%
%ADD16R,1.400000X1.400000*%
%ADD17R,1.700000X1.700000*%
%ADD18O,1.600000X2.120000*%
%ADD19C,3.100000*%
%ADD20C,3.402000*%
%ADD21C,3.301600*%
%ADD22C,3.301601*%
G04 APERTURE END LIST*
D10*
X165862000Y-59563000D03*
X127127000Y-53721000D03*
D11*
X130600450Y-55306001D03*
X130600450Y-53405999D03*
X133305550Y-53405999D03*
X133305550Y-54356000D03*
X133305550Y-55306001D03*
G36*
G01*
X138195000Y-53310262D02*
X138195000Y-52353738D01*
G75*
G02*
X138466738Y-52082000I271738J0D01*
G01*
X139173262Y-52082000D01*
G75*
G02*
X139445000Y-52353738I0J-271738D01*
G01*
X139445000Y-53310262D01*
G75*
G02*
X139173262Y-53582000I-271738J0D01*
G01*
X138466738Y-53582000D01*
G75*
G02*
X138195000Y-53310262I0J271738D01*
G01*
G37*
G36*
G01*
X136145000Y-53310262D02*
X136145000Y-52353738D01*
G75*
G02*
X136416738Y-52082000I271738J0D01*
G01*
X137123262Y-52082000D01*
G75*
G02*
X137395000Y-52353738I0J-271738D01*
G01*
X137395000Y-53310262D01*
G75*
G02*
X137123262Y-53582000I-271738J0D01*
G01*
X136416738Y-53582000D01*
G75*
G02*
X136145000Y-53310262I0J271738D01*
G01*
G37*
G36*
G01*
X134639000Y-49881262D02*
X134639000Y-48924738D01*
G75*
G02*
X134910738Y-48653000I271738J0D01*
G01*
X135617262Y-48653000D01*
G75*
G02*
X135889000Y-48924738I0J-271738D01*
G01*
X135889000Y-49881262D01*
G75*
G02*
X135617262Y-50153000I-271738J0D01*
G01*
X134910738Y-50153000D01*
G75*
G02*
X134639000Y-49881262I0J271738D01*
G01*
G37*
G36*
G01*
X132589000Y-49881262D02*
X132589000Y-48924738D01*
G75*
G02*
X132860738Y-48653000I271738J0D01*
G01*
X133567262Y-48653000D01*
G75*
G02*
X133839000Y-48924738I0J-271738D01*
G01*
X133839000Y-49881262D01*
G75*
G02*
X133567262Y-50153000I-271738J0D01*
G01*
X132860738Y-50153000D01*
G75*
G02*
X132589000Y-49881262I0J271738D01*
G01*
G37*
G36*
G01*
X129940000Y-49881262D02*
X129940000Y-48924738D01*
G75*
G02*
X130211738Y-48653000I271738J0D01*
G01*
X130918262Y-48653000D01*
G75*
G02*
X131190000Y-48924738I0J-271738D01*
G01*
X131190000Y-49881262D01*
G75*
G02*
X130918262Y-50153000I-271738J0D01*
G01*
X130211738Y-50153000D01*
G75*
G02*
X129940000Y-49881262I0J271738D01*
G01*
G37*
G36*
G01*
X127890000Y-49881262D02*
X127890000Y-48924738D01*
G75*
G02*
X128161738Y-48653000I271738J0D01*
G01*
X128868262Y-48653000D01*
G75*
G02*
X129140000Y-48924738I0J-271738D01*
G01*
X129140000Y-49881262D01*
G75*
G02*
X128868262Y-50153000I-271738J0D01*
G01*
X128161738Y-50153000D01*
G75*
G02*
X127890000Y-49881262I0J271738D01*
G01*
G37*
D12*
X98933000Y-107061000D03*
X98933000Y-104521000D03*
X98933000Y-101981000D03*
X98933000Y-99441000D03*
D10*
X98933000Y-96901000D03*
D12*
X87757000Y-106807000D03*
X85217000Y-106807000D03*
X82677000Y-106807000D03*
X80137000Y-106807000D03*
X77597000Y-106807000D03*
X75057000Y-106807000D03*
X72517000Y-106807000D03*
D10*
X69977000Y-106807000D03*
D12*
X98933000Y-81407000D03*
X98933000Y-78867000D03*
D10*
X98933000Y-76327000D03*
G36*
G01*
X123727738Y-57813000D02*
X124684262Y-57813000D01*
G75*
G02*
X124956000Y-58084738I0J-271738D01*
G01*
X124956000Y-58791262D01*
G75*
G02*
X124684262Y-59063000I-271738J0D01*
G01*
X123727738Y-59063000D01*
G75*
G02*
X123456000Y-58791262I0J271738D01*
G01*
X123456000Y-58084738D01*
G75*
G02*
X123727738Y-57813000I271738J0D01*
G01*
G37*
G36*
G01*
X123727738Y-55763000D02*
X124684262Y-55763000D01*
G75*
G02*
X124956000Y-56034738I0J-271738D01*
G01*
X124956000Y-56741262D01*
G75*
G02*
X124684262Y-57013000I-271738J0D01*
G01*
X123727738Y-57013000D01*
G75*
G02*
X123456000Y-56741262I0J271738D01*
G01*
X123456000Y-56034738D01*
G75*
G02*
X123727738Y-55763000I271738J0D01*
G01*
G37*
D12*
X162433000Y-66929000D03*
X162433000Y-69469000D03*
X162433000Y-72009000D03*
X162433000Y-74549000D03*
X162433000Y-77089000D03*
X162433000Y-79629000D03*
X162433000Y-82169000D03*
X162433000Y-84709000D03*
D10*
X162433000Y-87249000D03*
D13*
X51816000Y-107569000D03*
X51816000Y-52197000D03*
X167386000Y-107569000D03*
X167386000Y-52197000D03*
D12*
X77724000Y-53975000D03*
X77724000Y-56515000D03*
X77724000Y-59055000D03*
X77724000Y-61595000D03*
X77724000Y-64135000D03*
D10*
X77724000Y-66675000D03*
D12*
X100584000Y-53975000D03*
X100584000Y-56515000D03*
X100584000Y-59055000D03*
X100584000Y-61595000D03*
X100584000Y-64135000D03*
D10*
X100584000Y-66675000D03*
D12*
X126873000Y-66929000D03*
X126873000Y-69469000D03*
X126873000Y-72009000D03*
X126873000Y-74549000D03*
X126873000Y-77089000D03*
X126873000Y-79629000D03*
X126873000Y-82169000D03*
X126873000Y-84709000D03*
D10*
X126873000Y-87249000D03*
D12*
X90297000Y-76327000D03*
X87757000Y-76327000D03*
X85217000Y-76327000D03*
X82677000Y-76327000D03*
X80137000Y-76327000D03*
X77597000Y-76327000D03*
D10*
X75057000Y-76327000D03*
D12*
X70993000Y-51689000D03*
X70993000Y-54229000D03*
X70993000Y-56769000D03*
X70993000Y-59309000D03*
X70993000Y-61849000D03*
X70993000Y-64389000D03*
X70993000Y-66929000D03*
D10*
X70993000Y-69469000D03*
D14*
X114554000Y-49244000D03*
X112014000Y-49244000D03*
D15*
X118364000Y-94234000D03*
X115824000Y-94234000D03*
X113284000Y-94234000D03*
X110744000Y-94234000D03*
X108204000Y-94234000D03*
D14*
X114465600Y-61484000D03*
X114465600Y-63484000D03*
X116465600Y-63484000D03*
X116465600Y-61484000D03*
X118465600Y-63484000D03*
D16*
X118465600Y-61484000D03*
D15*
X105664000Y-89154000D03*
X105664000Y-91694000D03*
X105664000Y-94234000D03*
X105664000Y-96774000D03*
X105664000Y-86614000D03*
X105664000Y-84074000D03*
X105664000Y-81534000D03*
X105664000Y-99314000D03*
X105664000Y-101854000D03*
X105664000Y-104394000D03*
X105664000Y-106934000D03*
X120904000Y-106934000D03*
X120904000Y-104394000D03*
X120904000Y-101854000D03*
X120904000Y-99314000D03*
X120904000Y-96774000D03*
X120904000Y-94234000D03*
X120904000Y-91694000D03*
X120904000Y-89154000D03*
X120904000Y-86614000D03*
X120904000Y-84074000D03*
X105664000Y-78994000D03*
X105664000Y-76454000D03*
X105664000Y-73914000D03*
X105664000Y-71374000D03*
X105664000Y-68834000D03*
X105664000Y-66294000D03*
X105664000Y-63754000D03*
X105664000Y-61214000D03*
X105664000Y-58674000D03*
X105664000Y-56134000D03*
X105664000Y-53594000D03*
X105664000Y-51054000D03*
D17*
X105664000Y-48514000D03*
D15*
X120904000Y-81534000D03*
X120904000Y-78994000D03*
X120904000Y-76454000D03*
X120904000Y-73914000D03*
X120904000Y-71374000D03*
X120904000Y-68834000D03*
X120904000Y-66294000D03*
X120904000Y-63754000D03*
X120904000Y-61214000D03*
X120904000Y-58674000D03*
X120904000Y-56134000D03*
X120904000Y-53594000D03*
X120904000Y-51054000D03*
X120904000Y-48514000D03*
D17*
X108714800Y-54813200D03*
D15*
X108714800Y-57353200D03*
X108714800Y-59893200D03*
X108714800Y-62433200D03*
X108714800Y-64973200D03*
X118364000Y-51054000D03*
D18*
X158194000Y-54864000D03*
G36*
G01*
X154394000Y-55657333D02*
X154394000Y-54070667D01*
G75*
G02*
X154660667Y-53804000I266667J0D01*
G01*
X155727333Y-53804000D01*
G75*
G02*
X155994000Y-54070667I0J-266667D01*
G01*
X155994000Y-55657333D01*
G75*
G02*
X155727333Y-55924000I-266667J0D01*
G01*
X154660667Y-55924000D01*
G75*
G02*
X154394000Y-55657333I0J266667D01*
G01*
G37*
D19*
X156694000Y-50544000D03*
D18*
X147399000Y-54737000D03*
G36*
G01*
X143599000Y-55530333D02*
X143599000Y-53943667D01*
G75*
G02*
X143865667Y-53677000I266667J0D01*
G01*
X144932333Y-53677000D01*
G75*
G02*
X145199000Y-53943667I0J-266667D01*
G01*
X145199000Y-55530333D01*
G75*
G02*
X144932333Y-55797000I-266667J0D01*
G01*
X143865667Y-55797000D01*
G75*
G02*
X143599000Y-55530333I0J266667D01*
G01*
G37*
D19*
X145899000Y-50417000D03*
G36*
G01*
X132480000Y-58520250D02*
X132480000Y-57557750D01*
G75*
G02*
X132748750Y-57289000I268750J0D01*
G01*
X133286250Y-57289000D01*
G75*
G02*
X133555000Y-57557750I0J-268750D01*
G01*
X133555000Y-58520250D01*
G75*
G02*
X133286250Y-58789000I-268750J0D01*
G01*
X132748750Y-58789000D01*
G75*
G02*
X132480000Y-58520250I0J268750D01*
G01*
G37*
G36*
G01*
X130605000Y-58520250D02*
X130605000Y-57557750D01*
G75*
G02*
X130873750Y-57289000I268750J0D01*
G01*
X131411250Y-57289000D01*
G75*
G02*
X131680000Y-57557750I0J-268750D01*
G01*
X131680000Y-58520250D01*
G75*
G02*
X131411250Y-58789000I-268750J0D01*
G01*
X130873750Y-58789000D01*
G75*
G02*
X130605000Y-58520250I0J268750D01*
G01*
G37*
G36*
G01*
X136808738Y-57550000D02*
X137765262Y-57550000D01*
G75*
G02*
X138037000Y-57821738I0J-271738D01*
G01*
X138037000Y-58528262D01*
G75*
G02*
X137765262Y-58800000I-271738J0D01*
G01*
X136808738Y-58800000D01*
G75*
G02*
X136537000Y-58528262I0J271738D01*
G01*
X136537000Y-57821738D01*
G75*
G02*
X136808738Y-57550000I271738J0D01*
G01*
G37*
G36*
G01*
X136808738Y-55500000D02*
X137765262Y-55500000D01*
G75*
G02*
X138037000Y-55771738I0J-271738D01*
G01*
X138037000Y-56478262D01*
G75*
G02*
X137765262Y-56750000I-271738J0D01*
G01*
X136808738Y-56750000D01*
G75*
G02*
X136537000Y-56478262I0J271738D01*
G01*
X136537000Y-55771738D01*
G75*
G02*
X136808738Y-55500000I271738J0D01*
G01*
G37*
G36*
G01*
X123473738Y-50057000D02*
X124430262Y-50057000D01*
G75*
G02*
X124702000Y-50328738I0J-271738D01*
G01*
X124702000Y-51035262D01*
G75*
G02*
X124430262Y-51307000I-271738J0D01*
G01*
X123473738Y-51307000D01*
G75*
G02*
X123202000Y-51035262I0J271738D01*
G01*
X123202000Y-50328738D01*
G75*
G02*
X123473738Y-50057000I271738J0D01*
G01*
G37*
G36*
G01*
X123473738Y-48007000D02*
X124430262Y-48007000D01*
G75*
G02*
X124702000Y-48278738I0J-271738D01*
G01*
X124702000Y-48985262D01*
G75*
G02*
X124430262Y-49257000I-271738J0D01*
G01*
X123473738Y-49257000D01*
G75*
G02*
X123202000Y-48985262I0J271738D01*
G01*
X123202000Y-48278738D01*
G75*
G02*
X123473738Y-48007000I271738J0D01*
G01*
G37*
D20*
X58547000Y-105537000D03*
X58547000Y-77597000D03*
X94107000Y-77597000D03*
X94107000Y-105537000D03*
D21*
X58293000Y-70739000D03*
D22*
X58293000Y-50419000D03*
D20*
X99314000Y-50165000D03*
X99314000Y-70485000D03*
X78994000Y-70485000D03*
X78994000Y-50165000D03*
X128143000Y-63119000D03*
X128143000Y-108839000D03*
X161163000Y-108839000D03*
X161163000Y-63119000D03*
M02*
