%TF.GenerationSoftware,KiCad,Pcbnew,(5.1.6)-1*%
%TF.CreationDate,2022-02-17T17:54:20-08:00*%
%TF.ProjectId,ARESnoseConeSystem2022,41524553-6e6f-4736-9543-6f6e65537973,rev?*%
%TF.SameCoordinates,Original*%
%TF.FileFunction,Soldermask,Top*%
%TF.FilePolarity,Negative*%
%FSLAX46Y46*%
G04 Gerber Fmt 4.6, Leading zero omitted, Abs format (unit mm)*
G04 Created by KiCad (PCBNEW (5.1.6)-1) date 2022-02-17 17:54:20*
%MOMM*%
%LPD*%
G01*
G04 APERTURE LIST*
%ADD10R,5.900000X6.500000*%
%ADD11R,0.900000X2.300000*%
%ADD12R,1.800000X1.800000*%
%ADD13O,1.800000X1.800000*%
%ADD14C,4.400000*%
%ADD15C,3.402000*%
%ADD16C,3.301600*%
%ADD17C,3.301601*%
%ADD18C,1.700000*%
%ADD19R,1.700000X1.700000*%
%ADD20R,1.400000X1.400000*%
%ADD21C,1.400000*%
%ADD22O,1.600000X2.120000*%
%ADD23C,3.100000*%
G04 APERTURE END LIST*
G36*
G01*
X125068250Y-67799000D02*
X124105750Y-67799000D01*
G75*
G02*
X123837000Y-67530250I0J268750D01*
G01*
X123837000Y-66992750D01*
G75*
G02*
X124105750Y-66724000I268750J0D01*
G01*
X125068250Y-66724000D01*
G75*
G02*
X125337000Y-66992750I0J-268750D01*
G01*
X125337000Y-67530250D01*
G75*
G02*
X125068250Y-67799000I-268750J0D01*
G01*
G37*
G36*
G01*
X125068250Y-69674000D02*
X124105750Y-69674000D01*
G75*
G02*
X123837000Y-69405250I0J268750D01*
G01*
X123837000Y-68867750D01*
G75*
G02*
X124105750Y-68599000I268750J0D01*
G01*
X125068250Y-68599000D01*
G75*
G02*
X125337000Y-68867750I0J-268750D01*
G01*
X125337000Y-69405250D01*
G75*
G02*
X125068250Y-69674000I-268750J0D01*
G01*
G37*
D10*
X132461000Y-56710000D03*
D11*
X130181000Y-50410000D03*
X131321000Y-50410000D03*
X132461000Y-50410000D03*
X133601000Y-50410000D03*
X134741000Y-50410000D03*
D12*
X165862000Y-59563000D03*
X126746000Y-48641000D03*
D13*
X98933000Y-107061000D03*
X98933000Y-104521000D03*
X98933000Y-101981000D03*
X98933000Y-99441000D03*
D12*
X98933000Y-96901000D03*
X98933000Y-76327000D03*
D13*
X98933000Y-78867000D03*
X98933000Y-81407000D03*
D14*
X51816000Y-107569000D03*
X51816000Y-52197000D03*
X167386000Y-107569000D03*
X167386000Y-52197000D03*
D13*
X77724000Y-53975000D03*
X77724000Y-56515000D03*
X77724000Y-59055000D03*
X77724000Y-61595000D03*
X77724000Y-64135000D03*
D12*
X77724000Y-66675000D03*
D15*
X58547000Y-105537000D03*
X58547000Y-77597000D03*
X94107000Y-77597000D03*
X94107000Y-105537000D03*
D16*
X58293000Y-70739000D03*
D17*
X58293000Y-50419000D03*
D15*
X99314000Y-50165000D03*
X99314000Y-70485000D03*
X78994000Y-70485000D03*
X78994000Y-50165000D03*
X128143000Y-63119000D03*
X128143000Y-108839000D03*
X161163000Y-108839000D03*
X161163000Y-63119000D03*
G36*
G01*
X138967738Y-57169000D02*
X139924262Y-57169000D01*
G75*
G02*
X140196000Y-57440738I0J-271738D01*
G01*
X140196000Y-58147262D01*
G75*
G02*
X139924262Y-58419000I-271738J0D01*
G01*
X138967738Y-58419000D01*
G75*
G02*
X138696000Y-58147262I0J271738D01*
G01*
X138696000Y-57440738D01*
G75*
G02*
X138967738Y-57169000I271738J0D01*
G01*
G37*
G36*
G01*
X138967738Y-55119000D02*
X139924262Y-55119000D01*
G75*
G02*
X140196000Y-55390738I0J-271738D01*
G01*
X140196000Y-56097262D01*
G75*
G02*
X139924262Y-56369000I-271738J0D01*
G01*
X138967738Y-56369000D01*
G75*
G02*
X138696000Y-56097262I0J271738D01*
G01*
X138696000Y-55390738D01*
G75*
G02*
X138967738Y-55119000I271738J0D01*
G01*
G37*
D13*
X87757000Y-106807000D03*
X85217000Y-106807000D03*
X82677000Y-106807000D03*
X80137000Y-106807000D03*
X77597000Y-106807000D03*
X75057000Y-106807000D03*
X72517000Y-106807000D03*
D12*
X69977000Y-106807000D03*
D13*
X162433000Y-66929000D03*
X162433000Y-69469000D03*
X162433000Y-72009000D03*
X162433000Y-74549000D03*
X162433000Y-77089000D03*
X162433000Y-79629000D03*
X162433000Y-82169000D03*
X162433000Y-84709000D03*
D12*
X162433000Y-87249000D03*
X100584000Y-66675000D03*
D13*
X100584000Y-64135000D03*
X100584000Y-61595000D03*
X100584000Y-59055000D03*
X100584000Y-56515000D03*
X100584000Y-53975000D03*
D12*
X126873000Y-87249000D03*
D13*
X126873000Y-84709000D03*
X126873000Y-82169000D03*
X126873000Y-79629000D03*
X126873000Y-77089000D03*
X126873000Y-74549000D03*
X126873000Y-72009000D03*
X126873000Y-69469000D03*
X126873000Y-66929000D03*
D12*
X75057000Y-76327000D03*
D13*
X77597000Y-76327000D03*
X80137000Y-76327000D03*
X82677000Y-76327000D03*
X85217000Y-76327000D03*
X87757000Y-76327000D03*
X90297000Y-76327000D03*
D12*
X70993000Y-69469000D03*
D13*
X70993000Y-66929000D03*
X70993000Y-64389000D03*
X70993000Y-61849000D03*
X70993000Y-59309000D03*
X70993000Y-56769000D03*
X70993000Y-54229000D03*
X70993000Y-51689000D03*
D18*
X118364000Y-51054000D03*
X108714800Y-64973200D03*
X108714800Y-62433200D03*
X108714800Y-59893200D03*
X108714800Y-57353200D03*
D19*
X108714800Y-54813200D03*
D18*
X120904000Y-48514000D03*
X120904000Y-51054000D03*
X120904000Y-53594000D03*
X120904000Y-56134000D03*
X120904000Y-58674000D03*
X120904000Y-61214000D03*
X120904000Y-63754000D03*
X120904000Y-66294000D03*
X120904000Y-68834000D03*
X120904000Y-71374000D03*
X120904000Y-73914000D03*
X120904000Y-76454000D03*
X120904000Y-78994000D03*
X120904000Y-81534000D03*
D19*
X105664000Y-48514000D03*
D18*
X105664000Y-51054000D03*
X105664000Y-53594000D03*
X105664000Y-56134000D03*
X105664000Y-58674000D03*
X105664000Y-61214000D03*
X105664000Y-63754000D03*
X105664000Y-66294000D03*
X105664000Y-68834000D03*
X105664000Y-71374000D03*
X105664000Y-73914000D03*
X105664000Y-76454000D03*
X105664000Y-78994000D03*
X120904000Y-84074000D03*
X120904000Y-86614000D03*
X120904000Y-89154000D03*
X120904000Y-91694000D03*
X120904000Y-94234000D03*
X120904000Y-96774000D03*
X120904000Y-99314000D03*
X120904000Y-101854000D03*
X120904000Y-104394000D03*
X120904000Y-106934000D03*
X105664000Y-106934000D03*
X105664000Y-104394000D03*
X105664000Y-101854000D03*
X105664000Y-99314000D03*
X105664000Y-81534000D03*
X105664000Y-84074000D03*
X105664000Y-86614000D03*
X105664000Y-96774000D03*
X105664000Y-94234000D03*
X105664000Y-91694000D03*
X105664000Y-89154000D03*
D20*
X118465600Y-61484000D03*
D21*
X118465600Y-63484000D03*
X116465600Y-61484000D03*
X116465600Y-63484000D03*
X114465600Y-63484000D03*
X114465600Y-61484000D03*
D18*
X108204000Y-94234000D03*
X110744000Y-94234000D03*
X113284000Y-94234000D03*
X115824000Y-94234000D03*
X118364000Y-94234000D03*
D21*
X112014000Y-49244000D03*
X114554000Y-49244000D03*
D22*
X158194000Y-54864000D03*
G36*
G01*
X154394000Y-55657333D02*
X154394000Y-54070667D01*
G75*
G02*
X154660667Y-53804000I266667J0D01*
G01*
X155727333Y-53804000D01*
G75*
G02*
X155994000Y-54070667I0J-266667D01*
G01*
X155994000Y-55657333D01*
G75*
G02*
X155727333Y-55924000I-266667J0D01*
G01*
X154660667Y-55924000D01*
G75*
G02*
X154394000Y-55657333I0J266667D01*
G01*
G37*
D23*
X156694000Y-50544000D03*
D22*
X147399000Y-54737000D03*
G36*
G01*
X143599000Y-55530333D02*
X143599000Y-53943667D01*
G75*
G02*
X143865667Y-53677000I266667J0D01*
G01*
X144932333Y-53677000D01*
G75*
G02*
X145199000Y-53943667I0J-266667D01*
G01*
X145199000Y-55530333D01*
G75*
G02*
X144932333Y-55797000I-266667J0D01*
G01*
X143865667Y-55797000D01*
G75*
G02*
X143599000Y-55530333I0J266667D01*
G01*
G37*
D23*
X145899000Y-50417000D03*
G36*
G01*
X126899750Y-52597000D02*
X127862250Y-52597000D01*
G75*
G02*
X128131000Y-52865750I0J-268750D01*
G01*
X128131000Y-53403250D01*
G75*
G02*
X127862250Y-53672000I-268750J0D01*
G01*
X126899750Y-53672000D01*
G75*
G02*
X126631000Y-53403250I0J268750D01*
G01*
X126631000Y-52865750D01*
G75*
G02*
X126899750Y-52597000I268750J0D01*
G01*
G37*
G36*
G01*
X126899750Y-50722000D02*
X127862250Y-50722000D01*
G75*
G02*
X128131000Y-50990750I0J-268750D01*
G01*
X128131000Y-51528250D01*
G75*
G02*
X127862250Y-51797000I-268750J0D01*
G01*
X126899750Y-51797000D01*
G75*
G02*
X126631000Y-51528250I0J268750D01*
G01*
X126631000Y-50990750D01*
G75*
G02*
X126899750Y-50722000I268750J0D01*
G01*
G37*
G36*
G01*
X138840738Y-50184000D02*
X139797262Y-50184000D01*
G75*
G02*
X140069000Y-50455738I0J-271738D01*
G01*
X140069000Y-51162262D01*
G75*
G02*
X139797262Y-51434000I-271738J0D01*
G01*
X138840738Y-51434000D01*
G75*
G02*
X138569000Y-51162262I0J271738D01*
G01*
X138569000Y-50455738D01*
G75*
G02*
X138840738Y-50184000I271738J0D01*
G01*
G37*
G36*
G01*
X138840738Y-48134000D02*
X139797262Y-48134000D01*
G75*
G02*
X140069000Y-48405738I0J-271738D01*
G01*
X140069000Y-49112262D01*
G75*
G02*
X139797262Y-49384000I-271738J0D01*
G01*
X138840738Y-49384000D01*
G75*
G02*
X138569000Y-49112262I0J271738D01*
G01*
X138569000Y-48405738D01*
G75*
G02*
X138840738Y-48134000I271738J0D01*
G01*
G37*
G36*
G01*
X123473738Y-50057000D02*
X124430262Y-50057000D01*
G75*
G02*
X124702000Y-50328738I0J-271738D01*
G01*
X124702000Y-51035262D01*
G75*
G02*
X124430262Y-51307000I-271738J0D01*
G01*
X123473738Y-51307000D01*
G75*
G02*
X123202000Y-51035262I0J271738D01*
G01*
X123202000Y-50328738D01*
G75*
G02*
X123473738Y-50057000I271738J0D01*
G01*
G37*
G36*
G01*
X123473738Y-48007000D02*
X124430262Y-48007000D01*
G75*
G02*
X124702000Y-48278738I0J-271738D01*
G01*
X124702000Y-48985262D01*
G75*
G02*
X124430262Y-49257000I-271738J0D01*
G01*
X123473738Y-49257000D01*
G75*
G02*
X123202000Y-48985262I0J271738D01*
G01*
X123202000Y-48278738D01*
G75*
G02*
X123473738Y-48007000I271738J0D01*
G01*
G37*
M02*
