%TF.GenerationSoftware,KiCad,Pcbnew,(5.1.6)-1*%
%TF.CreationDate,2022-02-17T17:54:20-08:00*%
%TF.ProjectId,ARESnoseConeSystem2022,41524553-6e6f-4736-9543-6f6e65537973,rev?*%
%TF.SameCoordinates,Original*%
%TF.FileFunction,Copper,L1,Top*%
%TF.FilePolarity,Positive*%
%FSLAX46Y46*%
G04 Gerber Fmt 4.6, Leading zero omitted, Abs format (unit mm)*
G04 Created by KiCad (PCBNEW (5.1.6)-1) date 2022-02-17 17:54:20*
%MOMM*%
%LPD*%
G01*
G04 APERTURE LIST*
%TA.AperFunction,SMDPad,CuDef*%
%ADD10R,5.800000X6.400000*%
%TD*%
%TA.AperFunction,SMDPad,CuDef*%
%ADD11R,0.800000X2.200000*%
%TD*%
%TA.AperFunction,ComponentPad*%
%ADD12R,1.700000X1.700000*%
%TD*%
%TA.AperFunction,ComponentPad*%
%ADD13O,1.700000X1.700000*%
%TD*%
%TA.AperFunction,ComponentPad*%
%ADD14C,3.200000*%
%TD*%
%TA.AperFunction,ComponentPad*%
%ADD15C,3.200001*%
%TD*%
%TA.AperFunction,ComponentPad*%
%ADD16C,1.600000*%
%TD*%
%TA.AperFunction,ComponentPad*%
%ADD17R,1.600000X1.600000*%
%TD*%
%TA.AperFunction,ComponentPad*%
%ADD18R,1.300000X1.300000*%
%TD*%
%TA.AperFunction,ComponentPad*%
%ADD19C,1.300000*%
%TD*%
%TA.AperFunction,ComponentPad*%
%ADD20O,1.500000X2.020000*%
%TD*%
%TA.AperFunction,ViaPad*%
%ADD21C,0.800000*%
%TD*%
%TA.AperFunction,Conductor*%
%ADD22C,0.762000*%
%TD*%
%TA.AperFunction,Conductor*%
%ADD23C,0.508000*%
%TD*%
%TA.AperFunction,Conductor*%
%ADD24C,0.250000*%
%TD*%
%TA.AperFunction,Conductor*%
%ADD25C,0.254000*%
%TD*%
G04 APERTURE END LIST*
%TA.AperFunction,SMDPad,CuDef*%
G36*
G01*
X125043250Y-67749000D02*
X124130750Y-67749000D01*
G75*
G02*
X123887000Y-67505250I0J243750D01*
G01*
X123887000Y-67017750D01*
G75*
G02*
X124130750Y-66774000I243750J0D01*
G01*
X125043250Y-66774000D01*
G75*
G02*
X125287000Y-67017750I0J-243750D01*
G01*
X125287000Y-67505250D01*
G75*
G02*
X125043250Y-67749000I-243750J0D01*
G01*
G37*
%TD.AperFunction*%
%TA.AperFunction,SMDPad,CuDef*%
G36*
G01*
X125043250Y-69624000D02*
X124130750Y-69624000D01*
G75*
G02*
X123887000Y-69380250I0J243750D01*
G01*
X123887000Y-68892750D01*
G75*
G02*
X124130750Y-68649000I243750J0D01*
G01*
X125043250Y-68649000D01*
G75*
G02*
X125287000Y-68892750I0J-243750D01*
G01*
X125287000Y-69380250D01*
G75*
G02*
X125043250Y-69624000I-243750J0D01*
G01*
G37*
%TD.AperFunction*%
D10*
X132461000Y-56710000D03*
D11*
X130181000Y-50410000D03*
X131321000Y-50410000D03*
X132461000Y-50410000D03*
X133601000Y-50410000D03*
X134741000Y-50410000D03*
D12*
X165862000Y-59563000D03*
X126746000Y-48641000D03*
D13*
X98933000Y-107061000D03*
X98933000Y-104521000D03*
X98933000Y-101981000D03*
X98933000Y-99441000D03*
D12*
X98933000Y-96901000D03*
X98933000Y-76327000D03*
D13*
X98933000Y-78867000D03*
X98933000Y-81407000D03*
X77724000Y-53975000D03*
X77724000Y-56515000D03*
X77724000Y-59055000D03*
X77724000Y-61595000D03*
X77724000Y-64135000D03*
D12*
X77724000Y-66675000D03*
D14*
X58293000Y-70739000D03*
D15*
X58293000Y-50419000D03*
%TA.AperFunction,SMDPad,CuDef*%
G36*
G01*
X138995999Y-57219000D02*
X139896001Y-57219000D01*
G75*
G02*
X140146000Y-57468999I0J-249999D01*
G01*
X140146000Y-58119001D01*
G75*
G02*
X139896001Y-58369000I-249999J0D01*
G01*
X138995999Y-58369000D01*
G75*
G02*
X138746000Y-58119001I0J249999D01*
G01*
X138746000Y-57468999D01*
G75*
G02*
X138995999Y-57219000I249999J0D01*
G01*
G37*
%TD.AperFunction*%
%TA.AperFunction,SMDPad,CuDef*%
G36*
G01*
X138995999Y-55169000D02*
X139896001Y-55169000D01*
G75*
G02*
X140146000Y-55418999I0J-249999D01*
G01*
X140146000Y-56069001D01*
G75*
G02*
X139896001Y-56319000I-249999J0D01*
G01*
X138995999Y-56319000D01*
G75*
G02*
X138746000Y-56069001I0J249999D01*
G01*
X138746000Y-55418999D01*
G75*
G02*
X138995999Y-55169000I249999J0D01*
G01*
G37*
%TD.AperFunction*%
D13*
X87757000Y-106807000D03*
X85217000Y-106807000D03*
X82677000Y-106807000D03*
X80137000Y-106807000D03*
X77597000Y-106807000D03*
X75057000Y-106807000D03*
X72517000Y-106807000D03*
D12*
X69977000Y-106807000D03*
D13*
X162433000Y-66929000D03*
X162433000Y-69469000D03*
X162433000Y-72009000D03*
X162433000Y-74549000D03*
X162433000Y-77089000D03*
X162433000Y-79629000D03*
X162433000Y-82169000D03*
X162433000Y-84709000D03*
D12*
X162433000Y-87249000D03*
X100584000Y-66675000D03*
D13*
X100584000Y-64135000D03*
X100584000Y-61595000D03*
X100584000Y-59055000D03*
X100584000Y-56515000D03*
X100584000Y-53975000D03*
D12*
X126873000Y-87249000D03*
D13*
X126873000Y-84709000D03*
X126873000Y-82169000D03*
X126873000Y-79629000D03*
X126873000Y-77089000D03*
X126873000Y-74549000D03*
X126873000Y-72009000D03*
X126873000Y-69469000D03*
X126873000Y-66929000D03*
D12*
X75057000Y-76327000D03*
D13*
X77597000Y-76327000D03*
X80137000Y-76327000D03*
X82677000Y-76327000D03*
X85217000Y-76327000D03*
X87757000Y-76327000D03*
X90297000Y-76327000D03*
D12*
X70993000Y-69469000D03*
D13*
X70993000Y-66929000D03*
X70993000Y-64389000D03*
X70993000Y-61849000D03*
X70993000Y-59309000D03*
X70993000Y-56769000D03*
X70993000Y-54229000D03*
X70993000Y-51689000D03*
D16*
X118364000Y-51054000D03*
X108714800Y-64973200D03*
X108714800Y-62433200D03*
X108714800Y-59893200D03*
X108714800Y-57353200D03*
D17*
X108714800Y-54813200D03*
D16*
X120904000Y-48514000D03*
X120904000Y-51054000D03*
X120904000Y-53594000D03*
X120904000Y-56134000D03*
X120904000Y-58674000D03*
X120904000Y-61214000D03*
X120904000Y-63754000D03*
X120904000Y-66294000D03*
X120904000Y-68834000D03*
X120904000Y-71374000D03*
X120904000Y-73914000D03*
X120904000Y-76454000D03*
X120904000Y-78994000D03*
X120904000Y-81534000D03*
D17*
X105664000Y-48514000D03*
D16*
X105664000Y-51054000D03*
X105664000Y-53594000D03*
X105664000Y-56134000D03*
X105664000Y-58674000D03*
X105664000Y-61214000D03*
X105664000Y-63754000D03*
X105664000Y-66294000D03*
X105664000Y-68834000D03*
X105664000Y-71374000D03*
X105664000Y-73914000D03*
X105664000Y-76454000D03*
X105664000Y-78994000D03*
X120904000Y-84074000D03*
X120904000Y-86614000D03*
X120904000Y-89154000D03*
X120904000Y-91694000D03*
X120904000Y-94234000D03*
X120904000Y-96774000D03*
X120904000Y-99314000D03*
X120904000Y-101854000D03*
X120904000Y-104394000D03*
X120904000Y-106934000D03*
X105664000Y-106934000D03*
X105664000Y-104394000D03*
X105664000Y-101854000D03*
X105664000Y-99314000D03*
X105664000Y-81534000D03*
X105664000Y-84074000D03*
X105664000Y-86614000D03*
X105664000Y-96774000D03*
X105664000Y-94234000D03*
X105664000Y-91694000D03*
X105664000Y-89154000D03*
D18*
X118465600Y-61484000D03*
D19*
X118465600Y-63484000D03*
X116465600Y-61484000D03*
X116465600Y-63484000D03*
X114465600Y-63484000D03*
X114465600Y-61484000D03*
D16*
X108204000Y-94234000D03*
X110744000Y-94234000D03*
X113284000Y-94234000D03*
X115824000Y-94234000D03*
X118364000Y-94234000D03*
D19*
X112014000Y-49244000D03*
X114554000Y-49244000D03*
D20*
X158194000Y-54864000D03*
%TA.AperFunction,ComponentPad*%
G36*
G01*
X154444000Y-55624000D02*
X154444000Y-54104000D01*
G75*
G02*
X154694000Y-53854000I250000J0D01*
G01*
X155694000Y-53854000D01*
G75*
G02*
X155944000Y-54104000I0J-250000D01*
G01*
X155944000Y-55624000D01*
G75*
G02*
X155694000Y-55874000I-250000J0D01*
G01*
X154694000Y-55874000D01*
G75*
G02*
X154444000Y-55624000I0J250000D01*
G01*
G37*
%TD.AperFunction*%
X147399000Y-54737000D03*
%TA.AperFunction,ComponentPad*%
G36*
G01*
X143649000Y-55497000D02*
X143649000Y-53977000D01*
G75*
G02*
X143899000Y-53727000I250000J0D01*
G01*
X144899000Y-53727000D01*
G75*
G02*
X145149000Y-53977000I0J-250000D01*
G01*
X145149000Y-55497000D01*
G75*
G02*
X144899000Y-55747000I-250000J0D01*
G01*
X143899000Y-55747000D01*
G75*
G02*
X143649000Y-55497000I0J250000D01*
G01*
G37*
%TD.AperFunction*%
%TA.AperFunction,SMDPad,CuDef*%
G36*
G01*
X126924750Y-52647000D02*
X127837250Y-52647000D01*
G75*
G02*
X128081000Y-52890750I0J-243750D01*
G01*
X128081000Y-53378250D01*
G75*
G02*
X127837250Y-53622000I-243750J0D01*
G01*
X126924750Y-53622000D01*
G75*
G02*
X126681000Y-53378250I0J243750D01*
G01*
X126681000Y-52890750D01*
G75*
G02*
X126924750Y-52647000I243750J0D01*
G01*
G37*
%TD.AperFunction*%
%TA.AperFunction,SMDPad,CuDef*%
G36*
G01*
X126924750Y-50772000D02*
X127837250Y-50772000D01*
G75*
G02*
X128081000Y-51015750I0J-243750D01*
G01*
X128081000Y-51503250D01*
G75*
G02*
X127837250Y-51747000I-243750J0D01*
G01*
X126924750Y-51747000D01*
G75*
G02*
X126681000Y-51503250I0J243750D01*
G01*
X126681000Y-51015750D01*
G75*
G02*
X126924750Y-50772000I243750J0D01*
G01*
G37*
%TD.AperFunction*%
%TA.AperFunction,SMDPad,CuDef*%
G36*
G01*
X138868999Y-50234000D02*
X139769001Y-50234000D01*
G75*
G02*
X140019000Y-50483999I0J-249999D01*
G01*
X140019000Y-51134001D01*
G75*
G02*
X139769001Y-51384000I-249999J0D01*
G01*
X138868999Y-51384000D01*
G75*
G02*
X138619000Y-51134001I0J249999D01*
G01*
X138619000Y-50483999D01*
G75*
G02*
X138868999Y-50234000I249999J0D01*
G01*
G37*
%TD.AperFunction*%
%TA.AperFunction,SMDPad,CuDef*%
G36*
G01*
X138868999Y-48184000D02*
X139769001Y-48184000D01*
G75*
G02*
X140019000Y-48433999I0J-249999D01*
G01*
X140019000Y-49084001D01*
G75*
G02*
X139769001Y-49334000I-249999J0D01*
G01*
X138868999Y-49334000D01*
G75*
G02*
X138619000Y-49084001I0J249999D01*
G01*
X138619000Y-48433999D01*
G75*
G02*
X138868999Y-48184000I249999J0D01*
G01*
G37*
%TD.AperFunction*%
%TA.AperFunction,SMDPad,CuDef*%
G36*
G01*
X123501999Y-50107000D02*
X124402001Y-50107000D01*
G75*
G02*
X124652000Y-50356999I0J-249999D01*
G01*
X124652000Y-51007001D01*
G75*
G02*
X124402001Y-51257000I-249999J0D01*
G01*
X123501999Y-51257000D01*
G75*
G02*
X123252000Y-51007001I0J249999D01*
G01*
X123252000Y-50356999D01*
G75*
G02*
X123501999Y-50107000I249999J0D01*
G01*
G37*
%TD.AperFunction*%
%TA.AperFunction,SMDPad,CuDef*%
G36*
G01*
X123501999Y-48057000D02*
X124402001Y-48057000D01*
G75*
G02*
X124652000Y-48306999I0J-249999D01*
G01*
X124652000Y-48957001D01*
G75*
G02*
X124402001Y-49207000I-249999J0D01*
G01*
X123501999Y-49207000D01*
G75*
G02*
X123252000Y-48957001I0J249999D01*
G01*
X123252000Y-48306999D01*
G75*
G02*
X123501999Y-48057000I249999J0D01*
G01*
G37*
%TD.AperFunction*%
D21*
X124968000Y-74676000D03*
X127381000Y-56261000D03*
X139446000Y-52578000D03*
X139446000Y-59563000D03*
X68072000Y-64389000D03*
X97536000Y-53975000D03*
X71755000Y-76327000D03*
X87757000Y-70739000D03*
X90297000Y-64135000D03*
X80137000Y-84074000D03*
D22*
X124959000Y-48632000D02*
X123952000Y-48632000D01*
X124959000Y-48632000D02*
X126737000Y-48632000D01*
X126737000Y-48632000D02*
X126746000Y-48641000D01*
X121022000Y-48632000D02*
X120904000Y-48514000D01*
X123952000Y-48632000D02*
X121022000Y-48632000D01*
X131321000Y-50410000D02*
X131321000Y-48771000D01*
X130937000Y-48387000D02*
X127000000Y-48387000D01*
X127000000Y-48387000D02*
X126746000Y-48641000D01*
X131321000Y-48771000D02*
X130937000Y-48387000D01*
X125857000Y-49530000D02*
X126746000Y-48641000D01*
X123190000Y-61976000D02*
X123190000Y-68707000D01*
X125857000Y-59309000D02*
X123190000Y-61976000D01*
X123190000Y-68707000D02*
X123619500Y-69136500D01*
X123619500Y-69136500D02*
X124587000Y-69136500D01*
X125857000Y-59309000D02*
X125857000Y-49530000D01*
X127381000Y-49276000D02*
X126746000Y-48641000D01*
X127381000Y-51259500D02*
X127381000Y-49276000D01*
X126540500Y-69136500D02*
X126873000Y-69469000D01*
X124587000Y-69136500D02*
X126540500Y-69136500D01*
D23*
X144399000Y-54737000D02*
X143891000Y-54737000D01*
X143392000Y-55744000D02*
X144399000Y-54737000D01*
X139446000Y-55744000D02*
X143392000Y-55744000D01*
X134741000Y-51039000D02*
X139446000Y-55744000D01*
X134741000Y-50410000D02*
X134741000Y-51039000D01*
D24*
X98933000Y-96901000D02*
X99314000Y-96520000D01*
X105537000Y-96901000D02*
X105664000Y-96774000D01*
X98933000Y-96901000D02*
X105537000Y-96901000D01*
X90297000Y-64135000D02*
X90297000Y-68199000D01*
X90297000Y-68199000D02*
X87757000Y-70739000D01*
X87757000Y-76327000D02*
X92964000Y-81534000D01*
X92964000Y-81534000D02*
X99060000Y-81534000D01*
X98933000Y-81534000D02*
X99060000Y-81534000D01*
X99060000Y-81534000D02*
X105664000Y-81534000D01*
X124206000Y-79375000D02*
X126492000Y-77089000D01*
X126492000Y-77089000D02*
X126873000Y-77089000D01*
X117856000Y-81534000D02*
X119126000Y-82804000D01*
X105664000Y-81534000D02*
X117856000Y-81534000D01*
X124206000Y-81280000D02*
X124206000Y-79375000D01*
X119126000Y-82804000D02*
X122682000Y-82804000D01*
X122682000Y-82804000D02*
X124206000Y-81280000D01*
X105537000Y-99441000D02*
X105664000Y-99314000D01*
X98933000Y-99441000D02*
X105537000Y-99441000D01*
X105537000Y-101981000D02*
X105664000Y-101854000D01*
X98933000Y-101981000D02*
X105537000Y-101981000D01*
X105537000Y-104521000D02*
X105664000Y-104394000D01*
X98933000Y-104521000D02*
X105537000Y-104521000D01*
X105537000Y-107061000D02*
X105664000Y-106934000D01*
X98933000Y-107061000D02*
X105537000Y-107061000D01*
X78098003Y-62770001D02*
X76994001Y-62770001D01*
X85217000Y-69888998D02*
X78098003Y-62770001D01*
X76994001Y-62770001D02*
X70993000Y-56769000D01*
X85471000Y-74168000D02*
X85217000Y-73914000D01*
X85217000Y-76327000D02*
X85217000Y-73914000D01*
X85217000Y-73914000D02*
X85217000Y-69888998D01*
X100584000Y-59055000D02*
X95123000Y-64516000D01*
X95123000Y-64516000D02*
X95123000Y-74168000D01*
X95123000Y-74168000D02*
X85471000Y-74168000D01*
X99060000Y-78994000D02*
X98933000Y-78867000D01*
X105664000Y-78994000D02*
X99060000Y-78994000D01*
X95123000Y-75057000D02*
X95123000Y-74168000D01*
X98933000Y-78867000D02*
X95123000Y-75057000D01*
X105664000Y-51054000D02*
X104013000Y-51054000D01*
X104013000Y-51054000D02*
X100584000Y-47625000D01*
X100584000Y-47625000D02*
X76454000Y-47625000D01*
X76454000Y-47625000D02*
X74803000Y-49276000D01*
X74803000Y-50419000D02*
X70993000Y-54229000D01*
X74803000Y-49276000D02*
X74803000Y-50419000D01*
X120904000Y-81534000D02*
X114409001Y-75039001D01*
X103868001Y-64879001D02*
X100584000Y-61595000D01*
X105914003Y-64879001D02*
X103868001Y-64879001D01*
X114409001Y-73373999D02*
X105914003Y-64879001D01*
X114409001Y-75039001D02*
X114409001Y-73373999D01*
X100220999Y-75039001D02*
X98933000Y-76327000D01*
X114409001Y-75039001D02*
X100220999Y-75039001D01*
X124587000Y-72644000D02*
X126492000Y-74549000D01*
X115189000Y-72644000D02*
X124587000Y-72644000D01*
X126492000Y-74549000D02*
X126873000Y-74549000D01*
X114459001Y-73373999D02*
X115189000Y-72644000D01*
X114409001Y-73373999D02*
X114459001Y-73373999D01*
X100965000Y-66294000D02*
X100584000Y-66675000D01*
X105664000Y-66294000D02*
X100965000Y-66294000D01*
X105664000Y-89154000D02*
X85344000Y-89154000D01*
X82677000Y-86487000D02*
X82677000Y-76327000D01*
X85344000Y-89154000D02*
X82677000Y-86487000D01*
X85090000Y-94234000D02*
X72517000Y-106807000D01*
X105664000Y-94234000D02*
X85090000Y-94234000D01*
X85090000Y-91694000D02*
X69977000Y-106807000D01*
X105664000Y-91694000D02*
X85090000Y-91694000D01*
X100584000Y-56515000D02*
X104775000Y-52324000D01*
X104775000Y-52324000D02*
X115824000Y-52324000D01*
X117094000Y-53594000D02*
X120904000Y-53594000D01*
X115824000Y-52324000D02*
X117094000Y-53594000D01*
X80137000Y-76327000D02*
X80137000Y-84074000D01*
X79336002Y-76327000D02*
X80137000Y-76327000D01*
X72478002Y-69469000D02*
X79336002Y-76327000D01*
X70993000Y-69469000D02*
X72478002Y-69469000D01*
X122301000Y-69469000D02*
X124841000Y-72009000D01*
X120904000Y-53594000D02*
X122301000Y-54991000D01*
X124841000Y-72009000D02*
X126873000Y-72009000D01*
X122301000Y-54991000D02*
X122301000Y-69469000D01*
D22*
X147399000Y-56563000D02*
X147399000Y-54737000D01*
X147399000Y-56563000D02*
X147399000Y-56594000D01*
X147399000Y-56594000D02*
X147828000Y-57023000D01*
X147828000Y-57023000D02*
X157607000Y-57023000D01*
X158194000Y-56436000D02*
X158194000Y-54864000D01*
X157607000Y-57023000D02*
X158194000Y-56436000D01*
X147399000Y-54737000D02*
X147399000Y-54689000D01*
X141469000Y-48759000D02*
X139319000Y-48759000D01*
X147399000Y-54689000D02*
X141469000Y-48759000D01*
X134239000Y-47879000D02*
X133601000Y-48517000D01*
X133601000Y-48517000D02*
X133601000Y-50410000D01*
X138430000Y-47879000D02*
X134239000Y-47879000D01*
X139319000Y-48759000D02*
X139310000Y-48759000D01*
X139310000Y-48759000D02*
X138430000Y-47879000D01*
D24*
X120904000Y-86614000D02*
X122809000Y-86614000D01*
X124714000Y-84709000D02*
X126873000Y-84709000D01*
X122809000Y-86614000D02*
X124714000Y-84709000D01*
X120904000Y-89154000D02*
X123063000Y-89154000D01*
X124968000Y-87249000D02*
X126873000Y-87249000D01*
X123063000Y-89154000D02*
X124968000Y-87249000D01*
D25*
G36*
X133671810Y-47030140D02*
G01*
X133517104Y-47157104D01*
X133485287Y-47195873D01*
X132917873Y-47763287D01*
X132879104Y-47795104D01*
X132752140Y-47949810D01*
X132657798Y-48126314D01*
X132620183Y-48250313D01*
X132599702Y-48317830D01*
X132580085Y-48517000D01*
X132585000Y-48566902D01*
X132585000Y-49153171D01*
X132575188Y-49185518D01*
X132562928Y-49310000D01*
X132562928Y-51510000D01*
X132575188Y-51634482D01*
X132611498Y-51754180D01*
X132670463Y-51864494D01*
X132749815Y-51961185D01*
X132846506Y-52040537D01*
X132956820Y-52099502D01*
X133076518Y-52135812D01*
X133201000Y-52148072D01*
X134001000Y-52148072D01*
X134125482Y-52135812D01*
X134171000Y-52122004D01*
X134216518Y-52135812D01*
X134341000Y-52148072D01*
X134592837Y-52148072D01*
X138107928Y-55663164D01*
X138107928Y-56069001D01*
X138124992Y-56242255D01*
X138175528Y-56408851D01*
X138257595Y-56562387D01*
X138368038Y-56696962D01*
X138502613Y-56807405D01*
X138656149Y-56889472D01*
X138822745Y-56940008D01*
X138995999Y-56957072D01*
X139896001Y-56957072D01*
X140069255Y-56940008D01*
X140235851Y-56889472D01*
X140389387Y-56807405D01*
X140523962Y-56696962D01*
X140576454Y-56633000D01*
X143348340Y-56633000D01*
X143392000Y-56637300D01*
X143435660Y-56633000D01*
X143435667Y-56633000D01*
X143566274Y-56620136D01*
X143733851Y-56569303D01*
X143888291Y-56486753D01*
X144012189Y-56385072D01*
X144899000Y-56385072D01*
X145072254Y-56368008D01*
X145238850Y-56317472D01*
X145392386Y-56235405D01*
X145526962Y-56124962D01*
X145637405Y-55990386D01*
X145719472Y-55836850D01*
X145770008Y-55670254D01*
X145787072Y-55497000D01*
X145787072Y-54513913D01*
X146014000Y-54740841D01*
X146014000Y-55065037D01*
X146034040Y-55268507D01*
X146113236Y-55529581D01*
X146241843Y-55770188D01*
X146383000Y-55942187D01*
X146383000Y-56544098D01*
X146378085Y-56594000D01*
X146383000Y-56643901D01*
X146383000Y-56643902D01*
X146397702Y-56793171D01*
X146455798Y-56984687D01*
X146550140Y-57161190D01*
X146677104Y-57315896D01*
X146715873Y-57347713D01*
X147074287Y-57706127D01*
X147106104Y-57744896D01*
X147260810Y-57871860D01*
X147316310Y-57901525D01*
X147437313Y-57966202D01*
X147628829Y-58024298D01*
X147828000Y-58043915D01*
X147877902Y-58039000D01*
X157557098Y-58039000D01*
X157607000Y-58043915D01*
X157656902Y-58039000D01*
X157806171Y-58024298D01*
X157997687Y-57966202D01*
X158174190Y-57871860D01*
X158328896Y-57744896D01*
X158360713Y-57706127D01*
X158877127Y-57189713D01*
X158915896Y-57157896D01*
X159042860Y-57003190D01*
X159137202Y-56826687D01*
X159187384Y-56661260D01*
X159195298Y-56635172D01*
X159199353Y-56594000D01*
X159210000Y-56485902D01*
X159210000Y-56485895D01*
X159214914Y-56436001D01*
X159210000Y-56386107D01*
X159210000Y-56069188D01*
X159351157Y-55897188D01*
X159479764Y-55656581D01*
X159558960Y-55395506D01*
X159579000Y-55192036D01*
X159579000Y-54535963D01*
X159558960Y-54332493D01*
X159479764Y-54071419D01*
X159351157Y-53830812D01*
X159178080Y-53619919D01*
X158967187Y-53446843D01*
X158726580Y-53318236D01*
X158465506Y-53239040D01*
X158194000Y-53212299D01*
X157922493Y-53239040D01*
X157661419Y-53318236D01*
X157420812Y-53446843D01*
X157209919Y-53619920D01*
X157036843Y-53830813D01*
X156908236Y-54071420D01*
X156829040Y-54332494D01*
X156809000Y-54535964D01*
X156809000Y-55192037D01*
X156829040Y-55395507D01*
X156908236Y-55656581D01*
X157036843Y-55897188D01*
X157126964Y-56007000D01*
X148415000Y-56007000D01*
X148415000Y-55942188D01*
X148556157Y-55770188D01*
X148684764Y-55529581D01*
X148763960Y-55268506D01*
X148784000Y-55065036D01*
X148784000Y-54408963D01*
X148763960Y-54205493D01*
X148684764Y-53944419D01*
X148556157Y-53703812D01*
X148383080Y-53492919D01*
X148172187Y-53319843D01*
X147931580Y-53191236D01*
X147670506Y-53112040D01*
X147399000Y-53085299D01*
X147247101Y-53100260D01*
X146588958Y-52442117D01*
X146910302Y-52309012D01*
X147259983Y-52075363D01*
X147557363Y-51777983D01*
X147791012Y-51428302D01*
X147951953Y-51039756D01*
X148034000Y-50627279D01*
X148034000Y-50333721D01*
X154559000Y-50333721D01*
X154559000Y-50754279D01*
X154641047Y-51166756D01*
X154801988Y-51555302D01*
X155035637Y-51904983D01*
X155333017Y-52202363D01*
X155682698Y-52436012D01*
X156071244Y-52596953D01*
X156483721Y-52679000D01*
X156904279Y-52679000D01*
X157316756Y-52596953D01*
X157705302Y-52436012D01*
X158054983Y-52202363D01*
X158352363Y-51904983D01*
X158586012Y-51555302D01*
X158746953Y-51166756D01*
X158829000Y-50754279D01*
X158829000Y-50333721D01*
X158746953Y-49921244D01*
X158586012Y-49532698D01*
X158352363Y-49183017D01*
X158054983Y-48885637D01*
X157705302Y-48651988D01*
X157316756Y-48491047D01*
X156904279Y-48409000D01*
X156483721Y-48409000D01*
X156071244Y-48491047D01*
X155682698Y-48651988D01*
X155333017Y-48885637D01*
X155035637Y-49183017D01*
X154801988Y-49532698D01*
X154641047Y-49921244D01*
X154559000Y-50333721D01*
X148034000Y-50333721D01*
X148034000Y-50206721D01*
X147951953Y-49794244D01*
X147791012Y-49405698D01*
X147557363Y-49056017D01*
X147259983Y-48758637D01*
X146910302Y-48524988D01*
X146521756Y-48364047D01*
X146109279Y-48282000D01*
X145688721Y-48282000D01*
X145276244Y-48364047D01*
X144887698Y-48524988D01*
X144538017Y-48758637D01*
X144240637Y-49056017D01*
X144006988Y-49405698D01*
X143873883Y-49727042D01*
X142222712Y-48075872D01*
X142190896Y-48037104D01*
X142036190Y-47910140D01*
X141859687Y-47815798D01*
X141668171Y-47757702D01*
X141518902Y-47743000D01*
X141469000Y-47738085D01*
X141419098Y-47743000D01*
X140320150Y-47743000D01*
X140262387Y-47695595D01*
X140108851Y-47613528D01*
X139942255Y-47562992D01*
X139769001Y-47545928D01*
X139533768Y-47545928D01*
X139183712Y-47195872D01*
X139151896Y-47157104D01*
X138997190Y-47030140D01*
X138922093Y-46990000D01*
X167767249Y-46990000D01*
X167772042Y-49434227D01*
X167660299Y-49412000D01*
X167111701Y-49412000D01*
X166573646Y-49519026D01*
X166066808Y-49728965D01*
X165610666Y-50033750D01*
X165222750Y-50421666D01*
X164917965Y-50877808D01*
X164708026Y-51384646D01*
X164601000Y-51922701D01*
X164601000Y-52471299D01*
X164708026Y-53009354D01*
X164917965Y-53516192D01*
X165222750Y-53972334D01*
X165610666Y-54360250D01*
X166066808Y-54665035D01*
X166573646Y-54874974D01*
X167111701Y-54982000D01*
X167660299Y-54982000D01*
X167782872Y-54957619D01*
X167880656Y-104827832D01*
X167660299Y-104784000D01*
X167111701Y-104784000D01*
X166573646Y-104891026D01*
X166066808Y-105100965D01*
X165610666Y-105405750D01*
X165222750Y-105793666D01*
X164917965Y-106249808D01*
X164708026Y-106756646D01*
X164601000Y-107294701D01*
X164601000Y-107843299D01*
X164708026Y-108381354D01*
X164917965Y-108888192D01*
X165222750Y-109344334D01*
X165610666Y-109732250D01*
X166066808Y-110037035D01*
X166573646Y-110246974D01*
X167111701Y-110354000D01*
X167660299Y-110354000D01*
X167891401Y-110308031D01*
X167893742Y-111501621D01*
X161290000Y-111494923D01*
X161290000Y-111125000D01*
X161388151Y-111125000D01*
X161829802Y-111037150D01*
X162245827Y-110864827D01*
X162620240Y-110614652D01*
X162938652Y-110296240D01*
X163188827Y-109921827D01*
X163361150Y-109505802D01*
X163449000Y-109064151D01*
X163449000Y-108613849D01*
X163361150Y-108172198D01*
X163188827Y-107756173D01*
X162938652Y-107381760D01*
X162620240Y-107063348D01*
X162245827Y-106813173D01*
X161829802Y-106640850D01*
X161388151Y-106553000D01*
X161290000Y-106553000D01*
X161290000Y-85666107D01*
X161486368Y-85862475D01*
X161729589Y-86024990D01*
X161999842Y-86136932D01*
X162286740Y-86194000D01*
X162579260Y-86194000D01*
X162866158Y-86136932D01*
X163136411Y-86024990D01*
X163379632Y-85862475D01*
X163586475Y-85655632D01*
X163748990Y-85412411D01*
X163860932Y-85142158D01*
X163918000Y-84855260D01*
X163918000Y-84562740D01*
X163860932Y-84275842D01*
X163748990Y-84005589D01*
X163586475Y-83762368D01*
X163379632Y-83555525D01*
X163205240Y-83439000D01*
X163379632Y-83322475D01*
X163586475Y-83115632D01*
X163748990Y-82872411D01*
X163860932Y-82602158D01*
X163918000Y-82315260D01*
X163918000Y-82022740D01*
X163860932Y-81735842D01*
X163748990Y-81465589D01*
X163586475Y-81222368D01*
X163379632Y-81015525D01*
X163205240Y-80899000D01*
X163379632Y-80782475D01*
X163586475Y-80575632D01*
X163748990Y-80332411D01*
X163860932Y-80062158D01*
X163918000Y-79775260D01*
X163918000Y-79482740D01*
X163860932Y-79195842D01*
X163748990Y-78925589D01*
X163586475Y-78682368D01*
X163379632Y-78475525D01*
X163205240Y-78359000D01*
X163379632Y-78242475D01*
X163586475Y-78035632D01*
X163748990Y-77792411D01*
X163860932Y-77522158D01*
X163918000Y-77235260D01*
X163918000Y-76942740D01*
X163860932Y-76655842D01*
X163748990Y-76385589D01*
X163586475Y-76142368D01*
X163379632Y-75935525D01*
X163205240Y-75819000D01*
X163379632Y-75702475D01*
X163586475Y-75495632D01*
X163748990Y-75252411D01*
X163860932Y-74982158D01*
X163918000Y-74695260D01*
X163918000Y-74402740D01*
X163860932Y-74115842D01*
X163748990Y-73845589D01*
X163586475Y-73602368D01*
X163379632Y-73395525D01*
X163205240Y-73279000D01*
X163379632Y-73162475D01*
X163586475Y-72955632D01*
X163748990Y-72712411D01*
X163860932Y-72442158D01*
X163918000Y-72155260D01*
X163918000Y-71862740D01*
X163860932Y-71575842D01*
X163748990Y-71305589D01*
X163586475Y-71062368D01*
X163379632Y-70855525D01*
X163205240Y-70739000D01*
X163379632Y-70622475D01*
X163586475Y-70415632D01*
X163748990Y-70172411D01*
X163860932Y-69902158D01*
X163918000Y-69615260D01*
X163918000Y-69322740D01*
X163860932Y-69035842D01*
X163748990Y-68765589D01*
X163586475Y-68522368D01*
X163379632Y-68315525D01*
X163136411Y-68153010D01*
X162866158Y-68041068D01*
X162579260Y-67984000D01*
X162286740Y-67984000D01*
X161999842Y-68041068D01*
X161729589Y-68153010D01*
X161486368Y-68315525D01*
X161290000Y-68511893D01*
X161290000Y-65405000D01*
X161388151Y-65405000D01*
X161829802Y-65317150D01*
X162245827Y-65144827D01*
X162620240Y-64894652D01*
X162938652Y-64576240D01*
X163188827Y-64201827D01*
X163361150Y-63785802D01*
X163449000Y-63344151D01*
X163449000Y-62893849D01*
X163361150Y-62452198D01*
X163188827Y-62036173D01*
X162938652Y-61661760D01*
X162620240Y-61343348D01*
X162245827Y-61093173D01*
X161829802Y-60920850D01*
X161388151Y-60833000D01*
X160937849Y-60833000D01*
X160496198Y-60920850D01*
X160080173Y-61093173D01*
X159705760Y-61343348D01*
X159387348Y-61661760D01*
X159137173Y-62036173D01*
X158964850Y-62452198D01*
X158877000Y-62893849D01*
X158877000Y-62992000D01*
X130429000Y-62992000D01*
X130429000Y-62893849D01*
X130341150Y-62452198D01*
X130168827Y-62036173D01*
X129918652Y-61661760D01*
X129600240Y-61343348D01*
X129225827Y-61093173D01*
X128809802Y-60920850D01*
X128368151Y-60833000D01*
X127917849Y-60833000D01*
X127476198Y-60920850D01*
X127060173Y-61093173D01*
X126685760Y-61343348D01*
X126367348Y-61661760D01*
X126117173Y-62036173D01*
X125944850Y-62452198D01*
X125857000Y-62893849D01*
X125857000Y-63344151D01*
X125944850Y-63785802D01*
X126117173Y-64201827D01*
X126367348Y-64576240D01*
X126685760Y-64894652D01*
X127060173Y-65144827D01*
X127476198Y-65317150D01*
X127917849Y-65405000D01*
X128016000Y-65405000D01*
X128016000Y-68511893D01*
X127819632Y-68315525D01*
X127576411Y-68153010D01*
X127306158Y-68041068D01*
X127019260Y-67984000D01*
X126726740Y-67984000D01*
X126439842Y-68041068D01*
X126248075Y-68120500D01*
X125460122Y-68120500D01*
X125380709Y-68078053D01*
X125215285Y-68027872D01*
X125043250Y-68010928D01*
X124206000Y-68010928D01*
X124206000Y-62396840D01*
X126540133Y-60062708D01*
X126578896Y-60030896D01*
X126705860Y-59876190D01*
X126800202Y-59699687D01*
X126858298Y-59508171D01*
X126873000Y-59358902D01*
X126873000Y-59358901D01*
X126877915Y-59309000D01*
X126873000Y-59259098D01*
X126873000Y-52379975D01*
X126924750Y-52385072D01*
X127837250Y-52385072D01*
X128009285Y-52368128D01*
X128174709Y-52317947D01*
X128327164Y-52236458D01*
X128460792Y-52126792D01*
X128570458Y-51993164D01*
X128651947Y-51840709D01*
X128702128Y-51675285D01*
X128719072Y-51503250D01*
X128719072Y-51015750D01*
X128702128Y-50843715D01*
X128651947Y-50678291D01*
X128570458Y-50525836D01*
X128460792Y-50392208D01*
X128397000Y-50339855D01*
X128397000Y-49403000D01*
X129142928Y-49403000D01*
X129142928Y-51510000D01*
X129155188Y-51634482D01*
X129191498Y-51754180D01*
X129250463Y-51864494D01*
X129329815Y-51961185D01*
X129426506Y-52040537D01*
X129536820Y-52099502D01*
X129656518Y-52135812D01*
X129781000Y-52148072D01*
X130581000Y-52148072D01*
X130705482Y-52135812D01*
X130751000Y-52122004D01*
X130796518Y-52135812D01*
X130921000Y-52148072D01*
X131721000Y-52148072D01*
X131845482Y-52135812D01*
X131965180Y-52099502D01*
X132075494Y-52040537D01*
X132172185Y-51961185D01*
X132251537Y-51864494D01*
X132310502Y-51754180D01*
X132346812Y-51634482D01*
X132359072Y-51510000D01*
X132359072Y-49310000D01*
X132346812Y-49185518D01*
X132337000Y-49153172D01*
X132337000Y-48820901D01*
X132341915Y-48770999D01*
X132322298Y-48571829D01*
X132316921Y-48554104D01*
X132264202Y-48380313D01*
X132169860Y-48203810D01*
X132042896Y-48049104D01*
X132004127Y-48017287D01*
X131690713Y-47703873D01*
X131658896Y-47665104D01*
X131504190Y-47538140D01*
X131327687Y-47443798D01*
X131136171Y-47385702D01*
X130986902Y-47371000D01*
X130937000Y-47366085D01*
X130887098Y-47371000D01*
X128072778Y-47371000D01*
X128047185Y-47339815D01*
X127950494Y-47260463D01*
X127840180Y-47201498D01*
X127720482Y-47165188D01*
X127596000Y-47152928D01*
X125896000Y-47152928D01*
X125771518Y-47165188D01*
X125651820Y-47201498D01*
X125541506Y-47260463D01*
X125444815Y-47339815D01*
X125365463Y-47436506D01*
X125306498Y-47546820D01*
X125285512Y-47616000D01*
X124953150Y-47616000D01*
X124895387Y-47568595D01*
X124741851Y-47486528D01*
X124575255Y-47435992D01*
X124402001Y-47418928D01*
X123501999Y-47418928D01*
X123328745Y-47435992D01*
X123162149Y-47486528D01*
X123008613Y-47568595D01*
X122950850Y-47616000D01*
X122029835Y-47616000D01*
X122018637Y-47599241D01*
X121818759Y-47399363D01*
X121583727Y-47242320D01*
X121322574Y-47134147D01*
X121045335Y-47079000D01*
X120762665Y-47079000D01*
X120485426Y-47134147D01*
X120224273Y-47242320D01*
X119989241Y-47399363D01*
X119789363Y-47599241D01*
X119632320Y-47834273D01*
X119524147Y-48095426D01*
X119469000Y-48372665D01*
X119469000Y-48655335D01*
X119524147Y-48932574D01*
X119632320Y-49193727D01*
X119789363Y-49428759D01*
X119989241Y-49628637D01*
X120224273Y-49785680D01*
X120485426Y-49893853D01*
X120762665Y-49949000D01*
X121045335Y-49949000D01*
X121322574Y-49893853D01*
X121583727Y-49785680D01*
X121789780Y-49648000D01*
X122950850Y-49648000D01*
X123008613Y-49695405D01*
X123162149Y-49777472D01*
X123328745Y-49828008D01*
X123501999Y-49845072D01*
X124402001Y-49845072D01*
X124575255Y-49828008D01*
X124741851Y-49777472D01*
X124841001Y-49724475D01*
X124841000Y-58888159D01*
X123061000Y-60668160D01*
X123061000Y-55028322D01*
X123064676Y-54990999D01*
X123061000Y-54953676D01*
X123061000Y-54953667D01*
X123050003Y-54842014D01*
X123006546Y-54698753D01*
X122935974Y-54566724D01*
X122841001Y-54450999D01*
X122812004Y-54427202D01*
X122302688Y-53917886D01*
X122339000Y-53735335D01*
X122339000Y-53452665D01*
X122283853Y-53175426D01*
X122175680Y-52914273D01*
X122018637Y-52679241D01*
X121818759Y-52479363D01*
X121583727Y-52322320D01*
X121322574Y-52214147D01*
X121045335Y-52159000D01*
X120762665Y-52159000D01*
X120485426Y-52214147D01*
X120224273Y-52322320D01*
X119989241Y-52479363D01*
X119789363Y-52679241D01*
X119685957Y-52834000D01*
X117408802Y-52834000D01*
X116387804Y-51813003D01*
X116364001Y-51783999D01*
X116248276Y-51689026D01*
X116116247Y-51618454D01*
X115972986Y-51574997D01*
X115861333Y-51564000D01*
X115861322Y-51564000D01*
X115824000Y-51560324D01*
X115786678Y-51564000D01*
X107005983Y-51564000D01*
X107043853Y-51472574D01*
X107099000Y-51195335D01*
X107099000Y-50912665D01*
X116929000Y-50912665D01*
X116929000Y-51195335D01*
X116984147Y-51472574D01*
X117092320Y-51733727D01*
X117249363Y-51968759D01*
X117449241Y-52168637D01*
X117684273Y-52325680D01*
X117945426Y-52433853D01*
X118222665Y-52489000D01*
X118505335Y-52489000D01*
X118782574Y-52433853D01*
X119043727Y-52325680D01*
X119278759Y-52168637D01*
X119478637Y-51968759D01*
X119635680Y-51733727D01*
X119743853Y-51472574D01*
X119799000Y-51195335D01*
X119799000Y-50912665D01*
X119743853Y-50635426D01*
X119635680Y-50374273D01*
X119478637Y-50139241D01*
X119278759Y-49939363D01*
X119043727Y-49782320D01*
X118782574Y-49674147D01*
X118505335Y-49619000D01*
X118222665Y-49619000D01*
X117945426Y-49674147D01*
X117684273Y-49782320D01*
X117449241Y-49939363D01*
X117249363Y-50139241D01*
X117092320Y-50374273D01*
X116984147Y-50635426D01*
X116929000Y-50912665D01*
X107099000Y-50912665D01*
X107043853Y-50635426D01*
X106935680Y-50374273D01*
X106778637Y-50139241D01*
X106578759Y-49939363D01*
X106343727Y-49782320D01*
X106082574Y-49674147D01*
X105805335Y-49619000D01*
X105522665Y-49619000D01*
X105245426Y-49674147D01*
X104984273Y-49782320D01*
X104749241Y-49939363D01*
X104549363Y-50139241D01*
X104445957Y-50294000D01*
X104327802Y-50294000D01*
X103151241Y-49117439D01*
X110729000Y-49117439D01*
X110729000Y-49370561D01*
X110778381Y-49618821D01*
X110875247Y-49852676D01*
X111015875Y-50063140D01*
X111194860Y-50242125D01*
X111405324Y-50382753D01*
X111639179Y-50479619D01*
X111887439Y-50529000D01*
X112140561Y-50529000D01*
X112388821Y-50479619D01*
X112622676Y-50382753D01*
X112833140Y-50242125D01*
X113012125Y-50063140D01*
X113152753Y-49852676D01*
X113249619Y-49618821D01*
X113284000Y-49445973D01*
X113318381Y-49618821D01*
X113415247Y-49852676D01*
X113555875Y-50063140D01*
X113734860Y-50242125D01*
X113945324Y-50382753D01*
X114179179Y-50479619D01*
X114427439Y-50529000D01*
X114680561Y-50529000D01*
X114928821Y-50479619D01*
X115162676Y-50382753D01*
X115373140Y-50242125D01*
X115552125Y-50063140D01*
X115692753Y-49852676D01*
X115789619Y-49618821D01*
X115839000Y-49370561D01*
X115839000Y-49117439D01*
X115789619Y-48869179D01*
X115692753Y-48635324D01*
X115552125Y-48424860D01*
X115373140Y-48245875D01*
X115162676Y-48105247D01*
X114928821Y-48008381D01*
X114680561Y-47959000D01*
X114427439Y-47959000D01*
X114179179Y-48008381D01*
X113945324Y-48105247D01*
X113734860Y-48245875D01*
X113555875Y-48424860D01*
X113415247Y-48635324D01*
X113318381Y-48869179D01*
X113284000Y-49042027D01*
X113249619Y-48869179D01*
X113152753Y-48635324D01*
X113012125Y-48424860D01*
X112833140Y-48245875D01*
X112622676Y-48105247D01*
X112388821Y-48008381D01*
X112140561Y-47959000D01*
X111887439Y-47959000D01*
X111639179Y-48008381D01*
X111405324Y-48105247D01*
X111194860Y-48245875D01*
X111015875Y-48424860D01*
X110875247Y-48635324D01*
X110778381Y-48869179D01*
X110729000Y-49117439D01*
X103151241Y-49117439D01*
X101147804Y-47114003D01*
X101124001Y-47084999D01*
X101008276Y-46990026D01*
X101008227Y-46990000D01*
X133746907Y-46990000D01*
X133671810Y-47030140D01*
G37*
X133671810Y-47030140D02*
X133517104Y-47157104D01*
X133485287Y-47195873D01*
X132917873Y-47763287D01*
X132879104Y-47795104D01*
X132752140Y-47949810D01*
X132657798Y-48126314D01*
X132620183Y-48250313D01*
X132599702Y-48317830D01*
X132580085Y-48517000D01*
X132585000Y-48566902D01*
X132585000Y-49153171D01*
X132575188Y-49185518D01*
X132562928Y-49310000D01*
X132562928Y-51510000D01*
X132575188Y-51634482D01*
X132611498Y-51754180D01*
X132670463Y-51864494D01*
X132749815Y-51961185D01*
X132846506Y-52040537D01*
X132956820Y-52099502D01*
X133076518Y-52135812D01*
X133201000Y-52148072D01*
X134001000Y-52148072D01*
X134125482Y-52135812D01*
X134171000Y-52122004D01*
X134216518Y-52135812D01*
X134341000Y-52148072D01*
X134592837Y-52148072D01*
X138107928Y-55663164D01*
X138107928Y-56069001D01*
X138124992Y-56242255D01*
X138175528Y-56408851D01*
X138257595Y-56562387D01*
X138368038Y-56696962D01*
X138502613Y-56807405D01*
X138656149Y-56889472D01*
X138822745Y-56940008D01*
X138995999Y-56957072D01*
X139896001Y-56957072D01*
X140069255Y-56940008D01*
X140235851Y-56889472D01*
X140389387Y-56807405D01*
X140523962Y-56696962D01*
X140576454Y-56633000D01*
X143348340Y-56633000D01*
X143392000Y-56637300D01*
X143435660Y-56633000D01*
X143435667Y-56633000D01*
X143566274Y-56620136D01*
X143733851Y-56569303D01*
X143888291Y-56486753D01*
X144012189Y-56385072D01*
X144899000Y-56385072D01*
X145072254Y-56368008D01*
X145238850Y-56317472D01*
X145392386Y-56235405D01*
X145526962Y-56124962D01*
X145637405Y-55990386D01*
X145719472Y-55836850D01*
X145770008Y-55670254D01*
X145787072Y-55497000D01*
X145787072Y-54513913D01*
X146014000Y-54740841D01*
X146014000Y-55065037D01*
X146034040Y-55268507D01*
X146113236Y-55529581D01*
X146241843Y-55770188D01*
X146383000Y-55942187D01*
X146383000Y-56544098D01*
X146378085Y-56594000D01*
X146383000Y-56643901D01*
X146383000Y-56643902D01*
X146397702Y-56793171D01*
X146455798Y-56984687D01*
X146550140Y-57161190D01*
X146677104Y-57315896D01*
X146715873Y-57347713D01*
X147074287Y-57706127D01*
X147106104Y-57744896D01*
X147260810Y-57871860D01*
X147316310Y-57901525D01*
X147437313Y-57966202D01*
X147628829Y-58024298D01*
X147828000Y-58043915D01*
X147877902Y-58039000D01*
X157557098Y-58039000D01*
X157607000Y-58043915D01*
X157656902Y-58039000D01*
X157806171Y-58024298D01*
X157997687Y-57966202D01*
X158174190Y-57871860D01*
X158328896Y-57744896D01*
X158360713Y-57706127D01*
X158877127Y-57189713D01*
X158915896Y-57157896D01*
X159042860Y-57003190D01*
X159137202Y-56826687D01*
X159187384Y-56661260D01*
X159195298Y-56635172D01*
X159199353Y-56594000D01*
X159210000Y-56485902D01*
X159210000Y-56485895D01*
X159214914Y-56436001D01*
X159210000Y-56386107D01*
X159210000Y-56069188D01*
X159351157Y-55897188D01*
X159479764Y-55656581D01*
X159558960Y-55395506D01*
X159579000Y-55192036D01*
X159579000Y-54535963D01*
X159558960Y-54332493D01*
X159479764Y-54071419D01*
X159351157Y-53830812D01*
X159178080Y-53619919D01*
X158967187Y-53446843D01*
X158726580Y-53318236D01*
X158465506Y-53239040D01*
X158194000Y-53212299D01*
X157922493Y-53239040D01*
X157661419Y-53318236D01*
X157420812Y-53446843D01*
X157209919Y-53619920D01*
X157036843Y-53830813D01*
X156908236Y-54071420D01*
X156829040Y-54332494D01*
X156809000Y-54535964D01*
X156809000Y-55192037D01*
X156829040Y-55395507D01*
X156908236Y-55656581D01*
X157036843Y-55897188D01*
X157126964Y-56007000D01*
X148415000Y-56007000D01*
X148415000Y-55942188D01*
X148556157Y-55770188D01*
X148684764Y-55529581D01*
X148763960Y-55268506D01*
X148784000Y-55065036D01*
X148784000Y-54408963D01*
X148763960Y-54205493D01*
X148684764Y-53944419D01*
X148556157Y-53703812D01*
X148383080Y-53492919D01*
X148172187Y-53319843D01*
X147931580Y-53191236D01*
X147670506Y-53112040D01*
X147399000Y-53085299D01*
X147247101Y-53100260D01*
X146588958Y-52442117D01*
X146910302Y-52309012D01*
X147259983Y-52075363D01*
X147557363Y-51777983D01*
X147791012Y-51428302D01*
X147951953Y-51039756D01*
X148034000Y-50627279D01*
X148034000Y-50333721D01*
X154559000Y-50333721D01*
X154559000Y-50754279D01*
X154641047Y-51166756D01*
X154801988Y-51555302D01*
X155035637Y-51904983D01*
X155333017Y-52202363D01*
X155682698Y-52436012D01*
X156071244Y-52596953D01*
X156483721Y-52679000D01*
X156904279Y-52679000D01*
X157316756Y-52596953D01*
X157705302Y-52436012D01*
X158054983Y-52202363D01*
X158352363Y-51904983D01*
X158586012Y-51555302D01*
X158746953Y-51166756D01*
X158829000Y-50754279D01*
X158829000Y-50333721D01*
X158746953Y-49921244D01*
X158586012Y-49532698D01*
X158352363Y-49183017D01*
X158054983Y-48885637D01*
X157705302Y-48651988D01*
X157316756Y-48491047D01*
X156904279Y-48409000D01*
X156483721Y-48409000D01*
X156071244Y-48491047D01*
X155682698Y-48651988D01*
X155333017Y-48885637D01*
X155035637Y-49183017D01*
X154801988Y-49532698D01*
X154641047Y-49921244D01*
X154559000Y-50333721D01*
X148034000Y-50333721D01*
X148034000Y-50206721D01*
X147951953Y-49794244D01*
X147791012Y-49405698D01*
X147557363Y-49056017D01*
X147259983Y-48758637D01*
X146910302Y-48524988D01*
X146521756Y-48364047D01*
X146109279Y-48282000D01*
X145688721Y-48282000D01*
X145276244Y-48364047D01*
X144887698Y-48524988D01*
X144538017Y-48758637D01*
X144240637Y-49056017D01*
X144006988Y-49405698D01*
X143873883Y-49727042D01*
X142222712Y-48075872D01*
X142190896Y-48037104D01*
X142036190Y-47910140D01*
X141859687Y-47815798D01*
X141668171Y-47757702D01*
X141518902Y-47743000D01*
X141469000Y-47738085D01*
X141419098Y-47743000D01*
X140320150Y-47743000D01*
X140262387Y-47695595D01*
X140108851Y-47613528D01*
X139942255Y-47562992D01*
X139769001Y-47545928D01*
X139533768Y-47545928D01*
X139183712Y-47195872D01*
X139151896Y-47157104D01*
X138997190Y-47030140D01*
X138922093Y-46990000D01*
X167767249Y-46990000D01*
X167772042Y-49434227D01*
X167660299Y-49412000D01*
X167111701Y-49412000D01*
X166573646Y-49519026D01*
X166066808Y-49728965D01*
X165610666Y-50033750D01*
X165222750Y-50421666D01*
X164917965Y-50877808D01*
X164708026Y-51384646D01*
X164601000Y-51922701D01*
X164601000Y-52471299D01*
X164708026Y-53009354D01*
X164917965Y-53516192D01*
X165222750Y-53972334D01*
X165610666Y-54360250D01*
X166066808Y-54665035D01*
X166573646Y-54874974D01*
X167111701Y-54982000D01*
X167660299Y-54982000D01*
X167782872Y-54957619D01*
X167880656Y-104827832D01*
X167660299Y-104784000D01*
X167111701Y-104784000D01*
X166573646Y-104891026D01*
X166066808Y-105100965D01*
X165610666Y-105405750D01*
X165222750Y-105793666D01*
X164917965Y-106249808D01*
X164708026Y-106756646D01*
X164601000Y-107294701D01*
X164601000Y-107843299D01*
X164708026Y-108381354D01*
X164917965Y-108888192D01*
X165222750Y-109344334D01*
X165610666Y-109732250D01*
X166066808Y-110037035D01*
X166573646Y-110246974D01*
X167111701Y-110354000D01*
X167660299Y-110354000D01*
X167891401Y-110308031D01*
X167893742Y-111501621D01*
X161290000Y-111494923D01*
X161290000Y-111125000D01*
X161388151Y-111125000D01*
X161829802Y-111037150D01*
X162245827Y-110864827D01*
X162620240Y-110614652D01*
X162938652Y-110296240D01*
X163188827Y-109921827D01*
X163361150Y-109505802D01*
X163449000Y-109064151D01*
X163449000Y-108613849D01*
X163361150Y-108172198D01*
X163188827Y-107756173D01*
X162938652Y-107381760D01*
X162620240Y-107063348D01*
X162245827Y-106813173D01*
X161829802Y-106640850D01*
X161388151Y-106553000D01*
X161290000Y-106553000D01*
X161290000Y-85666107D01*
X161486368Y-85862475D01*
X161729589Y-86024990D01*
X161999842Y-86136932D01*
X162286740Y-86194000D01*
X162579260Y-86194000D01*
X162866158Y-86136932D01*
X163136411Y-86024990D01*
X163379632Y-85862475D01*
X163586475Y-85655632D01*
X163748990Y-85412411D01*
X163860932Y-85142158D01*
X163918000Y-84855260D01*
X163918000Y-84562740D01*
X163860932Y-84275842D01*
X163748990Y-84005589D01*
X163586475Y-83762368D01*
X163379632Y-83555525D01*
X163205240Y-83439000D01*
X163379632Y-83322475D01*
X163586475Y-83115632D01*
X163748990Y-82872411D01*
X163860932Y-82602158D01*
X163918000Y-82315260D01*
X163918000Y-82022740D01*
X163860932Y-81735842D01*
X163748990Y-81465589D01*
X163586475Y-81222368D01*
X163379632Y-81015525D01*
X163205240Y-80899000D01*
X163379632Y-80782475D01*
X163586475Y-80575632D01*
X163748990Y-80332411D01*
X163860932Y-80062158D01*
X163918000Y-79775260D01*
X163918000Y-79482740D01*
X163860932Y-79195842D01*
X163748990Y-78925589D01*
X163586475Y-78682368D01*
X163379632Y-78475525D01*
X163205240Y-78359000D01*
X163379632Y-78242475D01*
X163586475Y-78035632D01*
X163748990Y-77792411D01*
X163860932Y-77522158D01*
X163918000Y-77235260D01*
X163918000Y-76942740D01*
X163860932Y-76655842D01*
X163748990Y-76385589D01*
X163586475Y-76142368D01*
X163379632Y-75935525D01*
X163205240Y-75819000D01*
X163379632Y-75702475D01*
X163586475Y-75495632D01*
X163748990Y-75252411D01*
X163860932Y-74982158D01*
X163918000Y-74695260D01*
X163918000Y-74402740D01*
X163860932Y-74115842D01*
X163748990Y-73845589D01*
X163586475Y-73602368D01*
X163379632Y-73395525D01*
X163205240Y-73279000D01*
X163379632Y-73162475D01*
X163586475Y-72955632D01*
X163748990Y-72712411D01*
X163860932Y-72442158D01*
X163918000Y-72155260D01*
X163918000Y-71862740D01*
X163860932Y-71575842D01*
X163748990Y-71305589D01*
X163586475Y-71062368D01*
X163379632Y-70855525D01*
X163205240Y-70739000D01*
X163379632Y-70622475D01*
X163586475Y-70415632D01*
X163748990Y-70172411D01*
X163860932Y-69902158D01*
X163918000Y-69615260D01*
X163918000Y-69322740D01*
X163860932Y-69035842D01*
X163748990Y-68765589D01*
X163586475Y-68522368D01*
X163379632Y-68315525D01*
X163136411Y-68153010D01*
X162866158Y-68041068D01*
X162579260Y-67984000D01*
X162286740Y-67984000D01*
X161999842Y-68041068D01*
X161729589Y-68153010D01*
X161486368Y-68315525D01*
X161290000Y-68511893D01*
X161290000Y-65405000D01*
X161388151Y-65405000D01*
X161829802Y-65317150D01*
X162245827Y-65144827D01*
X162620240Y-64894652D01*
X162938652Y-64576240D01*
X163188827Y-64201827D01*
X163361150Y-63785802D01*
X163449000Y-63344151D01*
X163449000Y-62893849D01*
X163361150Y-62452198D01*
X163188827Y-62036173D01*
X162938652Y-61661760D01*
X162620240Y-61343348D01*
X162245827Y-61093173D01*
X161829802Y-60920850D01*
X161388151Y-60833000D01*
X160937849Y-60833000D01*
X160496198Y-60920850D01*
X160080173Y-61093173D01*
X159705760Y-61343348D01*
X159387348Y-61661760D01*
X159137173Y-62036173D01*
X158964850Y-62452198D01*
X158877000Y-62893849D01*
X158877000Y-62992000D01*
X130429000Y-62992000D01*
X130429000Y-62893849D01*
X130341150Y-62452198D01*
X130168827Y-62036173D01*
X129918652Y-61661760D01*
X129600240Y-61343348D01*
X129225827Y-61093173D01*
X128809802Y-60920850D01*
X128368151Y-60833000D01*
X127917849Y-60833000D01*
X127476198Y-60920850D01*
X127060173Y-61093173D01*
X126685760Y-61343348D01*
X126367348Y-61661760D01*
X126117173Y-62036173D01*
X125944850Y-62452198D01*
X125857000Y-62893849D01*
X125857000Y-63344151D01*
X125944850Y-63785802D01*
X126117173Y-64201827D01*
X126367348Y-64576240D01*
X126685760Y-64894652D01*
X127060173Y-65144827D01*
X127476198Y-65317150D01*
X127917849Y-65405000D01*
X128016000Y-65405000D01*
X128016000Y-68511893D01*
X127819632Y-68315525D01*
X127576411Y-68153010D01*
X127306158Y-68041068D01*
X127019260Y-67984000D01*
X126726740Y-67984000D01*
X126439842Y-68041068D01*
X126248075Y-68120500D01*
X125460122Y-68120500D01*
X125380709Y-68078053D01*
X125215285Y-68027872D01*
X125043250Y-68010928D01*
X124206000Y-68010928D01*
X124206000Y-62396840D01*
X126540133Y-60062708D01*
X126578896Y-60030896D01*
X126705860Y-59876190D01*
X126800202Y-59699687D01*
X126858298Y-59508171D01*
X126873000Y-59358902D01*
X126873000Y-59358901D01*
X126877915Y-59309000D01*
X126873000Y-59259098D01*
X126873000Y-52379975D01*
X126924750Y-52385072D01*
X127837250Y-52385072D01*
X128009285Y-52368128D01*
X128174709Y-52317947D01*
X128327164Y-52236458D01*
X128460792Y-52126792D01*
X128570458Y-51993164D01*
X128651947Y-51840709D01*
X128702128Y-51675285D01*
X128719072Y-51503250D01*
X128719072Y-51015750D01*
X128702128Y-50843715D01*
X128651947Y-50678291D01*
X128570458Y-50525836D01*
X128460792Y-50392208D01*
X128397000Y-50339855D01*
X128397000Y-49403000D01*
X129142928Y-49403000D01*
X129142928Y-51510000D01*
X129155188Y-51634482D01*
X129191498Y-51754180D01*
X129250463Y-51864494D01*
X129329815Y-51961185D01*
X129426506Y-52040537D01*
X129536820Y-52099502D01*
X129656518Y-52135812D01*
X129781000Y-52148072D01*
X130581000Y-52148072D01*
X130705482Y-52135812D01*
X130751000Y-52122004D01*
X130796518Y-52135812D01*
X130921000Y-52148072D01*
X131721000Y-52148072D01*
X131845482Y-52135812D01*
X131965180Y-52099502D01*
X132075494Y-52040537D01*
X132172185Y-51961185D01*
X132251537Y-51864494D01*
X132310502Y-51754180D01*
X132346812Y-51634482D01*
X132359072Y-51510000D01*
X132359072Y-49310000D01*
X132346812Y-49185518D01*
X132337000Y-49153172D01*
X132337000Y-48820901D01*
X132341915Y-48770999D01*
X132322298Y-48571829D01*
X132316921Y-48554104D01*
X132264202Y-48380313D01*
X132169860Y-48203810D01*
X132042896Y-48049104D01*
X132004127Y-48017287D01*
X131690713Y-47703873D01*
X131658896Y-47665104D01*
X131504190Y-47538140D01*
X131327687Y-47443798D01*
X131136171Y-47385702D01*
X130986902Y-47371000D01*
X130937000Y-47366085D01*
X130887098Y-47371000D01*
X128072778Y-47371000D01*
X128047185Y-47339815D01*
X127950494Y-47260463D01*
X127840180Y-47201498D01*
X127720482Y-47165188D01*
X127596000Y-47152928D01*
X125896000Y-47152928D01*
X125771518Y-47165188D01*
X125651820Y-47201498D01*
X125541506Y-47260463D01*
X125444815Y-47339815D01*
X125365463Y-47436506D01*
X125306498Y-47546820D01*
X125285512Y-47616000D01*
X124953150Y-47616000D01*
X124895387Y-47568595D01*
X124741851Y-47486528D01*
X124575255Y-47435992D01*
X124402001Y-47418928D01*
X123501999Y-47418928D01*
X123328745Y-47435992D01*
X123162149Y-47486528D01*
X123008613Y-47568595D01*
X122950850Y-47616000D01*
X122029835Y-47616000D01*
X122018637Y-47599241D01*
X121818759Y-47399363D01*
X121583727Y-47242320D01*
X121322574Y-47134147D01*
X121045335Y-47079000D01*
X120762665Y-47079000D01*
X120485426Y-47134147D01*
X120224273Y-47242320D01*
X119989241Y-47399363D01*
X119789363Y-47599241D01*
X119632320Y-47834273D01*
X119524147Y-48095426D01*
X119469000Y-48372665D01*
X119469000Y-48655335D01*
X119524147Y-48932574D01*
X119632320Y-49193727D01*
X119789363Y-49428759D01*
X119989241Y-49628637D01*
X120224273Y-49785680D01*
X120485426Y-49893853D01*
X120762665Y-49949000D01*
X121045335Y-49949000D01*
X121322574Y-49893853D01*
X121583727Y-49785680D01*
X121789780Y-49648000D01*
X122950850Y-49648000D01*
X123008613Y-49695405D01*
X123162149Y-49777472D01*
X123328745Y-49828008D01*
X123501999Y-49845072D01*
X124402001Y-49845072D01*
X124575255Y-49828008D01*
X124741851Y-49777472D01*
X124841001Y-49724475D01*
X124841000Y-58888159D01*
X123061000Y-60668160D01*
X123061000Y-55028322D01*
X123064676Y-54990999D01*
X123061000Y-54953676D01*
X123061000Y-54953667D01*
X123050003Y-54842014D01*
X123006546Y-54698753D01*
X122935974Y-54566724D01*
X122841001Y-54450999D01*
X122812004Y-54427202D01*
X122302688Y-53917886D01*
X122339000Y-53735335D01*
X122339000Y-53452665D01*
X122283853Y-53175426D01*
X122175680Y-52914273D01*
X122018637Y-52679241D01*
X121818759Y-52479363D01*
X121583727Y-52322320D01*
X121322574Y-52214147D01*
X121045335Y-52159000D01*
X120762665Y-52159000D01*
X120485426Y-52214147D01*
X120224273Y-52322320D01*
X119989241Y-52479363D01*
X119789363Y-52679241D01*
X119685957Y-52834000D01*
X117408802Y-52834000D01*
X116387804Y-51813003D01*
X116364001Y-51783999D01*
X116248276Y-51689026D01*
X116116247Y-51618454D01*
X115972986Y-51574997D01*
X115861333Y-51564000D01*
X115861322Y-51564000D01*
X115824000Y-51560324D01*
X115786678Y-51564000D01*
X107005983Y-51564000D01*
X107043853Y-51472574D01*
X107099000Y-51195335D01*
X107099000Y-50912665D01*
X116929000Y-50912665D01*
X116929000Y-51195335D01*
X116984147Y-51472574D01*
X117092320Y-51733727D01*
X117249363Y-51968759D01*
X117449241Y-52168637D01*
X117684273Y-52325680D01*
X117945426Y-52433853D01*
X118222665Y-52489000D01*
X118505335Y-52489000D01*
X118782574Y-52433853D01*
X119043727Y-52325680D01*
X119278759Y-52168637D01*
X119478637Y-51968759D01*
X119635680Y-51733727D01*
X119743853Y-51472574D01*
X119799000Y-51195335D01*
X119799000Y-50912665D01*
X119743853Y-50635426D01*
X119635680Y-50374273D01*
X119478637Y-50139241D01*
X119278759Y-49939363D01*
X119043727Y-49782320D01*
X118782574Y-49674147D01*
X118505335Y-49619000D01*
X118222665Y-49619000D01*
X117945426Y-49674147D01*
X117684273Y-49782320D01*
X117449241Y-49939363D01*
X117249363Y-50139241D01*
X117092320Y-50374273D01*
X116984147Y-50635426D01*
X116929000Y-50912665D01*
X107099000Y-50912665D01*
X107043853Y-50635426D01*
X106935680Y-50374273D01*
X106778637Y-50139241D01*
X106578759Y-49939363D01*
X106343727Y-49782320D01*
X106082574Y-49674147D01*
X105805335Y-49619000D01*
X105522665Y-49619000D01*
X105245426Y-49674147D01*
X104984273Y-49782320D01*
X104749241Y-49939363D01*
X104549363Y-50139241D01*
X104445957Y-50294000D01*
X104327802Y-50294000D01*
X103151241Y-49117439D01*
X110729000Y-49117439D01*
X110729000Y-49370561D01*
X110778381Y-49618821D01*
X110875247Y-49852676D01*
X111015875Y-50063140D01*
X111194860Y-50242125D01*
X111405324Y-50382753D01*
X111639179Y-50479619D01*
X111887439Y-50529000D01*
X112140561Y-50529000D01*
X112388821Y-50479619D01*
X112622676Y-50382753D01*
X112833140Y-50242125D01*
X113012125Y-50063140D01*
X113152753Y-49852676D01*
X113249619Y-49618821D01*
X113284000Y-49445973D01*
X113318381Y-49618821D01*
X113415247Y-49852676D01*
X113555875Y-50063140D01*
X113734860Y-50242125D01*
X113945324Y-50382753D01*
X114179179Y-50479619D01*
X114427439Y-50529000D01*
X114680561Y-50529000D01*
X114928821Y-50479619D01*
X115162676Y-50382753D01*
X115373140Y-50242125D01*
X115552125Y-50063140D01*
X115692753Y-49852676D01*
X115789619Y-49618821D01*
X115839000Y-49370561D01*
X115839000Y-49117439D01*
X115789619Y-48869179D01*
X115692753Y-48635324D01*
X115552125Y-48424860D01*
X115373140Y-48245875D01*
X115162676Y-48105247D01*
X114928821Y-48008381D01*
X114680561Y-47959000D01*
X114427439Y-47959000D01*
X114179179Y-48008381D01*
X113945324Y-48105247D01*
X113734860Y-48245875D01*
X113555875Y-48424860D01*
X113415247Y-48635324D01*
X113318381Y-48869179D01*
X113284000Y-49042027D01*
X113249619Y-48869179D01*
X113152753Y-48635324D01*
X113012125Y-48424860D01*
X112833140Y-48245875D01*
X112622676Y-48105247D01*
X112388821Y-48008381D01*
X112140561Y-47959000D01*
X111887439Y-47959000D01*
X111639179Y-48008381D01*
X111405324Y-48105247D01*
X111194860Y-48245875D01*
X111015875Y-48424860D01*
X110875247Y-48635324D01*
X110778381Y-48869179D01*
X110729000Y-49117439D01*
X103151241Y-49117439D01*
X101147804Y-47114003D01*
X101124001Y-47084999D01*
X101008276Y-46990026D01*
X101008227Y-46990000D01*
X133746907Y-46990000D01*
X133671810Y-47030140D01*
G36*
X76029724Y-46990026D02*
G01*
X75913999Y-47084999D01*
X75890201Y-47113997D01*
X74292003Y-48712196D01*
X74262999Y-48735999D01*
X74207871Y-48803174D01*
X74168026Y-48851724D01*
X74108649Y-48962810D01*
X74097454Y-48983754D01*
X74053997Y-49127015D01*
X74043000Y-49238668D01*
X74043000Y-49238678D01*
X74039324Y-49276000D01*
X74043000Y-49313323D01*
X74043001Y-50104197D01*
X72478000Y-51669198D01*
X72478000Y-51542740D01*
X72420932Y-51255842D01*
X72308990Y-50985589D01*
X72146475Y-50742368D01*
X71939632Y-50535525D01*
X71696411Y-50373010D01*
X71426158Y-50261068D01*
X71139260Y-50204000D01*
X70846740Y-50204000D01*
X70559842Y-50261068D01*
X70289589Y-50373010D01*
X70046368Y-50535525D01*
X69839525Y-50742368D01*
X69677010Y-50985589D01*
X69565068Y-51255842D01*
X69508000Y-51542740D01*
X69508000Y-51835260D01*
X69565068Y-52122158D01*
X69677010Y-52392411D01*
X69839525Y-52635632D01*
X70046368Y-52842475D01*
X70220760Y-52959000D01*
X70046368Y-53075525D01*
X69839525Y-53282368D01*
X69677010Y-53525589D01*
X69565068Y-53795842D01*
X69508000Y-54082740D01*
X69508000Y-54375260D01*
X69565068Y-54662158D01*
X69677010Y-54932411D01*
X69839525Y-55175632D01*
X70046368Y-55382475D01*
X70220760Y-55499000D01*
X70046368Y-55615525D01*
X69839525Y-55822368D01*
X69677010Y-56065589D01*
X69565068Y-56335842D01*
X69508000Y-56622740D01*
X69508000Y-56915260D01*
X69565068Y-57202158D01*
X69677010Y-57472411D01*
X69839525Y-57715632D01*
X70046368Y-57922475D01*
X70220760Y-58039000D01*
X70046368Y-58155525D01*
X69839525Y-58362368D01*
X69677010Y-58605589D01*
X69565068Y-58875842D01*
X69508000Y-59162740D01*
X69508000Y-59455260D01*
X69565068Y-59742158D01*
X69677010Y-60012411D01*
X69839525Y-60255632D01*
X70046368Y-60462475D01*
X70220760Y-60579000D01*
X70046368Y-60695525D01*
X69839525Y-60902368D01*
X69677010Y-61145589D01*
X69565068Y-61415842D01*
X69508000Y-61702740D01*
X69508000Y-61995260D01*
X69565068Y-62282158D01*
X69677010Y-62552411D01*
X69839525Y-62795632D01*
X70046368Y-63002475D01*
X70289589Y-63164990D01*
X70559842Y-63276932D01*
X70846740Y-63334000D01*
X71139260Y-63334000D01*
X71426158Y-63276932D01*
X71696411Y-63164990D01*
X71939632Y-63002475D01*
X72146475Y-62795632D01*
X72308990Y-62552411D01*
X72420932Y-62282158D01*
X72478000Y-61995260D01*
X72478000Y-61702740D01*
X72420932Y-61415842D01*
X72308990Y-61145589D01*
X72146475Y-60902368D01*
X71939632Y-60695525D01*
X71765240Y-60579000D01*
X71939632Y-60462475D01*
X72146475Y-60255632D01*
X72308990Y-60012411D01*
X72420932Y-59742158D01*
X72478000Y-59455260D01*
X72478000Y-59328801D01*
X76430201Y-63281003D01*
X76454000Y-63310002D01*
X76476767Y-63328687D01*
X76408010Y-63431589D01*
X76296068Y-63701842D01*
X76239000Y-63988740D01*
X76239000Y-64281260D01*
X76296068Y-64568158D01*
X76408010Y-64838411D01*
X76570525Y-65081632D01*
X76702380Y-65213487D01*
X76629820Y-65235498D01*
X76519506Y-65294463D01*
X76422815Y-65373815D01*
X76343463Y-65470506D01*
X76284498Y-65580820D01*
X76248188Y-65700518D01*
X76235928Y-65825000D01*
X76235928Y-67525000D01*
X76248188Y-67649482D01*
X76284498Y-67769180D01*
X76343463Y-67879494D01*
X76422815Y-67976185D01*
X76519506Y-68055537D01*
X76629820Y-68114502D01*
X76749518Y-68150812D01*
X76874000Y-68163072D01*
X78574000Y-68163072D01*
X78698482Y-68150812D01*
X78818180Y-68114502D01*
X78928494Y-68055537D01*
X79025185Y-67976185D01*
X79104537Y-67879494D01*
X79163502Y-67769180D01*
X79199812Y-67649482D01*
X79212072Y-67525000D01*
X79212072Y-65825000D01*
X79199812Y-65700518D01*
X79163502Y-65580820D01*
X79104537Y-65470506D01*
X79025185Y-65373815D01*
X78928494Y-65294463D01*
X78818180Y-65235498D01*
X78745620Y-65213487D01*
X78877475Y-65081632D01*
X79039990Y-64838411D01*
X79055110Y-64801909D01*
X84457001Y-70203801D01*
X84457000Y-73876677D01*
X84453324Y-73914000D01*
X84457000Y-73951322D01*
X84457000Y-73951332D01*
X84457001Y-73951342D01*
X84457001Y-75048821D01*
X84270368Y-75173525D01*
X84063525Y-75380368D01*
X83947000Y-75554760D01*
X83830475Y-75380368D01*
X83623632Y-75173525D01*
X83380411Y-75011010D01*
X83110158Y-74899068D01*
X82823260Y-74842000D01*
X82530740Y-74842000D01*
X82243842Y-74899068D01*
X81973589Y-75011010D01*
X81730368Y-75173525D01*
X81523525Y-75380368D01*
X81407000Y-75554760D01*
X81290475Y-75380368D01*
X81083632Y-75173525D01*
X80840411Y-75011010D01*
X80570158Y-74899068D01*
X80283260Y-74842000D01*
X79990740Y-74842000D01*
X79703842Y-74899068D01*
X79433589Y-75011010D01*
X79230508Y-75146704D01*
X74343653Y-70259849D01*
X76708000Y-70259849D01*
X76708000Y-70710151D01*
X76795850Y-71151802D01*
X76968173Y-71567827D01*
X77218348Y-71942240D01*
X77536760Y-72260652D01*
X77911173Y-72510827D01*
X78327198Y-72683150D01*
X78768849Y-72771000D01*
X79219151Y-72771000D01*
X79660802Y-72683150D01*
X80076827Y-72510827D01*
X80451240Y-72260652D01*
X80769652Y-71942240D01*
X81019827Y-71567827D01*
X81192150Y-71151802D01*
X81280000Y-70710151D01*
X81280000Y-70259849D01*
X81192150Y-69818198D01*
X81019827Y-69402173D01*
X80769652Y-69027760D01*
X80451240Y-68709348D01*
X80076827Y-68459173D01*
X79660802Y-68286850D01*
X79219151Y-68199000D01*
X78768849Y-68199000D01*
X78327198Y-68286850D01*
X77911173Y-68459173D01*
X77536760Y-68709348D01*
X77218348Y-69027760D01*
X76968173Y-69402173D01*
X76795850Y-69818198D01*
X76708000Y-70259849D01*
X74343653Y-70259849D01*
X73041806Y-68958003D01*
X73018003Y-68928999D01*
X72902278Y-68834026D01*
X72770249Y-68763454D01*
X72626988Y-68719997D01*
X72515335Y-68709000D01*
X72515324Y-68709000D01*
X72481072Y-68705626D01*
X72481072Y-68619000D01*
X72468812Y-68494518D01*
X72432502Y-68374820D01*
X72373537Y-68264506D01*
X72294185Y-68167815D01*
X72197494Y-68088463D01*
X72087180Y-68029498D01*
X72014620Y-68007487D01*
X72146475Y-67875632D01*
X72308990Y-67632411D01*
X72420932Y-67362158D01*
X72478000Y-67075260D01*
X72478000Y-66782740D01*
X72420932Y-66495842D01*
X72308990Y-66225589D01*
X72146475Y-65982368D01*
X71939632Y-65775525D01*
X71696411Y-65613010D01*
X71426158Y-65501068D01*
X71139260Y-65444000D01*
X70846740Y-65444000D01*
X70559842Y-65501068D01*
X70289589Y-65613010D01*
X70046368Y-65775525D01*
X69839525Y-65982368D01*
X69677010Y-66225589D01*
X69565068Y-66495842D01*
X69508000Y-66782740D01*
X69508000Y-67075260D01*
X69565068Y-67362158D01*
X69677010Y-67632411D01*
X69839525Y-67875632D01*
X69971380Y-68007487D01*
X69898820Y-68029498D01*
X69788506Y-68088463D01*
X69691815Y-68167815D01*
X69612463Y-68264506D01*
X69553498Y-68374820D01*
X69517188Y-68494518D01*
X69504928Y-68619000D01*
X69504928Y-70319000D01*
X69517188Y-70443482D01*
X69553498Y-70563180D01*
X69612463Y-70673494D01*
X69691815Y-70770185D01*
X69788506Y-70849537D01*
X69898820Y-70908502D01*
X70018518Y-70944812D01*
X70143000Y-70957072D01*
X71843000Y-70957072D01*
X71967482Y-70944812D01*
X72087180Y-70908502D01*
X72197494Y-70849537D01*
X72294185Y-70770185D01*
X72373537Y-70673494D01*
X72432502Y-70563180D01*
X72447602Y-70513401D01*
X76930091Y-74995891D01*
X76893589Y-75011010D01*
X76650368Y-75173525D01*
X76443525Y-75380368D01*
X76281010Y-75623589D01*
X76169068Y-75893842D01*
X76112000Y-76180740D01*
X76112000Y-76473260D01*
X76169068Y-76760158D01*
X76281010Y-77030411D01*
X76443525Y-77273632D01*
X76650368Y-77480475D01*
X76893589Y-77642990D01*
X77163842Y-77754932D01*
X77450740Y-77812000D01*
X77743260Y-77812000D01*
X78030158Y-77754932D01*
X78300411Y-77642990D01*
X78543632Y-77480475D01*
X78750475Y-77273632D01*
X78867000Y-77099240D01*
X78983525Y-77273632D01*
X79190368Y-77480475D01*
X79377000Y-77605179D01*
X79377001Y-83370288D01*
X79333063Y-83414226D01*
X79219795Y-83583744D01*
X79141774Y-83772102D01*
X79102000Y-83972061D01*
X79102000Y-84175939D01*
X79141774Y-84375898D01*
X79219795Y-84564256D01*
X79333063Y-84733774D01*
X79477226Y-84877937D01*
X79646744Y-84991205D01*
X79835102Y-85069226D01*
X80035061Y-85109000D01*
X80238939Y-85109000D01*
X80438898Y-85069226D01*
X80627256Y-84991205D01*
X80796774Y-84877937D01*
X80940937Y-84733774D01*
X81054205Y-84564256D01*
X81132226Y-84375898D01*
X81172000Y-84175939D01*
X81172000Y-83972061D01*
X81132226Y-83772102D01*
X81054205Y-83583744D01*
X80940937Y-83414226D01*
X80897000Y-83370289D01*
X80897000Y-77605178D01*
X81083632Y-77480475D01*
X81290475Y-77273632D01*
X81407000Y-77099240D01*
X81523525Y-77273632D01*
X81730368Y-77480475D01*
X81917001Y-77605179D01*
X81917000Y-86449678D01*
X81913324Y-86487000D01*
X81917000Y-86524322D01*
X81917000Y-86524332D01*
X81927997Y-86635985D01*
X81964201Y-86755335D01*
X81971454Y-86779246D01*
X82042026Y-86911276D01*
X82079348Y-86956753D01*
X82136999Y-87027001D01*
X82166003Y-87050804D01*
X84780201Y-89665003D01*
X84803999Y-89694001D01*
X84832997Y-89717799D01*
X84919724Y-89788974D01*
X85051753Y-89859546D01*
X85195014Y-89903003D01*
X85344000Y-89917677D01*
X85381333Y-89914000D01*
X104445957Y-89914000D01*
X104549363Y-90068759D01*
X104749241Y-90268637D01*
X104981759Y-90424000D01*
X104749241Y-90579363D01*
X104549363Y-90779241D01*
X104445957Y-90934000D01*
X85127333Y-90934000D01*
X85090000Y-90930323D01*
X85052667Y-90934000D01*
X84941014Y-90944997D01*
X84797753Y-90988454D01*
X84665724Y-91059026D01*
X84549999Y-91153999D01*
X84526201Y-91182997D01*
X70390271Y-105318928D01*
X69127000Y-105318928D01*
X69002518Y-105331188D01*
X68882820Y-105367498D01*
X68772506Y-105426463D01*
X68675815Y-105505815D01*
X68596463Y-105602506D01*
X68537498Y-105712820D01*
X68501188Y-105832518D01*
X68488928Y-105957000D01*
X68488928Y-107657000D01*
X68501188Y-107781482D01*
X68537498Y-107901180D01*
X68596463Y-108011494D01*
X68675815Y-108108185D01*
X68772506Y-108187537D01*
X68882820Y-108246502D01*
X69002518Y-108282812D01*
X69127000Y-108295072D01*
X70827000Y-108295072D01*
X70951482Y-108282812D01*
X71071180Y-108246502D01*
X71181494Y-108187537D01*
X71278185Y-108108185D01*
X71357537Y-108011494D01*
X71416502Y-107901180D01*
X71438513Y-107828620D01*
X71570368Y-107960475D01*
X71813589Y-108122990D01*
X72083842Y-108234932D01*
X72370740Y-108292000D01*
X72663260Y-108292000D01*
X72950158Y-108234932D01*
X73220411Y-108122990D01*
X73463632Y-107960475D01*
X73670475Y-107753632D01*
X73787000Y-107579240D01*
X73903525Y-107753632D01*
X74110368Y-107960475D01*
X74353589Y-108122990D01*
X74623842Y-108234932D01*
X74910740Y-108292000D01*
X75203260Y-108292000D01*
X75490158Y-108234932D01*
X75760411Y-108122990D01*
X76003632Y-107960475D01*
X76210475Y-107753632D01*
X76327000Y-107579240D01*
X76443525Y-107753632D01*
X76650368Y-107960475D01*
X76893589Y-108122990D01*
X77163842Y-108234932D01*
X77450740Y-108292000D01*
X77743260Y-108292000D01*
X78030158Y-108234932D01*
X78300411Y-108122990D01*
X78543632Y-107960475D01*
X78750475Y-107753632D01*
X78867000Y-107579240D01*
X78983525Y-107753632D01*
X79190368Y-107960475D01*
X79433589Y-108122990D01*
X79703842Y-108234932D01*
X79990740Y-108292000D01*
X80283260Y-108292000D01*
X80570158Y-108234932D01*
X80840411Y-108122990D01*
X81083632Y-107960475D01*
X81290475Y-107753632D01*
X81407000Y-107579240D01*
X81523525Y-107753632D01*
X81730368Y-107960475D01*
X81973589Y-108122990D01*
X82243842Y-108234932D01*
X82530740Y-108292000D01*
X82823260Y-108292000D01*
X83110158Y-108234932D01*
X83380411Y-108122990D01*
X83623632Y-107960475D01*
X83830475Y-107753632D01*
X83947000Y-107579240D01*
X84063525Y-107753632D01*
X84270368Y-107960475D01*
X84513589Y-108122990D01*
X84783842Y-108234932D01*
X85070740Y-108292000D01*
X85363260Y-108292000D01*
X85650158Y-108234932D01*
X85920411Y-108122990D01*
X86163632Y-107960475D01*
X86370475Y-107753632D01*
X86487000Y-107579240D01*
X86603525Y-107753632D01*
X86810368Y-107960475D01*
X87053589Y-108122990D01*
X87323842Y-108234932D01*
X87610740Y-108292000D01*
X87903260Y-108292000D01*
X88190158Y-108234932D01*
X88460411Y-108122990D01*
X88703632Y-107960475D01*
X88910475Y-107753632D01*
X89072990Y-107510411D01*
X89184932Y-107240158D01*
X89242000Y-106953260D01*
X89242000Y-106660740D01*
X89184932Y-106373842D01*
X89072990Y-106103589D01*
X88910475Y-105860368D01*
X88703632Y-105653525D01*
X88460411Y-105491010D01*
X88190158Y-105379068D01*
X87903260Y-105322000D01*
X87610740Y-105322000D01*
X87323842Y-105379068D01*
X87053589Y-105491010D01*
X86810368Y-105653525D01*
X86603525Y-105860368D01*
X86487000Y-106034760D01*
X86370475Y-105860368D01*
X86163632Y-105653525D01*
X85920411Y-105491010D01*
X85650158Y-105379068D01*
X85363260Y-105322000D01*
X85070740Y-105322000D01*
X84783842Y-105379068D01*
X84513589Y-105491010D01*
X84270368Y-105653525D01*
X84063525Y-105860368D01*
X83947000Y-106034760D01*
X83830475Y-105860368D01*
X83623632Y-105653525D01*
X83380411Y-105491010D01*
X83110158Y-105379068D01*
X82823260Y-105322000D01*
X82530740Y-105322000D01*
X82243842Y-105379068D01*
X81973589Y-105491010D01*
X81730368Y-105653525D01*
X81523525Y-105860368D01*
X81407000Y-106034760D01*
X81290475Y-105860368D01*
X81083632Y-105653525D01*
X80840411Y-105491010D01*
X80570158Y-105379068D01*
X80283260Y-105322000D01*
X79990740Y-105322000D01*
X79703842Y-105379068D01*
X79433589Y-105491010D01*
X79190368Y-105653525D01*
X78983525Y-105860368D01*
X78867000Y-106034760D01*
X78750475Y-105860368D01*
X78543632Y-105653525D01*
X78300411Y-105491010D01*
X78030158Y-105379068D01*
X77743260Y-105322000D01*
X77450740Y-105322000D01*
X77163842Y-105379068D01*
X76893589Y-105491010D01*
X76650368Y-105653525D01*
X76443525Y-105860368D01*
X76327000Y-106034760D01*
X76210475Y-105860368D01*
X76003632Y-105653525D01*
X75760411Y-105491010D01*
X75490158Y-105379068D01*
X75203260Y-105322000D01*
X75076801Y-105322000D01*
X75086952Y-105311849D01*
X91821000Y-105311849D01*
X91821000Y-105762151D01*
X91908850Y-106203802D01*
X92081173Y-106619827D01*
X92331348Y-106994240D01*
X92649760Y-107312652D01*
X93024173Y-107562827D01*
X93440198Y-107735150D01*
X93881849Y-107823000D01*
X94332151Y-107823000D01*
X94773802Y-107735150D01*
X95189827Y-107562827D01*
X95564240Y-107312652D01*
X95882652Y-106994240D01*
X96132827Y-106619827D01*
X96305150Y-106203802D01*
X96393000Y-105762151D01*
X96393000Y-105311849D01*
X96305150Y-104870198D01*
X96132827Y-104454173D01*
X95882652Y-104079760D01*
X95564240Y-103761348D01*
X95189827Y-103511173D01*
X94773802Y-103338850D01*
X94332151Y-103251000D01*
X93881849Y-103251000D01*
X93440198Y-103338850D01*
X93024173Y-103511173D01*
X92649760Y-103761348D01*
X92331348Y-104079760D01*
X92081173Y-104454173D01*
X91908850Y-104870198D01*
X91821000Y-105311849D01*
X75086952Y-105311849D01*
X85404802Y-94994000D01*
X104445957Y-94994000D01*
X104549363Y-95148759D01*
X104749241Y-95348637D01*
X104981759Y-95504000D01*
X104749241Y-95659363D01*
X104549363Y-95859241D01*
X104392320Y-96094273D01*
X104372965Y-96141000D01*
X100421072Y-96141000D01*
X100421072Y-96051000D01*
X100408812Y-95926518D01*
X100372502Y-95806820D01*
X100313537Y-95696506D01*
X100234185Y-95599815D01*
X100137494Y-95520463D01*
X100027180Y-95461498D01*
X99907482Y-95425188D01*
X99783000Y-95412928D01*
X98083000Y-95412928D01*
X97958518Y-95425188D01*
X97838820Y-95461498D01*
X97728506Y-95520463D01*
X97631815Y-95599815D01*
X97552463Y-95696506D01*
X97493498Y-95806820D01*
X97457188Y-95926518D01*
X97444928Y-96051000D01*
X97444928Y-97751000D01*
X97457188Y-97875482D01*
X97493498Y-97995180D01*
X97552463Y-98105494D01*
X97631815Y-98202185D01*
X97728506Y-98281537D01*
X97838820Y-98340502D01*
X97911380Y-98362513D01*
X97779525Y-98494368D01*
X97617010Y-98737589D01*
X97505068Y-99007842D01*
X97448000Y-99294740D01*
X97448000Y-99587260D01*
X97505068Y-99874158D01*
X97617010Y-100144411D01*
X97779525Y-100387632D01*
X97986368Y-100594475D01*
X98160760Y-100711000D01*
X97986368Y-100827525D01*
X97779525Y-101034368D01*
X97617010Y-101277589D01*
X97505068Y-101547842D01*
X97448000Y-101834740D01*
X97448000Y-102127260D01*
X97505068Y-102414158D01*
X97617010Y-102684411D01*
X97779525Y-102927632D01*
X97986368Y-103134475D01*
X98160760Y-103251000D01*
X97986368Y-103367525D01*
X97779525Y-103574368D01*
X97617010Y-103817589D01*
X97505068Y-104087842D01*
X97448000Y-104374740D01*
X97448000Y-104667260D01*
X97505068Y-104954158D01*
X97617010Y-105224411D01*
X97779525Y-105467632D01*
X97986368Y-105674475D01*
X98160760Y-105791000D01*
X97986368Y-105907525D01*
X97779525Y-106114368D01*
X97617010Y-106357589D01*
X97505068Y-106627842D01*
X97448000Y-106914740D01*
X97448000Y-107207260D01*
X97505068Y-107494158D01*
X97617010Y-107764411D01*
X97779525Y-108007632D01*
X97986368Y-108214475D01*
X98229589Y-108376990D01*
X98499842Y-108488932D01*
X98786740Y-108546000D01*
X99079260Y-108546000D01*
X99366158Y-108488932D01*
X99636411Y-108376990D01*
X99879632Y-108214475D01*
X100086475Y-108007632D01*
X100211178Y-107821000D01*
X104530815Y-107821000D01*
X104549363Y-107848759D01*
X104749241Y-108048637D01*
X104984273Y-108205680D01*
X105245426Y-108313853D01*
X105522665Y-108369000D01*
X105805335Y-108369000D01*
X106082574Y-108313853D01*
X106343727Y-108205680D01*
X106578759Y-108048637D01*
X106778637Y-107848759D01*
X106935680Y-107613727D01*
X107043853Y-107352574D01*
X107099000Y-107075335D01*
X107099000Y-106792665D01*
X107043853Y-106515426D01*
X106935680Y-106254273D01*
X106778637Y-106019241D01*
X106578759Y-105819363D01*
X106346241Y-105664000D01*
X106578759Y-105508637D01*
X106778637Y-105308759D01*
X106935680Y-105073727D01*
X107043853Y-104812574D01*
X107099000Y-104535335D01*
X107099000Y-104252665D01*
X107043853Y-103975426D01*
X106935680Y-103714273D01*
X106778637Y-103479241D01*
X106578759Y-103279363D01*
X106346241Y-103124000D01*
X106578759Y-102968637D01*
X106778637Y-102768759D01*
X106935680Y-102533727D01*
X107043853Y-102272574D01*
X107099000Y-101995335D01*
X107099000Y-101712665D01*
X107043853Y-101435426D01*
X106935680Y-101174273D01*
X106778637Y-100939241D01*
X106578759Y-100739363D01*
X106346241Y-100584000D01*
X106578759Y-100428637D01*
X106778637Y-100228759D01*
X106935680Y-99993727D01*
X107043853Y-99732574D01*
X107099000Y-99455335D01*
X107099000Y-99172665D01*
X107043853Y-98895426D01*
X106935680Y-98634273D01*
X106778637Y-98399241D01*
X106578759Y-98199363D01*
X106346241Y-98044000D01*
X106578759Y-97888637D01*
X106778637Y-97688759D01*
X106935680Y-97453727D01*
X107043853Y-97192574D01*
X107099000Y-96915335D01*
X107099000Y-96632665D01*
X107043853Y-96355426D01*
X106935680Y-96094273D01*
X106778637Y-95859241D01*
X106578759Y-95659363D01*
X106346241Y-95504000D01*
X106578759Y-95348637D01*
X106778637Y-95148759D01*
X106934000Y-94916241D01*
X107089363Y-95148759D01*
X107289241Y-95348637D01*
X107524273Y-95505680D01*
X107785426Y-95613853D01*
X108062665Y-95669000D01*
X108345335Y-95669000D01*
X108622574Y-95613853D01*
X108883727Y-95505680D01*
X109118759Y-95348637D01*
X109318637Y-95148759D01*
X109474000Y-94916241D01*
X109629363Y-95148759D01*
X109829241Y-95348637D01*
X110064273Y-95505680D01*
X110325426Y-95613853D01*
X110602665Y-95669000D01*
X110885335Y-95669000D01*
X111162574Y-95613853D01*
X111423727Y-95505680D01*
X111658759Y-95348637D01*
X111858637Y-95148759D01*
X112014000Y-94916241D01*
X112169363Y-95148759D01*
X112369241Y-95348637D01*
X112604273Y-95505680D01*
X112865426Y-95613853D01*
X113142665Y-95669000D01*
X113425335Y-95669000D01*
X113702574Y-95613853D01*
X113963727Y-95505680D01*
X114198759Y-95348637D01*
X114398637Y-95148759D01*
X114554000Y-94916241D01*
X114709363Y-95148759D01*
X114909241Y-95348637D01*
X115144273Y-95505680D01*
X115405426Y-95613853D01*
X115682665Y-95669000D01*
X115965335Y-95669000D01*
X116242574Y-95613853D01*
X116503727Y-95505680D01*
X116738759Y-95348637D01*
X116938637Y-95148759D01*
X117094000Y-94916241D01*
X117249363Y-95148759D01*
X117449241Y-95348637D01*
X117684273Y-95505680D01*
X117945426Y-95613853D01*
X118222665Y-95669000D01*
X118505335Y-95669000D01*
X118782574Y-95613853D01*
X119043727Y-95505680D01*
X119278759Y-95348637D01*
X119478637Y-95148759D01*
X119634000Y-94916241D01*
X119789363Y-95148759D01*
X119989241Y-95348637D01*
X120221759Y-95504000D01*
X119989241Y-95659363D01*
X119789363Y-95859241D01*
X119632320Y-96094273D01*
X119524147Y-96355426D01*
X119469000Y-96632665D01*
X119469000Y-96915335D01*
X119524147Y-97192574D01*
X119632320Y-97453727D01*
X119789363Y-97688759D01*
X119989241Y-97888637D01*
X120221759Y-98044000D01*
X119989241Y-98199363D01*
X119789363Y-98399241D01*
X119632320Y-98634273D01*
X119524147Y-98895426D01*
X119469000Y-99172665D01*
X119469000Y-99455335D01*
X119524147Y-99732574D01*
X119632320Y-99993727D01*
X119789363Y-100228759D01*
X119989241Y-100428637D01*
X120221759Y-100584000D01*
X119989241Y-100739363D01*
X119789363Y-100939241D01*
X119632320Y-101174273D01*
X119524147Y-101435426D01*
X119469000Y-101712665D01*
X119469000Y-101995335D01*
X119524147Y-102272574D01*
X119632320Y-102533727D01*
X119789363Y-102768759D01*
X119989241Y-102968637D01*
X120221759Y-103124000D01*
X119989241Y-103279363D01*
X119789363Y-103479241D01*
X119632320Y-103714273D01*
X119524147Y-103975426D01*
X119469000Y-104252665D01*
X119469000Y-104535335D01*
X119524147Y-104812574D01*
X119632320Y-105073727D01*
X119789363Y-105308759D01*
X119989241Y-105508637D01*
X120221759Y-105664000D01*
X119989241Y-105819363D01*
X119789363Y-106019241D01*
X119632320Y-106254273D01*
X119524147Y-106515426D01*
X119469000Y-106792665D01*
X119469000Y-107075335D01*
X119524147Y-107352574D01*
X119632320Y-107613727D01*
X119789363Y-107848759D01*
X119989241Y-108048637D01*
X120224273Y-108205680D01*
X120485426Y-108313853D01*
X120762665Y-108369000D01*
X121045335Y-108369000D01*
X121322574Y-108313853D01*
X121583727Y-108205680D01*
X121818759Y-108048637D01*
X122018637Y-107848759D01*
X122175680Y-107613727D01*
X122283853Y-107352574D01*
X122339000Y-107075335D01*
X122339000Y-106792665D01*
X122283853Y-106515426D01*
X122175680Y-106254273D01*
X122018637Y-106019241D01*
X121818759Y-105819363D01*
X121586241Y-105664000D01*
X121818759Y-105508637D01*
X122018637Y-105308759D01*
X122175680Y-105073727D01*
X122283853Y-104812574D01*
X122339000Y-104535335D01*
X122339000Y-104252665D01*
X122283853Y-103975426D01*
X122175680Y-103714273D01*
X122018637Y-103479241D01*
X121818759Y-103279363D01*
X121586241Y-103124000D01*
X121818759Y-102968637D01*
X122018637Y-102768759D01*
X122175680Y-102533727D01*
X122283853Y-102272574D01*
X122339000Y-101995335D01*
X122339000Y-101712665D01*
X122283853Y-101435426D01*
X122175680Y-101174273D01*
X122018637Y-100939241D01*
X121818759Y-100739363D01*
X121586241Y-100584000D01*
X121818759Y-100428637D01*
X122018637Y-100228759D01*
X122175680Y-99993727D01*
X122283853Y-99732574D01*
X122339000Y-99455335D01*
X122339000Y-99172665D01*
X122283853Y-98895426D01*
X122175680Y-98634273D01*
X122018637Y-98399241D01*
X121818759Y-98199363D01*
X121586241Y-98044000D01*
X121818759Y-97888637D01*
X122018637Y-97688759D01*
X122175680Y-97453727D01*
X122283853Y-97192574D01*
X122339000Y-96915335D01*
X122339000Y-96632665D01*
X122283853Y-96355426D01*
X122175680Y-96094273D01*
X122018637Y-95859241D01*
X121818759Y-95659363D01*
X121586241Y-95504000D01*
X121818759Y-95348637D01*
X122018637Y-95148759D01*
X122175680Y-94913727D01*
X122283853Y-94652574D01*
X122339000Y-94375335D01*
X122339000Y-94092665D01*
X122283853Y-93815426D01*
X122175680Y-93554273D01*
X122018637Y-93319241D01*
X121818759Y-93119363D01*
X121586241Y-92964000D01*
X121818759Y-92808637D01*
X122018637Y-92608759D01*
X122175680Y-92373727D01*
X122283853Y-92112574D01*
X122339000Y-91835335D01*
X122339000Y-91552665D01*
X122283853Y-91275426D01*
X122175680Y-91014273D01*
X122018637Y-90779241D01*
X121818759Y-90579363D01*
X121586241Y-90424000D01*
X121818759Y-90268637D01*
X122018637Y-90068759D01*
X122122043Y-89914000D01*
X123025678Y-89914000D01*
X123063000Y-89917676D01*
X123100322Y-89914000D01*
X123100333Y-89914000D01*
X123211986Y-89903003D01*
X123355247Y-89859546D01*
X123487276Y-89788974D01*
X123603001Y-89694001D01*
X123626804Y-89664997D01*
X125282802Y-88009000D01*
X125384928Y-88009000D01*
X125384928Y-88099000D01*
X125397188Y-88223482D01*
X125433498Y-88343180D01*
X125492463Y-88453494D01*
X125571815Y-88550185D01*
X125668506Y-88629537D01*
X125778820Y-88688502D01*
X125898518Y-88724812D01*
X126023000Y-88737072D01*
X127723000Y-88737072D01*
X127847482Y-88724812D01*
X127967180Y-88688502D01*
X128016000Y-88662407D01*
X128016000Y-106553000D01*
X127917849Y-106553000D01*
X127476198Y-106640850D01*
X127060173Y-106813173D01*
X126685760Y-107063348D01*
X126367348Y-107381760D01*
X126117173Y-107756173D01*
X125944850Y-108172198D01*
X125857000Y-108613849D01*
X125857000Y-109064151D01*
X125944850Y-109505802D01*
X126117173Y-109921827D01*
X126367348Y-110296240D01*
X126685760Y-110614652D01*
X127060173Y-110864827D01*
X127476198Y-111037150D01*
X127917849Y-111125000D01*
X128016000Y-111125000D01*
X128016000Y-111461177D01*
X62738000Y-111394972D01*
X62738000Y-46990000D01*
X76029773Y-46990000D01*
X76029724Y-46990026D01*
G37*
X76029724Y-46990026D02*
X75913999Y-47084999D01*
X75890201Y-47113997D01*
X74292003Y-48712196D01*
X74262999Y-48735999D01*
X74207871Y-48803174D01*
X74168026Y-48851724D01*
X74108649Y-48962810D01*
X74097454Y-48983754D01*
X74053997Y-49127015D01*
X74043000Y-49238668D01*
X74043000Y-49238678D01*
X74039324Y-49276000D01*
X74043000Y-49313323D01*
X74043001Y-50104197D01*
X72478000Y-51669198D01*
X72478000Y-51542740D01*
X72420932Y-51255842D01*
X72308990Y-50985589D01*
X72146475Y-50742368D01*
X71939632Y-50535525D01*
X71696411Y-50373010D01*
X71426158Y-50261068D01*
X71139260Y-50204000D01*
X70846740Y-50204000D01*
X70559842Y-50261068D01*
X70289589Y-50373010D01*
X70046368Y-50535525D01*
X69839525Y-50742368D01*
X69677010Y-50985589D01*
X69565068Y-51255842D01*
X69508000Y-51542740D01*
X69508000Y-51835260D01*
X69565068Y-52122158D01*
X69677010Y-52392411D01*
X69839525Y-52635632D01*
X70046368Y-52842475D01*
X70220760Y-52959000D01*
X70046368Y-53075525D01*
X69839525Y-53282368D01*
X69677010Y-53525589D01*
X69565068Y-53795842D01*
X69508000Y-54082740D01*
X69508000Y-54375260D01*
X69565068Y-54662158D01*
X69677010Y-54932411D01*
X69839525Y-55175632D01*
X70046368Y-55382475D01*
X70220760Y-55499000D01*
X70046368Y-55615525D01*
X69839525Y-55822368D01*
X69677010Y-56065589D01*
X69565068Y-56335842D01*
X69508000Y-56622740D01*
X69508000Y-56915260D01*
X69565068Y-57202158D01*
X69677010Y-57472411D01*
X69839525Y-57715632D01*
X70046368Y-57922475D01*
X70220760Y-58039000D01*
X70046368Y-58155525D01*
X69839525Y-58362368D01*
X69677010Y-58605589D01*
X69565068Y-58875842D01*
X69508000Y-59162740D01*
X69508000Y-59455260D01*
X69565068Y-59742158D01*
X69677010Y-60012411D01*
X69839525Y-60255632D01*
X70046368Y-60462475D01*
X70220760Y-60579000D01*
X70046368Y-60695525D01*
X69839525Y-60902368D01*
X69677010Y-61145589D01*
X69565068Y-61415842D01*
X69508000Y-61702740D01*
X69508000Y-61995260D01*
X69565068Y-62282158D01*
X69677010Y-62552411D01*
X69839525Y-62795632D01*
X70046368Y-63002475D01*
X70289589Y-63164990D01*
X70559842Y-63276932D01*
X70846740Y-63334000D01*
X71139260Y-63334000D01*
X71426158Y-63276932D01*
X71696411Y-63164990D01*
X71939632Y-63002475D01*
X72146475Y-62795632D01*
X72308990Y-62552411D01*
X72420932Y-62282158D01*
X72478000Y-61995260D01*
X72478000Y-61702740D01*
X72420932Y-61415842D01*
X72308990Y-61145589D01*
X72146475Y-60902368D01*
X71939632Y-60695525D01*
X71765240Y-60579000D01*
X71939632Y-60462475D01*
X72146475Y-60255632D01*
X72308990Y-60012411D01*
X72420932Y-59742158D01*
X72478000Y-59455260D01*
X72478000Y-59328801D01*
X76430201Y-63281003D01*
X76454000Y-63310002D01*
X76476767Y-63328687D01*
X76408010Y-63431589D01*
X76296068Y-63701842D01*
X76239000Y-63988740D01*
X76239000Y-64281260D01*
X76296068Y-64568158D01*
X76408010Y-64838411D01*
X76570525Y-65081632D01*
X76702380Y-65213487D01*
X76629820Y-65235498D01*
X76519506Y-65294463D01*
X76422815Y-65373815D01*
X76343463Y-65470506D01*
X76284498Y-65580820D01*
X76248188Y-65700518D01*
X76235928Y-65825000D01*
X76235928Y-67525000D01*
X76248188Y-67649482D01*
X76284498Y-67769180D01*
X76343463Y-67879494D01*
X76422815Y-67976185D01*
X76519506Y-68055537D01*
X76629820Y-68114502D01*
X76749518Y-68150812D01*
X76874000Y-68163072D01*
X78574000Y-68163072D01*
X78698482Y-68150812D01*
X78818180Y-68114502D01*
X78928494Y-68055537D01*
X79025185Y-67976185D01*
X79104537Y-67879494D01*
X79163502Y-67769180D01*
X79199812Y-67649482D01*
X79212072Y-67525000D01*
X79212072Y-65825000D01*
X79199812Y-65700518D01*
X79163502Y-65580820D01*
X79104537Y-65470506D01*
X79025185Y-65373815D01*
X78928494Y-65294463D01*
X78818180Y-65235498D01*
X78745620Y-65213487D01*
X78877475Y-65081632D01*
X79039990Y-64838411D01*
X79055110Y-64801909D01*
X84457001Y-70203801D01*
X84457000Y-73876677D01*
X84453324Y-73914000D01*
X84457000Y-73951322D01*
X84457000Y-73951332D01*
X84457001Y-73951342D01*
X84457001Y-75048821D01*
X84270368Y-75173525D01*
X84063525Y-75380368D01*
X83947000Y-75554760D01*
X83830475Y-75380368D01*
X83623632Y-75173525D01*
X83380411Y-75011010D01*
X83110158Y-74899068D01*
X82823260Y-74842000D01*
X82530740Y-74842000D01*
X82243842Y-74899068D01*
X81973589Y-75011010D01*
X81730368Y-75173525D01*
X81523525Y-75380368D01*
X81407000Y-75554760D01*
X81290475Y-75380368D01*
X81083632Y-75173525D01*
X80840411Y-75011010D01*
X80570158Y-74899068D01*
X80283260Y-74842000D01*
X79990740Y-74842000D01*
X79703842Y-74899068D01*
X79433589Y-75011010D01*
X79230508Y-75146704D01*
X74343653Y-70259849D01*
X76708000Y-70259849D01*
X76708000Y-70710151D01*
X76795850Y-71151802D01*
X76968173Y-71567827D01*
X77218348Y-71942240D01*
X77536760Y-72260652D01*
X77911173Y-72510827D01*
X78327198Y-72683150D01*
X78768849Y-72771000D01*
X79219151Y-72771000D01*
X79660802Y-72683150D01*
X80076827Y-72510827D01*
X80451240Y-72260652D01*
X80769652Y-71942240D01*
X81019827Y-71567827D01*
X81192150Y-71151802D01*
X81280000Y-70710151D01*
X81280000Y-70259849D01*
X81192150Y-69818198D01*
X81019827Y-69402173D01*
X80769652Y-69027760D01*
X80451240Y-68709348D01*
X80076827Y-68459173D01*
X79660802Y-68286850D01*
X79219151Y-68199000D01*
X78768849Y-68199000D01*
X78327198Y-68286850D01*
X77911173Y-68459173D01*
X77536760Y-68709348D01*
X77218348Y-69027760D01*
X76968173Y-69402173D01*
X76795850Y-69818198D01*
X76708000Y-70259849D01*
X74343653Y-70259849D01*
X73041806Y-68958003D01*
X73018003Y-68928999D01*
X72902278Y-68834026D01*
X72770249Y-68763454D01*
X72626988Y-68719997D01*
X72515335Y-68709000D01*
X72515324Y-68709000D01*
X72481072Y-68705626D01*
X72481072Y-68619000D01*
X72468812Y-68494518D01*
X72432502Y-68374820D01*
X72373537Y-68264506D01*
X72294185Y-68167815D01*
X72197494Y-68088463D01*
X72087180Y-68029498D01*
X72014620Y-68007487D01*
X72146475Y-67875632D01*
X72308990Y-67632411D01*
X72420932Y-67362158D01*
X72478000Y-67075260D01*
X72478000Y-66782740D01*
X72420932Y-66495842D01*
X72308990Y-66225589D01*
X72146475Y-65982368D01*
X71939632Y-65775525D01*
X71696411Y-65613010D01*
X71426158Y-65501068D01*
X71139260Y-65444000D01*
X70846740Y-65444000D01*
X70559842Y-65501068D01*
X70289589Y-65613010D01*
X70046368Y-65775525D01*
X69839525Y-65982368D01*
X69677010Y-66225589D01*
X69565068Y-66495842D01*
X69508000Y-66782740D01*
X69508000Y-67075260D01*
X69565068Y-67362158D01*
X69677010Y-67632411D01*
X69839525Y-67875632D01*
X69971380Y-68007487D01*
X69898820Y-68029498D01*
X69788506Y-68088463D01*
X69691815Y-68167815D01*
X69612463Y-68264506D01*
X69553498Y-68374820D01*
X69517188Y-68494518D01*
X69504928Y-68619000D01*
X69504928Y-70319000D01*
X69517188Y-70443482D01*
X69553498Y-70563180D01*
X69612463Y-70673494D01*
X69691815Y-70770185D01*
X69788506Y-70849537D01*
X69898820Y-70908502D01*
X70018518Y-70944812D01*
X70143000Y-70957072D01*
X71843000Y-70957072D01*
X71967482Y-70944812D01*
X72087180Y-70908502D01*
X72197494Y-70849537D01*
X72294185Y-70770185D01*
X72373537Y-70673494D01*
X72432502Y-70563180D01*
X72447602Y-70513401D01*
X76930091Y-74995891D01*
X76893589Y-75011010D01*
X76650368Y-75173525D01*
X76443525Y-75380368D01*
X76281010Y-75623589D01*
X76169068Y-75893842D01*
X76112000Y-76180740D01*
X76112000Y-76473260D01*
X76169068Y-76760158D01*
X76281010Y-77030411D01*
X76443525Y-77273632D01*
X76650368Y-77480475D01*
X76893589Y-77642990D01*
X77163842Y-77754932D01*
X77450740Y-77812000D01*
X77743260Y-77812000D01*
X78030158Y-77754932D01*
X78300411Y-77642990D01*
X78543632Y-77480475D01*
X78750475Y-77273632D01*
X78867000Y-77099240D01*
X78983525Y-77273632D01*
X79190368Y-77480475D01*
X79377000Y-77605179D01*
X79377001Y-83370288D01*
X79333063Y-83414226D01*
X79219795Y-83583744D01*
X79141774Y-83772102D01*
X79102000Y-83972061D01*
X79102000Y-84175939D01*
X79141774Y-84375898D01*
X79219795Y-84564256D01*
X79333063Y-84733774D01*
X79477226Y-84877937D01*
X79646744Y-84991205D01*
X79835102Y-85069226D01*
X80035061Y-85109000D01*
X80238939Y-85109000D01*
X80438898Y-85069226D01*
X80627256Y-84991205D01*
X80796774Y-84877937D01*
X80940937Y-84733774D01*
X81054205Y-84564256D01*
X81132226Y-84375898D01*
X81172000Y-84175939D01*
X81172000Y-83972061D01*
X81132226Y-83772102D01*
X81054205Y-83583744D01*
X80940937Y-83414226D01*
X80897000Y-83370289D01*
X80897000Y-77605178D01*
X81083632Y-77480475D01*
X81290475Y-77273632D01*
X81407000Y-77099240D01*
X81523525Y-77273632D01*
X81730368Y-77480475D01*
X81917001Y-77605179D01*
X81917000Y-86449678D01*
X81913324Y-86487000D01*
X81917000Y-86524322D01*
X81917000Y-86524332D01*
X81927997Y-86635985D01*
X81964201Y-86755335D01*
X81971454Y-86779246D01*
X82042026Y-86911276D01*
X82079348Y-86956753D01*
X82136999Y-87027001D01*
X82166003Y-87050804D01*
X84780201Y-89665003D01*
X84803999Y-89694001D01*
X84832997Y-89717799D01*
X84919724Y-89788974D01*
X85051753Y-89859546D01*
X85195014Y-89903003D01*
X85344000Y-89917677D01*
X85381333Y-89914000D01*
X104445957Y-89914000D01*
X104549363Y-90068759D01*
X104749241Y-90268637D01*
X104981759Y-90424000D01*
X104749241Y-90579363D01*
X104549363Y-90779241D01*
X104445957Y-90934000D01*
X85127333Y-90934000D01*
X85090000Y-90930323D01*
X85052667Y-90934000D01*
X84941014Y-90944997D01*
X84797753Y-90988454D01*
X84665724Y-91059026D01*
X84549999Y-91153999D01*
X84526201Y-91182997D01*
X70390271Y-105318928D01*
X69127000Y-105318928D01*
X69002518Y-105331188D01*
X68882820Y-105367498D01*
X68772506Y-105426463D01*
X68675815Y-105505815D01*
X68596463Y-105602506D01*
X68537498Y-105712820D01*
X68501188Y-105832518D01*
X68488928Y-105957000D01*
X68488928Y-107657000D01*
X68501188Y-107781482D01*
X68537498Y-107901180D01*
X68596463Y-108011494D01*
X68675815Y-108108185D01*
X68772506Y-108187537D01*
X68882820Y-108246502D01*
X69002518Y-108282812D01*
X69127000Y-108295072D01*
X70827000Y-108295072D01*
X70951482Y-108282812D01*
X71071180Y-108246502D01*
X71181494Y-108187537D01*
X71278185Y-108108185D01*
X71357537Y-108011494D01*
X71416502Y-107901180D01*
X71438513Y-107828620D01*
X71570368Y-107960475D01*
X71813589Y-108122990D01*
X72083842Y-108234932D01*
X72370740Y-108292000D01*
X72663260Y-108292000D01*
X72950158Y-108234932D01*
X73220411Y-108122990D01*
X73463632Y-107960475D01*
X73670475Y-107753632D01*
X73787000Y-107579240D01*
X73903525Y-107753632D01*
X74110368Y-107960475D01*
X74353589Y-108122990D01*
X74623842Y-108234932D01*
X74910740Y-108292000D01*
X75203260Y-108292000D01*
X75490158Y-108234932D01*
X75760411Y-108122990D01*
X76003632Y-107960475D01*
X76210475Y-107753632D01*
X76327000Y-107579240D01*
X76443525Y-107753632D01*
X76650368Y-107960475D01*
X76893589Y-108122990D01*
X77163842Y-108234932D01*
X77450740Y-108292000D01*
X77743260Y-108292000D01*
X78030158Y-108234932D01*
X78300411Y-108122990D01*
X78543632Y-107960475D01*
X78750475Y-107753632D01*
X78867000Y-107579240D01*
X78983525Y-107753632D01*
X79190368Y-107960475D01*
X79433589Y-108122990D01*
X79703842Y-108234932D01*
X79990740Y-108292000D01*
X80283260Y-108292000D01*
X80570158Y-108234932D01*
X80840411Y-108122990D01*
X81083632Y-107960475D01*
X81290475Y-107753632D01*
X81407000Y-107579240D01*
X81523525Y-107753632D01*
X81730368Y-107960475D01*
X81973589Y-108122990D01*
X82243842Y-108234932D01*
X82530740Y-108292000D01*
X82823260Y-108292000D01*
X83110158Y-108234932D01*
X83380411Y-108122990D01*
X83623632Y-107960475D01*
X83830475Y-107753632D01*
X83947000Y-107579240D01*
X84063525Y-107753632D01*
X84270368Y-107960475D01*
X84513589Y-108122990D01*
X84783842Y-108234932D01*
X85070740Y-108292000D01*
X85363260Y-108292000D01*
X85650158Y-108234932D01*
X85920411Y-108122990D01*
X86163632Y-107960475D01*
X86370475Y-107753632D01*
X86487000Y-107579240D01*
X86603525Y-107753632D01*
X86810368Y-107960475D01*
X87053589Y-108122990D01*
X87323842Y-108234932D01*
X87610740Y-108292000D01*
X87903260Y-108292000D01*
X88190158Y-108234932D01*
X88460411Y-108122990D01*
X88703632Y-107960475D01*
X88910475Y-107753632D01*
X89072990Y-107510411D01*
X89184932Y-107240158D01*
X89242000Y-106953260D01*
X89242000Y-106660740D01*
X89184932Y-106373842D01*
X89072990Y-106103589D01*
X88910475Y-105860368D01*
X88703632Y-105653525D01*
X88460411Y-105491010D01*
X88190158Y-105379068D01*
X87903260Y-105322000D01*
X87610740Y-105322000D01*
X87323842Y-105379068D01*
X87053589Y-105491010D01*
X86810368Y-105653525D01*
X86603525Y-105860368D01*
X86487000Y-106034760D01*
X86370475Y-105860368D01*
X86163632Y-105653525D01*
X85920411Y-105491010D01*
X85650158Y-105379068D01*
X85363260Y-105322000D01*
X85070740Y-105322000D01*
X84783842Y-105379068D01*
X84513589Y-105491010D01*
X84270368Y-105653525D01*
X84063525Y-105860368D01*
X83947000Y-106034760D01*
X83830475Y-105860368D01*
X83623632Y-105653525D01*
X83380411Y-105491010D01*
X83110158Y-105379068D01*
X82823260Y-105322000D01*
X82530740Y-105322000D01*
X82243842Y-105379068D01*
X81973589Y-105491010D01*
X81730368Y-105653525D01*
X81523525Y-105860368D01*
X81407000Y-106034760D01*
X81290475Y-105860368D01*
X81083632Y-105653525D01*
X80840411Y-105491010D01*
X80570158Y-105379068D01*
X80283260Y-105322000D01*
X79990740Y-105322000D01*
X79703842Y-105379068D01*
X79433589Y-105491010D01*
X79190368Y-105653525D01*
X78983525Y-105860368D01*
X78867000Y-106034760D01*
X78750475Y-105860368D01*
X78543632Y-105653525D01*
X78300411Y-105491010D01*
X78030158Y-105379068D01*
X77743260Y-105322000D01*
X77450740Y-105322000D01*
X77163842Y-105379068D01*
X76893589Y-105491010D01*
X76650368Y-105653525D01*
X76443525Y-105860368D01*
X76327000Y-106034760D01*
X76210475Y-105860368D01*
X76003632Y-105653525D01*
X75760411Y-105491010D01*
X75490158Y-105379068D01*
X75203260Y-105322000D01*
X75076801Y-105322000D01*
X75086952Y-105311849D01*
X91821000Y-105311849D01*
X91821000Y-105762151D01*
X91908850Y-106203802D01*
X92081173Y-106619827D01*
X92331348Y-106994240D01*
X92649760Y-107312652D01*
X93024173Y-107562827D01*
X93440198Y-107735150D01*
X93881849Y-107823000D01*
X94332151Y-107823000D01*
X94773802Y-107735150D01*
X95189827Y-107562827D01*
X95564240Y-107312652D01*
X95882652Y-106994240D01*
X96132827Y-106619827D01*
X96305150Y-106203802D01*
X96393000Y-105762151D01*
X96393000Y-105311849D01*
X96305150Y-104870198D01*
X96132827Y-104454173D01*
X95882652Y-104079760D01*
X95564240Y-103761348D01*
X95189827Y-103511173D01*
X94773802Y-103338850D01*
X94332151Y-103251000D01*
X93881849Y-103251000D01*
X93440198Y-103338850D01*
X93024173Y-103511173D01*
X92649760Y-103761348D01*
X92331348Y-104079760D01*
X92081173Y-104454173D01*
X91908850Y-104870198D01*
X91821000Y-105311849D01*
X75086952Y-105311849D01*
X85404802Y-94994000D01*
X104445957Y-94994000D01*
X104549363Y-95148759D01*
X104749241Y-95348637D01*
X104981759Y-95504000D01*
X104749241Y-95659363D01*
X104549363Y-95859241D01*
X104392320Y-96094273D01*
X104372965Y-96141000D01*
X100421072Y-96141000D01*
X100421072Y-96051000D01*
X100408812Y-95926518D01*
X100372502Y-95806820D01*
X100313537Y-95696506D01*
X100234185Y-95599815D01*
X100137494Y-95520463D01*
X100027180Y-95461498D01*
X99907482Y-95425188D01*
X99783000Y-95412928D01*
X98083000Y-95412928D01*
X97958518Y-95425188D01*
X97838820Y-95461498D01*
X97728506Y-95520463D01*
X97631815Y-95599815D01*
X97552463Y-95696506D01*
X97493498Y-95806820D01*
X97457188Y-95926518D01*
X97444928Y-96051000D01*
X97444928Y-97751000D01*
X97457188Y-97875482D01*
X97493498Y-97995180D01*
X97552463Y-98105494D01*
X97631815Y-98202185D01*
X97728506Y-98281537D01*
X97838820Y-98340502D01*
X97911380Y-98362513D01*
X97779525Y-98494368D01*
X97617010Y-98737589D01*
X97505068Y-99007842D01*
X97448000Y-99294740D01*
X97448000Y-99587260D01*
X97505068Y-99874158D01*
X97617010Y-100144411D01*
X97779525Y-100387632D01*
X97986368Y-100594475D01*
X98160760Y-100711000D01*
X97986368Y-100827525D01*
X97779525Y-101034368D01*
X97617010Y-101277589D01*
X97505068Y-101547842D01*
X97448000Y-101834740D01*
X97448000Y-102127260D01*
X97505068Y-102414158D01*
X97617010Y-102684411D01*
X97779525Y-102927632D01*
X97986368Y-103134475D01*
X98160760Y-103251000D01*
X97986368Y-103367525D01*
X97779525Y-103574368D01*
X97617010Y-103817589D01*
X97505068Y-104087842D01*
X97448000Y-104374740D01*
X97448000Y-104667260D01*
X97505068Y-104954158D01*
X97617010Y-105224411D01*
X97779525Y-105467632D01*
X97986368Y-105674475D01*
X98160760Y-105791000D01*
X97986368Y-105907525D01*
X97779525Y-106114368D01*
X97617010Y-106357589D01*
X97505068Y-106627842D01*
X97448000Y-106914740D01*
X97448000Y-107207260D01*
X97505068Y-107494158D01*
X97617010Y-107764411D01*
X97779525Y-108007632D01*
X97986368Y-108214475D01*
X98229589Y-108376990D01*
X98499842Y-108488932D01*
X98786740Y-108546000D01*
X99079260Y-108546000D01*
X99366158Y-108488932D01*
X99636411Y-108376990D01*
X99879632Y-108214475D01*
X100086475Y-108007632D01*
X100211178Y-107821000D01*
X104530815Y-107821000D01*
X104549363Y-107848759D01*
X104749241Y-108048637D01*
X104984273Y-108205680D01*
X105245426Y-108313853D01*
X105522665Y-108369000D01*
X105805335Y-108369000D01*
X106082574Y-108313853D01*
X106343727Y-108205680D01*
X106578759Y-108048637D01*
X106778637Y-107848759D01*
X106935680Y-107613727D01*
X107043853Y-107352574D01*
X107099000Y-107075335D01*
X107099000Y-106792665D01*
X107043853Y-106515426D01*
X106935680Y-106254273D01*
X106778637Y-106019241D01*
X106578759Y-105819363D01*
X106346241Y-105664000D01*
X106578759Y-105508637D01*
X106778637Y-105308759D01*
X106935680Y-105073727D01*
X107043853Y-104812574D01*
X107099000Y-104535335D01*
X107099000Y-104252665D01*
X107043853Y-103975426D01*
X106935680Y-103714273D01*
X106778637Y-103479241D01*
X106578759Y-103279363D01*
X106346241Y-103124000D01*
X106578759Y-102968637D01*
X106778637Y-102768759D01*
X106935680Y-102533727D01*
X107043853Y-102272574D01*
X107099000Y-101995335D01*
X107099000Y-101712665D01*
X107043853Y-101435426D01*
X106935680Y-101174273D01*
X106778637Y-100939241D01*
X106578759Y-100739363D01*
X106346241Y-100584000D01*
X106578759Y-100428637D01*
X106778637Y-100228759D01*
X106935680Y-99993727D01*
X107043853Y-99732574D01*
X107099000Y-99455335D01*
X107099000Y-99172665D01*
X107043853Y-98895426D01*
X106935680Y-98634273D01*
X106778637Y-98399241D01*
X106578759Y-98199363D01*
X106346241Y-98044000D01*
X106578759Y-97888637D01*
X106778637Y-97688759D01*
X106935680Y-97453727D01*
X107043853Y-97192574D01*
X107099000Y-96915335D01*
X107099000Y-96632665D01*
X107043853Y-96355426D01*
X106935680Y-96094273D01*
X106778637Y-95859241D01*
X106578759Y-95659363D01*
X106346241Y-95504000D01*
X106578759Y-95348637D01*
X106778637Y-95148759D01*
X106934000Y-94916241D01*
X107089363Y-95148759D01*
X107289241Y-95348637D01*
X107524273Y-95505680D01*
X107785426Y-95613853D01*
X108062665Y-95669000D01*
X108345335Y-95669000D01*
X108622574Y-95613853D01*
X108883727Y-95505680D01*
X109118759Y-95348637D01*
X109318637Y-95148759D01*
X109474000Y-94916241D01*
X109629363Y-95148759D01*
X109829241Y-95348637D01*
X110064273Y-95505680D01*
X110325426Y-95613853D01*
X110602665Y-95669000D01*
X110885335Y-95669000D01*
X111162574Y-95613853D01*
X111423727Y-95505680D01*
X111658759Y-95348637D01*
X111858637Y-95148759D01*
X112014000Y-94916241D01*
X112169363Y-95148759D01*
X112369241Y-95348637D01*
X112604273Y-95505680D01*
X112865426Y-95613853D01*
X113142665Y-95669000D01*
X113425335Y-95669000D01*
X113702574Y-95613853D01*
X113963727Y-95505680D01*
X114198759Y-95348637D01*
X114398637Y-95148759D01*
X114554000Y-94916241D01*
X114709363Y-95148759D01*
X114909241Y-95348637D01*
X115144273Y-95505680D01*
X115405426Y-95613853D01*
X115682665Y-95669000D01*
X115965335Y-95669000D01*
X116242574Y-95613853D01*
X116503727Y-95505680D01*
X116738759Y-95348637D01*
X116938637Y-95148759D01*
X117094000Y-94916241D01*
X117249363Y-95148759D01*
X117449241Y-95348637D01*
X117684273Y-95505680D01*
X117945426Y-95613853D01*
X118222665Y-95669000D01*
X118505335Y-95669000D01*
X118782574Y-95613853D01*
X119043727Y-95505680D01*
X119278759Y-95348637D01*
X119478637Y-95148759D01*
X119634000Y-94916241D01*
X119789363Y-95148759D01*
X119989241Y-95348637D01*
X120221759Y-95504000D01*
X119989241Y-95659363D01*
X119789363Y-95859241D01*
X119632320Y-96094273D01*
X119524147Y-96355426D01*
X119469000Y-96632665D01*
X119469000Y-96915335D01*
X119524147Y-97192574D01*
X119632320Y-97453727D01*
X119789363Y-97688759D01*
X119989241Y-97888637D01*
X120221759Y-98044000D01*
X119989241Y-98199363D01*
X119789363Y-98399241D01*
X119632320Y-98634273D01*
X119524147Y-98895426D01*
X119469000Y-99172665D01*
X119469000Y-99455335D01*
X119524147Y-99732574D01*
X119632320Y-99993727D01*
X119789363Y-100228759D01*
X119989241Y-100428637D01*
X120221759Y-100584000D01*
X119989241Y-100739363D01*
X119789363Y-100939241D01*
X119632320Y-101174273D01*
X119524147Y-101435426D01*
X119469000Y-101712665D01*
X119469000Y-101995335D01*
X119524147Y-102272574D01*
X119632320Y-102533727D01*
X119789363Y-102768759D01*
X119989241Y-102968637D01*
X120221759Y-103124000D01*
X119989241Y-103279363D01*
X119789363Y-103479241D01*
X119632320Y-103714273D01*
X119524147Y-103975426D01*
X119469000Y-104252665D01*
X119469000Y-104535335D01*
X119524147Y-104812574D01*
X119632320Y-105073727D01*
X119789363Y-105308759D01*
X119989241Y-105508637D01*
X120221759Y-105664000D01*
X119989241Y-105819363D01*
X119789363Y-106019241D01*
X119632320Y-106254273D01*
X119524147Y-106515426D01*
X119469000Y-106792665D01*
X119469000Y-107075335D01*
X119524147Y-107352574D01*
X119632320Y-107613727D01*
X119789363Y-107848759D01*
X119989241Y-108048637D01*
X120224273Y-108205680D01*
X120485426Y-108313853D01*
X120762665Y-108369000D01*
X121045335Y-108369000D01*
X121322574Y-108313853D01*
X121583727Y-108205680D01*
X121818759Y-108048637D01*
X122018637Y-107848759D01*
X122175680Y-107613727D01*
X122283853Y-107352574D01*
X122339000Y-107075335D01*
X122339000Y-106792665D01*
X122283853Y-106515426D01*
X122175680Y-106254273D01*
X122018637Y-106019241D01*
X121818759Y-105819363D01*
X121586241Y-105664000D01*
X121818759Y-105508637D01*
X122018637Y-105308759D01*
X122175680Y-105073727D01*
X122283853Y-104812574D01*
X122339000Y-104535335D01*
X122339000Y-104252665D01*
X122283853Y-103975426D01*
X122175680Y-103714273D01*
X122018637Y-103479241D01*
X121818759Y-103279363D01*
X121586241Y-103124000D01*
X121818759Y-102968637D01*
X122018637Y-102768759D01*
X122175680Y-102533727D01*
X122283853Y-102272574D01*
X122339000Y-101995335D01*
X122339000Y-101712665D01*
X122283853Y-101435426D01*
X122175680Y-101174273D01*
X122018637Y-100939241D01*
X121818759Y-100739363D01*
X121586241Y-100584000D01*
X121818759Y-100428637D01*
X122018637Y-100228759D01*
X122175680Y-99993727D01*
X122283853Y-99732574D01*
X122339000Y-99455335D01*
X122339000Y-99172665D01*
X122283853Y-98895426D01*
X122175680Y-98634273D01*
X122018637Y-98399241D01*
X121818759Y-98199363D01*
X121586241Y-98044000D01*
X121818759Y-97888637D01*
X122018637Y-97688759D01*
X122175680Y-97453727D01*
X122283853Y-97192574D01*
X122339000Y-96915335D01*
X122339000Y-96632665D01*
X122283853Y-96355426D01*
X122175680Y-96094273D01*
X122018637Y-95859241D01*
X121818759Y-95659363D01*
X121586241Y-95504000D01*
X121818759Y-95348637D01*
X122018637Y-95148759D01*
X122175680Y-94913727D01*
X122283853Y-94652574D01*
X122339000Y-94375335D01*
X122339000Y-94092665D01*
X122283853Y-93815426D01*
X122175680Y-93554273D01*
X122018637Y-93319241D01*
X121818759Y-93119363D01*
X121586241Y-92964000D01*
X121818759Y-92808637D01*
X122018637Y-92608759D01*
X122175680Y-92373727D01*
X122283853Y-92112574D01*
X122339000Y-91835335D01*
X122339000Y-91552665D01*
X122283853Y-91275426D01*
X122175680Y-91014273D01*
X122018637Y-90779241D01*
X121818759Y-90579363D01*
X121586241Y-90424000D01*
X121818759Y-90268637D01*
X122018637Y-90068759D01*
X122122043Y-89914000D01*
X123025678Y-89914000D01*
X123063000Y-89917676D01*
X123100322Y-89914000D01*
X123100333Y-89914000D01*
X123211986Y-89903003D01*
X123355247Y-89859546D01*
X123487276Y-89788974D01*
X123603001Y-89694001D01*
X123626804Y-89664997D01*
X125282802Y-88009000D01*
X125384928Y-88009000D01*
X125384928Y-88099000D01*
X125397188Y-88223482D01*
X125433498Y-88343180D01*
X125492463Y-88453494D01*
X125571815Y-88550185D01*
X125668506Y-88629537D01*
X125778820Y-88688502D01*
X125898518Y-88724812D01*
X126023000Y-88737072D01*
X127723000Y-88737072D01*
X127847482Y-88724812D01*
X127967180Y-88688502D01*
X128016000Y-88662407D01*
X128016000Y-106553000D01*
X127917849Y-106553000D01*
X127476198Y-106640850D01*
X127060173Y-106813173D01*
X126685760Y-107063348D01*
X126367348Y-107381760D01*
X126117173Y-107756173D01*
X125944850Y-108172198D01*
X125857000Y-108613849D01*
X125857000Y-109064151D01*
X125944850Y-109505802D01*
X126117173Y-109921827D01*
X126367348Y-110296240D01*
X126685760Y-110614652D01*
X127060173Y-110864827D01*
X127476198Y-111037150D01*
X127917849Y-111125000D01*
X128016000Y-111125000D01*
X128016000Y-111461177D01*
X62738000Y-111394972D01*
X62738000Y-46990000D01*
X76029773Y-46990000D01*
X76029724Y-46990026D01*
G36*
X125388000Y-79482740D02*
G01*
X125388000Y-79775260D01*
X125445068Y-80062158D01*
X125557010Y-80332411D01*
X125719525Y-80575632D01*
X125926368Y-80782475D01*
X126100760Y-80899000D01*
X125926368Y-81015525D01*
X125719525Y-81222368D01*
X125557010Y-81465589D01*
X125445068Y-81735842D01*
X125388000Y-82022740D01*
X125388000Y-82315260D01*
X125445068Y-82602158D01*
X125557010Y-82872411D01*
X125719525Y-83115632D01*
X125926368Y-83322475D01*
X126100760Y-83439000D01*
X125926368Y-83555525D01*
X125719525Y-83762368D01*
X125594822Y-83949000D01*
X124751323Y-83949000D01*
X124714000Y-83945324D01*
X124676677Y-83949000D01*
X124676667Y-83949000D01*
X124565014Y-83959997D01*
X124421753Y-84003454D01*
X124289724Y-84074026D01*
X124173999Y-84168999D01*
X124150201Y-84197997D01*
X122494199Y-85854000D01*
X122122043Y-85854000D01*
X122018637Y-85699241D01*
X121818759Y-85499363D01*
X121583727Y-85342320D01*
X121322574Y-85234147D01*
X121045335Y-85179000D01*
X120762665Y-85179000D01*
X120485426Y-85234147D01*
X120224273Y-85342320D01*
X119989241Y-85499363D01*
X119789363Y-85699241D01*
X119632320Y-85934273D01*
X119524147Y-86195426D01*
X119469000Y-86472665D01*
X119469000Y-86755335D01*
X119524147Y-87032574D01*
X119632320Y-87293727D01*
X119789363Y-87528759D01*
X119989241Y-87728637D01*
X120221759Y-87884000D01*
X119989241Y-88039363D01*
X119789363Y-88239241D01*
X119632320Y-88474273D01*
X119524147Y-88735426D01*
X119469000Y-89012665D01*
X119469000Y-89295335D01*
X119524147Y-89572574D01*
X119632320Y-89833727D01*
X119789363Y-90068759D01*
X119989241Y-90268637D01*
X120221759Y-90424000D01*
X119989241Y-90579363D01*
X119789363Y-90779241D01*
X119632320Y-91014273D01*
X119524147Y-91275426D01*
X119469000Y-91552665D01*
X119469000Y-91835335D01*
X119524147Y-92112574D01*
X119632320Y-92373727D01*
X119789363Y-92608759D01*
X119989241Y-92808637D01*
X120221759Y-92964000D01*
X119989241Y-93119363D01*
X119789363Y-93319241D01*
X119634000Y-93551759D01*
X119478637Y-93319241D01*
X119278759Y-93119363D01*
X119043727Y-92962320D01*
X118782574Y-92854147D01*
X118505335Y-92799000D01*
X118222665Y-92799000D01*
X117945426Y-92854147D01*
X117684273Y-92962320D01*
X117449241Y-93119363D01*
X117249363Y-93319241D01*
X117094000Y-93551759D01*
X116938637Y-93319241D01*
X116738759Y-93119363D01*
X116503727Y-92962320D01*
X116242574Y-92854147D01*
X115965335Y-92799000D01*
X115682665Y-92799000D01*
X115405426Y-92854147D01*
X115144273Y-92962320D01*
X114909241Y-93119363D01*
X114709363Y-93319241D01*
X114554000Y-93551759D01*
X114398637Y-93319241D01*
X114198759Y-93119363D01*
X113963727Y-92962320D01*
X113702574Y-92854147D01*
X113425335Y-92799000D01*
X113142665Y-92799000D01*
X112865426Y-92854147D01*
X112604273Y-92962320D01*
X112369241Y-93119363D01*
X112169363Y-93319241D01*
X112014000Y-93551759D01*
X111858637Y-93319241D01*
X111658759Y-93119363D01*
X111423727Y-92962320D01*
X111162574Y-92854147D01*
X110885335Y-92799000D01*
X110602665Y-92799000D01*
X110325426Y-92854147D01*
X110064273Y-92962320D01*
X109829241Y-93119363D01*
X109629363Y-93319241D01*
X109474000Y-93551759D01*
X109318637Y-93319241D01*
X109118759Y-93119363D01*
X108883727Y-92962320D01*
X108622574Y-92854147D01*
X108345335Y-92799000D01*
X108062665Y-92799000D01*
X107785426Y-92854147D01*
X107524273Y-92962320D01*
X107289241Y-93119363D01*
X107089363Y-93319241D01*
X106934000Y-93551759D01*
X106778637Y-93319241D01*
X106578759Y-93119363D01*
X106346241Y-92964000D01*
X106578759Y-92808637D01*
X106778637Y-92608759D01*
X106935680Y-92373727D01*
X107043853Y-92112574D01*
X107099000Y-91835335D01*
X107099000Y-91552665D01*
X107043853Y-91275426D01*
X106935680Y-91014273D01*
X106778637Y-90779241D01*
X106578759Y-90579363D01*
X106346241Y-90424000D01*
X106578759Y-90268637D01*
X106778637Y-90068759D01*
X106935680Y-89833727D01*
X107043853Y-89572574D01*
X107099000Y-89295335D01*
X107099000Y-89012665D01*
X107043853Y-88735426D01*
X106935680Y-88474273D01*
X106778637Y-88239241D01*
X106578759Y-88039363D01*
X106346241Y-87884000D01*
X106578759Y-87728637D01*
X106778637Y-87528759D01*
X106935680Y-87293727D01*
X107043853Y-87032574D01*
X107099000Y-86755335D01*
X107099000Y-86472665D01*
X107043853Y-86195426D01*
X106935680Y-85934273D01*
X106778637Y-85699241D01*
X106578759Y-85499363D01*
X106346241Y-85344000D01*
X106578759Y-85188637D01*
X106778637Y-84988759D01*
X106935680Y-84753727D01*
X107043853Y-84492574D01*
X107099000Y-84215335D01*
X107099000Y-83932665D01*
X107043853Y-83655426D01*
X106935680Y-83394273D01*
X106778637Y-83159241D01*
X106578759Y-82959363D01*
X106346241Y-82804000D01*
X106578759Y-82648637D01*
X106778637Y-82448759D01*
X106882043Y-82294000D01*
X117541199Y-82294000D01*
X118562201Y-83315003D01*
X118585999Y-83344001D01*
X118701724Y-83438974D01*
X118833753Y-83509546D01*
X118977014Y-83553003D01*
X119088667Y-83564000D01*
X119088676Y-83564000D01*
X119125999Y-83567676D01*
X119163322Y-83564000D01*
X122644678Y-83564000D01*
X122682000Y-83567676D01*
X122719322Y-83564000D01*
X122719333Y-83564000D01*
X122830986Y-83553003D01*
X122974247Y-83509546D01*
X123106276Y-83438974D01*
X123222001Y-83344001D01*
X123245803Y-83314998D01*
X124717009Y-81843794D01*
X124746001Y-81820001D01*
X124769795Y-81791008D01*
X124769799Y-81791004D01*
X124840973Y-81704277D01*
X124840974Y-81704276D01*
X124911546Y-81572247D01*
X124955003Y-81428986D01*
X124966000Y-81317333D01*
X124966000Y-81317324D01*
X124969676Y-81280001D01*
X124966000Y-81242678D01*
X124966000Y-79689801D01*
X125441370Y-79214431D01*
X125388000Y-79482740D01*
G37*
X125388000Y-79482740D02*
X125388000Y-79775260D01*
X125445068Y-80062158D01*
X125557010Y-80332411D01*
X125719525Y-80575632D01*
X125926368Y-80782475D01*
X126100760Y-80899000D01*
X125926368Y-81015525D01*
X125719525Y-81222368D01*
X125557010Y-81465589D01*
X125445068Y-81735842D01*
X125388000Y-82022740D01*
X125388000Y-82315260D01*
X125445068Y-82602158D01*
X125557010Y-82872411D01*
X125719525Y-83115632D01*
X125926368Y-83322475D01*
X126100760Y-83439000D01*
X125926368Y-83555525D01*
X125719525Y-83762368D01*
X125594822Y-83949000D01*
X124751323Y-83949000D01*
X124714000Y-83945324D01*
X124676677Y-83949000D01*
X124676667Y-83949000D01*
X124565014Y-83959997D01*
X124421753Y-84003454D01*
X124289724Y-84074026D01*
X124173999Y-84168999D01*
X124150201Y-84197997D01*
X122494199Y-85854000D01*
X122122043Y-85854000D01*
X122018637Y-85699241D01*
X121818759Y-85499363D01*
X121583727Y-85342320D01*
X121322574Y-85234147D01*
X121045335Y-85179000D01*
X120762665Y-85179000D01*
X120485426Y-85234147D01*
X120224273Y-85342320D01*
X119989241Y-85499363D01*
X119789363Y-85699241D01*
X119632320Y-85934273D01*
X119524147Y-86195426D01*
X119469000Y-86472665D01*
X119469000Y-86755335D01*
X119524147Y-87032574D01*
X119632320Y-87293727D01*
X119789363Y-87528759D01*
X119989241Y-87728637D01*
X120221759Y-87884000D01*
X119989241Y-88039363D01*
X119789363Y-88239241D01*
X119632320Y-88474273D01*
X119524147Y-88735426D01*
X119469000Y-89012665D01*
X119469000Y-89295335D01*
X119524147Y-89572574D01*
X119632320Y-89833727D01*
X119789363Y-90068759D01*
X119989241Y-90268637D01*
X120221759Y-90424000D01*
X119989241Y-90579363D01*
X119789363Y-90779241D01*
X119632320Y-91014273D01*
X119524147Y-91275426D01*
X119469000Y-91552665D01*
X119469000Y-91835335D01*
X119524147Y-92112574D01*
X119632320Y-92373727D01*
X119789363Y-92608759D01*
X119989241Y-92808637D01*
X120221759Y-92964000D01*
X119989241Y-93119363D01*
X119789363Y-93319241D01*
X119634000Y-93551759D01*
X119478637Y-93319241D01*
X119278759Y-93119363D01*
X119043727Y-92962320D01*
X118782574Y-92854147D01*
X118505335Y-92799000D01*
X118222665Y-92799000D01*
X117945426Y-92854147D01*
X117684273Y-92962320D01*
X117449241Y-93119363D01*
X117249363Y-93319241D01*
X117094000Y-93551759D01*
X116938637Y-93319241D01*
X116738759Y-93119363D01*
X116503727Y-92962320D01*
X116242574Y-92854147D01*
X115965335Y-92799000D01*
X115682665Y-92799000D01*
X115405426Y-92854147D01*
X115144273Y-92962320D01*
X114909241Y-93119363D01*
X114709363Y-93319241D01*
X114554000Y-93551759D01*
X114398637Y-93319241D01*
X114198759Y-93119363D01*
X113963727Y-92962320D01*
X113702574Y-92854147D01*
X113425335Y-92799000D01*
X113142665Y-92799000D01*
X112865426Y-92854147D01*
X112604273Y-92962320D01*
X112369241Y-93119363D01*
X112169363Y-93319241D01*
X112014000Y-93551759D01*
X111858637Y-93319241D01*
X111658759Y-93119363D01*
X111423727Y-92962320D01*
X111162574Y-92854147D01*
X110885335Y-92799000D01*
X110602665Y-92799000D01*
X110325426Y-92854147D01*
X110064273Y-92962320D01*
X109829241Y-93119363D01*
X109629363Y-93319241D01*
X109474000Y-93551759D01*
X109318637Y-93319241D01*
X109118759Y-93119363D01*
X108883727Y-92962320D01*
X108622574Y-92854147D01*
X108345335Y-92799000D01*
X108062665Y-92799000D01*
X107785426Y-92854147D01*
X107524273Y-92962320D01*
X107289241Y-93119363D01*
X107089363Y-93319241D01*
X106934000Y-93551759D01*
X106778637Y-93319241D01*
X106578759Y-93119363D01*
X106346241Y-92964000D01*
X106578759Y-92808637D01*
X106778637Y-92608759D01*
X106935680Y-92373727D01*
X107043853Y-92112574D01*
X107099000Y-91835335D01*
X107099000Y-91552665D01*
X107043853Y-91275426D01*
X106935680Y-91014273D01*
X106778637Y-90779241D01*
X106578759Y-90579363D01*
X106346241Y-90424000D01*
X106578759Y-90268637D01*
X106778637Y-90068759D01*
X106935680Y-89833727D01*
X107043853Y-89572574D01*
X107099000Y-89295335D01*
X107099000Y-89012665D01*
X107043853Y-88735426D01*
X106935680Y-88474273D01*
X106778637Y-88239241D01*
X106578759Y-88039363D01*
X106346241Y-87884000D01*
X106578759Y-87728637D01*
X106778637Y-87528759D01*
X106935680Y-87293727D01*
X107043853Y-87032574D01*
X107099000Y-86755335D01*
X107099000Y-86472665D01*
X107043853Y-86195426D01*
X106935680Y-85934273D01*
X106778637Y-85699241D01*
X106578759Y-85499363D01*
X106346241Y-85344000D01*
X106578759Y-85188637D01*
X106778637Y-84988759D01*
X106935680Y-84753727D01*
X107043853Y-84492574D01*
X107099000Y-84215335D01*
X107099000Y-83932665D01*
X107043853Y-83655426D01*
X106935680Y-83394273D01*
X106778637Y-83159241D01*
X106578759Y-82959363D01*
X106346241Y-82804000D01*
X106578759Y-82648637D01*
X106778637Y-82448759D01*
X106882043Y-82294000D01*
X117541199Y-82294000D01*
X118562201Y-83315003D01*
X118585999Y-83344001D01*
X118701724Y-83438974D01*
X118833753Y-83509546D01*
X118977014Y-83553003D01*
X119088667Y-83564000D01*
X119088676Y-83564000D01*
X119125999Y-83567676D01*
X119163322Y-83564000D01*
X122644678Y-83564000D01*
X122682000Y-83567676D01*
X122719322Y-83564000D01*
X122719333Y-83564000D01*
X122830986Y-83553003D01*
X122974247Y-83509546D01*
X123106276Y-83438974D01*
X123222001Y-83344001D01*
X123245803Y-83314998D01*
X124717009Y-81843794D01*
X124746001Y-81820001D01*
X124769795Y-81791008D01*
X124769799Y-81791004D01*
X124840973Y-81704277D01*
X124840974Y-81704276D01*
X124911546Y-81572247D01*
X124955003Y-81428986D01*
X124966000Y-81317333D01*
X124966000Y-81317324D01*
X124969676Y-81280001D01*
X124966000Y-81242678D01*
X124966000Y-79689801D01*
X125441370Y-79214431D01*
X125388000Y-79482740D01*
G36*
X125388000Y-74519802D02*
G01*
X125388000Y-74695260D01*
X125445068Y-74982158D01*
X125557010Y-75252411D01*
X125719525Y-75495632D01*
X125926368Y-75702475D01*
X126100760Y-75819000D01*
X125926368Y-75935525D01*
X125719525Y-76142368D01*
X125557010Y-76385589D01*
X125445068Y-76655842D01*
X125388000Y-76942740D01*
X125388000Y-77118198D01*
X123694998Y-78811201D01*
X123666000Y-78834999D01*
X123642202Y-78863997D01*
X123642201Y-78863998D01*
X123571026Y-78950724D01*
X123500454Y-79082754D01*
X123470180Y-79182558D01*
X123456998Y-79226014D01*
X123450570Y-79291276D01*
X123442324Y-79375000D01*
X123446001Y-79412332D01*
X123446000Y-80965197D01*
X122367199Y-82044000D01*
X122245983Y-82044000D01*
X122283853Y-81952574D01*
X122339000Y-81675335D01*
X122339000Y-81392665D01*
X122283853Y-81115426D01*
X122175680Y-80854273D01*
X122018637Y-80619241D01*
X121818759Y-80419363D01*
X121586241Y-80264000D01*
X121818759Y-80108637D01*
X122018637Y-79908759D01*
X122175680Y-79673727D01*
X122283853Y-79412574D01*
X122339000Y-79135335D01*
X122339000Y-78852665D01*
X122283853Y-78575426D01*
X122175680Y-78314273D01*
X122018637Y-78079241D01*
X121818759Y-77879363D01*
X121586241Y-77724000D01*
X121818759Y-77568637D01*
X122018637Y-77368759D01*
X122175680Y-77133727D01*
X122283853Y-76872574D01*
X122339000Y-76595335D01*
X122339000Y-76312665D01*
X122283853Y-76035426D01*
X122175680Y-75774273D01*
X122018637Y-75539241D01*
X121818759Y-75339363D01*
X121586241Y-75184000D01*
X121818759Y-75028637D01*
X122018637Y-74828759D01*
X122175680Y-74593727D01*
X122283853Y-74332574D01*
X122339000Y-74055335D01*
X122339000Y-73772665D01*
X122283853Y-73495426D01*
X122245983Y-73404000D01*
X124272199Y-73404000D01*
X125388000Y-74519802D01*
G37*
X125388000Y-74519802D02*
X125388000Y-74695260D01*
X125445068Y-74982158D01*
X125557010Y-75252411D01*
X125719525Y-75495632D01*
X125926368Y-75702475D01*
X126100760Y-75819000D01*
X125926368Y-75935525D01*
X125719525Y-76142368D01*
X125557010Y-76385589D01*
X125445068Y-76655842D01*
X125388000Y-76942740D01*
X125388000Y-77118198D01*
X123694998Y-78811201D01*
X123666000Y-78834999D01*
X123642202Y-78863997D01*
X123642201Y-78863998D01*
X123571026Y-78950724D01*
X123500454Y-79082754D01*
X123470180Y-79182558D01*
X123456998Y-79226014D01*
X123450570Y-79291276D01*
X123442324Y-79375000D01*
X123446001Y-79412332D01*
X123446000Y-80965197D01*
X122367199Y-82044000D01*
X122245983Y-82044000D01*
X122283853Y-81952574D01*
X122339000Y-81675335D01*
X122339000Y-81392665D01*
X122283853Y-81115426D01*
X122175680Y-80854273D01*
X122018637Y-80619241D01*
X121818759Y-80419363D01*
X121586241Y-80264000D01*
X121818759Y-80108637D01*
X122018637Y-79908759D01*
X122175680Y-79673727D01*
X122283853Y-79412574D01*
X122339000Y-79135335D01*
X122339000Y-78852665D01*
X122283853Y-78575426D01*
X122175680Y-78314273D01*
X122018637Y-78079241D01*
X121818759Y-77879363D01*
X121586241Y-77724000D01*
X121818759Y-77568637D01*
X122018637Y-77368759D01*
X122175680Y-77133727D01*
X122283853Y-76872574D01*
X122339000Y-76595335D01*
X122339000Y-76312665D01*
X122283853Y-76035426D01*
X122175680Y-75774273D01*
X122018637Y-75539241D01*
X121818759Y-75339363D01*
X121586241Y-75184000D01*
X121818759Y-75028637D01*
X122018637Y-74828759D01*
X122175680Y-74593727D01*
X122283853Y-74332574D01*
X122339000Y-74055335D01*
X122339000Y-73772665D01*
X122283853Y-73495426D01*
X122245983Y-73404000D01*
X124272199Y-73404000D01*
X125388000Y-74519802D01*
G36*
X77536760Y-48389348D02*
G01*
X77218348Y-48707760D01*
X76968173Y-49082173D01*
X76795850Y-49498198D01*
X76708000Y-49939849D01*
X76708000Y-50390151D01*
X76795850Y-50831802D01*
X76968173Y-51247827D01*
X77218348Y-51622240D01*
X77536760Y-51940652D01*
X77911173Y-52190827D01*
X78327198Y-52363150D01*
X78768849Y-52451000D01*
X79219151Y-52451000D01*
X79660802Y-52363150D01*
X80076827Y-52190827D01*
X80451240Y-51940652D01*
X80769652Y-51622240D01*
X81019827Y-51247827D01*
X81192150Y-50831802D01*
X81280000Y-50390151D01*
X81280000Y-49939849D01*
X81192150Y-49498198D01*
X81019827Y-49082173D01*
X80769652Y-48707760D01*
X80451240Y-48389348D01*
X80444733Y-48385000D01*
X97863267Y-48385000D01*
X97856760Y-48389348D01*
X97538348Y-48707760D01*
X97288173Y-49082173D01*
X97115850Y-49498198D01*
X97028000Y-49939849D01*
X97028000Y-50390151D01*
X97115850Y-50831802D01*
X97288173Y-51247827D01*
X97538348Y-51622240D01*
X97856760Y-51940652D01*
X98231173Y-52190827D01*
X98647198Y-52363150D01*
X99088849Y-52451000D01*
X99539151Y-52451000D01*
X99980802Y-52363150D01*
X100396827Y-52190827D01*
X100771240Y-51940652D01*
X101089652Y-51622240D01*
X101339827Y-51247827D01*
X101512150Y-50831802D01*
X101600000Y-50390151D01*
X101600000Y-49939849D01*
X101544368Y-49660170D01*
X103449201Y-51565003D01*
X103472999Y-51594001D01*
X103588724Y-51688974D01*
X103720753Y-51759546D01*
X103864014Y-51803003D01*
X103975667Y-51814000D01*
X103975676Y-51814000D01*
X104012999Y-51817676D01*
X104050322Y-51814000D01*
X104210198Y-51814000D01*
X100950408Y-55073791D01*
X100730260Y-55030000D01*
X100437740Y-55030000D01*
X100150842Y-55087068D01*
X99880589Y-55199010D01*
X99637368Y-55361525D01*
X99430525Y-55568368D01*
X99268010Y-55811589D01*
X99156068Y-56081842D01*
X99099000Y-56368740D01*
X99099000Y-56661260D01*
X99156068Y-56948158D01*
X99268010Y-57218411D01*
X99430525Y-57461632D01*
X99637368Y-57668475D01*
X99811760Y-57785000D01*
X99637368Y-57901525D01*
X99430525Y-58108368D01*
X99268010Y-58351589D01*
X99156068Y-58621842D01*
X99099000Y-58908740D01*
X99099000Y-59201260D01*
X99142790Y-59421408D01*
X94612003Y-63952196D01*
X94582999Y-63975999D01*
X94536170Y-64033061D01*
X94488026Y-64091724D01*
X94444340Y-64173455D01*
X94417454Y-64223754D01*
X94373997Y-64367015D01*
X94363000Y-64478668D01*
X94363000Y-64478678D01*
X94359324Y-64516000D01*
X94363000Y-64553322D01*
X94363001Y-73408000D01*
X85977000Y-73408000D01*
X85977000Y-70637061D01*
X86722000Y-70637061D01*
X86722000Y-70840939D01*
X86761774Y-71040898D01*
X86839795Y-71229256D01*
X86953063Y-71398774D01*
X87097226Y-71542937D01*
X87266744Y-71656205D01*
X87455102Y-71734226D01*
X87655061Y-71774000D01*
X87858939Y-71774000D01*
X88058898Y-71734226D01*
X88247256Y-71656205D01*
X88416774Y-71542937D01*
X88560937Y-71398774D01*
X88674205Y-71229256D01*
X88752226Y-71040898D01*
X88792000Y-70840939D01*
X88792000Y-70778801D01*
X90808008Y-68762795D01*
X90837001Y-68739001D01*
X90860795Y-68710008D01*
X90860799Y-68710004D01*
X90931973Y-68623277D01*
X90931974Y-68623276D01*
X91002546Y-68491247D01*
X91046003Y-68347986D01*
X91057000Y-68236333D01*
X91057000Y-68236324D01*
X91060676Y-68199001D01*
X91057000Y-68161678D01*
X91057000Y-64838711D01*
X91100937Y-64794774D01*
X91214205Y-64625256D01*
X91292226Y-64436898D01*
X91332000Y-64236939D01*
X91332000Y-64033061D01*
X91292226Y-63833102D01*
X91214205Y-63644744D01*
X91100937Y-63475226D01*
X90956774Y-63331063D01*
X90787256Y-63217795D01*
X90598898Y-63139774D01*
X90398939Y-63100000D01*
X90195061Y-63100000D01*
X89995102Y-63139774D01*
X89806744Y-63217795D01*
X89637226Y-63331063D01*
X89493063Y-63475226D01*
X89379795Y-63644744D01*
X89301774Y-63833102D01*
X89262000Y-64033061D01*
X89262000Y-64236939D01*
X89301774Y-64436898D01*
X89379795Y-64625256D01*
X89493063Y-64794774D01*
X89537000Y-64838711D01*
X89537001Y-67884196D01*
X87717199Y-69704000D01*
X87655061Y-69704000D01*
X87455102Y-69743774D01*
X87266744Y-69821795D01*
X87097226Y-69935063D01*
X86953063Y-70079226D01*
X86839795Y-70248744D01*
X86761774Y-70437102D01*
X86722000Y-70637061D01*
X85977000Y-70637061D01*
X85977000Y-69926320D01*
X85980676Y-69888997D01*
X85977000Y-69851674D01*
X85977000Y-69851665D01*
X85966003Y-69740012D01*
X85922546Y-69596751D01*
X85854261Y-69469000D01*
X85851974Y-69464721D01*
X85780799Y-69377995D01*
X85757001Y-69348997D01*
X85728003Y-69325199D01*
X78904295Y-62501492D01*
X79039990Y-62298411D01*
X79151932Y-62028158D01*
X79209000Y-61741260D01*
X79209000Y-61448740D01*
X79151932Y-61161842D01*
X79039990Y-60891589D01*
X78877475Y-60648368D01*
X78670632Y-60441525D01*
X78496240Y-60325000D01*
X78670632Y-60208475D01*
X78877475Y-60001632D01*
X79039990Y-59758411D01*
X79151932Y-59488158D01*
X79209000Y-59201260D01*
X79209000Y-58908740D01*
X79151932Y-58621842D01*
X79039990Y-58351589D01*
X78877475Y-58108368D01*
X78670632Y-57901525D01*
X78496240Y-57785000D01*
X78670632Y-57668475D01*
X78877475Y-57461632D01*
X79039990Y-57218411D01*
X79151932Y-56948158D01*
X79209000Y-56661260D01*
X79209000Y-56368740D01*
X79151932Y-56081842D01*
X79039990Y-55811589D01*
X78877475Y-55568368D01*
X78670632Y-55361525D01*
X78496240Y-55245000D01*
X78670632Y-55128475D01*
X78877475Y-54921632D01*
X79039990Y-54678411D01*
X79151932Y-54408158D01*
X79209000Y-54121260D01*
X79209000Y-53828740D01*
X79151932Y-53541842D01*
X79039990Y-53271589D01*
X78877475Y-53028368D01*
X78670632Y-52821525D01*
X78427411Y-52659010D01*
X78157158Y-52547068D01*
X77870260Y-52490000D01*
X77577740Y-52490000D01*
X77290842Y-52547068D01*
X77020589Y-52659010D01*
X76777368Y-52821525D01*
X76570525Y-53028368D01*
X76408010Y-53271589D01*
X76296068Y-53541842D01*
X76239000Y-53828740D01*
X76239000Y-54121260D01*
X76296068Y-54408158D01*
X76408010Y-54678411D01*
X76570525Y-54921632D01*
X76777368Y-55128475D01*
X76951760Y-55245000D01*
X76777368Y-55361525D01*
X76570525Y-55568368D01*
X76408010Y-55811589D01*
X76296068Y-56081842D01*
X76239000Y-56368740D01*
X76239000Y-56661260D01*
X76296068Y-56948158D01*
X76408010Y-57218411D01*
X76570525Y-57461632D01*
X76777368Y-57668475D01*
X76951760Y-57785000D01*
X76777368Y-57901525D01*
X76570525Y-58108368D01*
X76408010Y-58351589D01*
X76296068Y-58621842D01*
X76239000Y-58908740D01*
X76239000Y-59201260D01*
X76296068Y-59488158D01*
X76408010Y-59758411D01*
X76570525Y-60001632D01*
X76777368Y-60208475D01*
X76951760Y-60325000D01*
X76777368Y-60441525D01*
X76570525Y-60648368D01*
X76408010Y-60891589D01*
X76344271Y-61045469D01*
X72434209Y-57135408D01*
X72478000Y-56915260D01*
X72478000Y-56622740D01*
X72420932Y-56335842D01*
X72308990Y-56065589D01*
X72146475Y-55822368D01*
X71939632Y-55615525D01*
X71765240Y-55499000D01*
X71939632Y-55382475D01*
X72146475Y-55175632D01*
X72308990Y-54932411D01*
X72420932Y-54662158D01*
X72478000Y-54375260D01*
X72478000Y-54082740D01*
X72434209Y-53862592D01*
X75314003Y-50982799D01*
X75343001Y-50959001D01*
X75437974Y-50843276D01*
X75508546Y-50711247D01*
X75552003Y-50567986D01*
X75563000Y-50456333D01*
X75563000Y-50456325D01*
X75566676Y-50419000D01*
X75563000Y-50381675D01*
X75563000Y-49590801D01*
X76768802Y-48385000D01*
X77543267Y-48385000D01*
X77536760Y-48389348D01*
G37*
X77536760Y-48389348D02*
X77218348Y-48707760D01*
X76968173Y-49082173D01*
X76795850Y-49498198D01*
X76708000Y-49939849D01*
X76708000Y-50390151D01*
X76795850Y-50831802D01*
X76968173Y-51247827D01*
X77218348Y-51622240D01*
X77536760Y-51940652D01*
X77911173Y-52190827D01*
X78327198Y-52363150D01*
X78768849Y-52451000D01*
X79219151Y-52451000D01*
X79660802Y-52363150D01*
X80076827Y-52190827D01*
X80451240Y-51940652D01*
X80769652Y-51622240D01*
X81019827Y-51247827D01*
X81192150Y-50831802D01*
X81280000Y-50390151D01*
X81280000Y-49939849D01*
X81192150Y-49498198D01*
X81019827Y-49082173D01*
X80769652Y-48707760D01*
X80451240Y-48389348D01*
X80444733Y-48385000D01*
X97863267Y-48385000D01*
X97856760Y-48389348D01*
X97538348Y-48707760D01*
X97288173Y-49082173D01*
X97115850Y-49498198D01*
X97028000Y-49939849D01*
X97028000Y-50390151D01*
X97115850Y-50831802D01*
X97288173Y-51247827D01*
X97538348Y-51622240D01*
X97856760Y-51940652D01*
X98231173Y-52190827D01*
X98647198Y-52363150D01*
X99088849Y-52451000D01*
X99539151Y-52451000D01*
X99980802Y-52363150D01*
X100396827Y-52190827D01*
X100771240Y-51940652D01*
X101089652Y-51622240D01*
X101339827Y-51247827D01*
X101512150Y-50831802D01*
X101600000Y-50390151D01*
X101600000Y-49939849D01*
X101544368Y-49660170D01*
X103449201Y-51565003D01*
X103472999Y-51594001D01*
X103588724Y-51688974D01*
X103720753Y-51759546D01*
X103864014Y-51803003D01*
X103975667Y-51814000D01*
X103975676Y-51814000D01*
X104012999Y-51817676D01*
X104050322Y-51814000D01*
X104210198Y-51814000D01*
X100950408Y-55073791D01*
X100730260Y-55030000D01*
X100437740Y-55030000D01*
X100150842Y-55087068D01*
X99880589Y-55199010D01*
X99637368Y-55361525D01*
X99430525Y-55568368D01*
X99268010Y-55811589D01*
X99156068Y-56081842D01*
X99099000Y-56368740D01*
X99099000Y-56661260D01*
X99156068Y-56948158D01*
X99268010Y-57218411D01*
X99430525Y-57461632D01*
X99637368Y-57668475D01*
X99811760Y-57785000D01*
X99637368Y-57901525D01*
X99430525Y-58108368D01*
X99268010Y-58351589D01*
X99156068Y-58621842D01*
X99099000Y-58908740D01*
X99099000Y-59201260D01*
X99142790Y-59421408D01*
X94612003Y-63952196D01*
X94582999Y-63975999D01*
X94536170Y-64033061D01*
X94488026Y-64091724D01*
X94444340Y-64173455D01*
X94417454Y-64223754D01*
X94373997Y-64367015D01*
X94363000Y-64478668D01*
X94363000Y-64478678D01*
X94359324Y-64516000D01*
X94363000Y-64553322D01*
X94363001Y-73408000D01*
X85977000Y-73408000D01*
X85977000Y-70637061D01*
X86722000Y-70637061D01*
X86722000Y-70840939D01*
X86761774Y-71040898D01*
X86839795Y-71229256D01*
X86953063Y-71398774D01*
X87097226Y-71542937D01*
X87266744Y-71656205D01*
X87455102Y-71734226D01*
X87655061Y-71774000D01*
X87858939Y-71774000D01*
X88058898Y-71734226D01*
X88247256Y-71656205D01*
X88416774Y-71542937D01*
X88560937Y-71398774D01*
X88674205Y-71229256D01*
X88752226Y-71040898D01*
X88792000Y-70840939D01*
X88792000Y-70778801D01*
X90808008Y-68762795D01*
X90837001Y-68739001D01*
X90860795Y-68710008D01*
X90860799Y-68710004D01*
X90931973Y-68623277D01*
X90931974Y-68623276D01*
X91002546Y-68491247D01*
X91046003Y-68347986D01*
X91057000Y-68236333D01*
X91057000Y-68236324D01*
X91060676Y-68199001D01*
X91057000Y-68161678D01*
X91057000Y-64838711D01*
X91100937Y-64794774D01*
X91214205Y-64625256D01*
X91292226Y-64436898D01*
X91332000Y-64236939D01*
X91332000Y-64033061D01*
X91292226Y-63833102D01*
X91214205Y-63644744D01*
X91100937Y-63475226D01*
X90956774Y-63331063D01*
X90787256Y-63217795D01*
X90598898Y-63139774D01*
X90398939Y-63100000D01*
X90195061Y-63100000D01*
X89995102Y-63139774D01*
X89806744Y-63217795D01*
X89637226Y-63331063D01*
X89493063Y-63475226D01*
X89379795Y-63644744D01*
X89301774Y-63833102D01*
X89262000Y-64033061D01*
X89262000Y-64236939D01*
X89301774Y-64436898D01*
X89379795Y-64625256D01*
X89493063Y-64794774D01*
X89537000Y-64838711D01*
X89537001Y-67884196D01*
X87717199Y-69704000D01*
X87655061Y-69704000D01*
X87455102Y-69743774D01*
X87266744Y-69821795D01*
X87097226Y-69935063D01*
X86953063Y-70079226D01*
X86839795Y-70248744D01*
X86761774Y-70437102D01*
X86722000Y-70637061D01*
X85977000Y-70637061D01*
X85977000Y-69926320D01*
X85980676Y-69888997D01*
X85977000Y-69851674D01*
X85977000Y-69851665D01*
X85966003Y-69740012D01*
X85922546Y-69596751D01*
X85854261Y-69469000D01*
X85851974Y-69464721D01*
X85780799Y-69377995D01*
X85757001Y-69348997D01*
X85728003Y-69325199D01*
X78904295Y-62501492D01*
X79039990Y-62298411D01*
X79151932Y-62028158D01*
X79209000Y-61741260D01*
X79209000Y-61448740D01*
X79151932Y-61161842D01*
X79039990Y-60891589D01*
X78877475Y-60648368D01*
X78670632Y-60441525D01*
X78496240Y-60325000D01*
X78670632Y-60208475D01*
X78877475Y-60001632D01*
X79039990Y-59758411D01*
X79151932Y-59488158D01*
X79209000Y-59201260D01*
X79209000Y-58908740D01*
X79151932Y-58621842D01*
X79039990Y-58351589D01*
X78877475Y-58108368D01*
X78670632Y-57901525D01*
X78496240Y-57785000D01*
X78670632Y-57668475D01*
X78877475Y-57461632D01*
X79039990Y-57218411D01*
X79151932Y-56948158D01*
X79209000Y-56661260D01*
X79209000Y-56368740D01*
X79151932Y-56081842D01*
X79039990Y-55811589D01*
X78877475Y-55568368D01*
X78670632Y-55361525D01*
X78496240Y-55245000D01*
X78670632Y-55128475D01*
X78877475Y-54921632D01*
X79039990Y-54678411D01*
X79151932Y-54408158D01*
X79209000Y-54121260D01*
X79209000Y-53828740D01*
X79151932Y-53541842D01*
X79039990Y-53271589D01*
X78877475Y-53028368D01*
X78670632Y-52821525D01*
X78427411Y-52659010D01*
X78157158Y-52547068D01*
X77870260Y-52490000D01*
X77577740Y-52490000D01*
X77290842Y-52547068D01*
X77020589Y-52659010D01*
X76777368Y-52821525D01*
X76570525Y-53028368D01*
X76408010Y-53271589D01*
X76296068Y-53541842D01*
X76239000Y-53828740D01*
X76239000Y-54121260D01*
X76296068Y-54408158D01*
X76408010Y-54678411D01*
X76570525Y-54921632D01*
X76777368Y-55128475D01*
X76951760Y-55245000D01*
X76777368Y-55361525D01*
X76570525Y-55568368D01*
X76408010Y-55811589D01*
X76296068Y-56081842D01*
X76239000Y-56368740D01*
X76239000Y-56661260D01*
X76296068Y-56948158D01*
X76408010Y-57218411D01*
X76570525Y-57461632D01*
X76777368Y-57668475D01*
X76951760Y-57785000D01*
X76777368Y-57901525D01*
X76570525Y-58108368D01*
X76408010Y-58351589D01*
X76296068Y-58621842D01*
X76239000Y-58908740D01*
X76239000Y-59201260D01*
X76296068Y-59488158D01*
X76408010Y-59758411D01*
X76570525Y-60001632D01*
X76777368Y-60208475D01*
X76951760Y-60325000D01*
X76777368Y-60441525D01*
X76570525Y-60648368D01*
X76408010Y-60891589D01*
X76344271Y-61045469D01*
X72434209Y-57135408D01*
X72478000Y-56915260D01*
X72478000Y-56622740D01*
X72420932Y-56335842D01*
X72308990Y-56065589D01*
X72146475Y-55822368D01*
X71939632Y-55615525D01*
X71765240Y-55499000D01*
X71939632Y-55382475D01*
X72146475Y-55175632D01*
X72308990Y-54932411D01*
X72420932Y-54662158D01*
X72478000Y-54375260D01*
X72478000Y-54082740D01*
X72434209Y-53862592D01*
X75314003Y-50982799D01*
X75343001Y-50959001D01*
X75437974Y-50843276D01*
X75508546Y-50711247D01*
X75552003Y-50567986D01*
X75563000Y-50456333D01*
X75563000Y-50456325D01*
X75566676Y-50419000D01*
X75563000Y-50381675D01*
X75563000Y-49590801D01*
X76768802Y-48385000D01*
X77543267Y-48385000D01*
X77536760Y-48389348D01*
G36*
X137980928Y-49084001D02*
G01*
X137997992Y-49257255D01*
X138048528Y-49423851D01*
X138130595Y-49577387D01*
X138241038Y-49711962D01*
X138375613Y-49822405D01*
X138529149Y-49904472D01*
X138695745Y-49955008D01*
X138868999Y-49972072D01*
X139769001Y-49972072D01*
X139942255Y-49955008D01*
X140108851Y-49904472D01*
X140262387Y-49822405D01*
X140320150Y-49775000D01*
X141048160Y-49775000D01*
X144362087Y-53088928D01*
X143899000Y-53088928D01*
X143725746Y-53105992D01*
X143559150Y-53156528D01*
X143405614Y-53238595D01*
X143271038Y-53349038D01*
X143160595Y-53483614D01*
X143078528Y-53637150D01*
X143027992Y-53803746D01*
X143010928Y-53977000D01*
X143010928Y-54602688D01*
X142997699Y-54737000D01*
X143009321Y-54855000D01*
X140576454Y-54855000D01*
X140523962Y-54791038D01*
X140389387Y-54680595D01*
X140235851Y-54598528D01*
X140069255Y-54547992D01*
X139896001Y-54530928D01*
X139490164Y-54530928D01*
X135779072Y-50819837D01*
X135779072Y-49310000D01*
X135766812Y-49185518D01*
X135730502Y-49065820D01*
X135671537Y-48955506D01*
X135621881Y-48895000D01*
X137980928Y-48895000D01*
X137980928Y-49084001D01*
G37*
X137980928Y-49084001D02*
X137997992Y-49257255D01*
X138048528Y-49423851D01*
X138130595Y-49577387D01*
X138241038Y-49711962D01*
X138375613Y-49822405D01*
X138529149Y-49904472D01*
X138695745Y-49955008D01*
X138868999Y-49972072D01*
X139769001Y-49972072D01*
X139942255Y-49955008D01*
X140108851Y-49904472D01*
X140262387Y-49822405D01*
X140320150Y-49775000D01*
X141048160Y-49775000D01*
X144362087Y-53088928D01*
X143899000Y-53088928D01*
X143725746Y-53105992D01*
X143559150Y-53156528D01*
X143405614Y-53238595D01*
X143271038Y-53349038D01*
X143160595Y-53483614D01*
X143078528Y-53637150D01*
X143027992Y-53803746D01*
X143010928Y-53977000D01*
X143010928Y-54602688D01*
X142997699Y-54737000D01*
X143009321Y-54855000D01*
X140576454Y-54855000D01*
X140523962Y-54791038D01*
X140389387Y-54680595D01*
X140235851Y-54598528D01*
X140069255Y-54547992D01*
X139896001Y-54530928D01*
X139490164Y-54530928D01*
X135779072Y-50819837D01*
X135779072Y-49310000D01*
X135766812Y-49185518D01*
X135730502Y-49065820D01*
X135671537Y-48955506D01*
X135621881Y-48895000D01*
X137980928Y-48895000D01*
X137980928Y-49084001D01*
M02*
