%TF.GenerationSoftware,KiCad,Pcbnew,(5.1.6)-1*%
%TF.CreationDate,2021-11-13T14:54:39-08:00*%
%TF.ProjectId,ARESnoseConeSystem2022,41524553-6e6f-4736-9543-6f6e65537973,rev?*%
%TF.SameCoordinates,Original*%
%TF.FileFunction,Paste,Top*%
%TF.FilePolarity,Positive*%
%FSLAX46Y46*%
G04 Gerber Fmt 4.6, Leading zero omitted, Abs format (unit mm)*
G04 Created by KiCad (PCBNEW (5.1.6)-1) date 2021-11-13 14:54:39*
%MOMM*%
%LPD*%
G01*
G04 APERTURE LIST*
%ADD10R,1.003300X0.508000*%
G04 APERTURE END LIST*
D10*
X130600450Y-55306001D03*
X130600450Y-53405999D03*
X133305550Y-53405999D03*
X133305550Y-54356000D03*
X133305550Y-55306001D03*
G36*
G01*
X138245000Y-53282001D02*
X138245000Y-52381999D01*
G75*
G02*
X138494999Y-52132000I249999J0D01*
G01*
X139145001Y-52132000D01*
G75*
G02*
X139395000Y-52381999I0J-249999D01*
G01*
X139395000Y-53282001D01*
G75*
G02*
X139145001Y-53532000I-249999J0D01*
G01*
X138494999Y-53532000D01*
G75*
G02*
X138245000Y-53282001I0J249999D01*
G01*
G37*
G36*
G01*
X136195000Y-53282001D02*
X136195000Y-52381999D01*
G75*
G02*
X136444999Y-52132000I249999J0D01*
G01*
X137095001Y-52132000D01*
G75*
G02*
X137345000Y-52381999I0J-249999D01*
G01*
X137345000Y-53282001D01*
G75*
G02*
X137095001Y-53532000I-249999J0D01*
G01*
X136444999Y-53532000D01*
G75*
G02*
X136195000Y-53282001I0J249999D01*
G01*
G37*
G36*
G01*
X134689000Y-49853001D02*
X134689000Y-48952999D01*
G75*
G02*
X134938999Y-48703000I249999J0D01*
G01*
X135589001Y-48703000D01*
G75*
G02*
X135839000Y-48952999I0J-249999D01*
G01*
X135839000Y-49853001D01*
G75*
G02*
X135589001Y-50103000I-249999J0D01*
G01*
X134938999Y-50103000D01*
G75*
G02*
X134689000Y-49853001I0J249999D01*
G01*
G37*
G36*
G01*
X132639000Y-49853001D02*
X132639000Y-48952999D01*
G75*
G02*
X132888999Y-48703000I249999J0D01*
G01*
X133539001Y-48703000D01*
G75*
G02*
X133789000Y-48952999I0J-249999D01*
G01*
X133789000Y-49853001D01*
G75*
G02*
X133539001Y-50103000I-249999J0D01*
G01*
X132888999Y-50103000D01*
G75*
G02*
X132639000Y-49853001I0J249999D01*
G01*
G37*
G36*
G01*
X129990000Y-49853001D02*
X129990000Y-48952999D01*
G75*
G02*
X130239999Y-48703000I249999J0D01*
G01*
X130890001Y-48703000D01*
G75*
G02*
X131140000Y-48952999I0J-249999D01*
G01*
X131140000Y-49853001D01*
G75*
G02*
X130890001Y-50103000I-249999J0D01*
G01*
X130239999Y-50103000D01*
G75*
G02*
X129990000Y-49853001I0J249999D01*
G01*
G37*
G36*
G01*
X127940000Y-49853001D02*
X127940000Y-48952999D01*
G75*
G02*
X128189999Y-48703000I249999J0D01*
G01*
X128840001Y-48703000D01*
G75*
G02*
X129090000Y-48952999I0J-249999D01*
G01*
X129090000Y-49853001D01*
G75*
G02*
X128840001Y-50103000I-249999J0D01*
G01*
X128189999Y-50103000D01*
G75*
G02*
X127940000Y-49853001I0J249999D01*
G01*
G37*
G36*
G01*
X123755999Y-57863000D02*
X124656001Y-57863000D01*
G75*
G02*
X124906000Y-58112999I0J-249999D01*
G01*
X124906000Y-58763001D01*
G75*
G02*
X124656001Y-59013000I-249999J0D01*
G01*
X123755999Y-59013000D01*
G75*
G02*
X123506000Y-58763001I0J249999D01*
G01*
X123506000Y-58112999D01*
G75*
G02*
X123755999Y-57863000I249999J0D01*
G01*
G37*
G36*
G01*
X123755999Y-55813000D02*
X124656001Y-55813000D01*
G75*
G02*
X124906000Y-56062999I0J-249999D01*
G01*
X124906000Y-56713001D01*
G75*
G02*
X124656001Y-56963000I-249999J0D01*
G01*
X123755999Y-56963000D01*
G75*
G02*
X123506000Y-56713001I0J249999D01*
G01*
X123506000Y-56062999D01*
G75*
G02*
X123755999Y-55813000I249999J0D01*
G01*
G37*
G36*
G01*
X132530000Y-58495250D02*
X132530000Y-57582750D01*
G75*
G02*
X132773750Y-57339000I243750J0D01*
G01*
X133261250Y-57339000D01*
G75*
G02*
X133505000Y-57582750I0J-243750D01*
G01*
X133505000Y-58495250D01*
G75*
G02*
X133261250Y-58739000I-243750J0D01*
G01*
X132773750Y-58739000D01*
G75*
G02*
X132530000Y-58495250I0J243750D01*
G01*
G37*
G36*
G01*
X130655000Y-58495250D02*
X130655000Y-57582750D01*
G75*
G02*
X130898750Y-57339000I243750J0D01*
G01*
X131386250Y-57339000D01*
G75*
G02*
X131630000Y-57582750I0J-243750D01*
G01*
X131630000Y-58495250D01*
G75*
G02*
X131386250Y-58739000I-243750J0D01*
G01*
X130898750Y-58739000D01*
G75*
G02*
X130655000Y-58495250I0J243750D01*
G01*
G37*
G36*
G01*
X136836999Y-57600000D02*
X137737001Y-57600000D01*
G75*
G02*
X137987000Y-57849999I0J-249999D01*
G01*
X137987000Y-58500001D01*
G75*
G02*
X137737001Y-58750000I-249999J0D01*
G01*
X136836999Y-58750000D01*
G75*
G02*
X136587000Y-58500001I0J249999D01*
G01*
X136587000Y-57849999D01*
G75*
G02*
X136836999Y-57600000I249999J0D01*
G01*
G37*
G36*
G01*
X136836999Y-55550000D02*
X137737001Y-55550000D01*
G75*
G02*
X137987000Y-55799999I0J-249999D01*
G01*
X137987000Y-56450001D01*
G75*
G02*
X137737001Y-56700000I-249999J0D01*
G01*
X136836999Y-56700000D01*
G75*
G02*
X136587000Y-56450001I0J249999D01*
G01*
X136587000Y-55799999D01*
G75*
G02*
X136836999Y-55550000I249999J0D01*
G01*
G37*
G36*
G01*
X123501999Y-50107000D02*
X124402001Y-50107000D01*
G75*
G02*
X124652000Y-50356999I0J-249999D01*
G01*
X124652000Y-51007001D01*
G75*
G02*
X124402001Y-51257000I-249999J0D01*
G01*
X123501999Y-51257000D01*
G75*
G02*
X123252000Y-51007001I0J249999D01*
G01*
X123252000Y-50356999D01*
G75*
G02*
X123501999Y-50107000I249999J0D01*
G01*
G37*
G36*
G01*
X123501999Y-48057000D02*
X124402001Y-48057000D01*
G75*
G02*
X124652000Y-48306999I0J-249999D01*
G01*
X124652000Y-48957001D01*
G75*
G02*
X124402001Y-49207000I-249999J0D01*
G01*
X123501999Y-49207000D01*
G75*
G02*
X123252000Y-48957001I0J249999D01*
G01*
X123252000Y-48306999D01*
G75*
G02*
X123501999Y-48057000I249999J0D01*
G01*
G37*
M02*
