%TF.GenerationSoftware,KiCad,Pcbnew,(5.1.6)-1*%
%TF.CreationDate,2021-11-13T14:54:39-08:00*%
%TF.ProjectId,ARESnoseConeSystem2022,41524553-6e6f-4736-9543-6f6e65537973,rev?*%
%TF.SameCoordinates,Original*%
%TF.FileFunction,Copper,L2,Bot*%
%TF.FilePolarity,Positive*%
%FSLAX46Y46*%
G04 Gerber Fmt 4.6, Leading zero omitted, Abs format (unit mm)*
G04 Created by KiCad (PCBNEW (5.1.6)-1) date 2021-11-13 14:54:39*
%MOMM*%
%LPD*%
G01*
G04 APERTURE LIST*
%TA.AperFunction,ComponentPad*%
%ADD10R,1.700000X1.700000*%
%TD*%
%TA.AperFunction,ComponentPad*%
%ADD11O,1.700000X1.700000*%
%TD*%
%TA.AperFunction,ComponentPad*%
%ADD12C,1.300000*%
%TD*%
%TA.AperFunction,ComponentPad*%
%ADD13C,1.600000*%
%TD*%
%TA.AperFunction,ComponentPad*%
%ADD14R,1.300000X1.300000*%
%TD*%
%TA.AperFunction,ComponentPad*%
%ADD15R,1.600000X1.600000*%
%TD*%
%TA.AperFunction,ComponentPad*%
%ADD16O,1.500000X2.020000*%
%TD*%
%TA.AperFunction,ComponentPad*%
%ADD17C,3.200000*%
%TD*%
%TA.AperFunction,ComponentPad*%
%ADD18C,3.200001*%
%TD*%
%TA.AperFunction,ViaPad*%
%ADD19C,0.800000*%
%TD*%
%TA.AperFunction,Conductor*%
%ADD20C,0.250000*%
%TD*%
%TA.AperFunction,Conductor*%
%ADD21C,0.254000*%
%TD*%
G04 APERTURE END LIST*
D10*
X165862000Y-59563000D03*
X127127000Y-53721000D03*
D11*
X98933000Y-107061000D03*
X98933000Y-104521000D03*
X98933000Y-101981000D03*
X98933000Y-99441000D03*
D10*
X98933000Y-96901000D03*
D11*
X87757000Y-106807000D03*
X85217000Y-106807000D03*
X82677000Y-106807000D03*
X80137000Y-106807000D03*
X77597000Y-106807000D03*
X75057000Y-106807000D03*
X72517000Y-106807000D03*
D10*
X69977000Y-106807000D03*
D11*
X98933000Y-81407000D03*
X98933000Y-78867000D03*
D10*
X98933000Y-76327000D03*
D11*
X162433000Y-66929000D03*
X162433000Y-69469000D03*
X162433000Y-72009000D03*
X162433000Y-74549000D03*
X162433000Y-77089000D03*
X162433000Y-79629000D03*
X162433000Y-82169000D03*
X162433000Y-84709000D03*
D10*
X162433000Y-87249000D03*
D11*
X77724000Y-53975000D03*
X77724000Y-56515000D03*
X77724000Y-59055000D03*
X77724000Y-61595000D03*
X77724000Y-64135000D03*
D10*
X77724000Y-66675000D03*
D11*
X100584000Y-53975000D03*
X100584000Y-56515000D03*
X100584000Y-59055000D03*
X100584000Y-61595000D03*
X100584000Y-64135000D03*
D10*
X100584000Y-66675000D03*
D11*
X126873000Y-66929000D03*
X126873000Y-69469000D03*
X126873000Y-72009000D03*
X126873000Y-74549000D03*
X126873000Y-77089000D03*
X126873000Y-79629000D03*
X126873000Y-82169000D03*
X126873000Y-84709000D03*
D10*
X126873000Y-87249000D03*
D11*
X90297000Y-76327000D03*
X87757000Y-76327000D03*
X85217000Y-76327000D03*
X82677000Y-76327000D03*
X80137000Y-76327000D03*
X77597000Y-76327000D03*
D10*
X75057000Y-76327000D03*
D11*
X70993000Y-51689000D03*
X70993000Y-54229000D03*
X70993000Y-56769000D03*
X70993000Y-59309000D03*
X70993000Y-61849000D03*
X70993000Y-64389000D03*
X70993000Y-66929000D03*
D10*
X70993000Y-69469000D03*
D12*
X114554000Y-49244000D03*
X112014000Y-49244000D03*
D13*
X118364000Y-94234000D03*
X115824000Y-94234000D03*
X113284000Y-94234000D03*
X110744000Y-94234000D03*
X108204000Y-94234000D03*
D12*
X114465600Y-61484000D03*
X114465600Y-63484000D03*
X116465600Y-63484000D03*
X116465600Y-61484000D03*
X118465600Y-63484000D03*
D14*
X118465600Y-61484000D03*
D13*
X105664000Y-89154000D03*
X105664000Y-91694000D03*
X105664000Y-94234000D03*
X105664000Y-96774000D03*
X105664000Y-86614000D03*
X105664000Y-84074000D03*
X105664000Y-81534000D03*
X105664000Y-99314000D03*
X105664000Y-101854000D03*
X105664000Y-104394000D03*
X105664000Y-106934000D03*
X120904000Y-106934000D03*
X120904000Y-104394000D03*
X120904000Y-101854000D03*
X120904000Y-99314000D03*
X120904000Y-96774000D03*
X120904000Y-94234000D03*
X120904000Y-91694000D03*
X120904000Y-89154000D03*
X120904000Y-86614000D03*
X120904000Y-84074000D03*
X105664000Y-78994000D03*
X105664000Y-76454000D03*
X105664000Y-73914000D03*
X105664000Y-71374000D03*
X105664000Y-68834000D03*
X105664000Y-66294000D03*
X105664000Y-63754000D03*
X105664000Y-61214000D03*
X105664000Y-58674000D03*
X105664000Y-56134000D03*
X105664000Y-53594000D03*
X105664000Y-51054000D03*
D15*
X105664000Y-48514000D03*
D13*
X120904000Y-81534000D03*
X120904000Y-78994000D03*
X120904000Y-76454000D03*
X120904000Y-73914000D03*
X120904000Y-71374000D03*
X120904000Y-68834000D03*
X120904000Y-66294000D03*
X120904000Y-63754000D03*
X120904000Y-61214000D03*
X120904000Y-58674000D03*
X120904000Y-56134000D03*
X120904000Y-53594000D03*
X120904000Y-51054000D03*
X120904000Y-48514000D03*
D15*
X108714800Y-54813200D03*
D13*
X108714800Y-57353200D03*
X108714800Y-59893200D03*
X108714800Y-62433200D03*
X108714800Y-64973200D03*
X118364000Y-51054000D03*
D16*
X158194000Y-54864000D03*
%TA.AperFunction,ComponentPad*%
G36*
G01*
X154444000Y-55624000D02*
X154444000Y-54104000D01*
G75*
G02*
X154694000Y-53854000I250000J0D01*
G01*
X155694000Y-53854000D01*
G75*
G02*
X155944000Y-54104000I0J-250000D01*
G01*
X155944000Y-55624000D01*
G75*
G02*
X155694000Y-55874000I-250000J0D01*
G01*
X154694000Y-55874000D01*
G75*
G02*
X154444000Y-55624000I0J250000D01*
G01*
G37*
%TD.AperFunction*%
X147399000Y-54737000D03*
%TA.AperFunction,ComponentPad*%
G36*
G01*
X143649000Y-55497000D02*
X143649000Y-53977000D01*
G75*
G02*
X143899000Y-53727000I250000J0D01*
G01*
X144899000Y-53727000D01*
G75*
G02*
X145149000Y-53977000I0J-250000D01*
G01*
X145149000Y-55497000D01*
G75*
G02*
X144899000Y-55747000I-250000J0D01*
G01*
X143899000Y-55747000D01*
G75*
G02*
X143649000Y-55497000I0J250000D01*
G01*
G37*
%TD.AperFunction*%
D17*
X58293000Y-70739000D03*
D18*
X58293000Y-50419000D03*
D19*
X135001000Y-59055000D03*
X138430000Y-54610000D03*
X68072000Y-64389000D03*
X97536000Y-53975000D03*
X71755000Y-76327000D03*
X87757000Y-70739000D03*
X90297000Y-64135000D03*
X80137000Y-84074000D03*
D20*
X92837000Y-64135000D02*
X100584000Y-64135000D01*
X92837000Y-64135000D02*
X90297000Y-64135000D01*
X87757000Y-76327000D02*
X87757000Y-70739000D01*
X86392001Y-60230001D02*
X90297000Y-64135000D01*
X71914001Y-60230001D02*
X86392001Y-60230001D01*
X70993000Y-59309000D02*
X71914001Y-60230001D01*
X120904000Y-81534000D02*
X114409001Y-75039001D01*
X103868001Y-64879001D02*
X100584000Y-61595000D01*
X105914003Y-64879001D02*
X103868001Y-64879001D01*
X114409001Y-73373999D02*
X105914003Y-64879001D01*
X114409001Y-75039001D02*
X114409001Y-73373999D01*
X91584999Y-75039001D02*
X90297000Y-76327000D01*
X87916001Y-65310001D02*
X74454001Y-65310001D01*
X90297000Y-76327000D02*
X90297000Y-67691000D01*
X74454001Y-65310001D02*
X70993000Y-61849000D01*
X90297000Y-67691000D02*
X87916001Y-65310001D01*
X100220999Y-75039001D02*
X98933000Y-76327000D01*
X114409001Y-75039001D02*
X100220999Y-75039001D01*
X97645001Y-75039001D02*
X98933000Y-76327000D01*
X91584999Y-75039001D02*
X97645001Y-75039001D01*
X120904000Y-81534000D02*
X122047000Y-81534000D01*
X122047000Y-81534000D02*
X123952000Y-79629000D01*
X123952000Y-79629000D02*
X123952000Y-75692000D01*
X125095000Y-74549000D02*
X126873000Y-74549000D01*
X123952000Y-75692000D02*
X125095000Y-74549000D01*
X105664000Y-84074000D02*
X86106000Y-84074000D01*
X86106000Y-84074000D02*
X80137000Y-84074000D01*
D21*
G36*
X163576000Y-65971893D02*
G01*
X163379632Y-65775525D01*
X163136411Y-65613010D01*
X162866158Y-65501068D01*
X162579260Y-65444000D01*
X162286740Y-65444000D01*
X161999842Y-65501068D01*
X161729589Y-65613010D01*
X161486368Y-65775525D01*
X161279525Y-65982368D01*
X161117010Y-66225589D01*
X161005068Y-66495842D01*
X160948000Y-66782740D01*
X160948000Y-67075260D01*
X161005068Y-67362158D01*
X161117010Y-67632411D01*
X161279525Y-67875632D01*
X161486368Y-68082475D01*
X161660760Y-68199000D01*
X161486368Y-68315525D01*
X161279525Y-68522368D01*
X161117010Y-68765589D01*
X161005068Y-69035842D01*
X160948000Y-69322740D01*
X160948000Y-69615260D01*
X161005068Y-69902158D01*
X161117010Y-70172411D01*
X161279525Y-70415632D01*
X161486368Y-70622475D01*
X161660760Y-70739000D01*
X161486368Y-70855525D01*
X161279525Y-71062368D01*
X161117010Y-71305589D01*
X161005068Y-71575842D01*
X160948000Y-71862740D01*
X160948000Y-72155260D01*
X161005068Y-72442158D01*
X161117010Y-72712411D01*
X161279525Y-72955632D01*
X161486368Y-73162475D01*
X161660760Y-73279000D01*
X161486368Y-73395525D01*
X161279525Y-73602368D01*
X161117010Y-73845589D01*
X161005068Y-74115842D01*
X160948000Y-74402740D01*
X160948000Y-74695260D01*
X161005068Y-74982158D01*
X161117010Y-75252411D01*
X161279525Y-75495632D01*
X161486368Y-75702475D01*
X161660760Y-75819000D01*
X161486368Y-75935525D01*
X161279525Y-76142368D01*
X161117010Y-76385589D01*
X161005068Y-76655842D01*
X160948000Y-76942740D01*
X160948000Y-77235260D01*
X161005068Y-77522158D01*
X161117010Y-77792411D01*
X161279525Y-78035632D01*
X161486368Y-78242475D01*
X161660760Y-78359000D01*
X161486368Y-78475525D01*
X161279525Y-78682368D01*
X161117010Y-78925589D01*
X161005068Y-79195842D01*
X160948000Y-79482740D01*
X160948000Y-79775260D01*
X161005068Y-80062158D01*
X161117010Y-80332411D01*
X161279525Y-80575632D01*
X161486368Y-80782475D01*
X161660760Y-80899000D01*
X161486368Y-81015525D01*
X161279525Y-81222368D01*
X161117010Y-81465589D01*
X161005068Y-81735842D01*
X160948000Y-82022740D01*
X160948000Y-82315260D01*
X161005068Y-82602158D01*
X161117010Y-82872411D01*
X161279525Y-83115632D01*
X161486368Y-83322475D01*
X161660760Y-83439000D01*
X161486368Y-83555525D01*
X161279525Y-83762368D01*
X161117010Y-84005589D01*
X161005068Y-84275842D01*
X160948000Y-84562740D01*
X160948000Y-84855260D01*
X161005068Y-85142158D01*
X161117010Y-85412411D01*
X161279525Y-85655632D01*
X161411380Y-85787487D01*
X161338820Y-85809498D01*
X161228506Y-85868463D01*
X161131815Y-85947815D01*
X161052463Y-86044506D01*
X160993498Y-86154820D01*
X160957188Y-86274518D01*
X160944928Y-86399000D01*
X160944928Y-88099000D01*
X160957188Y-88223482D01*
X160993498Y-88343180D01*
X161052463Y-88453494D01*
X161131815Y-88550185D01*
X161228506Y-88629537D01*
X161338820Y-88688502D01*
X161458518Y-88724812D01*
X161583000Y-88737072D01*
X163283000Y-88737072D01*
X163407482Y-88724812D01*
X163527180Y-88688502D01*
X163576000Y-88662407D01*
X163576000Y-111497242D01*
X62738000Y-111394972D01*
X62738000Y-108613849D01*
X125857000Y-108613849D01*
X125857000Y-109064151D01*
X125944850Y-109505802D01*
X126117173Y-109921827D01*
X126367348Y-110296240D01*
X126685760Y-110614652D01*
X127060173Y-110864827D01*
X127476198Y-111037150D01*
X127917849Y-111125000D01*
X128368151Y-111125000D01*
X128809802Y-111037150D01*
X129225827Y-110864827D01*
X129600240Y-110614652D01*
X129918652Y-110296240D01*
X130168827Y-109921827D01*
X130341150Y-109505802D01*
X130429000Y-109064151D01*
X130429000Y-108613849D01*
X158877000Y-108613849D01*
X158877000Y-109064151D01*
X158964850Y-109505802D01*
X159137173Y-109921827D01*
X159387348Y-110296240D01*
X159705760Y-110614652D01*
X160080173Y-110864827D01*
X160496198Y-111037150D01*
X160937849Y-111125000D01*
X161388151Y-111125000D01*
X161829802Y-111037150D01*
X162245827Y-110864827D01*
X162620240Y-110614652D01*
X162938652Y-110296240D01*
X163188827Y-109921827D01*
X163361150Y-109505802D01*
X163449000Y-109064151D01*
X163449000Y-108613849D01*
X163361150Y-108172198D01*
X163188827Y-107756173D01*
X162938652Y-107381760D01*
X162620240Y-107063348D01*
X162245827Y-106813173D01*
X161829802Y-106640850D01*
X161388151Y-106553000D01*
X160937849Y-106553000D01*
X160496198Y-106640850D01*
X160080173Y-106813173D01*
X159705760Y-107063348D01*
X159387348Y-107381760D01*
X159137173Y-107756173D01*
X158964850Y-108172198D01*
X158877000Y-108613849D01*
X130429000Y-108613849D01*
X130341150Y-108172198D01*
X130168827Y-107756173D01*
X129918652Y-107381760D01*
X129600240Y-107063348D01*
X129225827Y-106813173D01*
X128809802Y-106640850D01*
X128368151Y-106553000D01*
X127917849Y-106553000D01*
X127476198Y-106640850D01*
X127060173Y-106813173D01*
X126685760Y-107063348D01*
X126367348Y-107381760D01*
X126117173Y-107756173D01*
X125944850Y-108172198D01*
X125857000Y-108613849D01*
X62738000Y-108613849D01*
X62738000Y-105957000D01*
X68488928Y-105957000D01*
X68488928Y-107657000D01*
X68501188Y-107781482D01*
X68537498Y-107901180D01*
X68596463Y-108011494D01*
X68675815Y-108108185D01*
X68772506Y-108187537D01*
X68882820Y-108246502D01*
X69002518Y-108282812D01*
X69127000Y-108295072D01*
X70827000Y-108295072D01*
X70951482Y-108282812D01*
X71071180Y-108246502D01*
X71181494Y-108187537D01*
X71278185Y-108108185D01*
X71357537Y-108011494D01*
X71416502Y-107901180D01*
X71438513Y-107828620D01*
X71570368Y-107960475D01*
X71813589Y-108122990D01*
X72083842Y-108234932D01*
X72370740Y-108292000D01*
X72663260Y-108292000D01*
X72950158Y-108234932D01*
X73220411Y-108122990D01*
X73463632Y-107960475D01*
X73670475Y-107753632D01*
X73787000Y-107579240D01*
X73903525Y-107753632D01*
X74110368Y-107960475D01*
X74353589Y-108122990D01*
X74623842Y-108234932D01*
X74910740Y-108292000D01*
X75203260Y-108292000D01*
X75490158Y-108234932D01*
X75760411Y-108122990D01*
X76003632Y-107960475D01*
X76210475Y-107753632D01*
X76327000Y-107579240D01*
X76443525Y-107753632D01*
X76650368Y-107960475D01*
X76893589Y-108122990D01*
X77163842Y-108234932D01*
X77450740Y-108292000D01*
X77743260Y-108292000D01*
X78030158Y-108234932D01*
X78300411Y-108122990D01*
X78543632Y-107960475D01*
X78750475Y-107753632D01*
X78867000Y-107579240D01*
X78983525Y-107753632D01*
X79190368Y-107960475D01*
X79433589Y-108122990D01*
X79703842Y-108234932D01*
X79990740Y-108292000D01*
X80283260Y-108292000D01*
X80570158Y-108234932D01*
X80840411Y-108122990D01*
X81083632Y-107960475D01*
X81290475Y-107753632D01*
X81407000Y-107579240D01*
X81523525Y-107753632D01*
X81730368Y-107960475D01*
X81973589Y-108122990D01*
X82243842Y-108234932D01*
X82530740Y-108292000D01*
X82823260Y-108292000D01*
X83110158Y-108234932D01*
X83380411Y-108122990D01*
X83623632Y-107960475D01*
X83830475Y-107753632D01*
X83947000Y-107579240D01*
X84063525Y-107753632D01*
X84270368Y-107960475D01*
X84513589Y-108122990D01*
X84783842Y-108234932D01*
X85070740Y-108292000D01*
X85363260Y-108292000D01*
X85650158Y-108234932D01*
X85920411Y-108122990D01*
X86163632Y-107960475D01*
X86370475Y-107753632D01*
X86487000Y-107579240D01*
X86603525Y-107753632D01*
X86810368Y-107960475D01*
X87053589Y-108122990D01*
X87323842Y-108234932D01*
X87610740Y-108292000D01*
X87903260Y-108292000D01*
X88190158Y-108234932D01*
X88460411Y-108122990D01*
X88703632Y-107960475D01*
X88910475Y-107753632D01*
X89072990Y-107510411D01*
X89184932Y-107240158D01*
X89242000Y-106953260D01*
X89242000Y-106660740D01*
X89184932Y-106373842D01*
X89072990Y-106103589D01*
X88910475Y-105860368D01*
X88703632Y-105653525D01*
X88460411Y-105491010D01*
X88190158Y-105379068D01*
X87903260Y-105322000D01*
X87610740Y-105322000D01*
X87323842Y-105379068D01*
X87053589Y-105491010D01*
X86810368Y-105653525D01*
X86603525Y-105860368D01*
X86487000Y-106034760D01*
X86370475Y-105860368D01*
X86163632Y-105653525D01*
X85920411Y-105491010D01*
X85650158Y-105379068D01*
X85363260Y-105322000D01*
X85070740Y-105322000D01*
X84783842Y-105379068D01*
X84513589Y-105491010D01*
X84270368Y-105653525D01*
X84063525Y-105860368D01*
X83947000Y-106034760D01*
X83830475Y-105860368D01*
X83623632Y-105653525D01*
X83380411Y-105491010D01*
X83110158Y-105379068D01*
X82823260Y-105322000D01*
X82530740Y-105322000D01*
X82243842Y-105379068D01*
X81973589Y-105491010D01*
X81730368Y-105653525D01*
X81523525Y-105860368D01*
X81407000Y-106034760D01*
X81290475Y-105860368D01*
X81083632Y-105653525D01*
X80840411Y-105491010D01*
X80570158Y-105379068D01*
X80283260Y-105322000D01*
X79990740Y-105322000D01*
X79703842Y-105379068D01*
X79433589Y-105491010D01*
X79190368Y-105653525D01*
X78983525Y-105860368D01*
X78867000Y-106034760D01*
X78750475Y-105860368D01*
X78543632Y-105653525D01*
X78300411Y-105491010D01*
X78030158Y-105379068D01*
X77743260Y-105322000D01*
X77450740Y-105322000D01*
X77163842Y-105379068D01*
X76893589Y-105491010D01*
X76650368Y-105653525D01*
X76443525Y-105860368D01*
X76327000Y-106034760D01*
X76210475Y-105860368D01*
X76003632Y-105653525D01*
X75760411Y-105491010D01*
X75490158Y-105379068D01*
X75203260Y-105322000D01*
X74910740Y-105322000D01*
X74623842Y-105379068D01*
X74353589Y-105491010D01*
X74110368Y-105653525D01*
X73903525Y-105860368D01*
X73787000Y-106034760D01*
X73670475Y-105860368D01*
X73463632Y-105653525D01*
X73220411Y-105491010D01*
X72950158Y-105379068D01*
X72663260Y-105322000D01*
X72370740Y-105322000D01*
X72083842Y-105379068D01*
X71813589Y-105491010D01*
X71570368Y-105653525D01*
X71438513Y-105785380D01*
X71416502Y-105712820D01*
X71357537Y-105602506D01*
X71278185Y-105505815D01*
X71181494Y-105426463D01*
X71071180Y-105367498D01*
X70951482Y-105331188D01*
X70827000Y-105318928D01*
X69127000Y-105318928D01*
X69002518Y-105331188D01*
X68882820Y-105367498D01*
X68772506Y-105426463D01*
X68675815Y-105505815D01*
X68596463Y-105602506D01*
X68537498Y-105712820D01*
X68501188Y-105832518D01*
X68488928Y-105957000D01*
X62738000Y-105957000D01*
X62738000Y-105311849D01*
X91821000Y-105311849D01*
X91821000Y-105762151D01*
X91908850Y-106203802D01*
X92081173Y-106619827D01*
X92331348Y-106994240D01*
X92649760Y-107312652D01*
X93024173Y-107562827D01*
X93440198Y-107735150D01*
X93881849Y-107823000D01*
X94332151Y-107823000D01*
X94773802Y-107735150D01*
X95189827Y-107562827D01*
X95564240Y-107312652D01*
X95882652Y-106994240D01*
X96132827Y-106619827D01*
X96305150Y-106203802D01*
X96393000Y-105762151D01*
X96393000Y-105311849D01*
X96305150Y-104870198D01*
X96132827Y-104454173D01*
X95882652Y-104079760D01*
X95564240Y-103761348D01*
X95189827Y-103511173D01*
X94773802Y-103338850D01*
X94332151Y-103251000D01*
X93881849Y-103251000D01*
X93440198Y-103338850D01*
X93024173Y-103511173D01*
X92649760Y-103761348D01*
X92331348Y-104079760D01*
X92081173Y-104454173D01*
X91908850Y-104870198D01*
X91821000Y-105311849D01*
X62738000Y-105311849D01*
X62738000Y-96051000D01*
X97444928Y-96051000D01*
X97444928Y-97751000D01*
X97457188Y-97875482D01*
X97493498Y-97995180D01*
X97552463Y-98105494D01*
X97631815Y-98202185D01*
X97728506Y-98281537D01*
X97838820Y-98340502D01*
X97911380Y-98362513D01*
X97779525Y-98494368D01*
X97617010Y-98737589D01*
X97505068Y-99007842D01*
X97448000Y-99294740D01*
X97448000Y-99587260D01*
X97505068Y-99874158D01*
X97617010Y-100144411D01*
X97779525Y-100387632D01*
X97986368Y-100594475D01*
X98160760Y-100711000D01*
X97986368Y-100827525D01*
X97779525Y-101034368D01*
X97617010Y-101277589D01*
X97505068Y-101547842D01*
X97448000Y-101834740D01*
X97448000Y-102127260D01*
X97505068Y-102414158D01*
X97617010Y-102684411D01*
X97779525Y-102927632D01*
X97986368Y-103134475D01*
X98160760Y-103251000D01*
X97986368Y-103367525D01*
X97779525Y-103574368D01*
X97617010Y-103817589D01*
X97505068Y-104087842D01*
X97448000Y-104374740D01*
X97448000Y-104667260D01*
X97505068Y-104954158D01*
X97617010Y-105224411D01*
X97779525Y-105467632D01*
X97986368Y-105674475D01*
X98160760Y-105791000D01*
X97986368Y-105907525D01*
X97779525Y-106114368D01*
X97617010Y-106357589D01*
X97505068Y-106627842D01*
X97448000Y-106914740D01*
X97448000Y-107207260D01*
X97505068Y-107494158D01*
X97617010Y-107764411D01*
X97779525Y-108007632D01*
X97986368Y-108214475D01*
X98229589Y-108376990D01*
X98499842Y-108488932D01*
X98786740Y-108546000D01*
X99079260Y-108546000D01*
X99366158Y-108488932D01*
X99636411Y-108376990D01*
X99879632Y-108214475D01*
X100086475Y-108007632D01*
X100248990Y-107764411D01*
X100360932Y-107494158D01*
X100418000Y-107207260D01*
X100418000Y-106914740D01*
X100360932Y-106627842D01*
X100248990Y-106357589D01*
X100086475Y-106114368D01*
X99879632Y-105907525D01*
X99705240Y-105791000D01*
X99879632Y-105674475D01*
X100086475Y-105467632D01*
X100248990Y-105224411D01*
X100360932Y-104954158D01*
X100418000Y-104667260D01*
X100418000Y-104374740D01*
X100360932Y-104087842D01*
X100248990Y-103817589D01*
X100086475Y-103574368D01*
X99879632Y-103367525D01*
X99705240Y-103251000D01*
X99879632Y-103134475D01*
X100086475Y-102927632D01*
X100248990Y-102684411D01*
X100360932Y-102414158D01*
X100418000Y-102127260D01*
X100418000Y-101834740D01*
X100360932Y-101547842D01*
X100248990Y-101277589D01*
X100086475Y-101034368D01*
X99879632Y-100827525D01*
X99705240Y-100711000D01*
X99879632Y-100594475D01*
X100086475Y-100387632D01*
X100248990Y-100144411D01*
X100360932Y-99874158D01*
X100418000Y-99587260D01*
X100418000Y-99294740D01*
X100360932Y-99007842D01*
X100248990Y-98737589D01*
X100086475Y-98494368D01*
X99954620Y-98362513D01*
X100027180Y-98340502D01*
X100137494Y-98281537D01*
X100234185Y-98202185D01*
X100313537Y-98105494D01*
X100372502Y-97995180D01*
X100408812Y-97875482D01*
X100421072Y-97751000D01*
X100421072Y-96051000D01*
X100408812Y-95926518D01*
X100372502Y-95806820D01*
X100313537Y-95696506D01*
X100234185Y-95599815D01*
X100137494Y-95520463D01*
X100027180Y-95461498D01*
X99907482Y-95425188D01*
X99783000Y-95412928D01*
X98083000Y-95412928D01*
X97958518Y-95425188D01*
X97838820Y-95461498D01*
X97728506Y-95520463D01*
X97631815Y-95599815D01*
X97552463Y-95696506D01*
X97493498Y-95806820D01*
X97457188Y-95926518D01*
X97444928Y-96051000D01*
X62738000Y-96051000D01*
X62738000Y-77177000D01*
X73568928Y-77177000D01*
X73581188Y-77301482D01*
X73617498Y-77421180D01*
X73676463Y-77531494D01*
X73755815Y-77628185D01*
X73852506Y-77707537D01*
X73962820Y-77766502D01*
X74082518Y-77802812D01*
X74207000Y-77815072D01*
X74771250Y-77812000D01*
X74930000Y-77653250D01*
X74930000Y-76454000D01*
X73730750Y-76454000D01*
X73572000Y-76612750D01*
X73568928Y-77177000D01*
X62738000Y-77177000D01*
X62738000Y-75477000D01*
X73568928Y-75477000D01*
X73572000Y-76041250D01*
X73730750Y-76200000D01*
X74930000Y-76200000D01*
X74930000Y-75000750D01*
X74771250Y-74842000D01*
X74207000Y-74838928D01*
X74082518Y-74851188D01*
X73962820Y-74887498D01*
X73852506Y-74946463D01*
X73755815Y-75025815D01*
X73676463Y-75122506D01*
X73617498Y-75232820D01*
X73581188Y-75352518D01*
X73568928Y-75477000D01*
X62738000Y-75477000D01*
X62738000Y-68619000D01*
X69504928Y-68619000D01*
X69504928Y-70319000D01*
X69517188Y-70443482D01*
X69553498Y-70563180D01*
X69612463Y-70673494D01*
X69691815Y-70770185D01*
X69788506Y-70849537D01*
X69898820Y-70908502D01*
X70018518Y-70944812D01*
X70143000Y-70957072D01*
X71843000Y-70957072D01*
X71967482Y-70944812D01*
X72087180Y-70908502D01*
X72197494Y-70849537D01*
X72294185Y-70770185D01*
X72373537Y-70673494D01*
X72432502Y-70563180D01*
X72468812Y-70443482D01*
X72481072Y-70319000D01*
X72481072Y-70259849D01*
X76708000Y-70259849D01*
X76708000Y-70710151D01*
X76795850Y-71151802D01*
X76968173Y-71567827D01*
X77218348Y-71942240D01*
X77536760Y-72260652D01*
X77911173Y-72510827D01*
X78327198Y-72683150D01*
X78768849Y-72771000D01*
X79219151Y-72771000D01*
X79660802Y-72683150D01*
X80076827Y-72510827D01*
X80451240Y-72260652D01*
X80769652Y-71942240D01*
X81019827Y-71567827D01*
X81192150Y-71151802D01*
X81280000Y-70710151D01*
X81280000Y-70259849D01*
X81192150Y-69818198D01*
X81019827Y-69402173D01*
X80769652Y-69027760D01*
X80451240Y-68709348D01*
X80076827Y-68459173D01*
X79660802Y-68286850D01*
X79219151Y-68199000D01*
X78768849Y-68199000D01*
X78327198Y-68286850D01*
X77911173Y-68459173D01*
X77536760Y-68709348D01*
X77218348Y-69027760D01*
X76968173Y-69402173D01*
X76795850Y-69818198D01*
X76708000Y-70259849D01*
X72481072Y-70259849D01*
X72481072Y-68619000D01*
X72468812Y-68494518D01*
X72432502Y-68374820D01*
X72373537Y-68264506D01*
X72294185Y-68167815D01*
X72197494Y-68088463D01*
X72087180Y-68029498D01*
X72014620Y-68007487D01*
X72146475Y-67875632D01*
X72308990Y-67632411D01*
X72420932Y-67362158D01*
X72478000Y-67075260D01*
X72478000Y-66782740D01*
X72420932Y-66495842D01*
X72308990Y-66225589D01*
X72146475Y-65982368D01*
X71939632Y-65775525D01*
X71757466Y-65653805D01*
X71874355Y-65584178D01*
X72090588Y-65389269D01*
X72264641Y-65155920D01*
X72389825Y-64893099D01*
X72434476Y-64745890D01*
X72313156Y-64516002D01*
X72478000Y-64516002D01*
X72478000Y-64408801D01*
X73890201Y-65821003D01*
X73914000Y-65850002D01*
X73942998Y-65873800D01*
X74029725Y-65944975D01*
X74161754Y-66015547D01*
X74305015Y-66059004D01*
X74454001Y-66073678D01*
X74491334Y-66070001D01*
X76235928Y-66070001D01*
X76235928Y-67525000D01*
X76248188Y-67649482D01*
X76284498Y-67769180D01*
X76343463Y-67879494D01*
X76422815Y-67976185D01*
X76519506Y-68055537D01*
X76629820Y-68114502D01*
X76749518Y-68150812D01*
X76874000Y-68163072D01*
X78574000Y-68163072D01*
X78698482Y-68150812D01*
X78818180Y-68114502D01*
X78928494Y-68055537D01*
X79025185Y-67976185D01*
X79104537Y-67879494D01*
X79163502Y-67769180D01*
X79199812Y-67649482D01*
X79212072Y-67525000D01*
X79212072Y-66070001D01*
X87601200Y-66070001D01*
X89537001Y-68005803D01*
X89537000Y-75048821D01*
X89350368Y-75173525D01*
X89143525Y-75380368D01*
X89027000Y-75554760D01*
X88910475Y-75380368D01*
X88703632Y-75173525D01*
X88517000Y-75048822D01*
X88517000Y-71442711D01*
X88560937Y-71398774D01*
X88674205Y-71229256D01*
X88752226Y-71040898D01*
X88792000Y-70840939D01*
X88792000Y-70637061D01*
X88752226Y-70437102D01*
X88674205Y-70248744D01*
X88560937Y-70079226D01*
X88416774Y-69935063D01*
X88247256Y-69821795D01*
X88058898Y-69743774D01*
X87858939Y-69704000D01*
X87655061Y-69704000D01*
X87455102Y-69743774D01*
X87266744Y-69821795D01*
X87097226Y-69935063D01*
X86953063Y-70079226D01*
X86839795Y-70248744D01*
X86761774Y-70437102D01*
X86722000Y-70637061D01*
X86722000Y-70840939D01*
X86761774Y-71040898D01*
X86839795Y-71229256D01*
X86953063Y-71398774D01*
X86997001Y-71442712D01*
X86997000Y-75048821D01*
X86810368Y-75173525D01*
X86603525Y-75380368D01*
X86487000Y-75554760D01*
X86370475Y-75380368D01*
X86163632Y-75173525D01*
X85920411Y-75011010D01*
X85650158Y-74899068D01*
X85363260Y-74842000D01*
X85070740Y-74842000D01*
X84783842Y-74899068D01*
X84513589Y-75011010D01*
X84270368Y-75173525D01*
X84063525Y-75380368D01*
X83947000Y-75554760D01*
X83830475Y-75380368D01*
X83623632Y-75173525D01*
X83380411Y-75011010D01*
X83110158Y-74899068D01*
X82823260Y-74842000D01*
X82530740Y-74842000D01*
X82243842Y-74899068D01*
X81973589Y-75011010D01*
X81730368Y-75173525D01*
X81523525Y-75380368D01*
X81407000Y-75554760D01*
X81290475Y-75380368D01*
X81083632Y-75173525D01*
X80840411Y-75011010D01*
X80570158Y-74899068D01*
X80283260Y-74842000D01*
X79990740Y-74842000D01*
X79703842Y-74899068D01*
X79433589Y-75011010D01*
X79190368Y-75173525D01*
X78983525Y-75380368D01*
X78867000Y-75554760D01*
X78750475Y-75380368D01*
X78543632Y-75173525D01*
X78300411Y-75011010D01*
X78030158Y-74899068D01*
X77743260Y-74842000D01*
X77450740Y-74842000D01*
X77163842Y-74899068D01*
X76893589Y-75011010D01*
X76650368Y-75173525D01*
X76518513Y-75305380D01*
X76496502Y-75232820D01*
X76437537Y-75122506D01*
X76358185Y-75025815D01*
X76261494Y-74946463D01*
X76151180Y-74887498D01*
X76031482Y-74851188D01*
X75907000Y-74838928D01*
X75342750Y-74842000D01*
X75184000Y-75000750D01*
X75184000Y-76200000D01*
X75204000Y-76200000D01*
X75204000Y-76454000D01*
X75184000Y-76454000D01*
X75184000Y-77653250D01*
X75342750Y-77812000D01*
X75907000Y-77815072D01*
X76031482Y-77802812D01*
X76151180Y-77766502D01*
X76261494Y-77707537D01*
X76358185Y-77628185D01*
X76437537Y-77531494D01*
X76496502Y-77421180D01*
X76518513Y-77348620D01*
X76650368Y-77480475D01*
X76893589Y-77642990D01*
X77163842Y-77754932D01*
X77450740Y-77812000D01*
X77743260Y-77812000D01*
X78030158Y-77754932D01*
X78300411Y-77642990D01*
X78543632Y-77480475D01*
X78750475Y-77273632D01*
X78867000Y-77099240D01*
X78983525Y-77273632D01*
X79190368Y-77480475D01*
X79433589Y-77642990D01*
X79703842Y-77754932D01*
X79990740Y-77812000D01*
X80283260Y-77812000D01*
X80570158Y-77754932D01*
X80840411Y-77642990D01*
X81083632Y-77480475D01*
X81290475Y-77273632D01*
X81407000Y-77099240D01*
X81523525Y-77273632D01*
X81730368Y-77480475D01*
X81973589Y-77642990D01*
X82243842Y-77754932D01*
X82530740Y-77812000D01*
X82823260Y-77812000D01*
X83110158Y-77754932D01*
X83380411Y-77642990D01*
X83623632Y-77480475D01*
X83830475Y-77273632D01*
X83947000Y-77099240D01*
X84063525Y-77273632D01*
X84270368Y-77480475D01*
X84513589Y-77642990D01*
X84783842Y-77754932D01*
X85070740Y-77812000D01*
X85363260Y-77812000D01*
X85650158Y-77754932D01*
X85920411Y-77642990D01*
X86163632Y-77480475D01*
X86370475Y-77273632D01*
X86487000Y-77099240D01*
X86603525Y-77273632D01*
X86810368Y-77480475D01*
X87053589Y-77642990D01*
X87323842Y-77754932D01*
X87610740Y-77812000D01*
X87903260Y-77812000D01*
X88190158Y-77754932D01*
X88460411Y-77642990D01*
X88703632Y-77480475D01*
X88910475Y-77273632D01*
X89027000Y-77099240D01*
X89143525Y-77273632D01*
X89350368Y-77480475D01*
X89593589Y-77642990D01*
X89863842Y-77754932D01*
X90150740Y-77812000D01*
X90443260Y-77812000D01*
X90730158Y-77754932D01*
X91000411Y-77642990D01*
X91243632Y-77480475D01*
X91450475Y-77273632D01*
X91612990Y-77030411D01*
X91724932Y-76760158D01*
X91782000Y-76473260D01*
X91782000Y-76180740D01*
X91738210Y-75960592D01*
X91899801Y-75799001D01*
X92683205Y-75799001D01*
X92649760Y-75821348D01*
X92331348Y-76139760D01*
X92081173Y-76514173D01*
X91908850Y-76930198D01*
X91821000Y-77371849D01*
X91821000Y-77822151D01*
X91908850Y-78263802D01*
X92081173Y-78679827D01*
X92331348Y-79054240D01*
X92649760Y-79372652D01*
X93024173Y-79622827D01*
X93440198Y-79795150D01*
X93881849Y-79883000D01*
X94332151Y-79883000D01*
X94773802Y-79795150D01*
X95189827Y-79622827D01*
X95564240Y-79372652D01*
X95882652Y-79054240D01*
X96132827Y-78679827D01*
X96305150Y-78263802D01*
X96393000Y-77822151D01*
X96393000Y-77371849D01*
X96305150Y-76930198D01*
X96132827Y-76514173D01*
X95882652Y-76139760D01*
X95564240Y-75821348D01*
X95530795Y-75799001D01*
X97330200Y-75799001D01*
X97444928Y-75913729D01*
X97444928Y-77177000D01*
X97457188Y-77301482D01*
X97493498Y-77421180D01*
X97552463Y-77531494D01*
X97631815Y-77628185D01*
X97728506Y-77707537D01*
X97838820Y-77766502D01*
X97911380Y-77788513D01*
X97779525Y-77920368D01*
X97617010Y-78163589D01*
X97505068Y-78433842D01*
X97448000Y-78720740D01*
X97448000Y-79013260D01*
X97505068Y-79300158D01*
X97617010Y-79570411D01*
X97779525Y-79813632D01*
X97986368Y-80020475D01*
X98160760Y-80137000D01*
X97986368Y-80253525D01*
X97779525Y-80460368D01*
X97617010Y-80703589D01*
X97505068Y-80973842D01*
X97448000Y-81260740D01*
X97448000Y-81553260D01*
X97505068Y-81840158D01*
X97617010Y-82110411D01*
X97779525Y-82353632D01*
X97986368Y-82560475D01*
X98229589Y-82722990D01*
X98499842Y-82834932D01*
X98786740Y-82892000D01*
X99079260Y-82892000D01*
X99366158Y-82834932D01*
X99636411Y-82722990D01*
X99879632Y-82560475D01*
X100086475Y-82353632D01*
X100248990Y-82110411D01*
X100360932Y-81840158D01*
X100418000Y-81553260D01*
X100418000Y-81260740D01*
X100360932Y-80973842D01*
X100248990Y-80703589D01*
X100086475Y-80460368D01*
X99879632Y-80253525D01*
X99705240Y-80137000D01*
X99879632Y-80020475D01*
X100086475Y-79813632D01*
X100248990Y-79570411D01*
X100360932Y-79300158D01*
X100418000Y-79013260D01*
X100418000Y-78720740D01*
X100360932Y-78433842D01*
X100248990Y-78163589D01*
X100086475Y-77920368D01*
X99954620Y-77788513D01*
X100027180Y-77766502D01*
X100137494Y-77707537D01*
X100234185Y-77628185D01*
X100313537Y-77531494D01*
X100372502Y-77421180D01*
X100408812Y-77301482D01*
X100421072Y-77177000D01*
X100421072Y-75913730D01*
X100535801Y-75799001D01*
X104382077Y-75799001D01*
X104284147Y-76035426D01*
X104229000Y-76312665D01*
X104229000Y-76595335D01*
X104284147Y-76872574D01*
X104392320Y-77133727D01*
X104549363Y-77368759D01*
X104749241Y-77568637D01*
X104981759Y-77724000D01*
X104749241Y-77879363D01*
X104549363Y-78079241D01*
X104392320Y-78314273D01*
X104284147Y-78575426D01*
X104229000Y-78852665D01*
X104229000Y-79135335D01*
X104284147Y-79412574D01*
X104392320Y-79673727D01*
X104549363Y-79908759D01*
X104749241Y-80108637D01*
X104981759Y-80264000D01*
X104749241Y-80419363D01*
X104549363Y-80619241D01*
X104392320Y-80854273D01*
X104284147Y-81115426D01*
X104229000Y-81392665D01*
X104229000Y-81675335D01*
X104284147Y-81952574D01*
X104392320Y-82213727D01*
X104549363Y-82448759D01*
X104749241Y-82648637D01*
X104981759Y-82804000D01*
X104749241Y-82959363D01*
X104549363Y-83159241D01*
X104445957Y-83314000D01*
X80840711Y-83314000D01*
X80796774Y-83270063D01*
X80627256Y-83156795D01*
X80438898Y-83078774D01*
X80238939Y-83039000D01*
X80035061Y-83039000D01*
X79835102Y-83078774D01*
X79646744Y-83156795D01*
X79477226Y-83270063D01*
X79333063Y-83414226D01*
X79219795Y-83583744D01*
X79141774Y-83772102D01*
X79102000Y-83972061D01*
X79102000Y-84175939D01*
X79141774Y-84375898D01*
X79219795Y-84564256D01*
X79333063Y-84733774D01*
X79477226Y-84877937D01*
X79646744Y-84991205D01*
X79835102Y-85069226D01*
X80035061Y-85109000D01*
X80238939Y-85109000D01*
X80438898Y-85069226D01*
X80627256Y-84991205D01*
X80796774Y-84877937D01*
X80840711Y-84834000D01*
X104445957Y-84834000D01*
X104549363Y-84988759D01*
X104749241Y-85188637D01*
X104981759Y-85344000D01*
X104749241Y-85499363D01*
X104549363Y-85699241D01*
X104392320Y-85934273D01*
X104284147Y-86195426D01*
X104229000Y-86472665D01*
X104229000Y-86755335D01*
X104284147Y-87032574D01*
X104392320Y-87293727D01*
X104549363Y-87528759D01*
X104749241Y-87728637D01*
X104981759Y-87884000D01*
X104749241Y-88039363D01*
X104549363Y-88239241D01*
X104392320Y-88474273D01*
X104284147Y-88735426D01*
X104229000Y-89012665D01*
X104229000Y-89295335D01*
X104284147Y-89572574D01*
X104392320Y-89833727D01*
X104549363Y-90068759D01*
X104749241Y-90268637D01*
X104981759Y-90424000D01*
X104749241Y-90579363D01*
X104549363Y-90779241D01*
X104392320Y-91014273D01*
X104284147Y-91275426D01*
X104229000Y-91552665D01*
X104229000Y-91835335D01*
X104284147Y-92112574D01*
X104392320Y-92373727D01*
X104549363Y-92608759D01*
X104749241Y-92808637D01*
X104981759Y-92964000D01*
X104749241Y-93119363D01*
X104549363Y-93319241D01*
X104392320Y-93554273D01*
X104284147Y-93815426D01*
X104229000Y-94092665D01*
X104229000Y-94375335D01*
X104284147Y-94652574D01*
X104392320Y-94913727D01*
X104549363Y-95148759D01*
X104749241Y-95348637D01*
X104981759Y-95504000D01*
X104749241Y-95659363D01*
X104549363Y-95859241D01*
X104392320Y-96094273D01*
X104284147Y-96355426D01*
X104229000Y-96632665D01*
X104229000Y-96915335D01*
X104284147Y-97192574D01*
X104392320Y-97453727D01*
X104549363Y-97688759D01*
X104749241Y-97888637D01*
X104981759Y-98044000D01*
X104749241Y-98199363D01*
X104549363Y-98399241D01*
X104392320Y-98634273D01*
X104284147Y-98895426D01*
X104229000Y-99172665D01*
X104229000Y-99455335D01*
X104284147Y-99732574D01*
X104392320Y-99993727D01*
X104549363Y-100228759D01*
X104749241Y-100428637D01*
X104981759Y-100584000D01*
X104749241Y-100739363D01*
X104549363Y-100939241D01*
X104392320Y-101174273D01*
X104284147Y-101435426D01*
X104229000Y-101712665D01*
X104229000Y-101995335D01*
X104284147Y-102272574D01*
X104392320Y-102533727D01*
X104549363Y-102768759D01*
X104749241Y-102968637D01*
X104981759Y-103124000D01*
X104749241Y-103279363D01*
X104549363Y-103479241D01*
X104392320Y-103714273D01*
X104284147Y-103975426D01*
X104229000Y-104252665D01*
X104229000Y-104535335D01*
X104284147Y-104812574D01*
X104392320Y-105073727D01*
X104549363Y-105308759D01*
X104749241Y-105508637D01*
X104981759Y-105664000D01*
X104749241Y-105819363D01*
X104549363Y-106019241D01*
X104392320Y-106254273D01*
X104284147Y-106515426D01*
X104229000Y-106792665D01*
X104229000Y-107075335D01*
X104284147Y-107352574D01*
X104392320Y-107613727D01*
X104549363Y-107848759D01*
X104749241Y-108048637D01*
X104984273Y-108205680D01*
X105245426Y-108313853D01*
X105522665Y-108369000D01*
X105805335Y-108369000D01*
X106082574Y-108313853D01*
X106343727Y-108205680D01*
X106578759Y-108048637D01*
X106778637Y-107848759D01*
X106935680Y-107613727D01*
X107043853Y-107352574D01*
X107099000Y-107075335D01*
X107099000Y-106792665D01*
X107043853Y-106515426D01*
X106935680Y-106254273D01*
X106778637Y-106019241D01*
X106578759Y-105819363D01*
X106346241Y-105664000D01*
X106578759Y-105508637D01*
X106778637Y-105308759D01*
X106935680Y-105073727D01*
X107043853Y-104812574D01*
X107099000Y-104535335D01*
X107099000Y-104252665D01*
X107043853Y-103975426D01*
X106935680Y-103714273D01*
X106778637Y-103479241D01*
X106578759Y-103279363D01*
X106346241Y-103124000D01*
X106578759Y-102968637D01*
X106778637Y-102768759D01*
X106935680Y-102533727D01*
X107043853Y-102272574D01*
X107099000Y-101995335D01*
X107099000Y-101712665D01*
X107043853Y-101435426D01*
X106935680Y-101174273D01*
X106778637Y-100939241D01*
X106578759Y-100739363D01*
X106346241Y-100584000D01*
X106578759Y-100428637D01*
X106778637Y-100228759D01*
X106935680Y-99993727D01*
X107043853Y-99732574D01*
X107099000Y-99455335D01*
X107099000Y-99172665D01*
X107043853Y-98895426D01*
X106935680Y-98634273D01*
X106778637Y-98399241D01*
X106578759Y-98199363D01*
X106346241Y-98044000D01*
X106578759Y-97888637D01*
X106778637Y-97688759D01*
X106935680Y-97453727D01*
X107043853Y-97192574D01*
X107099000Y-96915335D01*
X107099000Y-96632665D01*
X107043853Y-96355426D01*
X106935680Y-96094273D01*
X106778637Y-95859241D01*
X106578759Y-95659363D01*
X106346241Y-95504000D01*
X106578759Y-95348637D01*
X106778637Y-95148759D01*
X106934000Y-94916241D01*
X107089363Y-95148759D01*
X107289241Y-95348637D01*
X107524273Y-95505680D01*
X107785426Y-95613853D01*
X108062665Y-95669000D01*
X108345335Y-95669000D01*
X108622574Y-95613853D01*
X108883727Y-95505680D01*
X109118759Y-95348637D01*
X109318637Y-95148759D01*
X109474000Y-94916241D01*
X109629363Y-95148759D01*
X109829241Y-95348637D01*
X110064273Y-95505680D01*
X110325426Y-95613853D01*
X110602665Y-95669000D01*
X110885335Y-95669000D01*
X111162574Y-95613853D01*
X111423727Y-95505680D01*
X111658759Y-95348637D01*
X111858637Y-95148759D01*
X112014000Y-94916241D01*
X112169363Y-95148759D01*
X112369241Y-95348637D01*
X112604273Y-95505680D01*
X112865426Y-95613853D01*
X113142665Y-95669000D01*
X113425335Y-95669000D01*
X113702574Y-95613853D01*
X113963727Y-95505680D01*
X114198759Y-95348637D01*
X114398637Y-95148759D01*
X114554000Y-94916241D01*
X114709363Y-95148759D01*
X114909241Y-95348637D01*
X115144273Y-95505680D01*
X115405426Y-95613853D01*
X115682665Y-95669000D01*
X115965335Y-95669000D01*
X116242574Y-95613853D01*
X116503727Y-95505680D01*
X116738759Y-95348637D01*
X116938637Y-95148759D01*
X117094000Y-94916241D01*
X117249363Y-95148759D01*
X117449241Y-95348637D01*
X117684273Y-95505680D01*
X117945426Y-95613853D01*
X118222665Y-95669000D01*
X118505335Y-95669000D01*
X118782574Y-95613853D01*
X119043727Y-95505680D01*
X119278759Y-95348637D01*
X119478637Y-95148759D01*
X119634000Y-94916241D01*
X119789363Y-95148759D01*
X119989241Y-95348637D01*
X120221759Y-95504000D01*
X119989241Y-95659363D01*
X119789363Y-95859241D01*
X119632320Y-96094273D01*
X119524147Y-96355426D01*
X119469000Y-96632665D01*
X119469000Y-96915335D01*
X119524147Y-97192574D01*
X119632320Y-97453727D01*
X119789363Y-97688759D01*
X119989241Y-97888637D01*
X120221759Y-98044000D01*
X119989241Y-98199363D01*
X119789363Y-98399241D01*
X119632320Y-98634273D01*
X119524147Y-98895426D01*
X119469000Y-99172665D01*
X119469000Y-99455335D01*
X119524147Y-99732574D01*
X119632320Y-99993727D01*
X119789363Y-100228759D01*
X119989241Y-100428637D01*
X120221759Y-100584000D01*
X119989241Y-100739363D01*
X119789363Y-100939241D01*
X119632320Y-101174273D01*
X119524147Y-101435426D01*
X119469000Y-101712665D01*
X119469000Y-101995335D01*
X119524147Y-102272574D01*
X119632320Y-102533727D01*
X119789363Y-102768759D01*
X119989241Y-102968637D01*
X120221759Y-103124000D01*
X119989241Y-103279363D01*
X119789363Y-103479241D01*
X119632320Y-103714273D01*
X119524147Y-103975426D01*
X119469000Y-104252665D01*
X119469000Y-104535335D01*
X119524147Y-104812574D01*
X119632320Y-105073727D01*
X119789363Y-105308759D01*
X119989241Y-105508637D01*
X120221759Y-105664000D01*
X119989241Y-105819363D01*
X119789363Y-106019241D01*
X119632320Y-106254273D01*
X119524147Y-106515426D01*
X119469000Y-106792665D01*
X119469000Y-107075335D01*
X119524147Y-107352574D01*
X119632320Y-107613727D01*
X119789363Y-107848759D01*
X119989241Y-108048637D01*
X120224273Y-108205680D01*
X120485426Y-108313853D01*
X120762665Y-108369000D01*
X121045335Y-108369000D01*
X121322574Y-108313853D01*
X121583727Y-108205680D01*
X121818759Y-108048637D01*
X122018637Y-107848759D01*
X122175680Y-107613727D01*
X122283853Y-107352574D01*
X122339000Y-107075335D01*
X122339000Y-106792665D01*
X122283853Y-106515426D01*
X122175680Y-106254273D01*
X122018637Y-106019241D01*
X121818759Y-105819363D01*
X121586241Y-105664000D01*
X121818759Y-105508637D01*
X122018637Y-105308759D01*
X122175680Y-105073727D01*
X122283853Y-104812574D01*
X122339000Y-104535335D01*
X122339000Y-104252665D01*
X122283853Y-103975426D01*
X122175680Y-103714273D01*
X122018637Y-103479241D01*
X121818759Y-103279363D01*
X121586241Y-103124000D01*
X121818759Y-102968637D01*
X122018637Y-102768759D01*
X122175680Y-102533727D01*
X122283853Y-102272574D01*
X122339000Y-101995335D01*
X122339000Y-101712665D01*
X122283853Y-101435426D01*
X122175680Y-101174273D01*
X122018637Y-100939241D01*
X121818759Y-100739363D01*
X121586241Y-100584000D01*
X121818759Y-100428637D01*
X122018637Y-100228759D01*
X122175680Y-99993727D01*
X122283853Y-99732574D01*
X122339000Y-99455335D01*
X122339000Y-99172665D01*
X122283853Y-98895426D01*
X122175680Y-98634273D01*
X122018637Y-98399241D01*
X121818759Y-98199363D01*
X121586241Y-98044000D01*
X121818759Y-97888637D01*
X122018637Y-97688759D01*
X122175680Y-97453727D01*
X122283853Y-97192574D01*
X122339000Y-96915335D01*
X122339000Y-96632665D01*
X122283853Y-96355426D01*
X122175680Y-96094273D01*
X122018637Y-95859241D01*
X121818759Y-95659363D01*
X121586241Y-95504000D01*
X121818759Y-95348637D01*
X122018637Y-95148759D01*
X122175680Y-94913727D01*
X122283853Y-94652574D01*
X122339000Y-94375335D01*
X122339000Y-94092665D01*
X122283853Y-93815426D01*
X122175680Y-93554273D01*
X122018637Y-93319241D01*
X121818759Y-93119363D01*
X121586241Y-92964000D01*
X121818759Y-92808637D01*
X122018637Y-92608759D01*
X122175680Y-92373727D01*
X122283853Y-92112574D01*
X122339000Y-91835335D01*
X122339000Y-91552665D01*
X122283853Y-91275426D01*
X122175680Y-91014273D01*
X122018637Y-90779241D01*
X121818759Y-90579363D01*
X121586241Y-90424000D01*
X121818759Y-90268637D01*
X122018637Y-90068759D01*
X122175680Y-89833727D01*
X122283853Y-89572574D01*
X122339000Y-89295335D01*
X122339000Y-89012665D01*
X122283853Y-88735426D01*
X122175680Y-88474273D01*
X122018637Y-88239241D01*
X121818759Y-88039363D01*
X121586241Y-87884000D01*
X121818759Y-87728637D01*
X122018637Y-87528759D01*
X122175680Y-87293727D01*
X122283853Y-87032574D01*
X122339000Y-86755335D01*
X122339000Y-86472665D01*
X122283853Y-86195426D01*
X122175680Y-85934273D01*
X122018637Y-85699241D01*
X121818759Y-85499363D01*
X121584872Y-85343085D01*
X121645514Y-85310671D01*
X121717097Y-85066702D01*
X120904000Y-84253605D01*
X120090903Y-85066702D01*
X120162486Y-85310671D01*
X120226992Y-85341194D01*
X120224273Y-85342320D01*
X119989241Y-85499363D01*
X119789363Y-85699241D01*
X119632320Y-85934273D01*
X119524147Y-86195426D01*
X119469000Y-86472665D01*
X119469000Y-86755335D01*
X119524147Y-87032574D01*
X119632320Y-87293727D01*
X119789363Y-87528759D01*
X119989241Y-87728637D01*
X120221759Y-87884000D01*
X119989241Y-88039363D01*
X119789363Y-88239241D01*
X119632320Y-88474273D01*
X119524147Y-88735426D01*
X119469000Y-89012665D01*
X119469000Y-89295335D01*
X119524147Y-89572574D01*
X119632320Y-89833727D01*
X119789363Y-90068759D01*
X119989241Y-90268637D01*
X120221759Y-90424000D01*
X119989241Y-90579363D01*
X119789363Y-90779241D01*
X119632320Y-91014273D01*
X119524147Y-91275426D01*
X119469000Y-91552665D01*
X119469000Y-91835335D01*
X119524147Y-92112574D01*
X119632320Y-92373727D01*
X119789363Y-92608759D01*
X119989241Y-92808637D01*
X120221759Y-92964000D01*
X119989241Y-93119363D01*
X119789363Y-93319241D01*
X119634000Y-93551759D01*
X119478637Y-93319241D01*
X119278759Y-93119363D01*
X119043727Y-92962320D01*
X118782574Y-92854147D01*
X118505335Y-92799000D01*
X118222665Y-92799000D01*
X117945426Y-92854147D01*
X117684273Y-92962320D01*
X117449241Y-93119363D01*
X117249363Y-93319241D01*
X117094000Y-93551759D01*
X116938637Y-93319241D01*
X116738759Y-93119363D01*
X116503727Y-92962320D01*
X116242574Y-92854147D01*
X115965335Y-92799000D01*
X115682665Y-92799000D01*
X115405426Y-92854147D01*
X115144273Y-92962320D01*
X114909241Y-93119363D01*
X114709363Y-93319241D01*
X114554000Y-93551759D01*
X114398637Y-93319241D01*
X114198759Y-93119363D01*
X113963727Y-92962320D01*
X113702574Y-92854147D01*
X113425335Y-92799000D01*
X113142665Y-92799000D01*
X112865426Y-92854147D01*
X112604273Y-92962320D01*
X112369241Y-93119363D01*
X112169363Y-93319241D01*
X112014000Y-93551759D01*
X111858637Y-93319241D01*
X111658759Y-93119363D01*
X111423727Y-92962320D01*
X111162574Y-92854147D01*
X110885335Y-92799000D01*
X110602665Y-92799000D01*
X110325426Y-92854147D01*
X110064273Y-92962320D01*
X109829241Y-93119363D01*
X109629363Y-93319241D01*
X109474000Y-93551759D01*
X109318637Y-93319241D01*
X109118759Y-93119363D01*
X108883727Y-92962320D01*
X108622574Y-92854147D01*
X108345335Y-92799000D01*
X108062665Y-92799000D01*
X107785426Y-92854147D01*
X107524273Y-92962320D01*
X107289241Y-93119363D01*
X107089363Y-93319241D01*
X106934000Y-93551759D01*
X106778637Y-93319241D01*
X106578759Y-93119363D01*
X106346241Y-92964000D01*
X106578759Y-92808637D01*
X106778637Y-92608759D01*
X106935680Y-92373727D01*
X107043853Y-92112574D01*
X107099000Y-91835335D01*
X107099000Y-91552665D01*
X107043853Y-91275426D01*
X106935680Y-91014273D01*
X106778637Y-90779241D01*
X106578759Y-90579363D01*
X106346241Y-90424000D01*
X106578759Y-90268637D01*
X106778637Y-90068759D01*
X106935680Y-89833727D01*
X107043853Y-89572574D01*
X107099000Y-89295335D01*
X107099000Y-89012665D01*
X107043853Y-88735426D01*
X106935680Y-88474273D01*
X106778637Y-88239241D01*
X106578759Y-88039363D01*
X106346241Y-87884000D01*
X106578759Y-87728637D01*
X106778637Y-87528759D01*
X106935680Y-87293727D01*
X107043853Y-87032574D01*
X107099000Y-86755335D01*
X107099000Y-86472665D01*
X107043853Y-86195426D01*
X106935680Y-85934273D01*
X106778637Y-85699241D01*
X106578759Y-85499363D01*
X106346241Y-85344000D01*
X106578759Y-85188637D01*
X106778637Y-84988759D01*
X106935680Y-84753727D01*
X107043853Y-84492574D01*
X107099000Y-84215335D01*
X107099000Y-84144512D01*
X119463783Y-84144512D01*
X119505213Y-84424130D01*
X119600397Y-84690292D01*
X119667329Y-84815514D01*
X119911298Y-84887097D01*
X120724395Y-84074000D01*
X121083605Y-84074000D01*
X121896702Y-84887097D01*
X122140671Y-84815514D01*
X122261571Y-84560004D01*
X122330300Y-84285816D01*
X122344217Y-84003488D01*
X122302787Y-83723870D01*
X122207603Y-83457708D01*
X122140671Y-83332486D01*
X121896702Y-83260903D01*
X121083605Y-84074000D01*
X120724395Y-84074000D01*
X119911298Y-83260903D01*
X119667329Y-83332486D01*
X119546429Y-83587996D01*
X119477700Y-83862184D01*
X119463783Y-84144512D01*
X107099000Y-84144512D01*
X107099000Y-83932665D01*
X107043853Y-83655426D01*
X106935680Y-83394273D01*
X106778637Y-83159241D01*
X106578759Y-82959363D01*
X106346241Y-82804000D01*
X106578759Y-82648637D01*
X106778637Y-82448759D01*
X106935680Y-82213727D01*
X107043853Y-81952574D01*
X107099000Y-81675335D01*
X107099000Y-81392665D01*
X107043853Y-81115426D01*
X106935680Y-80854273D01*
X106778637Y-80619241D01*
X106578759Y-80419363D01*
X106346241Y-80264000D01*
X106578759Y-80108637D01*
X106778637Y-79908759D01*
X106935680Y-79673727D01*
X107043853Y-79412574D01*
X107099000Y-79135335D01*
X107099000Y-78852665D01*
X107043853Y-78575426D01*
X106935680Y-78314273D01*
X106778637Y-78079241D01*
X106578759Y-77879363D01*
X106346241Y-77724000D01*
X106578759Y-77568637D01*
X106778637Y-77368759D01*
X106935680Y-77133727D01*
X107043853Y-76872574D01*
X107099000Y-76595335D01*
X107099000Y-76312665D01*
X107043853Y-76035426D01*
X106945923Y-75799001D01*
X114094200Y-75799001D01*
X119505312Y-81210114D01*
X119469000Y-81392665D01*
X119469000Y-81675335D01*
X119524147Y-81952574D01*
X119632320Y-82213727D01*
X119789363Y-82448759D01*
X119989241Y-82648637D01*
X120223128Y-82804915D01*
X120162486Y-82837329D01*
X120090903Y-83081298D01*
X120904000Y-83894395D01*
X121717097Y-83081298D01*
X121645514Y-82837329D01*
X121581008Y-82806806D01*
X121583727Y-82805680D01*
X121818759Y-82648637D01*
X122018637Y-82448759D01*
X122124700Y-82290024D01*
X122195986Y-82283003D01*
X122339247Y-82239546D01*
X122471276Y-82168974D01*
X122587001Y-82074001D01*
X122610804Y-82044997D01*
X124463004Y-80192798D01*
X124492001Y-80169001D01*
X124586974Y-80053276D01*
X124657546Y-79921247D01*
X124701003Y-79777986D01*
X124712000Y-79666333D01*
X124712000Y-79666323D01*
X124715676Y-79629000D01*
X124712000Y-79591677D01*
X124712000Y-76006801D01*
X125409802Y-75309000D01*
X125594822Y-75309000D01*
X125719525Y-75495632D01*
X125926368Y-75702475D01*
X126100760Y-75819000D01*
X125926368Y-75935525D01*
X125719525Y-76142368D01*
X125557010Y-76385589D01*
X125445068Y-76655842D01*
X125388000Y-76942740D01*
X125388000Y-77235260D01*
X125445068Y-77522158D01*
X125557010Y-77792411D01*
X125719525Y-78035632D01*
X125926368Y-78242475D01*
X126100760Y-78359000D01*
X125926368Y-78475525D01*
X125719525Y-78682368D01*
X125557010Y-78925589D01*
X125445068Y-79195842D01*
X125388000Y-79482740D01*
X125388000Y-79775260D01*
X125445068Y-80062158D01*
X125557010Y-80332411D01*
X125719525Y-80575632D01*
X125926368Y-80782475D01*
X126100760Y-80899000D01*
X125926368Y-81015525D01*
X125719525Y-81222368D01*
X125557010Y-81465589D01*
X125445068Y-81735842D01*
X125388000Y-82022740D01*
X125388000Y-82315260D01*
X125445068Y-82602158D01*
X125557010Y-82872411D01*
X125719525Y-83115632D01*
X125926368Y-83322475D01*
X126100760Y-83439000D01*
X125926368Y-83555525D01*
X125719525Y-83762368D01*
X125557010Y-84005589D01*
X125445068Y-84275842D01*
X125388000Y-84562740D01*
X125388000Y-84855260D01*
X125445068Y-85142158D01*
X125557010Y-85412411D01*
X125719525Y-85655632D01*
X125851380Y-85787487D01*
X125778820Y-85809498D01*
X125668506Y-85868463D01*
X125571815Y-85947815D01*
X125492463Y-86044506D01*
X125433498Y-86154820D01*
X125397188Y-86274518D01*
X125384928Y-86399000D01*
X125384928Y-88099000D01*
X125397188Y-88223482D01*
X125433498Y-88343180D01*
X125492463Y-88453494D01*
X125571815Y-88550185D01*
X125668506Y-88629537D01*
X125778820Y-88688502D01*
X125898518Y-88724812D01*
X126023000Y-88737072D01*
X127723000Y-88737072D01*
X127847482Y-88724812D01*
X127967180Y-88688502D01*
X128077494Y-88629537D01*
X128174185Y-88550185D01*
X128253537Y-88453494D01*
X128312502Y-88343180D01*
X128348812Y-88223482D01*
X128361072Y-88099000D01*
X128361072Y-86399000D01*
X128348812Y-86274518D01*
X128312502Y-86154820D01*
X128253537Y-86044506D01*
X128174185Y-85947815D01*
X128077494Y-85868463D01*
X127967180Y-85809498D01*
X127894620Y-85787487D01*
X128026475Y-85655632D01*
X128188990Y-85412411D01*
X128300932Y-85142158D01*
X128358000Y-84855260D01*
X128358000Y-84562740D01*
X128300932Y-84275842D01*
X128188990Y-84005589D01*
X128026475Y-83762368D01*
X127819632Y-83555525D01*
X127645240Y-83439000D01*
X127819632Y-83322475D01*
X128026475Y-83115632D01*
X128188990Y-82872411D01*
X128300932Y-82602158D01*
X128358000Y-82315260D01*
X128358000Y-82022740D01*
X128300932Y-81735842D01*
X128188990Y-81465589D01*
X128026475Y-81222368D01*
X127819632Y-81015525D01*
X127645240Y-80899000D01*
X127819632Y-80782475D01*
X128026475Y-80575632D01*
X128188990Y-80332411D01*
X128300932Y-80062158D01*
X128358000Y-79775260D01*
X128358000Y-79482740D01*
X128300932Y-79195842D01*
X128188990Y-78925589D01*
X128026475Y-78682368D01*
X127819632Y-78475525D01*
X127645240Y-78359000D01*
X127819632Y-78242475D01*
X128026475Y-78035632D01*
X128188990Y-77792411D01*
X128300932Y-77522158D01*
X128358000Y-77235260D01*
X128358000Y-76942740D01*
X128300932Y-76655842D01*
X128188990Y-76385589D01*
X128026475Y-76142368D01*
X127819632Y-75935525D01*
X127645240Y-75819000D01*
X127819632Y-75702475D01*
X128026475Y-75495632D01*
X128188990Y-75252411D01*
X128300932Y-74982158D01*
X128358000Y-74695260D01*
X128358000Y-74402740D01*
X128300932Y-74115842D01*
X128188990Y-73845589D01*
X128026475Y-73602368D01*
X127819632Y-73395525D01*
X127645240Y-73279000D01*
X127819632Y-73162475D01*
X128026475Y-72955632D01*
X128188990Y-72712411D01*
X128300932Y-72442158D01*
X128358000Y-72155260D01*
X128358000Y-71862740D01*
X128300932Y-71575842D01*
X128188990Y-71305589D01*
X128026475Y-71062368D01*
X127819632Y-70855525D01*
X127645240Y-70739000D01*
X127819632Y-70622475D01*
X128026475Y-70415632D01*
X128188990Y-70172411D01*
X128300932Y-69902158D01*
X128358000Y-69615260D01*
X128358000Y-69322740D01*
X128300932Y-69035842D01*
X128188990Y-68765589D01*
X128026475Y-68522368D01*
X127819632Y-68315525D01*
X127637466Y-68193805D01*
X127754355Y-68124178D01*
X127970588Y-67929269D01*
X128144641Y-67695920D01*
X128269825Y-67433099D01*
X128314476Y-67285890D01*
X128193155Y-67056000D01*
X127000000Y-67056000D01*
X127000000Y-67076000D01*
X126746000Y-67076000D01*
X126746000Y-67056000D01*
X125552845Y-67056000D01*
X125431524Y-67285890D01*
X125476175Y-67433099D01*
X125601359Y-67695920D01*
X125775412Y-67929269D01*
X125991645Y-68124178D01*
X126108534Y-68193805D01*
X125926368Y-68315525D01*
X125719525Y-68522368D01*
X125557010Y-68765589D01*
X125445068Y-69035842D01*
X125388000Y-69322740D01*
X125388000Y-69615260D01*
X125445068Y-69902158D01*
X125557010Y-70172411D01*
X125719525Y-70415632D01*
X125926368Y-70622475D01*
X126100760Y-70739000D01*
X125926368Y-70855525D01*
X125719525Y-71062368D01*
X125557010Y-71305589D01*
X125445068Y-71575842D01*
X125388000Y-71862740D01*
X125388000Y-72155260D01*
X125445068Y-72442158D01*
X125557010Y-72712411D01*
X125719525Y-72955632D01*
X125926368Y-73162475D01*
X126100760Y-73279000D01*
X125926368Y-73395525D01*
X125719525Y-73602368D01*
X125594822Y-73789000D01*
X125132322Y-73789000D01*
X125094999Y-73785324D01*
X125057676Y-73789000D01*
X125057667Y-73789000D01*
X124946014Y-73799997D01*
X124802753Y-73843454D01*
X124670723Y-73914026D01*
X124587083Y-73982668D01*
X124554999Y-74008999D01*
X124531201Y-74037997D01*
X123440998Y-75128201D01*
X123412000Y-75151999D01*
X123388202Y-75180997D01*
X123388201Y-75180998D01*
X123317026Y-75267724D01*
X123246454Y-75399754D01*
X123223023Y-75477000D01*
X123202998Y-75543014D01*
X123196991Y-75604000D01*
X123188324Y-75692000D01*
X123192001Y-75729332D01*
X123192000Y-79314198D01*
X121952797Y-80553401D01*
X121818759Y-80419363D01*
X121586241Y-80264000D01*
X121818759Y-80108637D01*
X122018637Y-79908759D01*
X122175680Y-79673727D01*
X122283853Y-79412574D01*
X122339000Y-79135335D01*
X122339000Y-78852665D01*
X122283853Y-78575426D01*
X122175680Y-78314273D01*
X122018637Y-78079241D01*
X121818759Y-77879363D01*
X121586241Y-77724000D01*
X121818759Y-77568637D01*
X122018637Y-77368759D01*
X122175680Y-77133727D01*
X122283853Y-76872574D01*
X122339000Y-76595335D01*
X122339000Y-76312665D01*
X122283853Y-76035426D01*
X122175680Y-75774273D01*
X122018637Y-75539241D01*
X121818759Y-75339363D01*
X121586241Y-75184000D01*
X121818759Y-75028637D01*
X122018637Y-74828759D01*
X122175680Y-74593727D01*
X122283853Y-74332574D01*
X122339000Y-74055335D01*
X122339000Y-73772665D01*
X122283853Y-73495426D01*
X122175680Y-73234273D01*
X122018637Y-72999241D01*
X121818759Y-72799363D01*
X121586241Y-72644000D01*
X121818759Y-72488637D01*
X122018637Y-72288759D01*
X122175680Y-72053727D01*
X122283853Y-71792574D01*
X122339000Y-71515335D01*
X122339000Y-71232665D01*
X122283853Y-70955426D01*
X122175680Y-70694273D01*
X122018637Y-70459241D01*
X121818759Y-70259363D01*
X121586241Y-70104000D01*
X121818759Y-69948637D01*
X122018637Y-69748759D01*
X122175680Y-69513727D01*
X122283853Y-69252574D01*
X122339000Y-68975335D01*
X122339000Y-68692665D01*
X122283853Y-68415426D01*
X122175680Y-68154273D01*
X122018637Y-67919241D01*
X121818759Y-67719363D01*
X121586241Y-67564000D01*
X121818759Y-67408637D01*
X122018637Y-67208759D01*
X122175680Y-66973727D01*
X122283853Y-66712574D01*
X122311793Y-66572110D01*
X125431524Y-66572110D01*
X125552845Y-66802000D01*
X126746000Y-66802000D01*
X126746000Y-65608186D01*
X127000000Y-65608186D01*
X127000000Y-66802000D01*
X128193155Y-66802000D01*
X128314476Y-66572110D01*
X128269825Y-66424901D01*
X128144641Y-66162080D01*
X127970588Y-65928731D01*
X127754355Y-65733822D01*
X127504252Y-65584843D01*
X127229891Y-65487519D01*
X127000000Y-65608186D01*
X126746000Y-65608186D01*
X126516109Y-65487519D01*
X126241748Y-65584843D01*
X125991645Y-65733822D01*
X125775412Y-65928731D01*
X125601359Y-66162080D01*
X125476175Y-66424901D01*
X125431524Y-66572110D01*
X122311793Y-66572110D01*
X122339000Y-66435335D01*
X122339000Y-66152665D01*
X122283853Y-65875426D01*
X122175680Y-65614273D01*
X122018637Y-65379241D01*
X121818759Y-65179363D01*
X121586241Y-65024000D01*
X121818759Y-64868637D01*
X122018637Y-64668759D01*
X122175680Y-64433727D01*
X122283853Y-64172574D01*
X122339000Y-63895335D01*
X122339000Y-63612665D01*
X122283853Y-63335426D01*
X122175680Y-63074273D01*
X122055125Y-62893849D01*
X125857000Y-62893849D01*
X125857000Y-63344151D01*
X125944850Y-63785802D01*
X126117173Y-64201827D01*
X126367348Y-64576240D01*
X126685760Y-64894652D01*
X127060173Y-65144827D01*
X127476198Y-65317150D01*
X127917849Y-65405000D01*
X128368151Y-65405000D01*
X128809802Y-65317150D01*
X129225827Y-65144827D01*
X129600240Y-64894652D01*
X129918652Y-64576240D01*
X130168827Y-64201827D01*
X130341150Y-63785802D01*
X130429000Y-63344151D01*
X130429000Y-62893849D01*
X158877000Y-62893849D01*
X158877000Y-63344151D01*
X158964850Y-63785802D01*
X159137173Y-64201827D01*
X159387348Y-64576240D01*
X159705760Y-64894652D01*
X160080173Y-65144827D01*
X160496198Y-65317150D01*
X160937849Y-65405000D01*
X161388151Y-65405000D01*
X161829802Y-65317150D01*
X162245827Y-65144827D01*
X162620240Y-64894652D01*
X162938652Y-64576240D01*
X163188827Y-64201827D01*
X163361150Y-63785802D01*
X163449000Y-63344151D01*
X163449000Y-62893849D01*
X163361150Y-62452198D01*
X163188827Y-62036173D01*
X162938652Y-61661760D01*
X162620240Y-61343348D01*
X162245827Y-61093173D01*
X161829802Y-60920850D01*
X161388151Y-60833000D01*
X160937849Y-60833000D01*
X160496198Y-60920850D01*
X160080173Y-61093173D01*
X159705760Y-61343348D01*
X159387348Y-61661760D01*
X159137173Y-62036173D01*
X158964850Y-62452198D01*
X158877000Y-62893849D01*
X130429000Y-62893849D01*
X130341150Y-62452198D01*
X130168827Y-62036173D01*
X129918652Y-61661760D01*
X129600240Y-61343348D01*
X129225827Y-61093173D01*
X128809802Y-60920850D01*
X128368151Y-60833000D01*
X127917849Y-60833000D01*
X127476198Y-60920850D01*
X127060173Y-61093173D01*
X126685760Y-61343348D01*
X126367348Y-61661760D01*
X126117173Y-62036173D01*
X125944850Y-62452198D01*
X125857000Y-62893849D01*
X122055125Y-62893849D01*
X122018637Y-62839241D01*
X121818759Y-62639363D01*
X121586241Y-62484000D01*
X121818759Y-62328637D01*
X122018637Y-62128759D01*
X122175680Y-61893727D01*
X122283853Y-61632574D01*
X122339000Y-61355335D01*
X122339000Y-61072665D01*
X122283853Y-60795426D01*
X122175680Y-60534273D01*
X122018637Y-60299241D01*
X121818759Y-60099363D01*
X121586241Y-59944000D01*
X121818759Y-59788637D01*
X122018637Y-59588759D01*
X122175680Y-59353727D01*
X122283853Y-59092574D01*
X122339000Y-58815335D01*
X122339000Y-58532665D01*
X122283853Y-58255426D01*
X122175680Y-57994273D01*
X122018637Y-57759241D01*
X121818759Y-57559363D01*
X121586241Y-57404000D01*
X121818759Y-57248637D01*
X122018637Y-57048759D01*
X122175680Y-56813727D01*
X122283853Y-56552574D01*
X122339000Y-56275335D01*
X122339000Y-55992665D01*
X122283853Y-55715426D01*
X122175680Y-55454273D01*
X122018637Y-55219241D01*
X121818759Y-55019363D01*
X121586241Y-54864000D01*
X121818759Y-54708637D01*
X122018637Y-54508759D01*
X122175680Y-54273727D01*
X122283853Y-54012574D01*
X122339000Y-53735335D01*
X122339000Y-53452665D01*
X122283853Y-53175426D01*
X122175680Y-52914273D01*
X122146766Y-52871000D01*
X125638928Y-52871000D01*
X125638928Y-54571000D01*
X125651188Y-54695482D01*
X125687498Y-54815180D01*
X125746463Y-54925494D01*
X125825815Y-55022185D01*
X125922506Y-55101537D01*
X126032820Y-55160502D01*
X126152518Y-55196812D01*
X126277000Y-55209072D01*
X127977000Y-55209072D01*
X128101482Y-55196812D01*
X128221180Y-55160502D01*
X128331494Y-55101537D01*
X128428185Y-55022185D01*
X128507537Y-54925494D01*
X128566502Y-54815180D01*
X128602812Y-54695482D01*
X128615072Y-54571000D01*
X128615072Y-53977000D01*
X143010928Y-53977000D01*
X143010928Y-55497000D01*
X143027992Y-55670254D01*
X143078528Y-55836850D01*
X143160595Y-55990386D01*
X143271038Y-56124962D01*
X143405614Y-56235405D01*
X143559150Y-56317472D01*
X143725746Y-56368008D01*
X143899000Y-56385072D01*
X144899000Y-56385072D01*
X145072254Y-56368008D01*
X145238850Y-56317472D01*
X145392386Y-56235405D01*
X145526962Y-56124962D01*
X145637405Y-55990386D01*
X145719472Y-55836850D01*
X145770008Y-55670254D01*
X145787072Y-55497000D01*
X145787072Y-54408964D01*
X146014000Y-54408964D01*
X146014000Y-55065037D01*
X146034040Y-55268507D01*
X146113236Y-55529581D01*
X146241843Y-55770188D01*
X146414920Y-55981081D01*
X146625813Y-56154157D01*
X146866420Y-56282764D01*
X147127494Y-56361960D01*
X147399000Y-56388701D01*
X147670507Y-56361960D01*
X147931581Y-56282764D01*
X148172188Y-56154157D01*
X148383081Y-55981081D01*
X148470960Y-55874000D01*
X153805928Y-55874000D01*
X153818188Y-55998482D01*
X153854498Y-56118180D01*
X153913463Y-56228494D01*
X153992815Y-56325185D01*
X154089506Y-56404537D01*
X154199820Y-56463502D01*
X154319518Y-56499812D01*
X154444000Y-56512072D01*
X154908250Y-56509000D01*
X155067000Y-56350250D01*
X155067000Y-54991000D01*
X155321000Y-54991000D01*
X155321000Y-56350250D01*
X155479750Y-56509000D01*
X155944000Y-56512072D01*
X156068482Y-56499812D01*
X156188180Y-56463502D01*
X156298494Y-56404537D01*
X156395185Y-56325185D01*
X156474537Y-56228494D01*
X156533502Y-56118180D01*
X156569812Y-55998482D01*
X156582072Y-55874000D01*
X156579000Y-55149750D01*
X156420250Y-54991000D01*
X155321000Y-54991000D01*
X155067000Y-54991000D01*
X153967750Y-54991000D01*
X153809000Y-55149750D01*
X153805928Y-55874000D01*
X148470960Y-55874000D01*
X148556157Y-55770188D01*
X148684764Y-55529581D01*
X148763960Y-55268506D01*
X148784000Y-55065036D01*
X148784000Y-54408963D01*
X148763960Y-54205493D01*
X148684764Y-53944419D01*
X148636435Y-53854000D01*
X153805928Y-53854000D01*
X153809000Y-54578250D01*
X153967750Y-54737000D01*
X155067000Y-54737000D01*
X155067000Y-53377750D01*
X155321000Y-53377750D01*
X155321000Y-54737000D01*
X156420250Y-54737000D01*
X156579000Y-54578250D01*
X156579179Y-54535964D01*
X156809000Y-54535964D01*
X156809000Y-55192037D01*
X156829040Y-55395507D01*
X156908236Y-55656581D01*
X157036843Y-55897188D01*
X157209920Y-56108081D01*
X157420813Y-56281157D01*
X157661420Y-56409764D01*
X157922494Y-56488960D01*
X158194000Y-56515701D01*
X158465507Y-56488960D01*
X158726581Y-56409764D01*
X158967188Y-56281157D01*
X159178081Y-56108081D01*
X159351157Y-55897188D01*
X159479764Y-55656581D01*
X159558960Y-55395506D01*
X159579000Y-55192036D01*
X159579000Y-54535963D01*
X159558960Y-54332493D01*
X159479764Y-54071419D01*
X159351157Y-53830812D01*
X159178080Y-53619919D01*
X158967187Y-53446843D01*
X158726580Y-53318236D01*
X158465506Y-53239040D01*
X158194000Y-53212299D01*
X157922493Y-53239040D01*
X157661419Y-53318236D01*
X157420812Y-53446843D01*
X157209919Y-53619920D01*
X157036843Y-53830813D01*
X156908236Y-54071420D01*
X156829040Y-54332494D01*
X156809000Y-54535964D01*
X156579179Y-54535964D01*
X156582072Y-53854000D01*
X156569812Y-53729518D01*
X156533502Y-53609820D01*
X156474537Y-53499506D01*
X156395185Y-53402815D01*
X156298494Y-53323463D01*
X156188180Y-53264498D01*
X156068482Y-53228188D01*
X155944000Y-53215928D01*
X155479750Y-53219000D01*
X155321000Y-53377750D01*
X155067000Y-53377750D01*
X154908250Y-53219000D01*
X154444000Y-53215928D01*
X154319518Y-53228188D01*
X154199820Y-53264498D01*
X154089506Y-53323463D01*
X153992815Y-53402815D01*
X153913463Y-53499506D01*
X153854498Y-53609820D01*
X153818188Y-53729518D01*
X153805928Y-53854000D01*
X148636435Y-53854000D01*
X148556157Y-53703812D01*
X148383080Y-53492919D01*
X148172187Y-53319843D01*
X147931580Y-53191236D01*
X147670506Y-53112040D01*
X147399000Y-53085299D01*
X147127493Y-53112040D01*
X146866419Y-53191236D01*
X146625812Y-53319843D01*
X146414919Y-53492920D01*
X146241843Y-53703813D01*
X146113236Y-53944420D01*
X146034040Y-54205494D01*
X146014000Y-54408964D01*
X145787072Y-54408964D01*
X145787072Y-53977000D01*
X145770008Y-53803746D01*
X145719472Y-53637150D01*
X145637405Y-53483614D01*
X145526962Y-53349038D01*
X145392386Y-53238595D01*
X145238850Y-53156528D01*
X145072254Y-53105992D01*
X144899000Y-53088928D01*
X143899000Y-53088928D01*
X143725746Y-53105992D01*
X143559150Y-53156528D01*
X143405614Y-53238595D01*
X143271038Y-53349038D01*
X143160595Y-53483614D01*
X143078528Y-53637150D01*
X143027992Y-53803746D01*
X143010928Y-53977000D01*
X128615072Y-53977000D01*
X128615072Y-52871000D01*
X128602812Y-52746518D01*
X128566502Y-52626820D01*
X128507537Y-52516506D01*
X128428185Y-52419815D01*
X128331494Y-52340463D01*
X128221180Y-52281498D01*
X128101482Y-52245188D01*
X127977000Y-52232928D01*
X126277000Y-52232928D01*
X126152518Y-52245188D01*
X126032820Y-52281498D01*
X125922506Y-52340463D01*
X125825815Y-52419815D01*
X125746463Y-52516506D01*
X125687498Y-52626820D01*
X125651188Y-52746518D01*
X125638928Y-52871000D01*
X122146766Y-52871000D01*
X122018637Y-52679241D01*
X121818759Y-52479363D01*
X121584872Y-52323085D01*
X121645514Y-52290671D01*
X121717097Y-52046702D01*
X120904000Y-51233605D01*
X120090903Y-52046702D01*
X120162486Y-52290671D01*
X120226992Y-52321194D01*
X120224273Y-52322320D01*
X119989241Y-52479363D01*
X119789363Y-52679241D01*
X119632320Y-52914273D01*
X119524147Y-53175426D01*
X119469000Y-53452665D01*
X119469000Y-53735335D01*
X119524147Y-54012574D01*
X119632320Y-54273727D01*
X119789363Y-54508759D01*
X119989241Y-54708637D01*
X120221759Y-54864000D01*
X119989241Y-55019363D01*
X119789363Y-55219241D01*
X119632320Y-55454273D01*
X119524147Y-55715426D01*
X119469000Y-55992665D01*
X119469000Y-56275335D01*
X119524147Y-56552574D01*
X119632320Y-56813727D01*
X119789363Y-57048759D01*
X119989241Y-57248637D01*
X120221759Y-57404000D01*
X119989241Y-57559363D01*
X119789363Y-57759241D01*
X119632320Y-57994273D01*
X119524147Y-58255426D01*
X119469000Y-58532665D01*
X119469000Y-58815335D01*
X119524147Y-59092574D01*
X119632320Y-59353727D01*
X119789363Y-59588759D01*
X119989241Y-59788637D01*
X120221759Y-59944000D01*
X119989241Y-60099363D01*
X119789363Y-60299241D01*
X119656260Y-60498444D01*
X119646137Y-60479506D01*
X119566785Y-60382815D01*
X119470094Y-60303463D01*
X119359780Y-60244498D01*
X119240082Y-60208188D01*
X119115600Y-60195928D01*
X117815600Y-60195928D01*
X117691118Y-60208188D01*
X117571420Y-60244498D01*
X117461106Y-60303463D01*
X117364415Y-60382815D01*
X117285063Y-60479506D01*
X117282470Y-60484358D01*
X117074276Y-60345247D01*
X116840421Y-60248381D01*
X116592161Y-60199000D01*
X116339039Y-60199000D01*
X116090779Y-60248381D01*
X115856924Y-60345247D01*
X115646460Y-60485875D01*
X115467475Y-60664860D01*
X115465600Y-60667666D01*
X115463725Y-60664860D01*
X115284740Y-60485875D01*
X115074276Y-60345247D01*
X114840421Y-60248381D01*
X114592161Y-60199000D01*
X114339039Y-60199000D01*
X114090779Y-60248381D01*
X113856924Y-60345247D01*
X113646460Y-60485875D01*
X113467475Y-60664860D01*
X113326847Y-60875324D01*
X113229981Y-61109179D01*
X113180600Y-61357439D01*
X113180600Y-61610561D01*
X113229981Y-61858821D01*
X113326847Y-62092676D01*
X113467475Y-62303140D01*
X113646460Y-62482125D01*
X113649266Y-62484000D01*
X113646460Y-62485875D01*
X113467475Y-62664860D01*
X113326847Y-62875324D01*
X113229981Y-63109179D01*
X113180600Y-63357439D01*
X113180600Y-63610561D01*
X113229981Y-63858821D01*
X113326847Y-64092676D01*
X113467475Y-64303140D01*
X113646460Y-64482125D01*
X113856924Y-64622753D01*
X114090779Y-64719619D01*
X114339039Y-64769000D01*
X114592161Y-64769000D01*
X114840421Y-64719619D01*
X115074276Y-64622753D01*
X115284740Y-64482125D01*
X115463725Y-64303140D01*
X115465600Y-64300334D01*
X115467475Y-64303140D01*
X115646460Y-64482125D01*
X115856924Y-64622753D01*
X116090779Y-64719619D01*
X116339039Y-64769000D01*
X116592161Y-64769000D01*
X116840421Y-64719619D01*
X117074276Y-64622753D01*
X117284740Y-64482125D01*
X117463725Y-64303140D01*
X117465600Y-64300334D01*
X117467475Y-64303140D01*
X117646460Y-64482125D01*
X117856924Y-64622753D01*
X118090779Y-64719619D01*
X118339039Y-64769000D01*
X118592161Y-64769000D01*
X118840421Y-64719619D01*
X119074276Y-64622753D01*
X119284740Y-64482125D01*
X119463725Y-64303140D01*
X119534410Y-64197352D01*
X119632320Y-64433727D01*
X119789363Y-64668759D01*
X119989241Y-64868637D01*
X120221759Y-65024000D01*
X119989241Y-65179363D01*
X119789363Y-65379241D01*
X119632320Y-65614273D01*
X119524147Y-65875426D01*
X119469000Y-66152665D01*
X119469000Y-66435335D01*
X119524147Y-66712574D01*
X119632320Y-66973727D01*
X119789363Y-67208759D01*
X119989241Y-67408637D01*
X120221759Y-67564000D01*
X119989241Y-67719363D01*
X119789363Y-67919241D01*
X119632320Y-68154273D01*
X119524147Y-68415426D01*
X119469000Y-68692665D01*
X119469000Y-68975335D01*
X119524147Y-69252574D01*
X119632320Y-69513727D01*
X119789363Y-69748759D01*
X119989241Y-69948637D01*
X120221759Y-70104000D01*
X119989241Y-70259363D01*
X119789363Y-70459241D01*
X119632320Y-70694273D01*
X119524147Y-70955426D01*
X119469000Y-71232665D01*
X119469000Y-71515335D01*
X119524147Y-71792574D01*
X119632320Y-72053727D01*
X119789363Y-72288759D01*
X119989241Y-72488637D01*
X120221759Y-72644000D01*
X119989241Y-72799363D01*
X119789363Y-72999241D01*
X119632320Y-73234273D01*
X119524147Y-73495426D01*
X119469000Y-73772665D01*
X119469000Y-74055335D01*
X119524147Y-74332574D01*
X119632320Y-74593727D01*
X119789363Y-74828759D01*
X119989241Y-75028637D01*
X120221759Y-75184000D01*
X119989241Y-75339363D01*
X119789363Y-75539241D01*
X119632320Y-75774273D01*
X119524147Y-76035426D01*
X119469000Y-76312665D01*
X119469000Y-76595335D01*
X119524147Y-76872574D01*
X119632320Y-77133727D01*
X119789363Y-77368759D01*
X119989241Y-77568637D01*
X120221759Y-77724000D01*
X119989241Y-77879363D01*
X119789363Y-78079241D01*
X119632320Y-78314273D01*
X119524147Y-78575426D01*
X119469000Y-78852665D01*
X119469000Y-79024198D01*
X115169001Y-74724200D01*
X115169001Y-73411321D01*
X115172677Y-73373998D01*
X115169001Y-73336675D01*
X115169001Y-73336666D01*
X115158004Y-73225013D01*
X115114547Y-73081752D01*
X115043975Y-72949723D01*
X115030812Y-72933684D01*
X114972800Y-72862995D01*
X114972796Y-72862991D01*
X114949002Y-72833998D01*
X114920009Y-72810204D01*
X108504232Y-66394429D01*
X108573465Y-66408200D01*
X108856135Y-66408200D01*
X109133374Y-66353053D01*
X109394527Y-66244880D01*
X109629559Y-66087837D01*
X109829437Y-65887959D01*
X109986480Y-65652927D01*
X110094653Y-65391774D01*
X110149800Y-65114535D01*
X110149800Y-64831865D01*
X110094653Y-64554626D01*
X109986480Y-64293473D01*
X109829437Y-64058441D01*
X109629559Y-63858563D01*
X109397041Y-63703200D01*
X109629559Y-63547837D01*
X109829437Y-63347959D01*
X109986480Y-63112927D01*
X110094653Y-62851774D01*
X110149800Y-62574535D01*
X110149800Y-62291865D01*
X110094653Y-62014626D01*
X109986480Y-61753473D01*
X109829437Y-61518441D01*
X109629559Y-61318563D01*
X109397041Y-61163200D01*
X109629559Y-61007837D01*
X109829437Y-60807959D01*
X109986480Y-60572927D01*
X110094653Y-60311774D01*
X110149800Y-60034535D01*
X110149800Y-59751865D01*
X110094653Y-59474626D01*
X109986480Y-59213473D01*
X109829437Y-58978441D01*
X109629559Y-58778563D01*
X109397041Y-58623200D01*
X109629559Y-58467837D01*
X109829437Y-58267959D01*
X109986480Y-58032927D01*
X110094653Y-57771774D01*
X110149800Y-57494535D01*
X110149800Y-57211865D01*
X110094653Y-56934626D01*
X109986480Y-56673473D01*
X109829437Y-56438441D01*
X109630839Y-56239843D01*
X109639282Y-56239012D01*
X109758980Y-56202702D01*
X109869294Y-56143737D01*
X109965985Y-56064385D01*
X110045337Y-55967694D01*
X110104302Y-55857380D01*
X110140612Y-55737682D01*
X110152872Y-55613200D01*
X110152872Y-54013200D01*
X110140612Y-53888718D01*
X110104302Y-53769020D01*
X110045337Y-53658706D01*
X109965985Y-53562015D01*
X109869294Y-53482663D01*
X109758980Y-53423698D01*
X109639282Y-53387388D01*
X109514800Y-53375128D01*
X107914800Y-53375128D01*
X107790318Y-53387388D01*
X107670620Y-53423698D01*
X107560306Y-53482663D01*
X107463615Y-53562015D01*
X107384263Y-53658706D01*
X107325298Y-53769020D01*
X107288988Y-53888718D01*
X107276728Y-54013200D01*
X107276728Y-55613200D01*
X107288988Y-55737682D01*
X107325298Y-55857380D01*
X107384263Y-55967694D01*
X107463615Y-56064385D01*
X107560306Y-56143737D01*
X107670620Y-56202702D01*
X107790318Y-56239012D01*
X107798761Y-56239843D01*
X107600163Y-56438441D01*
X107443120Y-56673473D01*
X107334947Y-56934626D01*
X107279800Y-57211865D01*
X107279800Y-57494535D01*
X107334947Y-57771774D01*
X107443120Y-58032927D01*
X107600163Y-58267959D01*
X107800041Y-58467837D01*
X108032559Y-58623200D01*
X107800041Y-58778563D01*
X107600163Y-58978441D01*
X107443120Y-59213473D01*
X107334947Y-59474626D01*
X107279800Y-59751865D01*
X107279800Y-60034535D01*
X107334947Y-60311774D01*
X107443120Y-60572927D01*
X107600163Y-60807959D01*
X107800041Y-61007837D01*
X108032559Y-61163200D01*
X107800041Y-61318563D01*
X107600163Y-61518441D01*
X107443120Y-61753473D01*
X107334947Y-62014626D01*
X107279800Y-62291865D01*
X107279800Y-62574535D01*
X107334947Y-62851774D01*
X107443120Y-63112927D01*
X107600163Y-63347959D01*
X107800041Y-63547837D01*
X108032559Y-63703200D01*
X107800041Y-63858563D01*
X107600163Y-64058441D01*
X107443120Y-64293473D01*
X107334947Y-64554626D01*
X107279800Y-64831865D01*
X107279800Y-65114535D01*
X107293572Y-65183768D01*
X106778600Y-64668796D01*
X106778637Y-64668759D01*
X106935680Y-64433727D01*
X107043853Y-64172574D01*
X107099000Y-63895335D01*
X107099000Y-63612665D01*
X107043853Y-63335426D01*
X106935680Y-63074273D01*
X106778637Y-62839241D01*
X106578759Y-62639363D01*
X106346241Y-62484000D01*
X106578759Y-62328637D01*
X106778637Y-62128759D01*
X106935680Y-61893727D01*
X107043853Y-61632574D01*
X107099000Y-61355335D01*
X107099000Y-61072665D01*
X107043853Y-60795426D01*
X106935680Y-60534273D01*
X106778637Y-60299241D01*
X106578759Y-60099363D01*
X106346241Y-59944000D01*
X106578759Y-59788637D01*
X106778637Y-59588759D01*
X106935680Y-59353727D01*
X107043853Y-59092574D01*
X107099000Y-58815335D01*
X107099000Y-58532665D01*
X107043853Y-58255426D01*
X106935680Y-57994273D01*
X106778637Y-57759241D01*
X106578759Y-57559363D01*
X106346241Y-57404000D01*
X106578759Y-57248637D01*
X106778637Y-57048759D01*
X106935680Y-56813727D01*
X107043853Y-56552574D01*
X107099000Y-56275335D01*
X107099000Y-55992665D01*
X107043853Y-55715426D01*
X106935680Y-55454273D01*
X106778637Y-55219241D01*
X106578759Y-55019363D01*
X106346241Y-54864000D01*
X106578759Y-54708637D01*
X106778637Y-54508759D01*
X106935680Y-54273727D01*
X107043853Y-54012574D01*
X107099000Y-53735335D01*
X107099000Y-53452665D01*
X107043853Y-53175426D01*
X106935680Y-52914273D01*
X106778637Y-52679241D01*
X106578759Y-52479363D01*
X106346241Y-52324000D01*
X106578759Y-52168637D01*
X106778637Y-51968759D01*
X106935680Y-51733727D01*
X107043853Y-51472574D01*
X107099000Y-51195335D01*
X107099000Y-50912665D01*
X116929000Y-50912665D01*
X116929000Y-51195335D01*
X116984147Y-51472574D01*
X117092320Y-51733727D01*
X117249363Y-51968759D01*
X117449241Y-52168637D01*
X117684273Y-52325680D01*
X117945426Y-52433853D01*
X118222665Y-52489000D01*
X118505335Y-52489000D01*
X118782574Y-52433853D01*
X119043727Y-52325680D01*
X119278759Y-52168637D01*
X119478637Y-51968759D01*
X119634915Y-51734872D01*
X119667329Y-51795514D01*
X119911298Y-51867097D01*
X120724395Y-51054000D01*
X121083605Y-51054000D01*
X121896702Y-51867097D01*
X122140671Y-51795514D01*
X122261571Y-51540004D01*
X122330300Y-51265816D01*
X122344217Y-50983488D01*
X122302787Y-50703870D01*
X122207603Y-50437708D01*
X122140671Y-50312486D01*
X121896702Y-50240903D01*
X121083605Y-51054000D01*
X120724395Y-51054000D01*
X119911298Y-50240903D01*
X119667329Y-50312486D01*
X119636806Y-50376992D01*
X119635680Y-50374273D01*
X119478637Y-50139241D01*
X119278759Y-49939363D01*
X119043727Y-49782320D01*
X118782574Y-49674147D01*
X118505335Y-49619000D01*
X118222665Y-49619000D01*
X117945426Y-49674147D01*
X117684273Y-49782320D01*
X117449241Y-49939363D01*
X117249363Y-50139241D01*
X117092320Y-50374273D01*
X116984147Y-50635426D01*
X116929000Y-50912665D01*
X107099000Y-50912665D01*
X107043853Y-50635426D01*
X106935680Y-50374273D01*
X106778637Y-50139241D01*
X106580039Y-49940643D01*
X106588482Y-49939812D01*
X106708180Y-49903502D01*
X106818494Y-49844537D01*
X106915185Y-49765185D01*
X106994537Y-49668494D01*
X107053502Y-49558180D01*
X107089812Y-49438482D01*
X107102072Y-49314000D01*
X107100898Y-49117439D01*
X110729000Y-49117439D01*
X110729000Y-49370561D01*
X110778381Y-49618821D01*
X110875247Y-49852676D01*
X111015875Y-50063140D01*
X111194860Y-50242125D01*
X111405324Y-50382753D01*
X111639179Y-50479619D01*
X111887439Y-50529000D01*
X112140561Y-50529000D01*
X112388821Y-50479619D01*
X112622676Y-50382753D01*
X112833140Y-50242125D01*
X113012125Y-50063140D01*
X113152753Y-49852676D01*
X113249619Y-49618821D01*
X113284000Y-49445973D01*
X113318381Y-49618821D01*
X113415247Y-49852676D01*
X113555875Y-50063140D01*
X113734860Y-50242125D01*
X113945324Y-50382753D01*
X114179179Y-50479619D01*
X114427439Y-50529000D01*
X114680561Y-50529000D01*
X114928821Y-50479619D01*
X115162676Y-50382753D01*
X115373140Y-50242125D01*
X115552125Y-50063140D01*
X115692753Y-49852676D01*
X115789619Y-49618821D01*
X115839000Y-49370561D01*
X115839000Y-49117439D01*
X115789619Y-48869179D01*
X115692753Y-48635324D01*
X115552125Y-48424860D01*
X115499930Y-48372665D01*
X119469000Y-48372665D01*
X119469000Y-48655335D01*
X119524147Y-48932574D01*
X119632320Y-49193727D01*
X119789363Y-49428759D01*
X119989241Y-49628637D01*
X120223128Y-49784915D01*
X120162486Y-49817329D01*
X120090903Y-50061298D01*
X120904000Y-50874395D01*
X121571674Y-50206721D01*
X143764000Y-50206721D01*
X143764000Y-50627279D01*
X143846047Y-51039756D01*
X144006988Y-51428302D01*
X144240637Y-51777983D01*
X144538017Y-52075363D01*
X144887698Y-52309012D01*
X145276244Y-52469953D01*
X145688721Y-52552000D01*
X146109279Y-52552000D01*
X146521756Y-52469953D01*
X146910302Y-52309012D01*
X147259983Y-52075363D01*
X147557363Y-51777983D01*
X147791012Y-51428302D01*
X147951953Y-51039756D01*
X148034000Y-50627279D01*
X148034000Y-50333721D01*
X154559000Y-50333721D01*
X154559000Y-50754279D01*
X154641047Y-51166756D01*
X154801988Y-51555302D01*
X155035637Y-51904983D01*
X155333017Y-52202363D01*
X155682698Y-52436012D01*
X156071244Y-52596953D01*
X156483721Y-52679000D01*
X156904279Y-52679000D01*
X157316756Y-52596953D01*
X157705302Y-52436012D01*
X158054983Y-52202363D01*
X158352363Y-51904983D01*
X158586012Y-51555302D01*
X158746953Y-51166756D01*
X158829000Y-50754279D01*
X158829000Y-50333721D01*
X158746953Y-49921244D01*
X158586012Y-49532698D01*
X158352363Y-49183017D01*
X158054983Y-48885637D01*
X157705302Y-48651988D01*
X157316756Y-48491047D01*
X156904279Y-48409000D01*
X156483721Y-48409000D01*
X156071244Y-48491047D01*
X155682698Y-48651988D01*
X155333017Y-48885637D01*
X155035637Y-49183017D01*
X154801988Y-49532698D01*
X154641047Y-49921244D01*
X154559000Y-50333721D01*
X148034000Y-50333721D01*
X148034000Y-50206721D01*
X147951953Y-49794244D01*
X147791012Y-49405698D01*
X147557363Y-49056017D01*
X147259983Y-48758637D01*
X146910302Y-48524988D01*
X146521756Y-48364047D01*
X146109279Y-48282000D01*
X145688721Y-48282000D01*
X145276244Y-48364047D01*
X144887698Y-48524988D01*
X144538017Y-48758637D01*
X144240637Y-49056017D01*
X144006988Y-49405698D01*
X143846047Y-49794244D01*
X143764000Y-50206721D01*
X121571674Y-50206721D01*
X121717097Y-50061298D01*
X121645514Y-49817329D01*
X121581008Y-49786806D01*
X121583727Y-49785680D01*
X121818759Y-49628637D01*
X122018637Y-49428759D01*
X122175680Y-49193727D01*
X122283853Y-48932574D01*
X122339000Y-48655335D01*
X122339000Y-48372665D01*
X122283853Y-48095426D01*
X122175680Y-47834273D01*
X122018637Y-47599241D01*
X121818759Y-47399363D01*
X121583727Y-47242320D01*
X121322574Y-47134147D01*
X121045335Y-47079000D01*
X120762665Y-47079000D01*
X120485426Y-47134147D01*
X120224273Y-47242320D01*
X119989241Y-47399363D01*
X119789363Y-47599241D01*
X119632320Y-47834273D01*
X119524147Y-48095426D01*
X119469000Y-48372665D01*
X115499930Y-48372665D01*
X115373140Y-48245875D01*
X115162676Y-48105247D01*
X114928821Y-48008381D01*
X114680561Y-47959000D01*
X114427439Y-47959000D01*
X114179179Y-48008381D01*
X113945324Y-48105247D01*
X113734860Y-48245875D01*
X113555875Y-48424860D01*
X113415247Y-48635324D01*
X113318381Y-48869179D01*
X113284000Y-49042027D01*
X113249619Y-48869179D01*
X113152753Y-48635324D01*
X113012125Y-48424860D01*
X112833140Y-48245875D01*
X112622676Y-48105247D01*
X112388821Y-48008381D01*
X112140561Y-47959000D01*
X111887439Y-47959000D01*
X111639179Y-48008381D01*
X111405324Y-48105247D01*
X111194860Y-48245875D01*
X111015875Y-48424860D01*
X110875247Y-48635324D01*
X110778381Y-48869179D01*
X110729000Y-49117439D01*
X107100898Y-49117439D01*
X107099000Y-48799750D01*
X106940250Y-48641000D01*
X105791000Y-48641000D01*
X105791000Y-48661000D01*
X105537000Y-48661000D01*
X105537000Y-48641000D01*
X104387750Y-48641000D01*
X104229000Y-48799750D01*
X104225928Y-49314000D01*
X104238188Y-49438482D01*
X104274498Y-49558180D01*
X104333463Y-49668494D01*
X104412815Y-49765185D01*
X104509506Y-49844537D01*
X104619820Y-49903502D01*
X104739518Y-49939812D01*
X104747961Y-49940643D01*
X104549363Y-50139241D01*
X104392320Y-50374273D01*
X104284147Y-50635426D01*
X104229000Y-50912665D01*
X104229000Y-51195335D01*
X104284147Y-51472574D01*
X104392320Y-51733727D01*
X104549363Y-51968759D01*
X104749241Y-52168637D01*
X104981759Y-52324000D01*
X104749241Y-52479363D01*
X104549363Y-52679241D01*
X104392320Y-52914273D01*
X104284147Y-53175426D01*
X104229000Y-53452665D01*
X104229000Y-53735335D01*
X104284147Y-54012574D01*
X104392320Y-54273727D01*
X104549363Y-54508759D01*
X104749241Y-54708637D01*
X104981759Y-54864000D01*
X104749241Y-55019363D01*
X104549363Y-55219241D01*
X104392320Y-55454273D01*
X104284147Y-55715426D01*
X104229000Y-55992665D01*
X104229000Y-56275335D01*
X104284147Y-56552574D01*
X104392320Y-56813727D01*
X104549363Y-57048759D01*
X104749241Y-57248637D01*
X104981759Y-57404000D01*
X104749241Y-57559363D01*
X104549363Y-57759241D01*
X104392320Y-57994273D01*
X104284147Y-58255426D01*
X104229000Y-58532665D01*
X104229000Y-58815335D01*
X104284147Y-59092574D01*
X104392320Y-59353727D01*
X104549363Y-59588759D01*
X104749241Y-59788637D01*
X104981759Y-59944000D01*
X104749241Y-60099363D01*
X104549363Y-60299241D01*
X104392320Y-60534273D01*
X104284147Y-60795426D01*
X104229000Y-61072665D01*
X104229000Y-61355335D01*
X104284147Y-61632574D01*
X104392320Y-61893727D01*
X104549363Y-62128759D01*
X104749241Y-62328637D01*
X104981759Y-62484000D01*
X104749241Y-62639363D01*
X104549363Y-62839241D01*
X104392320Y-63074273D01*
X104284147Y-63335426D01*
X104229000Y-63612665D01*
X104229000Y-63895335D01*
X104273491Y-64119001D01*
X104182803Y-64119001D01*
X102025209Y-61961408D01*
X102069000Y-61741260D01*
X102069000Y-61448740D01*
X102011932Y-61161842D01*
X101899990Y-60891589D01*
X101737475Y-60648368D01*
X101530632Y-60441525D01*
X101356240Y-60325000D01*
X101530632Y-60208475D01*
X101737475Y-60001632D01*
X101899990Y-59758411D01*
X102011932Y-59488158D01*
X102069000Y-59201260D01*
X102069000Y-58908740D01*
X102011932Y-58621842D01*
X101899990Y-58351589D01*
X101737475Y-58108368D01*
X101530632Y-57901525D01*
X101356240Y-57785000D01*
X101530632Y-57668475D01*
X101737475Y-57461632D01*
X101899990Y-57218411D01*
X102011932Y-56948158D01*
X102069000Y-56661260D01*
X102069000Y-56368740D01*
X102011932Y-56081842D01*
X101899990Y-55811589D01*
X101737475Y-55568368D01*
X101530632Y-55361525D01*
X101348466Y-55239805D01*
X101465355Y-55170178D01*
X101681588Y-54975269D01*
X101855641Y-54741920D01*
X101980825Y-54479099D01*
X102025476Y-54331890D01*
X101904155Y-54102000D01*
X100711000Y-54102000D01*
X100711000Y-54122000D01*
X100457000Y-54122000D01*
X100457000Y-54102000D01*
X99263845Y-54102000D01*
X99142524Y-54331890D01*
X99187175Y-54479099D01*
X99312359Y-54741920D01*
X99486412Y-54975269D01*
X99702645Y-55170178D01*
X99819534Y-55239805D01*
X99637368Y-55361525D01*
X99430525Y-55568368D01*
X99268010Y-55811589D01*
X99156068Y-56081842D01*
X99099000Y-56368740D01*
X99099000Y-56661260D01*
X99156068Y-56948158D01*
X99268010Y-57218411D01*
X99430525Y-57461632D01*
X99637368Y-57668475D01*
X99811760Y-57785000D01*
X99637368Y-57901525D01*
X99430525Y-58108368D01*
X99268010Y-58351589D01*
X99156068Y-58621842D01*
X99099000Y-58908740D01*
X99099000Y-59201260D01*
X99156068Y-59488158D01*
X99268010Y-59758411D01*
X99430525Y-60001632D01*
X99637368Y-60208475D01*
X99811760Y-60325000D01*
X99637368Y-60441525D01*
X99430525Y-60648368D01*
X99268010Y-60891589D01*
X99156068Y-61161842D01*
X99099000Y-61448740D01*
X99099000Y-61741260D01*
X99156068Y-62028158D01*
X99268010Y-62298411D01*
X99430525Y-62541632D01*
X99637368Y-62748475D01*
X99811760Y-62865000D01*
X99637368Y-62981525D01*
X99430525Y-63188368D01*
X99305822Y-63375000D01*
X91000711Y-63375000D01*
X90956774Y-63331063D01*
X90787256Y-63217795D01*
X90598898Y-63139774D01*
X90398939Y-63100000D01*
X90336802Y-63100000D01*
X86955805Y-59719004D01*
X86932002Y-59690000D01*
X86816277Y-59595027D01*
X86684248Y-59524455D01*
X86540987Y-59480998D01*
X86429334Y-59470001D01*
X86429323Y-59470001D01*
X86392001Y-59466325D01*
X86354679Y-59470001D01*
X79155544Y-59470001D01*
X79209000Y-59201260D01*
X79209000Y-58908740D01*
X79151932Y-58621842D01*
X79039990Y-58351589D01*
X78877475Y-58108368D01*
X78670632Y-57901525D01*
X78496240Y-57785000D01*
X78670632Y-57668475D01*
X78877475Y-57461632D01*
X79039990Y-57218411D01*
X79151932Y-56948158D01*
X79209000Y-56661260D01*
X79209000Y-56368740D01*
X79151932Y-56081842D01*
X79039990Y-55811589D01*
X78877475Y-55568368D01*
X78670632Y-55361525D01*
X78496240Y-55245000D01*
X78670632Y-55128475D01*
X78877475Y-54921632D01*
X79039990Y-54678411D01*
X79151932Y-54408158D01*
X79209000Y-54121260D01*
X79209000Y-53828740D01*
X79167103Y-53618110D01*
X99142524Y-53618110D01*
X99263845Y-53848000D01*
X100457000Y-53848000D01*
X100457000Y-52654186D01*
X100711000Y-52654186D01*
X100711000Y-53848000D01*
X101904155Y-53848000D01*
X102025476Y-53618110D01*
X101980825Y-53470901D01*
X101855641Y-53208080D01*
X101681588Y-52974731D01*
X101465355Y-52779822D01*
X101215252Y-52630843D01*
X100940891Y-52533519D01*
X100711000Y-52654186D01*
X100457000Y-52654186D01*
X100227109Y-52533519D01*
X99952748Y-52630843D01*
X99702645Y-52779822D01*
X99486412Y-52974731D01*
X99312359Y-53208080D01*
X99187175Y-53470901D01*
X99142524Y-53618110D01*
X79167103Y-53618110D01*
X79151932Y-53541842D01*
X79039990Y-53271589D01*
X78877475Y-53028368D01*
X78670632Y-52821525D01*
X78427411Y-52659010D01*
X78157158Y-52547068D01*
X77870260Y-52490000D01*
X77577740Y-52490000D01*
X77290842Y-52547068D01*
X77020589Y-52659010D01*
X76777368Y-52821525D01*
X76570525Y-53028368D01*
X76408010Y-53271589D01*
X76296068Y-53541842D01*
X76239000Y-53828740D01*
X76239000Y-54121260D01*
X76296068Y-54408158D01*
X76408010Y-54678411D01*
X76570525Y-54921632D01*
X76777368Y-55128475D01*
X76951760Y-55245000D01*
X76777368Y-55361525D01*
X76570525Y-55568368D01*
X76408010Y-55811589D01*
X76296068Y-56081842D01*
X76239000Y-56368740D01*
X76239000Y-56661260D01*
X76296068Y-56948158D01*
X76408010Y-57218411D01*
X76570525Y-57461632D01*
X76777368Y-57668475D01*
X76951760Y-57785000D01*
X76777368Y-57901525D01*
X76570525Y-58108368D01*
X76408010Y-58351589D01*
X76296068Y-58621842D01*
X76239000Y-58908740D01*
X76239000Y-59201260D01*
X76292456Y-59470001D01*
X72475068Y-59470001D01*
X72478000Y-59455260D01*
X72478000Y-59162740D01*
X72420932Y-58875842D01*
X72308990Y-58605589D01*
X72146475Y-58362368D01*
X71939632Y-58155525D01*
X71765240Y-58039000D01*
X71939632Y-57922475D01*
X72146475Y-57715632D01*
X72308990Y-57472411D01*
X72420932Y-57202158D01*
X72478000Y-56915260D01*
X72478000Y-56622740D01*
X72420932Y-56335842D01*
X72308990Y-56065589D01*
X72146475Y-55822368D01*
X71939632Y-55615525D01*
X71765240Y-55499000D01*
X71939632Y-55382475D01*
X72146475Y-55175632D01*
X72308990Y-54932411D01*
X72420932Y-54662158D01*
X72478000Y-54375260D01*
X72478000Y-54082740D01*
X72420932Y-53795842D01*
X72308990Y-53525589D01*
X72146475Y-53282368D01*
X71939632Y-53075525D01*
X71765240Y-52959000D01*
X71939632Y-52842475D01*
X72146475Y-52635632D01*
X72308990Y-52392411D01*
X72420932Y-52122158D01*
X72478000Y-51835260D01*
X72478000Y-51542740D01*
X72420932Y-51255842D01*
X72308990Y-50985589D01*
X72146475Y-50742368D01*
X71939632Y-50535525D01*
X71696411Y-50373010D01*
X71426158Y-50261068D01*
X71139260Y-50204000D01*
X70846740Y-50204000D01*
X70559842Y-50261068D01*
X70289589Y-50373010D01*
X70046368Y-50535525D01*
X69839525Y-50742368D01*
X69677010Y-50985589D01*
X69565068Y-51255842D01*
X69508000Y-51542740D01*
X69508000Y-51835260D01*
X69565068Y-52122158D01*
X69677010Y-52392411D01*
X69839525Y-52635632D01*
X70046368Y-52842475D01*
X70220760Y-52959000D01*
X70046368Y-53075525D01*
X69839525Y-53282368D01*
X69677010Y-53525589D01*
X69565068Y-53795842D01*
X69508000Y-54082740D01*
X69508000Y-54375260D01*
X69565068Y-54662158D01*
X69677010Y-54932411D01*
X69839525Y-55175632D01*
X70046368Y-55382475D01*
X70220760Y-55499000D01*
X70046368Y-55615525D01*
X69839525Y-55822368D01*
X69677010Y-56065589D01*
X69565068Y-56335842D01*
X69508000Y-56622740D01*
X69508000Y-56915260D01*
X69565068Y-57202158D01*
X69677010Y-57472411D01*
X69839525Y-57715632D01*
X70046368Y-57922475D01*
X70220760Y-58039000D01*
X70046368Y-58155525D01*
X69839525Y-58362368D01*
X69677010Y-58605589D01*
X69565068Y-58875842D01*
X69508000Y-59162740D01*
X69508000Y-59455260D01*
X69565068Y-59742158D01*
X69677010Y-60012411D01*
X69839525Y-60255632D01*
X70046368Y-60462475D01*
X70220760Y-60579000D01*
X70046368Y-60695525D01*
X69839525Y-60902368D01*
X69677010Y-61145589D01*
X69565068Y-61415842D01*
X69508000Y-61702740D01*
X69508000Y-61995260D01*
X69565068Y-62282158D01*
X69677010Y-62552411D01*
X69839525Y-62795632D01*
X70046368Y-63002475D01*
X70228534Y-63124195D01*
X70111645Y-63193822D01*
X69895412Y-63388731D01*
X69721359Y-63622080D01*
X69596175Y-63884901D01*
X69551524Y-64032110D01*
X69672845Y-64262000D01*
X70866000Y-64262000D01*
X70866000Y-64242000D01*
X71120000Y-64242000D01*
X71120000Y-64262000D01*
X71140000Y-64262000D01*
X71140000Y-64516000D01*
X71120000Y-64516000D01*
X71120000Y-64536000D01*
X70866000Y-64536000D01*
X70866000Y-64516000D01*
X69672845Y-64516000D01*
X69551524Y-64745890D01*
X69596175Y-64893099D01*
X69721359Y-65155920D01*
X69895412Y-65389269D01*
X70111645Y-65584178D01*
X70228534Y-65653805D01*
X70046368Y-65775525D01*
X69839525Y-65982368D01*
X69677010Y-66225589D01*
X69565068Y-66495842D01*
X69508000Y-66782740D01*
X69508000Y-67075260D01*
X69565068Y-67362158D01*
X69677010Y-67632411D01*
X69839525Y-67875632D01*
X69971380Y-68007487D01*
X69898820Y-68029498D01*
X69788506Y-68088463D01*
X69691815Y-68167815D01*
X69612463Y-68264506D01*
X69553498Y-68374820D01*
X69517188Y-68494518D01*
X69504928Y-68619000D01*
X62738000Y-68619000D01*
X62738000Y-49939849D01*
X76708000Y-49939849D01*
X76708000Y-50390151D01*
X76795850Y-50831802D01*
X76968173Y-51247827D01*
X77218348Y-51622240D01*
X77536760Y-51940652D01*
X77911173Y-52190827D01*
X78327198Y-52363150D01*
X78768849Y-52451000D01*
X79219151Y-52451000D01*
X79660802Y-52363150D01*
X80076827Y-52190827D01*
X80451240Y-51940652D01*
X80769652Y-51622240D01*
X81019827Y-51247827D01*
X81192150Y-50831802D01*
X81280000Y-50390151D01*
X81280000Y-49939849D01*
X97028000Y-49939849D01*
X97028000Y-50390151D01*
X97115850Y-50831802D01*
X97288173Y-51247827D01*
X97538348Y-51622240D01*
X97856760Y-51940652D01*
X98231173Y-52190827D01*
X98647198Y-52363150D01*
X99088849Y-52451000D01*
X99539151Y-52451000D01*
X99980802Y-52363150D01*
X100396827Y-52190827D01*
X100771240Y-51940652D01*
X101089652Y-51622240D01*
X101339827Y-51247827D01*
X101512150Y-50831802D01*
X101600000Y-50390151D01*
X101600000Y-49939849D01*
X101512150Y-49498198D01*
X101339827Y-49082173D01*
X101089652Y-48707760D01*
X100771240Y-48389348D01*
X100396827Y-48139173D01*
X99980802Y-47966850D01*
X99539151Y-47879000D01*
X99088849Y-47879000D01*
X98647198Y-47966850D01*
X98231173Y-48139173D01*
X97856760Y-48389348D01*
X97538348Y-48707760D01*
X97288173Y-49082173D01*
X97115850Y-49498198D01*
X97028000Y-49939849D01*
X81280000Y-49939849D01*
X81192150Y-49498198D01*
X81019827Y-49082173D01*
X80769652Y-48707760D01*
X80451240Y-48389348D01*
X80076827Y-48139173D01*
X79660802Y-47966850D01*
X79219151Y-47879000D01*
X78768849Y-47879000D01*
X78327198Y-47966850D01*
X77911173Y-48139173D01*
X77536760Y-48389348D01*
X77218348Y-48707760D01*
X76968173Y-49082173D01*
X76795850Y-49498198D01*
X76708000Y-49939849D01*
X62738000Y-49939849D01*
X62738000Y-47714000D01*
X104225928Y-47714000D01*
X104229000Y-48228250D01*
X104387750Y-48387000D01*
X105537000Y-48387000D01*
X105537000Y-47237750D01*
X105791000Y-47237750D01*
X105791000Y-48387000D01*
X106940250Y-48387000D01*
X107099000Y-48228250D01*
X107102072Y-47714000D01*
X107089812Y-47589518D01*
X107053502Y-47469820D01*
X106994537Y-47359506D01*
X106915185Y-47262815D01*
X106818494Y-47183463D01*
X106708180Y-47124498D01*
X106588482Y-47088188D01*
X106464000Y-47075928D01*
X105949750Y-47079000D01*
X105791000Y-47237750D01*
X105537000Y-47237750D01*
X105378250Y-47079000D01*
X104864000Y-47075928D01*
X104739518Y-47088188D01*
X104619820Y-47124498D01*
X104509506Y-47183463D01*
X104412815Y-47262815D01*
X104333463Y-47359506D01*
X104274498Y-47469820D01*
X104238188Y-47589518D01*
X104225928Y-47714000D01*
X62738000Y-47714000D01*
X62738000Y-46990000D01*
X163576000Y-46990000D01*
X163576000Y-65971893D01*
G37*
X163576000Y-65971893D02*
X163379632Y-65775525D01*
X163136411Y-65613010D01*
X162866158Y-65501068D01*
X162579260Y-65444000D01*
X162286740Y-65444000D01*
X161999842Y-65501068D01*
X161729589Y-65613010D01*
X161486368Y-65775525D01*
X161279525Y-65982368D01*
X161117010Y-66225589D01*
X161005068Y-66495842D01*
X160948000Y-66782740D01*
X160948000Y-67075260D01*
X161005068Y-67362158D01*
X161117010Y-67632411D01*
X161279525Y-67875632D01*
X161486368Y-68082475D01*
X161660760Y-68199000D01*
X161486368Y-68315525D01*
X161279525Y-68522368D01*
X161117010Y-68765589D01*
X161005068Y-69035842D01*
X160948000Y-69322740D01*
X160948000Y-69615260D01*
X161005068Y-69902158D01*
X161117010Y-70172411D01*
X161279525Y-70415632D01*
X161486368Y-70622475D01*
X161660760Y-70739000D01*
X161486368Y-70855525D01*
X161279525Y-71062368D01*
X161117010Y-71305589D01*
X161005068Y-71575842D01*
X160948000Y-71862740D01*
X160948000Y-72155260D01*
X161005068Y-72442158D01*
X161117010Y-72712411D01*
X161279525Y-72955632D01*
X161486368Y-73162475D01*
X161660760Y-73279000D01*
X161486368Y-73395525D01*
X161279525Y-73602368D01*
X161117010Y-73845589D01*
X161005068Y-74115842D01*
X160948000Y-74402740D01*
X160948000Y-74695260D01*
X161005068Y-74982158D01*
X161117010Y-75252411D01*
X161279525Y-75495632D01*
X161486368Y-75702475D01*
X161660760Y-75819000D01*
X161486368Y-75935525D01*
X161279525Y-76142368D01*
X161117010Y-76385589D01*
X161005068Y-76655842D01*
X160948000Y-76942740D01*
X160948000Y-77235260D01*
X161005068Y-77522158D01*
X161117010Y-77792411D01*
X161279525Y-78035632D01*
X161486368Y-78242475D01*
X161660760Y-78359000D01*
X161486368Y-78475525D01*
X161279525Y-78682368D01*
X161117010Y-78925589D01*
X161005068Y-79195842D01*
X160948000Y-79482740D01*
X160948000Y-79775260D01*
X161005068Y-80062158D01*
X161117010Y-80332411D01*
X161279525Y-80575632D01*
X161486368Y-80782475D01*
X161660760Y-80899000D01*
X161486368Y-81015525D01*
X161279525Y-81222368D01*
X161117010Y-81465589D01*
X161005068Y-81735842D01*
X160948000Y-82022740D01*
X160948000Y-82315260D01*
X161005068Y-82602158D01*
X161117010Y-82872411D01*
X161279525Y-83115632D01*
X161486368Y-83322475D01*
X161660760Y-83439000D01*
X161486368Y-83555525D01*
X161279525Y-83762368D01*
X161117010Y-84005589D01*
X161005068Y-84275842D01*
X160948000Y-84562740D01*
X160948000Y-84855260D01*
X161005068Y-85142158D01*
X161117010Y-85412411D01*
X161279525Y-85655632D01*
X161411380Y-85787487D01*
X161338820Y-85809498D01*
X161228506Y-85868463D01*
X161131815Y-85947815D01*
X161052463Y-86044506D01*
X160993498Y-86154820D01*
X160957188Y-86274518D01*
X160944928Y-86399000D01*
X160944928Y-88099000D01*
X160957188Y-88223482D01*
X160993498Y-88343180D01*
X161052463Y-88453494D01*
X161131815Y-88550185D01*
X161228506Y-88629537D01*
X161338820Y-88688502D01*
X161458518Y-88724812D01*
X161583000Y-88737072D01*
X163283000Y-88737072D01*
X163407482Y-88724812D01*
X163527180Y-88688502D01*
X163576000Y-88662407D01*
X163576000Y-111497242D01*
X62738000Y-111394972D01*
X62738000Y-108613849D01*
X125857000Y-108613849D01*
X125857000Y-109064151D01*
X125944850Y-109505802D01*
X126117173Y-109921827D01*
X126367348Y-110296240D01*
X126685760Y-110614652D01*
X127060173Y-110864827D01*
X127476198Y-111037150D01*
X127917849Y-111125000D01*
X128368151Y-111125000D01*
X128809802Y-111037150D01*
X129225827Y-110864827D01*
X129600240Y-110614652D01*
X129918652Y-110296240D01*
X130168827Y-109921827D01*
X130341150Y-109505802D01*
X130429000Y-109064151D01*
X130429000Y-108613849D01*
X158877000Y-108613849D01*
X158877000Y-109064151D01*
X158964850Y-109505802D01*
X159137173Y-109921827D01*
X159387348Y-110296240D01*
X159705760Y-110614652D01*
X160080173Y-110864827D01*
X160496198Y-111037150D01*
X160937849Y-111125000D01*
X161388151Y-111125000D01*
X161829802Y-111037150D01*
X162245827Y-110864827D01*
X162620240Y-110614652D01*
X162938652Y-110296240D01*
X163188827Y-109921827D01*
X163361150Y-109505802D01*
X163449000Y-109064151D01*
X163449000Y-108613849D01*
X163361150Y-108172198D01*
X163188827Y-107756173D01*
X162938652Y-107381760D01*
X162620240Y-107063348D01*
X162245827Y-106813173D01*
X161829802Y-106640850D01*
X161388151Y-106553000D01*
X160937849Y-106553000D01*
X160496198Y-106640850D01*
X160080173Y-106813173D01*
X159705760Y-107063348D01*
X159387348Y-107381760D01*
X159137173Y-107756173D01*
X158964850Y-108172198D01*
X158877000Y-108613849D01*
X130429000Y-108613849D01*
X130341150Y-108172198D01*
X130168827Y-107756173D01*
X129918652Y-107381760D01*
X129600240Y-107063348D01*
X129225827Y-106813173D01*
X128809802Y-106640850D01*
X128368151Y-106553000D01*
X127917849Y-106553000D01*
X127476198Y-106640850D01*
X127060173Y-106813173D01*
X126685760Y-107063348D01*
X126367348Y-107381760D01*
X126117173Y-107756173D01*
X125944850Y-108172198D01*
X125857000Y-108613849D01*
X62738000Y-108613849D01*
X62738000Y-105957000D01*
X68488928Y-105957000D01*
X68488928Y-107657000D01*
X68501188Y-107781482D01*
X68537498Y-107901180D01*
X68596463Y-108011494D01*
X68675815Y-108108185D01*
X68772506Y-108187537D01*
X68882820Y-108246502D01*
X69002518Y-108282812D01*
X69127000Y-108295072D01*
X70827000Y-108295072D01*
X70951482Y-108282812D01*
X71071180Y-108246502D01*
X71181494Y-108187537D01*
X71278185Y-108108185D01*
X71357537Y-108011494D01*
X71416502Y-107901180D01*
X71438513Y-107828620D01*
X71570368Y-107960475D01*
X71813589Y-108122990D01*
X72083842Y-108234932D01*
X72370740Y-108292000D01*
X72663260Y-108292000D01*
X72950158Y-108234932D01*
X73220411Y-108122990D01*
X73463632Y-107960475D01*
X73670475Y-107753632D01*
X73787000Y-107579240D01*
X73903525Y-107753632D01*
X74110368Y-107960475D01*
X74353589Y-108122990D01*
X74623842Y-108234932D01*
X74910740Y-108292000D01*
X75203260Y-108292000D01*
X75490158Y-108234932D01*
X75760411Y-108122990D01*
X76003632Y-107960475D01*
X76210475Y-107753632D01*
X76327000Y-107579240D01*
X76443525Y-107753632D01*
X76650368Y-107960475D01*
X76893589Y-108122990D01*
X77163842Y-108234932D01*
X77450740Y-108292000D01*
X77743260Y-108292000D01*
X78030158Y-108234932D01*
X78300411Y-108122990D01*
X78543632Y-107960475D01*
X78750475Y-107753632D01*
X78867000Y-107579240D01*
X78983525Y-107753632D01*
X79190368Y-107960475D01*
X79433589Y-108122990D01*
X79703842Y-108234932D01*
X79990740Y-108292000D01*
X80283260Y-108292000D01*
X80570158Y-108234932D01*
X80840411Y-108122990D01*
X81083632Y-107960475D01*
X81290475Y-107753632D01*
X81407000Y-107579240D01*
X81523525Y-107753632D01*
X81730368Y-107960475D01*
X81973589Y-108122990D01*
X82243842Y-108234932D01*
X82530740Y-108292000D01*
X82823260Y-108292000D01*
X83110158Y-108234932D01*
X83380411Y-108122990D01*
X83623632Y-107960475D01*
X83830475Y-107753632D01*
X83947000Y-107579240D01*
X84063525Y-107753632D01*
X84270368Y-107960475D01*
X84513589Y-108122990D01*
X84783842Y-108234932D01*
X85070740Y-108292000D01*
X85363260Y-108292000D01*
X85650158Y-108234932D01*
X85920411Y-108122990D01*
X86163632Y-107960475D01*
X86370475Y-107753632D01*
X86487000Y-107579240D01*
X86603525Y-107753632D01*
X86810368Y-107960475D01*
X87053589Y-108122990D01*
X87323842Y-108234932D01*
X87610740Y-108292000D01*
X87903260Y-108292000D01*
X88190158Y-108234932D01*
X88460411Y-108122990D01*
X88703632Y-107960475D01*
X88910475Y-107753632D01*
X89072990Y-107510411D01*
X89184932Y-107240158D01*
X89242000Y-106953260D01*
X89242000Y-106660740D01*
X89184932Y-106373842D01*
X89072990Y-106103589D01*
X88910475Y-105860368D01*
X88703632Y-105653525D01*
X88460411Y-105491010D01*
X88190158Y-105379068D01*
X87903260Y-105322000D01*
X87610740Y-105322000D01*
X87323842Y-105379068D01*
X87053589Y-105491010D01*
X86810368Y-105653525D01*
X86603525Y-105860368D01*
X86487000Y-106034760D01*
X86370475Y-105860368D01*
X86163632Y-105653525D01*
X85920411Y-105491010D01*
X85650158Y-105379068D01*
X85363260Y-105322000D01*
X85070740Y-105322000D01*
X84783842Y-105379068D01*
X84513589Y-105491010D01*
X84270368Y-105653525D01*
X84063525Y-105860368D01*
X83947000Y-106034760D01*
X83830475Y-105860368D01*
X83623632Y-105653525D01*
X83380411Y-105491010D01*
X83110158Y-105379068D01*
X82823260Y-105322000D01*
X82530740Y-105322000D01*
X82243842Y-105379068D01*
X81973589Y-105491010D01*
X81730368Y-105653525D01*
X81523525Y-105860368D01*
X81407000Y-106034760D01*
X81290475Y-105860368D01*
X81083632Y-105653525D01*
X80840411Y-105491010D01*
X80570158Y-105379068D01*
X80283260Y-105322000D01*
X79990740Y-105322000D01*
X79703842Y-105379068D01*
X79433589Y-105491010D01*
X79190368Y-105653525D01*
X78983525Y-105860368D01*
X78867000Y-106034760D01*
X78750475Y-105860368D01*
X78543632Y-105653525D01*
X78300411Y-105491010D01*
X78030158Y-105379068D01*
X77743260Y-105322000D01*
X77450740Y-105322000D01*
X77163842Y-105379068D01*
X76893589Y-105491010D01*
X76650368Y-105653525D01*
X76443525Y-105860368D01*
X76327000Y-106034760D01*
X76210475Y-105860368D01*
X76003632Y-105653525D01*
X75760411Y-105491010D01*
X75490158Y-105379068D01*
X75203260Y-105322000D01*
X74910740Y-105322000D01*
X74623842Y-105379068D01*
X74353589Y-105491010D01*
X74110368Y-105653525D01*
X73903525Y-105860368D01*
X73787000Y-106034760D01*
X73670475Y-105860368D01*
X73463632Y-105653525D01*
X73220411Y-105491010D01*
X72950158Y-105379068D01*
X72663260Y-105322000D01*
X72370740Y-105322000D01*
X72083842Y-105379068D01*
X71813589Y-105491010D01*
X71570368Y-105653525D01*
X71438513Y-105785380D01*
X71416502Y-105712820D01*
X71357537Y-105602506D01*
X71278185Y-105505815D01*
X71181494Y-105426463D01*
X71071180Y-105367498D01*
X70951482Y-105331188D01*
X70827000Y-105318928D01*
X69127000Y-105318928D01*
X69002518Y-105331188D01*
X68882820Y-105367498D01*
X68772506Y-105426463D01*
X68675815Y-105505815D01*
X68596463Y-105602506D01*
X68537498Y-105712820D01*
X68501188Y-105832518D01*
X68488928Y-105957000D01*
X62738000Y-105957000D01*
X62738000Y-105311849D01*
X91821000Y-105311849D01*
X91821000Y-105762151D01*
X91908850Y-106203802D01*
X92081173Y-106619827D01*
X92331348Y-106994240D01*
X92649760Y-107312652D01*
X93024173Y-107562827D01*
X93440198Y-107735150D01*
X93881849Y-107823000D01*
X94332151Y-107823000D01*
X94773802Y-107735150D01*
X95189827Y-107562827D01*
X95564240Y-107312652D01*
X95882652Y-106994240D01*
X96132827Y-106619827D01*
X96305150Y-106203802D01*
X96393000Y-105762151D01*
X96393000Y-105311849D01*
X96305150Y-104870198D01*
X96132827Y-104454173D01*
X95882652Y-104079760D01*
X95564240Y-103761348D01*
X95189827Y-103511173D01*
X94773802Y-103338850D01*
X94332151Y-103251000D01*
X93881849Y-103251000D01*
X93440198Y-103338850D01*
X93024173Y-103511173D01*
X92649760Y-103761348D01*
X92331348Y-104079760D01*
X92081173Y-104454173D01*
X91908850Y-104870198D01*
X91821000Y-105311849D01*
X62738000Y-105311849D01*
X62738000Y-96051000D01*
X97444928Y-96051000D01*
X97444928Y-97751000D01*
X97457188Y-97875482D01*
X97493498Y-97995180D01*
X97552463Y-98105494D01*
X97631815Y-98202185D01*
X97728506Y-98281537D01*
X97838820Y-98340502D01*
X97911380Y-98362513D01*
X97779525Y-98494368D01*
X97617010Y-98737589D01*
X97505068Y-99007842D01*
X97448000Y-99294740D01*
X97448000Y-99587260D01*
X97505068Y-99874158D01*
X97617010Y-100144411D01*
X97779525Y-100387632D01*
X97986368Y-100594475D01*
X98160760Y-100711000D01*
X97986368Y-100827525D01*
X97779525Y-101034368D01*
X97617010Y-101277589D01*
X97505068Y-101547842D01*
X97448000Y-101834740D01*
X97448000Y-102127260D01*
X97505068Y-102414158D01*
X97617010Y-102684411D01*
X97779525Y-102927632D01*
X97986368Y-103134475D01*
X98160760Y-103251000D01*
X97986368Y-103367525D01*
X97779525Y-103574368D01*
X97617010Y-103817589D01*
X97505068Y-104087842D01*
X97448000Y-104374740D01*
X97448000Y-104667260D01*
X97505068Y-104954158D01*
X97617010Y-105224411D01*
X97779525Y-105467632D01*
X97986368Y-105674475D01*
X98160760Y-105791000D01*
X97986368Y-105907525D01*
X97779525Y-106114368D01*
X97617010Y-106357589D01*
X97505068Y-106627842D01*
X97448000Y-106914740D01*
X97448000Y-107207260D01*
X97505068Y-107494158D01*
X97617010Y-107764411D01*
X97779525Y-108007632D01*
X97986368Y-108214475D01*
X98229589Y-108376990D01*
X98499842Y-108488932D01*
X98786740Y-108546000D01*
X99079260Y-108546000D01*
X99366158Y-108488932D01*
X99636411Y-108376990D01*
X99879632Y-108214475D01*
X100086475Y-108007632D01*
X100248990Y-107764411D01*
X100360932Y-107494158D01*
X100418000Y-107207260D01*
X100418000Y-106914740D01*
X100360932Y-106627842D01*
X100248990Y-106357589D01*
X100086475Y-106114368D01*
X99879632Y-105907525D01*
X99705240Y-105791000D01*
X99879632Y-105674475D01*
X100086475Y-105467632D01*
X100248990Y-105224411D01*
X100360932Y-104954158D01*
X100418000Y-104667260D01*
X100418000Y-104374740D01*
X100360932Y-104087842D01*
X100248990Y-103817589D01*
X100086475Y-103574368D01*
X99879632Y-103367525D01*
X99705240Y-103251000D01*
X99879632Y-103134475D01*
X100086475Y-102927632D01*
X100248990Y-102684411D01*
X100360932Y-102414158D01*
X100418000Y-102127260D01*
X100418000Y-101834740D01*
X100360932Y-101547842D01*
X100248990Y-101277589D01*
X100086475Y-101034368D01*
X99879632Y-100827525D01*
X99705240Y-100711000D01*
X99879632Y-100594475D01*
X100086475Y-100387632D01*
X100248990Y-100144411D01*
X100360932Y-99874158D01*
X100418000Y-99587260D01*
X100418000Y-99294740D01*
X100360932Y-99007842D01*
X100248990Y-98737589D01*
X100086475Y-98494368D01*
X99954620Y-98362513D01*
X100027180Y-98340502D01*
X100137494Y-98281537D01*
X100234185Y-98202185D01*
X100313537Y-98105494D01*
X100372502Y-97995180D01*
X100408812Y-97875482D01*
X100421072Y-97751000D01*
X100421072Y-96051000D01*
X100408812Y-95926518D01*
X100372502Y-95806820D01*
X100313537Y-95696506D01*
X100234185Y-95599815D01*
X100137494Y-95520463D01*
X100027180Y-95461498D01*
X99907482Y-95425188D01*
X99783000Y-95412928D01*
X98083000Y-95412928D01*
X97958518Y-95425188D01*
X97838820Y-95461498D01*
X97728506Y-95520463D01*
X97631815Y-95599815D01*
X97552463Y-95696506D01*
X97493498Y-95806820D01*
X97457188Y-95926518D01*
X97444928Y-96051000D01*
X62738000Y-96051000D01*
X62738000Y-77177000D01*
X73568928Y-77177000D01*
X73581188Y-77301482D01*
X73617498Y-77421180D01*
X73676463Y-77531494D01*
X73755815Y-77628185D01*
X73852506Y-77707537D01*
X73962820Y-77766502D01*
X74082518Y-77802812D01*
X74207000Y-77815072D01*
X74771250Y-77812000D01*
X74930000Y-77653250D01*
X74930000Y-76454000D01*
X73730750Y-76454000D01*
X73572000Y-76612750D01*
X73568928Y-77177000D01*
X62738000Y-77177000D01*
X62738000Y-75477000D01*
X73568928Y-75477000D01*
X73572000Y-76041250D01*
X73730750Y-76200000D01*
X74930000Y-76200000D01*
X74930000Y-75000750D01*
X74771250Y-74842000D01*
X74207000Y-74838928D01*
X74082518Y-74851188D01*
X73962820Y-74887498D01*
X73852506Y-74946463D01*
X73755815Y-75025815D01*
X73676463Y-75122506D01*
X73617498Y-75232820D01*
X73581188Y-75352518D01*
X73568928Y-75477000D01*
X62738000Y-75477000D01*
X62738000Y-68619000D01*
X69504928Y-68619000D01*
X69504928Y-70319000D01*
X69517188Y-70443482D01*
X69553498Y-70563180D01*
X69612463Y-70673494D01*
X69691815Y-70770185D01*
X69788506Y-70849537D01*
X69898820Y-70908502D01*
X70018518Y-70944812D01*
X70143000Y-70957072D01*
X71843000Y-70957072D01*
X71967482Y-70944812D01*
X72087180Y-70908502D01*
X72197494Y-70849537D01*
X72294185Y-70770185D01*
X72373537Y-70673494D01*
X72432502Y-70563180D01*
X72468812Y-70443482D01*
X72481072Y-70319000D01*
X72481072Y-70259849D01*
X76708000Y-70259849D01*
X76708000Y-70710151D01*
X76795850Y-71151802D01*
X76968173Y-71567827D01*
X77218348Y-71942240D01*
X77536760Y-72260652D01*
X77911173Y-72510827D01*
X78327198Y-72683150D01*
X78768849Y-72771000D01*
X79219151Y-72771000D01*
X79660802Y-72683150D01*
X80076827Y-72510827D01*
X80451240Y-72260652D01*
X80769652Y-71942240D01*
X81019827Y-71567827D01*
X81192150Y-71151802D01*
X81280000Y-70710151D01*
X81280000Y-70259849D01*
X81192150Y-69818198D01*
X81019827Y-69402173D01*
X80769652Y-69027760D01*
X80451240Y-68709348D01*
X80076827Y-68459173D01*
X79660802Y-68286850D01*
X79219151Y-68199000D01*
X78768849Y-68199000D01*
X78327198Y-68286850D01*
X77911173Y-68459173D01*
X77536760Y-68709348D01*
X77218348Y-69027760D01*
X76968173Y-69402173D01*
X76795850Y-69818198D01*
X76708000Y-70259849D01*
X72481072Y-70259849D01*
X72481072Y-68619000D01*
X72468812Y-68494518D01*
X72432502Y-68374820D01*
X72373537Y-68264506D01*
X72294185Y-68167815D01*
X72197494Y-68088463D01*
X72087180Y-68029498D01*
X72014620Y-68007487D01*
X72146475Y-67875632D01*
X72308990Y-67632411D01*
X72420932Y-67362158D01*
X72478000Y-67075260D01*
X72478000Y-66782740D01*
X72420932Y-66495842D01*
X72308990Y-66225589D01*
X72146475Y-65982368D01*
X71939632Y-65775525D01*
X71757466Y-65653805D01*
X71874355Y-65584178D01*
X72090588Y-65389269D01*
X72264641Y-65155920D01*
X72389825Y-64893099D01*
X72434476Y-64745890D01*
X72313156Y-64516002D01*
X72478000Y-64516002D01*
X72478000Y-64408801D01*
X73890201Y-65821003D01*
X73914000Y-65850002D01*
X73942998Y-65873800D01*
X74029725Y-65944975D01*
X74161754Y-66015547D01*
X74305015Y-66059004D01*
X74454001Y-66073678D01*
X74491334Y-66070001D01*
X76235928Y-66070001D01*
X76235928Y-67525000D01*
X76248188Y-67649482D01*
X76284498Y-67769180D01*
X76343463Y-67879494D01*
X76422815Y-67976185D01*
X76519506Y-68055537D01*
X76629820Y-68114502D01*
X76749518Y-68150812D01*
X76874000Y-68163072D01*
X78574000Y-68163072D01*
X78698482Y-68150812D01*
X78818180Y-68114502D01*
X78928494Y-68055537D01*
X79025185Y-67976185D01*
X79104537Y-67879494D01*
X79163502Y-67769180D01*
X79199812Y-67649482D01*
X79212072Y-67525000D01*
X79212072Y-66070001D01*
X87601200Y-66070001D01*
X89537001Y-68005803D01*
X89537000Y-75048821D01*
X89350368Y-75173525D01*
X89143525Y-75380368D01*
X89027000Y-75554760D01*
X88910475Y-75380368D01*
X88703632Y-75173525D01*
X88517000Y-75048822D01*
X88517000Y-71442711D01*
X88560937Y-71398774D01*
X88674205Y-71229256D01*
X88752226Y-71040898D01*
X88792000Y-70840939D01*
X88792000Y-70637061D01*
X88752226Y-70437102D01*
X88674205Y-70248744D01*
X88560937Y-70079226D01*
X88416774Y-69935063D01*
X88247256Y-69821795D01*
X88058898Y-69743774D01*
X87858939Y-69704000D01*
X87655061Y-69704000D01*
X87455102Y-69743774D01*
X87266744Y-69821795D01*
X87097226Y-69935063D01*
X86953063Y-70079226D01*
X86839795Y-70248744D01*
X86761774Y-70437102D01*
X86722000Y-70637061D01*
X86722000Y-70840939D01*
X86761774Y-71040898D01*
X86839795Y-71229256D01*
X86953063Y-71398774D01*
X86997001Y-71442712D01*
X86997000Y-75048821D01*
X86810368Y-75173525D01*
X86603525Y-75380368D01*
X86487000Y-75554760D01*
X86370475Y-75380368D01*
X86163632Y-75173525D01*
X85920411Y-75011010D01*
X85650158Y-74899068D01*
X85363260Y-74842000D01*
X85070740Y-74842000D01*
X84783842Y-74899068D01*
X84513589Y-75011010D01*
X84270368Y-75173525D01*
X84063525Y-75380368D01*
X83947000Y-75554760D01*
X83830475Y-75380368D01*
X83623632Y-75173525D01*
X83380411Y-75011010D01*
X83110158Y-74899068D01*
X82823260Y-74842000D01*
X82530740Y-74842000D01*
X82243842Y-74899068D01*
X81973589Y-75011010D01*
X81730368Y-75173525D01*
X81523525Y-75380368D01*
X81407000Y-75554760D01*
X81290475Y-75380368D01*
X81083632Y-75173525D01*
X80840411Y-75011010D01*
X80570158Y-74899068D01*
X80283260Y-74842000D01*
X79990740Y-74842000D01*
X79703842Y-74899068D01*
X79433589Y-75011010D01*
X79190368Y-75173525D01*
X78983525Y-75380368D01*
X78867000Y-75554760D01*
X78750475Y-75380368D01*
X78543632Y-75173525D01*
X78300411Y-75011010D01*
X78030158Y-74899068D01*
X77743260Y-74842000D01*
X77450740Y-74842000D01*
X77163842Y-74899068D01*
X76893589Y-75011010D01*
X76650368Y-75173525D01*
X76518513Y-75305380D01*
X76496502Y-75232820D01*
X76437537Y-75122506D01*
X76358185Y-75025815D01*
X76261494Y-74946463D01*
X76151180Y-74887498D01*
X76031482Y-74851188D01*
X75907000Y-74838928D01*
X75342750Y-74842000D01*
X75184000Y-75000750D01*
X75184000Y-76200000D01*
X75204000Y-76200000D01*
X75204000Y-76454000D01*
X75184000Y-76454000D01*
X75184000Y-77653250D01*
X75342750Y-77812000D01*
X75907000Y-77815072D01*
X76031482Y-77802812D01*
X76151180Y-77766502D01*
X76261494Y-77707537D01*
X76358185Y-77628185D01*
X76437537Y-77531494D01*
X76496502Y-77421180D01*
X76518513Y-77348620D01*
X76650368Y-77480475D01*
X76893589Y-77642990D01*
X77163842Y-77754932D01*
X77450740Y-77812000D01*
X77743260Y-77812000D01*
X78030158Y-77754932D01*
X78300411Y-77642990D01*
X78543632Y-77480475D01*
X78750475Y-77273632D01*
X78867000Y-77099240D01*
X78983525Y-77273632D01*
X79190368Y-77480475D01*
X79433589Y-77642990D01*
X79703842Y-77754932D01*
X79990740Y-77812000D01*
X80283260Y-77812000D01*
X80570158Y-77754932D01*
X80840411Y-77642990D01*
X81083632Y-77480475D01*
X81290475Y-77273632D01*
X81407000Y-77099240D01*
X81523525Y-77273632D01*
X81730368Y-77480475D01*
X81973589Y-77642990D01*
X82243842Y-77754932D01*
X82530740Y-77812000D01*
X82823260Y-77812000D01*
X83110158Y-77754932D01*
X83380411Y-77642990D01*
X83623632Y-77480475D01*
X83830475Y-77273632D01*
X83947000Y-77099240D01*
X84063525Y-77273632D01*
X84270368Y-77480475D01*
X84513589Y-77642990D01*
X84783842Y-77754932D01*
X85070740Y-77812000D01*
X85363260Y-77812000D01*
X85650158Y-77754932D01*
X85920411Y-77642990D01*
X86163632Y-77480475D01*
X86370475Y-77273632D01*
X86487000Y-77099240D01*
X86603525Y-77273632D01*
X86810368Y-77480475D01*
X87053589Y-77642990D01*
X87323842Y-77754932D01*
X87610740Y-77812000D01*
X87903260Y-77812000D01*
X88190158Y-77754932D01*
X88460411Y-77642990D01*
X88703632Y-77480475D01*
X88910475Y-77273632D01*
X89027000Y-77099240D01*
X89143525Y-77273632D01*
X89350368Y-77480475D01*
X89593589Y-77642990D01*
X89863842Y-77754932D01*
X90150740Y-77812000D01*
X90443260Y-77812000D01*
X90730158Y-77754932D01*
X91000411Y-77642990D01*
X91243632Y-77480475D01*
X91450475Y-77273632D01*
X91612990Y-77030411D01*
X91724932Y-76760158D01*
X91782000Y-76473260D01*
X91782000Y-76180740D01*
X91738210Y-75960592D01*
X91899801Y-75799001D01*
X92683205Y-75799001D01*
X92649760Y-75821348D01*
X92331348Y-76139760D01*
X92081173Y-76514173D01*
X91908850Y-76930198D01*
X91821000Y-77371849D01*
X91821000Y-77822151D01*
X91908850Y-78263802D01*
X92081173Y-78679827D01*
X92331348Y-79054240D01*
X92649760Y-79372652D01*
X93024173Y-79622827D01*
X93440198Y-79795150D01*
X93881849Y-79883000D01*
X94332151Y-79883000D01*
X94773802Y-79795150D01*
X95189827Y-79622827D01*
X95564240Y-79372652D01*
X95882652Y-79054240D01*
X96132827Y-78679827D01*
X96305150Y-78263802D01*
X96393000Y-77822151D01*
X96393000Y-77371849D01*
X96305150Y-76930198D01*
X96132827Y-76514173D01*
X95882652Y-76139760D01*
X95564240Y-75821348D01*
X95530795Y-75799001D01*
X97330200Y-75799001D01*
X97444928Y-75913729D01*
X97444928Y-77177000D01*
X97457188Y-77301482D01*
X97493498Y-77421180D01*
X97552463Y-77531494D01*
X97631815Y-77628185D01*
X97728506Y-77707537D01*
X97838820Y-77766502D01*
X97911380Y-77788513D01*
X97779525Y-77920368D01*
X97617010Y-78163589D01*
X97505068Y-78433842D01*
X97448000Y-78720740D01*
X97448000Y-79013260D01*
X97505068Y-79300158D01*
X97617010Y-79570411D01*
X97779525Y-79813632D01*
X97986368Y-80020475D01*
X98160760Y-80137000D01*
X97986368Y-80253525D01*
X97779525Y-80460368D01*
X97617010Y-80703589D01*
X97505068Y-80973842D01*
X97448000Y-81260740D01*
X97448000Y-81553260D01*
X97505068Y-81840158D01*
X97617010Y-82110411D01*
X97779525Y-82353632D01*
X97986368Y-82560475D01*
X98229589Y-82722990D01*
X98499842Y-82834932D01*
X98786740Y-82892000D01*
X99079260Y-82892000D01*
X99366158Y-82834932D01*
X99636411Y-82722990D01*
X99879632Y-82560475D01*
X100086475Y-82353632D01*
X100248990Y-82110411D01*
X100360932Y-81840158D01*
X100418000Y-81553260D01*
X100418000Y-81260740D01*
X100360932Y-80973842D01*
X100248990Y-80703589D01*
X100086475Y-80460368D01*
X99879632Y-80253525D01*
X99705240Y-80137000D01*
X99879632Y-80020475D01*
X100086475Y-79813632D01*
X100248990Y-79570411D01*
X100360932Y-79300158D01*
X100418000Y-79013260D01*
X100418000Y-78720740D01*
X100360932Y-78433842D01*
X100248990Y-78163589D01*
X100086475Y-77920368D01*
X99954620Y-77788513D01*
X100027180Y-77766502D01*
X100137494Y-77707537D01*
X100234185Y-77628185D01*
X100313537Y-77531494D01*
X100372502Y-77421180D01*
X100408812Y-77301482D01*
X100421072Y-77177000D01*
X100421072Y-75913730D01*
X100535801Y-75799001D01*
X104382077Y-75799001D01*
X104284147Y-76035426D01*
X104229000Y-76312665D01*
X104229000Y-76595335D01*
X104284147Y-76872574D01*
X104392320Y-77133727D01*
X104549363Y-77368759D01*
X104749241Y-77568637D01*
X104981759Y-77724000D01*
X104749241Y-77879363D01*
X104549363Y-78079241D01*
X104392320Y-78314273D01*
X104284147Y-78575426D01*
X104229000Y-78852665D01*
X104229000Y-79135335D01*
X104284147Y-79412574D01*
X104392320Y-79673727D01*
X104549363Y-79908759D01*
X104749241Y-80108637D01*
X104981759Y-80264000D01*
X104749241Y-80419363D01*
X104549363Y-80619241D01*
X104392320Y-80854273D01*
X104284147Y-81115426D01*
X104229000Y-81392665D01*
X104229000Y-81675335D01*
X104284147Y-81952574D01*
X104392320Y-82213727D01*
X104549363Y-82448759D01*
X104749241Y-82648637D01*
X104981759Y-82804000D01*
X104749241Y-82959363D01*
X104549363Y-83159241D01*
X104445957Y-83314000D01*
X80840711Y-83314000D01*
X80796774Y-83270063D01*
X80627256Y-83156795D01*
X80438898Y-83078774D01*
X80238939Y-83039000D01*
X80035061Y-83039000D01*
X79835102Y-83078774D01*
X79646744Y-83156795D01*
X79477226Y-83270063D01*
X79333063Y-83414226D01*
X79219795Y-83583744D01*
X79141774Y-83772102D01*
X79102000Y-83972061D01*
X79102000Y-84175939D01*
X79141774Y-84375898D01*
X79219795Y-84564256D01*
X79333063Y-84733774D01*
X79477226Y-84877937D01*
X79646744Y-84991205D01*
X79835102Y-85069226D01*
X80035061Y-85109000D01*
X80238939Y-85109000D01*
X80438898Y-85069226D01*
X80627256Y-84991205D01*
X80796774Y-84877937D01*
X80840711Y-84834000D01*
X104445957Y-84834000D01*
X104549363Y-84988759D01*
X104749241Y-85188637D01*
X104981759Y-85344000D01*
X104749241Y-85499363D01*
X104549363Y-85699241D01*
X104392320Y-85934273D01*
X104284147Y-86195426D01*
X104229000Y-86472665D01*
X104229000Y-86755335D01*
X104284147Y-87032574D01*
X104392320Y-87293727D01*
X104549363Y-87528759D01*
X104749241Y-87728637D01*
X104981759Y-87884000D01*
X104749241Y-88039363D01*
X104549363Y-88239241D01*
X104392320Y-88474273D01*
X104284147Y-88735426D01*
X104229000Y-89012665D01*
X104229000Y-89295335D01*
X104284147Y-89572574D01*
X104392320Y-89833727D01*
X104549363Y-90068759D01*
X104749241Y-90268637D01*
X104981759Y-90424000D01*
X104749241Y-90579363D01*
X104549363Y-90779241D01*
X104392320Y-91014273D01*
X104284147Y-91275426D01*
X104229000Y-91552665D01*
X104229000Y-91835335D01*
X104284147Y-92112574D01*
X104392320Y-92373727D01*
X104549363Y-92608759D01*
X104749241Y-92808637D01*
X104981759Y-92964000D01*
X104749241Y-93119363D01*
X104549363Y-93319241D01*
X104392320Y-93554273D01*
X104284147Y-93815426D01*
X104229000Y-94092665D01*
X104229000Y-94375335D01*
X104284147Y-94652574D01*
X104392320Y-94913727D01*
X104549363Y-95148759D01*
X104749241Y-95348637D01*
X104981759Y-95504000D01*
X104749241Y-95659363D01*
X104549363Y-95859241D01*
X104392320Y-96094273D01*
X104284147Y-96355426D01*
X104229000Y-96632665D01*
X104229000Y-96915335D01*
X104284147Y-97192574D01*
X104392320Y-97453727D01*
X104549363Y-97688759D01*
X104749241Y-97888637D01*
X104981759Y-98044000D01*
X104749241Y-98199363D01*
X104549363Y-98399241D01*
X104392320Y-98634273D01*
X104284147Y-98895426D01*
X104229000Y-99172665D01*
X104229000Y-99455335D01*
X104284147Y-99732574D01*
X104392320Y-99993727D01*
X104549363Y-100228759D01*
X104749241Y-100428637D01*
X104981759Y-100584000D01*
X104749241Y-100739363D01*
X104549363Y-100939241D01*
X104392320Y-101174273D01*
X104284147Y-101435426D01*
X104229000Y-101712665D01*
X104229000Y-101995335D01*
X104284147Y-102272574D01*
X104392320Y-102533727D01*
X104549363Y-102768759D01*
X104749241Y-102968637D01*
X104981759Y-103124000D01*
X104749241Y-103279363D01*
X104549363Y-103479241D01*
X104392320Y-103714273D01*
X104284147Y-103975426D01*
X104229000Y-104252665D01*
X104229000Y-104535335D01*
X104284147Y-104812574D01*
X104392320Y-105073727D01*
X104549363Y-105308759D01*
X104749241Y-105508637D01*
X104981759Y-105664000D01*
X104749241Y-105819363D01*
X104549363Y-106019241D01*
X104392320Y-106254273D01*
X104284147Y-106515426D01*
X104229000Y-106792665D01*
X104229000Y-107075335D01*
X104284147Y-107352574D01*
X104392320Y-107613727D01*
X104549363Y-107848759D01*
X104749241Y-108048637D01*
X104984273Y-108205680D01*
X105245426Y-108313853D01*
X105522665Y-108369000D01*
X105805335Y-108369000D01*
X106082574Y-108313853D01*
X106343727Y-108205680D01*
X106578759Y-108048637D01*
X106778637Y-107848759D01*
X106935680Y-107613727D01*
X107043853Y-107352574D01*
X107099000Y-107075335D01*
X107099000Y-106792665D01*
X107043853Y-106515426D01*
X106935680Y-106254273D01*
X106778637Y-106019241D01*
X106578759Y-105819363D01*
X106346241Y-105664000D01*
X106578759Y-105508637D01*
X106778637Y-105308759D01*
X106935680Y-105073727D01*
X107043853Y-104812574D01*
X107099000Y-104535335D01*
X107099000Y-104252665D01*
X107043853Y-103975426D01*
X106935680Y-103714273D01*
X106778637Y-103479241D01*
X106578759Y-103279363D01*
X106346241Y-103124000D01*
X106578759Y-102968637D01*
X106778637Y-102768759D01*
X106935680Y-102533727D01*
X107043853Y-102272574D01*
X107099000Y-101995335D01*
X107099000Y-101712665D01*
X107043853Y-101435426D01*
X106935680Y-101174273D01*
X106778637Y-100939241D01*
X106578759Y-100739363D01*
X106346241Y-100584000D01*
X106578759Y-100428637D01*
X106778637Y-100228759D01*
X106935680Y-99993727D01*
X107043853Y-99732574D01*
X107099000Y-99455335D01*
X107099000Y-99172665D01*
X107043853Y-98895426D01*
X106935680Y-98634273D01*
X106778637Y-98399241D01*
X106578759Y-98199363D01*
X106346241Y-98044000D01*
X106578759Y-97888637D01*
X106778637Y-97688759D01*
X106935680Y-97453727D01*
X107043853Y-97192574D01*
X107099000Y-96915335D01*
X107099000Y-96632665D01*
X107043853Y-96355426D01*
X106935680Y-96094273D01*
X106778637Y-95859241D01*
X106578759Y-95659363D01*
X106346241Y-95504000D01*
X106578759Y-95348637D01*
X106778637Y-95148759D01*
X106934000Y-94916241D01*
X107089363Y-95148759D01*
X107289241Y-95348637D01*
X107524273Y-95505680D01*
X107785426Y-95613853D01*
X108062665Y-95669000D01*
X108345335Y-95669000D01*
X108622574Y-95613853D01*
X108883727Y-95505680D01*
X109118759Y-95348637D01*
X109318637Y-95148759D01*
X109474000Y-94916241D01*
X109629363Y-95148759D01*
X109829241Y-95348637D01*
X110064273Y-95505680D01*
X110325426Y-95613853D01*
X110602665Y-95669000D01*
X110885335Y-95669000D01*
X111162574Y-95613853D01*
X111423727Y-95505680D01*
X111658759Y-95348637D01*
X111858637Y-95148759D01*
X112014000Y-94916241D01*
X112169363Y-95148759D01*
X112369241Y-95348637D01*
X112604273Y-95505680D01*
X112865426Y-95613853D01*
X113142665Y-95669000D01*
X113425335Y-95669000D01*
X113702574Y-95613853D01*
X113963727Y-95505680D01*
X114198759Y-95348637D01*
X114398637Y-95148759D01*
X114554000Y-94916241D01*
X114709363Y-95148759D01*
X114909241Y-95348637D01*
X115144273Y-95505680D01*
X115405426Y-95613853D01*
X115682665Y-95669000D01*
X115965335Y-95669000D01*
X116242574Y-95613853D01*
X116503727Y-95505680D01*
X116738759Y-95348637D01*
X116938637Y-95148759D01*
X117094000Y-94916241D01*
X117249363Y-95148759D01*
X117449241Y-95348637D01*
X117684273Y-95505680D01*
X117945426Y-95613853D01*
X118222665Y-95669000D01*
X118505335Y-95669000D01*
X118782574Y-95613853D01*
X119043727Y-95505680D01*
X119278759Y-95348637D01*
X119478637Y-95148759D01*
X119634000Y-94916241D01*
X119789363Y-95148759D01*
X119989241Y-95348637D01*
X120221759Y-95504000D01*
X119989241Y-95659363D01*
X119789363Y-95859241D01*
X119632320Y-96094273D01*
X119524147Y-96355426D01*
X119469000Y-96632665D01*
X119469000Y-96915335D01*
X119524147Y-97192574D01*
X119632320Y-97453727D01*
X119789363Y-97688759D01*
X119989241Y-97888637D01*
X120221759Y-98044000D01*
X119989241Y-98199363D01*
X119789363Y-98399241D01*
X119632320Y-98634273D01*
X119524147Y-98895426D01*
X119469000Y-99172665D01*
X119469000Y-99455335D01*
X119524147Y-99732574D01*
X119632320Y-99993727D01*
X119789363Y-100228759D01*
X119989241Y-100428637D01*
X120221759Y-100584000D01*
X119989241Y-100739363D01*
X119789363Y-100939241D01*
X119632320Y-101174273D01*
X119524147Y-101435426D01*
X119469000Y-101712665D01*
X119469000Y-101995335D01*
X119524147Y-102272574D01*
X119632320Y-102533727D01*
X119789363Y-102768759D01*
X119989241Y-102968637D01*
X120221759Y-103124000D01*
X119989241Y-103279363D01*
X119789363Y-103479241D01*
X119632320Y-103714273D01*
X119524147Y-103975426D01*
X119469000Y-104252665D01*
X119469000Y-104535335D01*
X119524147Y-104812574D01*
X119632320Y-105073727D01*
X119789363Y-105308759D01*
X119989241Y-105508637D01*
X120221759Y-105664000D01*
X119989241Y-105819363D01*
X119789363Y-106019241D01*
X119632320Y-106254273D01*
X119524147Y-106515426D01*
X119469000Y-106792665D01*
X119469000Y-107075335D01*
X119524147Y-107352574D01*
X119632320Y-107613727D01*
X119789363Y-107848759D01*
X119989241Y-108048637D01*
X120224273Y-108205680D01*
X120485426Y-108313853D01*
X120762665Y-108369000D01*
X121045335Y-108369000D01*
X121322574Y-108313853D01*
X121583727Y-108205680D01*
X121818759Y-108048637D01*
X122018637Y-107848759D01*
X122175680Y-107613727D01*
X122283853Y-107352574D01*
X122339000Y-107075335D01*
X122339000Y-106792665D01*
X122283853Y-106515426D01*
X122175680Y-106254273D01*
X122018637Y-106019241D01*
X121818759Y-105819363D01*
X121586241Y-105664000D01*
X121818759Y-105508637D01*
X122018637Y-105308759D01*
X122175680Y-105073727D01*
X122283853Y-104812574D01*
X122339000Y-104535335D01*
X122339000Y-104252665D01*
X122283853Y-103975426D01*
X122175680Y-103714273D01*
X122018637Y-103479241D01*
X121818759Y-103279363D01*
X121586241Y-103124000D01*
X121818759Y-102968637D01*
X122018637Y-102768759D01*
X122175680Y-102533727D01*
X122283853Y-102272574D01*
X122339000Y-101995335D01*
X122339000Y-101712665D01*
X122283853Y-101435426D01*
X122175680Y-101174273D01*
X122018637Y-100939241D01*
X121818759Y-100739363D01*
X121586241Y-100584000D01*
X121818759Y-100428637D01*
X122018637Y-100228759D01*
X122175680Y-99993727D01*
X122283853Y-99732574D01*
X122339000Y-99455335D01*
X122339000Y-99172665D01*
X122283853Y-98895426D01*
X122175680Y-98634273D01*
X122018637Y-98399241D01*
X121818759Y-98199363D01*
X121586241Y-98044000D01*
X121818759Y-97888637D01*
X122018637Y-97688759D01*
X122175680Y-97453727D01*
X122283853Y-97192574D01*
X122339000Y-96915335D01*
X122339000Y-96632665D01*
X122283853Y-96355426D01*
X122175680Y-96094273D01*
X122018637Y-95859241D01*
X121818759Y-95659363D01*
X121586241Y-95504000D01*
X121818759Y-95348637D01*
X122018637Y-95148759D01*
X122175680Y-94913727D01*
X122283853Y-94652574D01*
X122339000Y-94375335D01*
X122339000Y-94092665D01*
X122283853Y-93815426D01*
X122175680Y-93554273D01*
X122018637Y-93319241D01*
X121818759Y-93119363D01*
X121586241Y-92964000D01*
X121818759Y-92808637D01*
X122018637Y-92608759D01*
X122175680Y-92373727D01*
X122283853Y-92112574D01*
X122339000Y-91835335D01*
X122339000Y-91552665D01*
X122283853Y-91275426D01*
X122175680Y-91014273D01*
X122018637Y-90779241D01*
X121818759Y-90579363D01*
X121586241Y-90424000D01*
X121818759Y-90268637D01*
X122018637Y-90068759D01*
X122175680Y-89833727D01*
X122283853Y-89572574D01*
X122339000Y-89295335D01*
X122339000Y-89012665D01*
X122283853Y-88735426D01*
X122175680Y-88474273D01*
X122018637Y-88239241D01*
X121818759Y-88039363D01*
X121586241Y-87884000D01*
X121818759Y-87728637D01*
X122018637Y-87528759D01*
X122175680Y-87293727D01*
X122283853Y-87032574D01*
X122339000Y-86755335D01*
X122339000Y-86472665D01*
X122283853Y-86195426D01*
X122175680Y-85934273D01*
X122018637Y-85699241D01*
X121818759Y-85499363D01*
X121584872Y-85343085D01*
X121645514Y-85310671D01*
X121717097Y-85066702D01*
X120904000Y-84253605D01*
X120090903Y-85066702D01*
X120162486Y-85310671D01*
X120226992Y-85341194D01*
X120224273Y-85342320D01*
X119989241Y-85499363D01*
X119789363Y-85699241D01*
X119632320Y-85934273D01*
X119524147Y-86195426D01*
X119469000Y-86472665D01*
X119469000Y-86755335D01*
X119524147Y-87032574D01*
X119632320Y-87293727D01*
X119789363Y-87528759D01*
X119989241Y-87728637D01*
X120221759Y-87884000D01*
X119989241Y-88039363D01*
X119789363Y-88239241D01*
X119632320Y-88474273D01*
X119524147Y-88735426D01*
X119469000Y-89012665D01*
X119469000Y-89295335D01*
X119524147Y-89572574D01*
X119632320Y-89833727D01*
X119789363Y-90068759D01*
X119989241Y-90268637D01*
X120221759Y-90424000D01*
X119989241Y-90579363D01*
X119789363Y-90779241D01*
X119632320Y-91014273D01*
X119524147Y-91275426D01*
X119469000Y-91552665D01*
X119469000Y-91835335D01*
X119524147Y-92112574D01*
X119632320Y-92373727D01*
X119789363Y-92608759D01*
X119989241Y-92808637D01*
X120221759Y-92964000D01*
X119989241Y-93119363D01*
X119789363Y-93319241D01*
X119634000Y-93551759D01*
X119478637Y-93319241D01*
X119278759Y-93119363D01*
X119043727Y-92962320D01*
X118782574Y-92854147D01*
X118505335Y-92799000D01*
X118222665Y-92799000D01*
X117945426Y-92854147D01*
X117684273Y-92962320D01*
X117449241Y-93119363D01*
X117249363Y-93319241D01*
X117094000Y-93551759D01*
X116938637Y-93319241D01*
X116738759Y-93119363D01*
X116503727Y-92962320D01*
X116242574Y-92854147D01*
X115965335Y-92799000D01*
X115682665Y-92799000D01*
X115405426Y-92854147D01*
X115144273Y-92962320D01*
X114909241Y-93119363D01*
X114709363Y-93319241D01*
X114554000Y-93551759D01*
X114398637Y-93319241D01*
X114198759Y-93119363D01*
X113963727Y-92962320D01*
X113702574Y-92854147D01*
X113425335Y-92799000D01*
X113142665Y-92799000D01*
X112865426Y-92854147D01*
X112604273Y-92962320D01*
X112369241Y-93119363D01*
X112169363Y-93319241D01*
X112014000Y-93551759D01*
X111858637Y-93319241D01*
X111658759Y-93119363D01*
X111423727Y-92962320D01*
X111162574Y-92854147D01*
X110885335Y-92799000D01*
X110602665Y-92799000D01*
X110325426Y-92854147D01*
X110064273Y-92962320D01*
X109829241Y-93119363D01*
X109629363Y-93319241D01*
X109474000Y-93551759D01*
X109318637Y-93319241D01*
X109118759Y-93119363D01*
X108883727Y-92962320D01*
X108622574Y-92854147D01*
X108345335Y-92799000D01*
X108062665Y-92799000D01*
X107785426Y-92854147D01*
X107524273Y-92962320D01*
X107289241Y-93119363D01*
X107089363Y-93319241D01*
X106934000Y-93551759D01*
X106778637Y-93319241D01*
X106578759Y-93119363D01*
X106346241Y-92964000D01*
X106578759Y-92808637D01*
X106778637Y-92608759D01*
X106935680Y-92373727D01*
X107043853Y-92112574D01*
X107099000Y-91835335D01*
X107099000Y-91552665D01*
X107043853Y-91275426D01*
X106935680Y-91014273D01*
X106778637Y-90779241D01*
X106578759Y-90579363D01*
X106346241Y-90424000D01*
X106578759Y-90268637D01*
X106778637Y-90068759D01*
X106935680Y-89833727D01*
X107043853Y-89572574D01*
X107099000Y-89295335D01*
X107099000Y-89012665D01*
X107043853Y-88735426D01*
X106935680Y-88474273D01*
X106778637Y-88239241D01*
X106578759Y-88039363D01*
X106346241Y-87884000D01*
X106578759Y-87728637D01*
X106778637Y-87528759D01*
X106935680Y-87293727D01*
X107043853Y-87032574D01*
X107099000Y-86755335D01*
X107099000Y-86472665D01*
X107043853Y-86195426D01*
X106935680Y-85934273D01*
X106778637Y-85699241D01*
X106578759Y-85499363D01*
X106346241Y-85344000D01*
X106578759Y-85188637D01*
X106778637Y-84988759D01*
X106935680Y-84753727D01*
X107043853Y-84492574D01*
X107099000Y-84215335D01*
X107099000Y-84144512D01*
X119463783Y-84144512D01*
X119505213Y-84424130D01*
X119600397Y-84690292D01*
X119667329Y-84815514D01*
X119911298Y-84887097D01*
X120724395Y-84074000D01*
X121083605Y-84074000D01*
X121896702Y-84887097D01*
X122140671Y-84815514D01*
X122261571Y-84560004D01*
X122330300Y-84285816D01*
X122344217Y-84003488D01*
X122302787Y-83723870D01*
X122207603Y-83457708D01*
X122140671Y-83332486D01*
X121896702Y-83260903D01*
X121083605Y-84074000D01*
X120724395Y-84074000D01*
X119911298Y-83260903D01*
X119667329Y-83332486D01*
X119546429Y-83587996D01*
X119477700Y-83862184D01*
X119463783Y-84144512D01*
X107099000Y-84144512D01*
X107099000Y-83932665D01*
X107043853Y-83655426D01*
X106935680Y-83394273D01*
X106778637Y-83159241D01*
X106578759Y-82959363D01*
X106346241Y-82804000D01*
X106578759Y-82648637D01*
X106778637Y-82448759D01*
X106935680Y-82213727D01*
X107043853Y-81952574D01*
X107099000Y-81675335D01*
X107099000Y-81392665D01*
X107043853Y-81115426D01*
X106935680Y-80854273D01*
X106778637Y-80619241D01*
X106578759Y-80419363D01*
X106346241Y-80264000D01*
X106578759Y-80108637D01*
X106778637Y-79908759D01*
X106935680Y-79673727D01*
X107043853Y-79412574D01*
X107099000Y-79135335D01*
X107099000Y-78852665D01*
X107043853Y-78575426D01*
X106935680Y-78314273D01*
X106778637Y-78079241D01*
X106578759Y-77879363D01*
X106346241Y-77724000D01*
X106578759Y-77568637D01*
X106778637Y-77368759D01*
X106935680Y-77133727D01*
X107043853Y-76872574D01*
X107099000Y-76595335D01*
X107099000Y-76312665D01*
X107043853Y-76035426D01*
X106945923Y-75799001D01*
X114094200Y-75799001D01*
X119505312Y-81210114D01*
X119469000Y-81392665D01*
X119469000Y-81675335D01*
X119524147Y-81952574D01*
X119632320Y-82213727D01*
X119789363Y-82448759D01*
X119989241Y-82648637D01*
X120223128Y-82804915D01*
X120162486Y-82837329D01*
X120090903Y-83081298D01*
X120904000Y-83894395D01*
X121717097Y-83081298D01*
X121645514Y-82837329D01*
X121581008Y-82806806D01*
X121583727Y-82805680D01*
X121818759Y-82648637D01*
X122018637Y-82448759D01*
X122124700Y-82290024D01*
X122195986Y-82283003D01*
X122339247Y-82239546D01*
X122471276Y-82168974D01*
X122587001Y-82074001D01*
X122610804Y-82044997D01*
X124463004Y-80192798D01*
X124492001Y-80169001D01*
X124586974Y-80053276D01*
X124657546Y-79921247D01*
X124701003Y-79777986D01*
X124712000Y-79666333D01*
X124712000Y-79666323D01*
X124715676Y-79629000D01*
X124712000Y-79591677D01*
X124712000Y-76006801D01*
X125409802Y-75309000D01*
X125594822Y-75309000D01*
X125719525Y-75495632D01*
X125926368Y-75702475D01*
X126100760Y-75819000D01*
X125926368Y-75935525D01*
X125719525Y-76142368D01*
X125557010Y-76385589D01*
X125445068Y-76655842D01*
X125388000Y-76942740D01*
X125388000Y-77235260D01*
X125445068Y-77522158D01*
X125557010Y-77792411D01*
X125719525Y-78035632D01*
X125926368Y-78242475D01*
X126100760Y-78359000D01*
X125926368Y-78475525D01*
X125719525Y-78682368D01*
X125557010Y-78925589D01*
X125445068Y-79195842D01*
X125388000Y-79482740D01*
X125388000Y-79775260D01*
X125445068Y-80062158D01*
X125557010Y-80332411D01*
X125719525Y-80575632D01*
X125926368Y-80782475D01*
X126100760Y-80899000D01*
X125926368Y-81015525D01*
X125719525Y-81222368D01*
X125557010Y-81465589D01*
X125445068Y-81735842D01*
X125388000Y-82022740D01*
X125388000Y-82315260D01*
X125445068Y-82602158D01*
X125557010Y-82872411D01*
X125719525Y-83115632D01*
X125926368Y-83322475D01*
X126100760Y-83439000D01*
X125926368Y-83555525D01*
X125719525Y-83762368D01*
X125557010Y-84005589D01*
X125445068Y-84275842D01*
X125388000Y-84562740D01*
X125388000Y-84855260D01*
X125445068Y-85142158D01*
X125557010Y-85412411D01*
X125719525Y-85655632D01*
X125851380Y-85787487D01*
X125778820Y-85809498D01*
X125668506Y-85868463D01*
X125571815Y-85947815D01*
X125492463Y-86044506D01*
X125433498Y-86154820D01*
X125397188Y-86274518D01*
X125384928Y-86399000D01*
X125384928Y-88099000D01*
X125397188Y-88223482D01*
X125433498Y-88343180D01*
X125492463Y-88453494D01*
X125571815Y-88550185D01*
X125668506Y-88629537D01*
X125778820Y-88688502D01*
X125898518Y-88724812D01*
X126023000Y-88737072D01*
X127723000Y-88737072D01*
X127847482Y-88724812D01*
X127967180Y-88688502D01*
X128077494Y-88629537D01*
X128174185Y-88550185D01*
X128253537Y-88453494D01*
X128312502Y-88343180D01*
X128348812Y-88223482D01*
X128361072Y-88099000D01*
X128361072Y-86399000D01*
X128348812Y-86274518D01*
X128312502Y-86154820D01*
X128253537Y-86044506D01*
X128174185Y-85947815D01*
X128077494Y-85868463D01*
X127967180Y-85809498D01*
X127894620Y-85787487D01*
X128026475Y-85655632D01*
X128188990Y-85412411D01*
X128300932Y-85142158D01*
X128358000Y-84855260D01*
X128358000Y-84562740D01*
X128300932Y-84275842D01*
X128188990Y-84005589D01*
X128026475Y-83762368D01*
X127819632Y-83555525D01*
X127645240Y-83439000D01*
X127819632Y-83322475D01*
X128026475Y-83115632D01*
X128188990Y-82872411D01*
X128300932Y-82602158D01*
X128358000Y-82315260D01*
X128358000Y-82022740D01*
X128300932Y-81735842D01*
X128188990Y-81465589D01*
X128026475Y-81222368D01*
X127819632Y-81015525D01*
X127645240Y-80899000D01*
X127819632Y-80782475D01*
X128026475Y-80575632D01*
X128188990Y-80332411D01*
X128300932Y-80062158D01*
X128358000Y-79775260D01*
X128358000Y-79482740D01*
X128300932Y-79195842D01*
X128188990Y-78925589D01*
X128026475Y-78682368D01*
X127819632Y-78475525D01*
X127645240Y-78359000D01*
X127819632Y-78242475D01*
X128026475Y-78035632D01*
X128188990Y-77792411D01*
X128300932Y-77522158D01*
X128358000Y-77235260D01*
X128358000Y-76942740D01*
X128300932Y-76655842D01*
X128188990Y-76385589D01*
X128026475Y-76142368D01*
X127819632Y-75935525D01*
X127645240Y-75819000D01*
X127819632Y-75702475D01*
X128026475Y-75495632D01*
X128188990Y-75252411D01*
X128300932Y-74982158D01*
X128358000Y-74695260D01*
X128358000Y-74402740D01*
X128300932Y-74115842D01*
X128188990Y-73845589D01*
X128026475Y-73602368D01*
X127819632Y-73395525D01*
X127645240Y-73279000D01*
X127819632Y-73162475D01*
X128026475Y-72955632D01*
X128188990Y-72712411D01*
X128300932Y-72442158D01*
X128358000Y-72155260D01*
X128358000Y-71862740D01*
X128300932Y-71575842D01*
X128188990Y-71305589D01*
X128026475Y-71062368D01*
X127819632Y-70855525D01*
X127645240Y-70739000D01*
X127819632Y-70622475D01*
X128026475Y-70415632D01*
X128188990Y-70172411D01*
X128300932Y-69902158D01*
X128358000Y-69615260D01*
X128358000Y-69322740D01*
X128300932Y-69035842D01*
X128188990Y-68765589D01*
X128026475Y-68522368D01*
X127819632Y-68315525D01*
X127637466Y-68193805D01*
X127754355Y-68124178D01*
X127970588Y-67929269D01*
X128144641Y-67695920D01*
X128269825Y-67433099D01*
X128314476Y-67285890D01*
X128193155Y-67056000D01*
X127000000Y-67056000D01*
X127000000Y-67076000D01*
X126746000Y-67076000D01*
X126746000Y-67056000D01*
X125552845Y-67056000D01*
X125431524Y-67285890D01*
X125476175Y-67433099D01*
X125601359Y-67695920D01*
X125775412Y-67929269D01*
X125991645Y-68124178D01*
X126108534Y-68193805D01*
X125926368Y-68315525D01*
X125719525Y-68522368D01*
X125557010Y-68765589D01*
X125445068Y-69035842D01*
X125388000Y-69322740D01*
X125388000Y-69615260D01*
X125445068Y-69902158D01*
X125557010Y-70172411D01*
X125719525Y-70415632D01*
X125926368Y-70622475D01*
X126100760Y-70739000D01*
X125926368Y-70855525D01*
X125719525Y-71062368D01*
X125557010Y-71305589D01*
X125445068Y-71575842D01*
X125388000Y-71862740D01*
X125388000Y-72155260D01*
X125445068Y-72442158D01*
X125557010Y-72712411D01*
X125719525Y-72955632D01*
X125926368Y-73162475D01*
X126100760Y-73279000D01*
X125926368Y-73395525D01*
X125719525Y-73602368D01*
X125594822Y-73789000D01*
X125132322Y-73789000D01*
X125094999Y-73785324D01*
X125057676Y-73789000D01*
X125057667Y-73789000D01*
X124946014Y-73799997D01*
X124802753Y-73843454D01*
X124670723Y-73914026D01*
X124587083Y-73982668D01*
X124554999Y-74008999D01*
X124531201Y-74037997D01*
X123440998Y-75128201D01*
X123412000Y-75151999D01*
X123388202Y-75180997D01*
X123388201Y-75180998D01*
X123317026Y-75267724D01*
X123246454Y-75399754D01*
X123223023Y-75477000D01*
X123202998Y-75543014D01*
X123196991Y-75604000D01*
X123188324Y-75692000D01*
X123192001Y-75729332D01*
X123192000Y-79314198D01*
X121952797Y-80553401D01*
X121818759Y-80419363D01*
X121586241Y-80264000D01*
X121818759Y-80108637D01*
X122018637Y-79908759D01*
X122175680Y-79673727D01*
X122283853Y-79412574D01*
X122339000Y-79135335D01*
X122339000Y-78852665D01*
X122283853Y-78575426D01*
X122175680Y-78314273D01*
X122018637Y-78079241D01*
X121818759Y-77879363D01*
X121586241Y-77724000D01*
X121818759Y-77568637D01*
X122018637Y-77368759D01*
X122175680Y-77133727D01*
X122283853Y-76872574D01*
X122339000Y-76595335D01*
X122339000Y-76312665D01*
X122283853Y-76035426D01*
X122175680Y-75774273D01*
X122018637Y-75539241D01*
X121818759Y-75339363D01*
X121586241Y-75184000D01*
X121818759Y-75028637D01*
X122018637Y-74828759D01*
X122175680Y-74593727D01*
X122283853Y-74332574D01*
X122339000Y-74055335D01*
X122339000Y-73772665D01*
X122283853Y-73495426D01*
X122175680Y-73234273D01*
X122018637Y-72999241D01*
X121818759Y-72799363D01*
X121586241Y-72644000D01*
X121818759Y-72488637D01*
X122018637Y-72288759D01*
X122175680Y-72053727D01*
X122283853Y-71792574D01*
X122339000Y-71515335D01*
X122339000Y-71232665D01*
X122283853Y-70955426D01*
X122175680Y-70694273D01*
X122018637Y-70459241D01*
X121818759Y-70259363D01*
X121586241Y-70104000D01*
X121818759Y-69948637D01*
X122018637Y-69748759D01*
X122175680Y-69513727D01*
X122283853Y-69252574D01*
X122339000Y-68975335D01*
X122339000Y-68692665D01*
X122283853Y-68415426D01*
X122175680Y-68154273D01*
X122018637Y-67919241D01*
X121818759Y-67719363D01*
X121586241Y-67564000D01*
X121818759Y-67408637D01*
X122018637Y-67208759D01*
X122175680Y-66973727D01*
X122283853Y-66712574D01*
X122311793Y-66572110D01*
X125431524Y-66572110D01*
X125552845Y-66802000D01*
X126746000Y-66802000D01*
X126746000Y-65608186D01*
X127000000Y-65608186D01*
X127000000Y-66802000D01*
X128193155Y-66802000D01*
X128314476Y-66572110D01*
X128269825Y-66424901D01*
X128144641Y-66162080D01*
X127970588Y-65928731D01*
X127754355Y-65733822D01*
X127504252Y-65584843D01*
X127229891Y-65487519D01*
X127000000Y-65608186D01*
X126746000Y-65608186D01*
X126516109Y-65487519D01*
X126241748Y-65584843D01*
X125991645Y-65733822D01*
X125775412Y-65928731D01*
X125601359Y-66162080D01*
X125476175Y-66424901D01*
X125431524Y-66572110D01*
X122311793Y-66572110D01*
X122339000Y-66435335D01*
X122339000Y-66152665D01*
X122283853Y-65875426D01*
X122175680Y-65614273D01*
X122018637Y-65379241D01*
X121818759Y-65179363D01*
X121586241Y-65024000D01*
X121818759Y-64868637D01*
X122018637Y-64668759D01*
X122175680Y-64433727D01*
X122283853Y-64172574D01*
X122339000Y-63895335D01*
X122339000Y-63612665D01*
X122283853Y-63335426D01*
X122175680Y-63074273D01*
X122055125Y-62893849D01*
X125857000Y-62893849D01*
X125857000Y-63344151D01*
X125944850Y-63785802D01*
X126117173Y-64201827D01*
X126367348Y-64576240D01*
X126685760Y-64894652D01*
X127060173Y-65144827D01*
X127476198Y-65317150D01*
X127917849Y-65405000D01*
X128368151Y-65405000D01*
X128809802Y-65317150D01*
X129225827Y-65144827D01*
X129600240Y-64894652D01*
X129918652Y-64576240D01*
X130168827Y-64201827D01*
X130341150Y-63785802D01*
X130429000Y-63344151D01*
X130429000Y-62893849D01*
X158877000Y-62893849D01*
X158877000Y-63344151D01*
X158964850Y-63785802D01*
X159137173Y-64201827D01*
X159387348Y-64576240D01*
X159705760Y-64894652D01*
X160080173Y-65144827D01*
X160496198Y-65317150D01*
X160937849Y-65405000D01*
X161388151Y-65405000D01*
X161829802Y-65317150D01*
X162245827Y-65144827D01*
X162620240Y-64894652D01*
X162938652Y-64576240D01*
X163188827Y-64201827D01*
X163361150Y-63785802D01*
X163449000Y-63344151D01*
X163449000Y-62893849D01*
X163361150Y-62452198D01*
X163188827Y-62036173D01*
X162938652Y-61661760D01*
X162620240Y-61343348D01*
X162245827Y-61093173D01*
X161829802Y-60920850D01*
X161388151Y-60833000D01*
X160937849Y-60833000D01*
X160496198Y-60920850D01*
X160080173Y-61093173D01*
X159705760Y-61343348D01*
X159387348Y-61661760D01*
X159137173Y-62036173D01*
X158964850Y-62452198D01*
X158877000Y-62893849D01*
X130429000Y-62893849D01*
X130341150Y-62452198D01*
X130168827Y-62036173D01*
X129918652Y-61661760D01*
X129600240Y-61343348D01*
X129225827Y-61093173D01*
X128809802Y-60920850D01*
X128368151Y-60833000D01*
X127917849Y-60833000D01*
X127476198Y-60920850D01*
X127060173Y-61093173D01*
X126685760Y-61343348D01*
X126367348Y-61661760D01*
X126117173Y-62036173D01*
X125944850Y-62452198D01*
X125857000Y-62893849D01*
X122055125Y-62893849D01*
X122018637Y-62839241D01*
X121818759Y-62639363D01*
X121586241Y-62484000D01*
X121818759Y-62328637D01*
X122018637Y-62128759D01*
X122175680Y-61893727D01*
X122283853Y-61632574D01*
X122339000Y-61355335D01*
X122339000Y-61072665D01*
X122283853Y-60795426D01*
X122175680Y-60534273D01*
X122018637Y-60299241D01*
X121818759Y-60099363D01*
X121586241Y-59944000D01*
X121818759Y-59788637D01*
X122018637Y-59588759D01*
X122175680Y-59353727D01*
X122283853Y-59092574D01*
X122339000Y-58815335D01*
X122339000Y-58532665D01*
X122283853Y-58255426D01*
X122175680Y-57994273D01*
X122018637Y-57759241D01*
X121818759Y-57559363D01*
X121586241Y-57404000D01*
X121818759Y-57248637D01*
X122018637Y-57048759D01*
X122175680Y-56813727D01*
X122283853Y-56552574D01*
X122339000Y-56275335D01*
X122339000Y-55992665D01*
X122283853Y-55715426D01*
X122175680Y-55454273D01*
X122018637Y-55219241D01*
X121818759Y-55019363D01*
X121586241Y-54864000D01*
X121818759Y-54708637D01*
X122018637Y-54508759D01*
X122175680Y-54273727D01*
X122283853Y-54012574D01*
X122339000Y-53735335D01*
X122339000Y-53452665D01*
X122283853Y-53175426D01*
X122175680Y-52914273D01*
X122146766Y-52871000D01*
X125638928Y-52871000D01*
X125638928Y-54571000D01*
X125651188Y-54695482D01*
X125687498Y-54815180D01*
X125746463Y-54925494D01*
X125825815Y-55022185D01*
X125922506Y-55101537D01*
X126032820Y-55160502D01*
X126152518Y-55196812D01*
X126277000Y-55209072D01*
X127977000Y-55209072D01*
X128101482Y-55196812D01*
X128221180Y-55160502D01*
X128331494Y-55101537D01*
X128428185Y-55022185D01*
X128507537Y-54925494D01*
X128566502Y-54815180D01*
X128602812Y-54695482D01*
X128615072Y-54571000D01*
X128615072Y-53977000D01*
X143010928Y-53977000D01*
X143010928Y-55497000D01*
X143027992Y-55670254D01*
X143078528Y-55836850D01*
X143160595Y-55990386D01*
X143271038Y-56124962D01*
X143405614Y-56235405D01*
X143559150Y-56317472D01*
X143725746Y-56368008D01*
X143899000Y-56385072D01*
X144899000Y-56385072D01*
X145072254Y-56368008D01*
X145238850Y-56317472D01*
X145392386Y-56235405D01*
X145526962Y-56124962D01*
X145637405Y-55990386D01*
X145719472Y-55836850D01*
X145770008Y-55670254D01*
X145787072Y-55497000D01*
X145787072Y-54408964D01*
X146014000Y-54408964D01*
X146014000Y-55065037D01*
X146034040Y-55268507D01*
X146113236Y-55529581D01*
X146241843Y-55770188D01*
X146414920Y-55981081D01*
X146625813Y-56154157D01*
X146866420Y-56282764D01*
X147127494Y-56361960D01*
X147399000Y-56388701D01*
X147670507Y-56361960D01*
X147931581Y-56282764D01*
X148172188Y-56154157D01*
X148383081Y-55981081D01*
X148470960Y-55874000D01*
X153805928Y-55874000D01*
X153818188Y-55998482D01*
X153854498Y-56118180D01*
X153913463Y-56228494D01*
X153992815Y-56325185D01*
X154089506Y-56404537D01*
X154199820Y-56463502D01*
X154319518Y-56499812D01*
X154444000Y-56512072D01*
X154908250Y-56509000D01*
X155067000Y-56350250D01*
X155067000Y-54991000D01*
X155321000Y-54991000D01*
X155321000Y-56350250D01*
X155479750Y-56509000D01*
X155944000Y-56512072D01*
X156068482Y-56499812D01*
X156188180Y-56463502D01*
X156298494Y-56404537D01*
X156395185Y-56325185D01*
X156474537Y-56228494D01*
X156533502Y-56118180D01*
X156569812Y-55998482D01*
X156582072Y-55874000D01*
X156579000Y-55149750D01*
X156420250Y-54991000D01*
X155321000Y-54991000D01*
X155067000Y-54991000D01*
X153967750Y-54991000D01*
X153809000Y-55149750D01*
X153805928Y-55874000D01*
X148470960Y-55874000D01*
X148556157Y-55770188D01*
X148684764Y-55529581D01*
X148763960Y-55268506D01*
X148784000Y-55065036D01*
X148784000Y-54408963D01*
X148763960Y-54205493D01*
X148684764Y-53944419D01*
X148636435Y-53854000D01*
X153805928Y-53854000D01*
X153809000Y-54578250D01*
X153967750Y-54737000D01*
X155067000Y-54737000D01*
X155067000Y-53377750D01*
X155321000Y-53377750D01*
X155321000Y-54737000D01*
X156420250Y-54737000D01*
X156579000Y-54578250D01*
X156579179Y-54535964D01*
X156809000Y-54535964D01*
X156809000Y-55192037D01*
X156829040Y-55395507D01*
X156908236Y-55656581D01*
X157036843Y-55897188D01*
X157209920Y-56108081D01*
X157420813Y-56281157D01*
X157661420Y-56409764D01*
X157922494Y-56488960D01*
X158194000Y-56515701D01*
X158465507Y-56488960D01*
X158726581Y-56409764D01*
X158967188Y-56281157D01*
X159178081Y-56108081D01*
X159351157Y-55897188D01*
X159479764Y-55656581D01*
X159558960Y-55395506D01*
X159579000Y-55192036D01*
X159579000Y-54535963D01*
X159558960Y-54332493D01*
X159479764Y-54071419D01*
X159351157Y-53830812D01*
X159178080Y-53619919D01*
X158967187Y-53446843D01*
X158726580Y-53318236D01*
X158465506Y-53239040D01*
X158194000Y-53212299D01*
X157922493Y-53239040D01*
X157661419Y-53318236D01*
X157420812Y-53446843D01*
X157209919Y-53619920D01*
X157036843Y-53830813D01*
X156908236Y-54071420D01*
X156829040Y-54332494D01*
X156809000Y-54535964D01*
X156579179Y-54535964D01*
X156582072Y-53854000D01*
X156569812Y-53729518D01*
X156533502Y-53609820D01*
X156474537Y-53499506D01*
X156395185Y-53402815D01*
X156298494Y-53323463D01*
X156188180Y-53264498D01*
X156068482Y-53228188D01*
X155944000Y-53215928D01*
X155479750Y-53219000D01*
X155321000Y-53377750D01*
X155067000Y-53377750D01*
X154908250Y-53219000D01*
X154444000Y-53215928D01*
X154319518Y-53228188D01*
X154199820Y-53264498D01*
X154089506Y-53323463D01*
X153992815Y-53402815D01*
X153913463Y-53499506D01*
X153854498Y-53609820D01*
X153818188Y-53729518D01*
X153805928Y-53854000D01*
X148636435Y-53854000D01*
X148556157Y-53703812D01*
X148383080Y-53492919D01*
X148172187Y-53319843D01*
X147931580Y-53191236D01*
X147670506Y-53112040D01*
X147399000Y-53085299D01*
X147127493Y-53112040D01*
X146866419Y-53191236D01*
X146625812Y-53319843D01*
X146414919Y-53492920D01*
X146241843Y-53703813D01*
X146113236Y-53944420D01*
X146034040Y-54205494D01*
X146014000Y-54408964D01*
X145787072Y-54408964D01*
X145787072Y-53977000D01*
X145770008Y-53803746D01*
X145719472Y-53637150D01*
X145637405Y-53483614D01*
X145526962Y-53349038D01*
X145392386Y-53238595D01*
X145238850Y-53156528D01*
X145072254Y-53105992D01*
X144899000Y-53088928D01*
X143899000Y-53088928D01*
X143725746Y-53105992D01*
X143559150Y-53156528D01*
X143405614Y-53238595D01*
X143271038Y-53349038D01*
X143160595Y-53483614D01*
X143078528Y-53637150D01*
X143027992Y-53803746D01*
X143010928Y-53977000D01*
X128615072Y-53977000D01*
X128615072Y-52871000D01*
X128602812Y-52746518D01*
X128566502Y-52626820D01*
X128507537Y-52516506D01*
X128428185Y-52419815D01*
X128331494Y-52340463D01*
X128221180Y-52281498D01*
X128101482Y-52245188D01*
X127977000Y-52232928D01*
X126277000Y-52232928D01*
X126152518Y-52245188D01*
X126032820Y-52281498D01*
X125922506Y-52340463D01*
X125825815Y-52419815D01*
X125746463Y-52516506D01*
X125687498Y-52626820D01*
X125651188Y-52746518D01*
X125638928Y-52871000D01*
X122146766Y-52871000D01*
X122018637Y-52679241D01*
X121818759Y-52479363D01*
X121584872Y-52323085D01*
X121645514Y-52290671D01*
X121717097Y-52046702D01*
X120904000Y-51233605D01*
X120090903Y-52046702D01*
X120162486Y-52290671D01*
X120226992Y-52321194D01*
X120224273Y-52322320D01*
X119989241Y-52479363D01*
X119789363Y-52679241D01*
X119632320Y-52914273D01*
X119524147Y-53175426D01*
X119469000Y-53452665D01*
X119469000Y-53735335D01*
X119524147Y-54012574D01*
X119632320Y-54273727D01*
X119789363Y-54508759D01*
X119989241Y-54708637D01*
X120221759Y-54864000D01*
X119989241Y-55019363D01*
X119789363Y-55219241D01*
X119632320Y-55454273D01*
X119524147Y-55715426D01*
X119469000Y-55992665D01*
X119469000Y-56275335D01*
X119524147Y-56552574D01*
X119632320Y-56813727D01*
X119789363Y-57048759D01*
X119989241Y-57248637D01*
X120221759Y-57404000D01*
X119989241Y-57559363D01*
X119789363Y-57759241D01*
X119632320Y-57994273D01*
X119524147Y-58255426D01*
X119469000Y-58532665D01*
X119469000Y-58815335D01*
X119524147Y-59092574D01*
X119632320Y-59353727D01*
X119789363Y-59588759D01*
X119989241Y-59788637D01*
X120221759Y-59944000D01*
X119989241Y-60099363D01*
X119789363Y-60299241D01*
X119656260Y-60498444D01*
X119646137Y-60479506D01*
X119566785Y-60382815D01*
X119470094Y-60303463D01*
X119359780Y-60244498D01*
X119240082Y-60208188D01*
X119115600Y-60195928D01*
X117815600Y-60195928D01*
X117691118Y-60208188D01*
X117571420Y-60244498D01*
X117461106Y-60303463D01*
X117364415Y-60382815D01*
X117285063Y-60479506D01*
X117282470Y-60484358D01*
X117074276Y-60345247D01*
X116840421Y-60248381D01*
X116592161Y-60199000D01*
X116339039Y-60199000D01*
X116090779Y-60248381D01*
X115856924Y-60345247D01*
X115646460Y-60485875D01*
X115467475Y-60664860D01*
X115465600Y-60667666D01*
X115463725Y-60664860D01*
X115284740Y-60485875D01*
X115074276Y-60345247D01*
X114840421Y-60248381D01*
X114592161Y-60199000D01*
X114339039Y-60199000D01*
X114090779Y-60248381D01*
X113856924Y-60345247D01*
X113646460Y-60485875D01*
X113467475Y-60664860D01*
X113326847Y-60875324D01*
X113229981Y-61109179D01*
X113180600Y-61357439D01*
X113180600Y-61610561D01*
X113229981Y-61858821D01*
X113326847Y-62092676D01*
X113467475Y-62303140D01*
X113646460Y-62482125D01*
X113649266Y-62484000D01*
X113646460Y-62485875D01*
X113467475Y-62664860D01*
X113326847Y-62875324D01*
X113229981Y-63109179D01*
X113180600Y-63357439D01*
X113180600Y-63610561D01*
X113229981Y-63858821D01*
X113326847Y-64092676D01*
X113467475Y-64303140D01*
X113646460Y-64482125D01*
X113856924Y-64622753D01*
X114090779Y-64719619D01*
X114339039Y-64769000D01*
X114592161Y-64769000D01*
X114840421Y-64719619D01*
X115074276Y-64622753D01*
X115284740Y-64482125D01*
X115463725Y-64303140D01*
X115465600Y-64300334D01*
X115467475Y-64303140D01*
X115646460Y-64482125D01*
X115856924Y-64622753D01*
X116090779Y-64719619D01*
X116339039Y-64769000D01*
X116592161Y-64769000D01*
X116840421Y-64719619D01*
X117074276Y-64622753D01*
X117284740Y-64482125D01*
X117463725Y-64303140D01*
X117465600Y-64300334D01*
X117467475Y-64303140D01*
X117646460Y-64482125D01*
X117856924Y-64622753D01*
X118090779Y-64719619D01*
X118339039Y-64769000D01*
X118592161Y-64769000D01*
X118840421Y-64719619D01*
X119074276Y-64622753D01*
X119284740Y-64482125D01*
X119463725Y-64303140D01*
X119534410Y-64197352D01*
X119632320Y-64433727D01*
X119789363Y-64668759D01*
X119989241Y-64868637D01*
X120221759Y-65024000D01*
X119989241Y-65179363D01*
X119789363Y-65379241D01*
X119632320Y-65614273D01*
X119524147Y-65875426D01*
X119469000Y-66152665D01*
X119469000Y-66435335D01*
X119524147Y-66712574D01*
X119632320Y-66973727D01*
X119789363Y-67208759D01*
X119989241Y-67408637D01*
X120221759Y-67564000D01*
X119989241Y-67719363D01*
X119789363Y-67919241D01*
X119632320Y-68154273D01*
X119524147Y-68415426D01*
X119469000Y-68692665D01*
X119469000Y-68975335D01*
X119524147Y-69252574D01*
X119632320Y-69513727D01*
X119789363Y-69748759D01*
X119989241Y-69948637D01*
X120221759Y-70104000D01*
X119989241Y-70259363D01*
X119789363Y-70459241D01*
X119632320Y-70694273D01*
X119524147Y-70955426D01*
X119469000Y-71232665D01*
X119469000Y-71515335D01*
X119524147Y-71792574D01*
X119632320Y-72053727D01*
X119789363Y-72288759D01*
X119989241Y-72488637D01*
X120221759Y-72644000D01*
X119989241Y-72799363D01*
X119789363Y-72999241D01*
X119632320Y-73234273D01*
X119524147Y-73495426D01*
X119469000Y-73772665D01*
X119469000Y-74055335D01*
X119524147Y-74332574D01*
X119632320Y-74593727D01*
X119789363Y-74828759D01*
X119989241Y-75028637D01*
X120221759Y-75184000D01*
X119989241Y-75339363D01*
X119789363Y-75539241D01*
X119632320Y-75774273D01*
X119524147Y-76035426D01*
X119469000Y-76312665D01*
X119469000Y-76595335D01*
X119524147Y-76872574D01*
X119632320Y-77133727D01*
X119789363Y-77368759D01*
X119989241Y-77568637D01*
X120221759Y-77724000D01*
X119989241Y-77879363D01*
X119789363Y-78079241D01*
X119632320Y-78314273D01*
X119524147Y-78575426D01*
X119469000Y-78852665D01*
X119469000Y-79024198D01*
X115169001Y-74724200D01*
X115169001Y-73411321D01*
X115172677Y-73373998D01*
X115169001Y-73336675D01*
X115169001Y-73336666D01*
X115158004Y-73225013D01*
X115114547Y-73081752D01*
X115043975Y-72949723D01*
X115030812Y-72933684D01*
X114972800Y-72862995D01*
X114972796Y-72862991D01*
X114949002Y-72833998D01*
X114920009Y-72810204D01*
X108504232Y-66394429D01*
X108573465Y-66408200D01*
X108856135Y-66408200D01*
X109133374Y-66353053D01*
X109394527Y-66244880D01*
X109629559Y-66087837D01*
X109829437Y-65887959D01*
X109986480Y-65652927D01*
X110094653Y-65391774D01*
X110149800Y-65114535D01*
X110149800Y-64831865D01*
X110094653Y-64554626D01*
X109986480Y-64293473D01*
X109829437Y-64058441D01*
X109629559Y-63858563D01*
X109397041Y-63703200D01*
X109629559Y-63547837D01*
X109829437Y-63347959D01*
X109986480Y-63112927D01*
X110094653Y-62851774D01*
X110149800Y-62574535D01*
X110149800Y-62291865D01*
X110094653Y-62014626D01*
X109986480Y-61753473D01*
X109829437Y-61518441D01*
X109629559Y-61318563D01*
X109397041Y-61163200D01*
X109629559Y-61007837D01*
X109829437Y-60807959D01*
X109986480Y-60572927D01*
X110094653Y-60311774D01*
X110149800Y-60034535D01*
X110149800Y-59751865D01*
X110094653Y-59474626D01*
X109986480Y-59213473D01*
X109829437Y-58978441D01*
X109629559Y-58778563D01*
X109397041Y-58623200D01*
X109629559Y-58467837D01*
X109829437Y-58267959D01*
X109986480Y-58032927D01*
X110094653Y-57771774D01*
X110149800Y-57494535D01*
X110149800Y-57211865D01*
X110094653Y-56934626D01*
X109986480Y-56673473D01*
X109829437Y-56438441D01*
X109630839Y-56239843D01*
X109639282Y-56239012D01*
X109758980Y-56202702D01*
X109869294Y-56143737D01*
X109965985Y-56064385D01*
X110045337Y-55967694D01*
X110104302Y-55857380D01*
X110140612Y-55737682D01*
X110152872Y-55613200D01*
X110152872Y-54013200D01*
X110140612Y-53888718D01*
X110104302Y-53769020D01*
X110045337Y-53658706D01*
X109965985Y-53562015D01*
X109869294Y-53482663D01*
X109758980Y-53423698D01*
X109639282Y-53387388D01*
X109514800Y-53375128D01*
X107914800Y-53375128D01*
X107790318Y-53387388D01*
X107670620Y-53423698D01*
X107560306Y-53482663D01*
X107463615Y-53562015D01*
X107384263Y-53658706D01*
X107325298Y-53769020D01*
X107288988Y-53888718D01*
X107276728Y-54013200D01*
X107276728Y-55613200D01*
X107288988Y-55737682D01*
X107325298Y-55857380D01*
X107384263Y-55967694D01*
X107463615Y-56064385D01*
X107560306Y-56143737D01*
X107670620Y-56202702D01*
X107790318Y-56239012D01*
X107798761Y-56239843D01*
X107600163Y-56438441D01*
X107443120Y-56673473D01*
X107334947Y-56934626D01*
X107279800Y-57211865D01*
X107279800Y-57494535D01*
X107334947Y-57771774D01*
X107443120Y-58032927D01*
X107600163Y-58267959D01*
X107800041Y-58467837D01*
X108032559Y-58623200D01*
X107800041Y-58778563D01*
X107600163Y-58978441D01*
X107443120Y-59213473D01*
X107334947Y-59474626D01*
X107279800Y-59751865D01*
X107279800Y-60034535D01*
X107334947Y-60311774D01*
X107443120Y-60572927D01*
X107600163Y-60807959D01*
X107800041Y-61007837D01*
X108032559Y-61163200D01*
X107800041Y-61318563D01*
X107600163Y-61518441D01*
X107443120Y-61753473D01*
X107334947Y-62014626D01*
X107279800Y-62291865D01*
X107279800Y-62574535D01*
X107334947Y-62851774D01*
X107443120Y-63112927D01*
X107600163Y-63347959D01*
X107800041Y-63547837D01*
X108032559Y-63703200D01*
X107800041Y-63858563D01*
X107600163Y-64058441D01*
X107443120Y-64293473D01*
X107334947Y-64554626D01*
X107279800Y-64831865D01*
X107279800Y-65114535D01*
X107293572Y-65183768D01*
X106778600Y-64668796D01*
X106778637Y-64668759D01*
X106935680Y-64433727D01*
X107043853Y-64172574D01*
X107099000Y-63895335D01*
X107099000Y-63612665D01*
X107043853Y-63335426D01*
X106935680Y-63074273D01*
X106778637Y-62839241D01*
X106578759Y-62639363D01*
X106346241Y-62484000D01*
X106578759Y-62328637D01*
X106778637Y-62128759D01*
X106935680Y-61893727D01*
X107043853Y-61632574D01*
X107099000Y-61355335D01*
X107099000Y-61072665D01*
X107043853Y-60795426D01*
X106935680Y-60534273D01*
X106778637Y-60299241D01*
X106578759Y-60099363D01*
X106346241Y-59944000D01*
X106578759Y-59788637D01*
X106778637Y-59588759D01*
X106935680Y-59353727D01*
X107043853Y-59092574D01*
X107099000Y-58815335D01*
X107099000Y-58532665D01*
X107043853Y-58255426D01*
X106935680Y-57994273D01*
X106778637Y-57759241D01*
X106578759Y-57559363D01*
X106346241Y-57404000D01*
X106578759Y-57248637D01*
X106778637Y-57048759D01*
X106935680Y-56813727D01*
X107043853Y-56552574D01*
X107099000Y-56275335D01*
X107099000Y-55992665D01*
X107043853Y-55715426D01*
X106935680Y-55454273D01*
X106778637Y-55219241D01*
X106578759Y-55019363D01*
X106346241Y-54864000D01*
X106578759Y-54708637D01*
X106778637Y-54508759D01*
X106935680Y-54273727D01*
X107043853Y-54012574D01*
X107099000Y-53735335D01*
X107099000Y-53452665D01*
X107043853Y-53175426D01*
X106935680Y-52914273D01*
X106778637Y-52679241D01*
X106578759Y-52479363D01*
X106346241Y-52324000D01*
X106578759Y-52168637D01*
X106778637Y-51968759D01*
X106935680Y-51733727D01*
X107043853Y-51472574D01*
X107099000Y-51195335D01*
X107099000Y-50912665D01*
X116929000Y-50912665D01*
X116929000Y-51195335D01*
X116984147Y-51472574D01*
X117092320Y-51733727D01*
X117249363Y-51968759D01*
X117449241Y-52168637D01*
X117684273Y-52325680D01*
X117945426Y-52433853D01*
X118222665Y-52489000D01*
X118505335Y-52489000D01*
X118782574Y-52433853D01*
X119043727Y-52325680D01*
X119278759Y-52168637D01*
X119478637Y-51968759D01*
X119634915Y-51734872D01*
X119667329Y-51795514D01*
X119911298Y-51867097D01*
X120724395Y-51054000D01*
X121083605Y-51054000D01*
X121896702Y-51867097D01*
X122140671Y-51795514D01*
X122261571Y-51540004D01*
X122330300Y-51265816D01*
X122344217Y-50983488D01*
X122302787Y-50703870D01*
X122207603Y-50437708D01*
X122140671Y-50312486D01*
X121896702Y-50240903D01*
X121083605Y-51054000D01*
X120724395Y-51054000D01*
X119911298Y-50240903D01*
X119667329Y-50312486D01*
X119636806Y-50376992D01*
X119635680Y-50374273D01*
X119478637Y-50139241D01*
X119278759Y-49939363D01*
X119043727Y-49782320D01*
X118782574Y-49674147D01*
X118505335Y-49619000D01*
X118222665Y-49619000D01*
X117945426Y-49674147D01*
X117684273Y-49782320D01*
X117449241Y-49939363D01*
X117249363Y-50139241D01*
X117092320Y-50374273D01*
X116984147Y-50635426D01*
X116929000Y-50912665D01*
X107099000Y-50912665D01*
X107043853Y-50635426D01*
X106935680Y-50374273D01*
X106778637Y-50139241D01*
X106580039Y-49940643D01*
X106588482Y-49939812D01*
X106708180Y-49903502D01*
X106818494Y-49844537D01*
X106915185Y-49765185D01*
X106994537Y-49668494D01*
X107053502Y-49558180D01*
X107089812Y-49438482D01*
X107102072Y-49314000D01*
X107100898Y-49117439D01*
X110729000Y-49117439D01*
X110729000Y-49370561D01*
X110778381Y-49618821D01*
X110875247Y-49852676D01*
X111015875Y-50063140D01*
X111194860Y-50242125D01*
X111405324Y-50382753D01*
X111639179Y-50479619D01*
X111887439Y-50529000D01*
X112140561Y-50529000D01*
X112388821Y-50479619D01*
X112622676Y-50382753D01*
X112833140Y-50242125D01*
X113012125Y-50063140D01*
X113152753Y-49852676D01*
X113249619Y-49618821D01*
X113284000Y-49445973D01*
X113318381Y-49618821D01*
X113415247Y-49852676D01*
X113555875Y-50063140D01*
X113734860Y-50242125D01*
X113945324Y-50382753D01*
X114179179Y-50479619D01*
X114427439Y-50529000D01*
X114680561Y-50529000D01*
X114928821Y-50479619D01*
X115162676Y-50382753D01*
X115373140Y-50242125D01*
X115552125Y-50063140D01*
X115692753Y-49852676D01*
X115789619Y-49618821D01*
X115839000Y-49370561D01*
X115839000Y-49117439D01*
X115789619Y-48869179D01*
X115692753Y-48635324D01*
X115552125Y-48424860D01*
X115499930Y-48372665D01*
X119469000Y-48372665D01*
X119469000Y-48655335D01*
X119524147Y-48932574D01*
X119632320Y-49193727D01*
X119789363Y-49428759D01*
X119989241Y-49628637D01*
X120223128Y-49784915D01*
X120162486Y-49817329D01*
X120090903Y-50061298D01*
X120904000Y-50874395D01*
X121571674Y-50206721D01*
X143764000Y-50206721D01*
X143764000Y-50627279D01*
X143846047Y-51039756D01*
X144006988Y-51428302D01*
X144240637Y-51777983D01*
X144538017Y-52075363D01*
X144887698Y-52309012D01*
X145276244Y-52469953D01*
X145688721Y-52552000D01*
X146109279Y-52552000D01*
X146521756Y-52469953D01*
X146910302Y-52309012D01*
X147259983Y-52075363D01*
X147557363Y-51777983D01*
X147791012Y-51428302D01*
X147951953Y-51039756D01*
X148034000Y-50627279D01*
X148034000Y-50333721D01*
X154559000Y-50333721D01*
X154559000Y-50754279D01*
X154641047Y-51166756D01*
X154801988Y-51555302D01*
X155035637Y-51904983D01*
X155333017Y-52202363D01*
X155682698Y-52436012D01*
X156071244Y-52596953D01*
X156483721Y-52679000D01*
X156904279Y-52679000D01*
X157316756Y-52596953D01*
X157705302Y-52436012D01*
X158054983Y-52202363D01*
X158352363Y-51904983D01*
X158586012Y-51555302D01*
X158746953Y-51166756D01*
X158829000Y-50754279D01*
X158829000Y-50333721D01*
X158746953Y-49921244D01*
X158586012Y-49532698D01*
X158352363Y-49183017D01*
X158054983Y-48885637D01*
X157705302Y-48651988D01*
X157316756Y-48491047D01*
X156904279Y-48409000D01*
X156483721Y-48409000D01*
X156071244Y-48491047D01*
X155682698Y-48651988D01*
X155333017Y-48885637D01*
X155035637Y-49183017D01*
X154801988Y-49532698D01*
X154641047Y-49921244D01*
X154559000Y-50333721D01*
X148034000Y-50333721D01*
X148034000Y-50206721D01*
X147951953Y-49794244D01*
X147791012Y-49405698D01*
X147557363Y-49056017D01*
X147259983Y-48758637D01*
X146910302Y-48524988D01*
X146521756Y-48364047D01*
X146109279Y-48282000D01*
X145688721Y-48282000D01*
X145276244Y-48364047D01*
X144887698Y-48524988D01*
X144538017Y-48758637D01*
X144240637Y-49056017D01*
X144006988Y-49405698D01*
X143846047Y-49794244D01*
X143764000Y-50206721D01*
X121571674Y-50206721D01*
X121717097Y-50061298D01*
X121645514Y-49817329D01*
X121581008Y-49786806D01*
X121583727Y-49785680D01*
X121818759Y-49628637D01*
X122018637Y-49428759D01*
X122175680Y-49193727D01*
X122283853Y-48932574D01*
X122339000Y-48655335D01*
X122339000Y-48372665D01*
X122283853Y-48095426D01*
X122175680Y-47834273D01*
X122018637Y-47599241D01*
X121818759Y-47399363D01*
X121583727Y-47242320D01*
X121322574Y-47134147D01*
X121045335Y-47079000D01*
X120762665Y-47079000D01*
X120485426Y-47134147D01*
X120224273Y-47242320D01*
X119989241Y-47399363D01*
X119789363Y-47599241D01*
X119632320Y-47834273D01*
X119524147Y-48095426D01*
X119469000Y-48372665D01*
X115499930Y-48372665D01*
X115373140Y-48245875D01*
X115162676Y-48105247D01*
X114928821Y-48008381D01*
X114680561Y-47959000D01*
X114427439Y-47959000D01*
X114179179Y-48008381D01*
X113945324Y-48105247D01*
X113734860Y-48245875D01*
X113555875Y-48424860D01*
X113415247Y-48635324D01*
X113318381Y-48869179D01*
X113284000Y-49042027D01*
X113249619Y-48869179D01*
X113152753Y-48635324D01*
X113012125Y-48424860D01*
X112833140Y-48245875D01*
X112622676Y-48105247D01*
X112388821Y-48008381D01*
X112140561Y-47959000D01*
X111887439Y-47959000D01*
X111639179Y-48008381D01*
X111405324Y-48105247D01*
X111194860Y-48245875D01*
X111015875Y-48424860D01*
X110875247Y-48635324D01*
X110778381Y-48869179D01*
X110729000Y-49117439D01*
X107100898Y-49117439D01*
X107099000Y-48799750D01*
X106940250Y-48641000D01*
X105791000Y-48641000D01*
X105791000Y-48661000D01*
X105537000Y-48661000D01*
X105537000Y-48641000D01*
X104387750Y-48641000D01*
X104229000Y-48799750D01*
X104225928Y-49314000D01*
X104238188Y-49438482D01*
X104274498Y-49558180D01*
X104333463Y-49668494D01*
X104412815Y-49765185D01*
X104509506Y-49844537D01*
X104619820Y-49903502D01*
X104739518Y-49939812D01*
X104747961Y-49940643D01*
X104549363Y-50139241D01*
X104392320Y-50374273D01*
X104284147Y-50635426D01*
X104229000Y-50912665D01*
X104229000Y-51195335D01*
X104284147Y-51472574D01*
X104392320Y-51733727D01*
X104549363Y-51968759D01*
X104749241Y-52168637D01*
X104981759Y-52324000D01*
X104749241Y-52479363D01*
X104549363Y-52679241D01*
X104392320Y-52914273D01*
X104284147Y-53175426D01*
X104229000Y-53452665D01*
X104229000Y-53735335D01*
X104284147Y-54012574D01*
X104392320Y-54273727D01*
X104549363Y-54508759D01*
X104749241Y-54708637D01*
X104981759Y-54864000D01*
X104749241Y-55019363D01*
X104549363Y-55219241D01*
X104392320Y-55454273D01*
X104284147Y-55715426D01*
X104229000Y-55992665D01*
X104229000Y-56275335D01*
X104284147Y-56552574D01*
X104392320Y-56813727D01*
X104549363Y-57048759D01*
X104749241Y-57248637D01*
X104981759Y-57404000D01*
X104749241Y-57559363D01*
X104549363Y-57759241D01*
X104392320Y-57994273D01*
X104284147Y-58255426D01*
X104229000Y-58532665D01*
X104229000Y-58815335D01*
X104284147Y-59092574D01*
X104392320Y-59353727D01*
X104549363Y-59588759D01*
X104749241Y-59788637D01*
X104981759Y-59944000D01*
X104749241Y-60099363D01*
X104549363Y-60299241D01*
X104392320Y-60534273D01*
X104284147Y-60795426D01*
X104229000Y-61072665D01*
X104229000Y-61355335D01*
X104284147Y-61632574D01*
X104392320Y-61893727D01*
X104549363Y-62128759D01*
X104749241Y-62328637D01*
X104981759Y-62484000D01*
X104749241Y-62639363D01*
X104549363Y-62839241D01*
X104392320Y-63074273D01*
X104284147Y-63335426D01*
X104229000Y-63612665D01*
X104229000Y-63895335D01*
X104273491Y-64119001D01*
X104182803Y-64119001D01*
X102025209Y-61961408D01*
X102069000Y-61741260D01*
X102069000Y-61448740D01*
X102011932Y-61161842D01*
X101899990Y-60891589D01*
X101737475Y-60648368D01*
X101530632Y-60441525D01*
X101356240Y-60325000D01*
X101530632Y-60208475D01*
X101737475Y-60001632D01*
X101899990Y-59758411D01*
X102011932Y-59488158D01*
X102069000Y-59201260D01*
X102069000Y-58908740D01*
X102011932Y-58621842D01*
X101899990Y-58351589D01*
X101737475Y-58108368D01*
X101530632Y-57901525D01*
X101356240Y-57785000D01*
X101530632Y-57668475D01*
X101737475Y-57461632D01*
X101899990Y-57218411D01*
X102011932Y-56948158D01*
X102069000Y-56661260D01*
X102069000Y-56368740D01*
X102011932Y-56081842D01*
X101899990Y-55811589D01*
X101737475Y-55568368D01*
X101530632Y-55361525D01*
X101348466Y-55239805D01*
X101465355Y-55170178D01*
X101681588Y-54975269D01*
X101855641Y-54741920D01*
X101980825Y-54479099D01*
X102025476Y-54331890D01*
X101904155Y-54102000D01*
X100711000Y-54102000D01*
X100711000Y-54122000D01*
X100457000Y-54122000D01*
X100457000Y-54102000D01*
X99263845Y-54102000D01*
X99142524Y-54331890D01*
X99187175Y-54479099D01*
X99312359Y-54741920D01*
X99486412Y-54975269D01*
X99702645Y-55170178D01*
X99819534Y-55239805D01*
X99637368Y-55361525D01*
X99430525Y-55568368D01*
X99268010Y-55811589D01*
X99156068Y-56081842D01*
X99099000Y-56368740D01*
X99099000Y-56661260D01*
X99156068Y-56948158D01*
X99268010Y-57218411D01*
X99430525Y-57461632D01*
X99637368Y-57668475D01*
X99811760Y-57785000D01*
X99637368Y-57901525D01*
X99430525Y-58108368D01*
X99268010Y-58351589D01*
X99156068Y-58621842D01*
X99099000Y-58908740D01*
X99099000Y-59201260D01*
X99156068Y-59488158D01*
X99268010Y-59758411D01*
X99430525Y-60001632D01*
X99637368Y-60208475D01*
X99811760Y-60325000D01*
X99637368Y-60441525D01*
X99430525Y-60648368D01*
X99268010Y-60891589D01*
X99156068Y-61161842D01*
X99099000Y-61448740D01*
X99099000Y-61741260D01*
X99156068Y-62028158D01*
X99268010Y-62298411D01*
X99430525Y-62541632D01*
X99637368Y-62748475D01*
X99811760Y-62865000D01*
X99637368Y-62981525D01*
X99430525Y-63188368D01*
X99305822Y-63375000D01*
X91000711Y-63375000D01*
X90956774Y-63331063D01*
X90787256Y-63217795D01*
X90598898Y-63139774D01*
X90398939Y-63100000D01*
X90336802Y-63100000D01*
X86955805Y-59719004D01*
X86932002Y-59690000D01*
X86816277Y-59595027D01*
X86684248Y-59524455D01*
X86540987Y-59480998D01*
X86429334Y-59470001D01*
X86429323Y-59470001D01*
X86392001Y-59466325D01*
X86354679Y-59470001D01*
X79155544Y-59470001D01*
X79209000Y-59201260D01*
X79209000Y-58908740D01*
X79151932Y-58621842D01*
X79039990Y-58351589D01*
X78877475Y-58108368D01*
X78670632Y-57901525D01*
X78496240Y-57785000D01*
X78670632Y-57668475D01*
X78877475Y-57461632D01*
X79039990Y-57218411D01*
X79151932Y-56948158D01*
X79209000Y-56661260D01*
X79209000Y-56368740D01*
X79151932Y-56081842D01*
X79039990Y-55811589D01*
X78877475Y-55568368D01*
X78670632Y-55361525D01*
X78496240Y-55245000D01*
X78670632Y-55128475D01*
X78877475Y-54921632D01*
X79039990Y-54678411D01*
X79151932Y-54408158D01*
X79209000Y-54121260D01*
X79209000Y-53828740D01*
X79167103Y-53618110D01*
X99142524Y-53618110D01*
X99263845Y-53848000D01*
X100457000Y-53848000D01*
X100457000Y-52654186D01*
X100711000Y-52654186D01*
X100711000Y-53848000D01*
X101904155Y-53848000D01*
X102025476Y-53618110D01*
X101980825Y-53470901D01*
X101855641Y-53208080D01*
X101681588Y-52974731D01*
X101465355Y-52779822D01*
X101215252Y-52630843D01*
X100940891Y-52533519D01*
X100711000Y-52654186D01*
X100457000Y-52654186D01*
X100227109Y-52533519D01*
X99952748Y-52630843D01*
X99702645Y-52779822D01*
X99486412Y-52974731D01*
X99312359Y-53208080D01*
X99187175Y-53470901D01*
X99142524Y-53618110D01*
X79167103Y-53618110D01*
X79151932Y-53541842D01*
X79039990Y-53271589D01*
X78877475Y-53028368D01*
X78670632Y-52821525D01*
X78427411Y-52659010D01*
X78157158Y-52547068D01*
X77870260Y-52490000D01*
X77577740Y-52490000D01*
X77290842Y-52547068D01*
X77020589Y-52659010D01*
X76777368Y-52821525D01*
X76570525Y-53028368D01*
X76408010Y-53271589D01*
X76296068Y-53541842D01*
X76239000Y-53828740D01*
X76239000Y-54121260D01*
X76296068Y-54408158D01*
X76408010Y-54678411D01*
X76570525Y-54921632D01*
X76777368Y-55128475D01*
X76951760Y-55245000D01*
X76777368Y-55361525D01*
X76570525Y-55568368D01*
X76408010Y-55811589D01*
X76296068Y-56081842D01*
X76239000Y-56368740D01*
X76239000Y-56661260D01*
X76296068Y-56948158D01*
X76408010Y-57218411D01*
X76570525Y-57461632D01*
X76777368Y-57668475D01*
X76951760Y-57785000D01*
X76777368Y-57901525D01*
X76570525Y-58108368D01*
X76408010Y-58351589D01*
X76296068Y-58621842D01*
X76239000Y-58908740D01*
X76239000Y-59201260D01*
X76292456Y-59470001D01*
X72475068Y-59470001D01*
X72478000Y-59455260D01*
X72478000Y-59162740D01*
X72420932Y-58875842D01*
X72308990Y-58605589D01*
X72146475Y-58362368D01*
X71939632Y-58155525D01*
X71765240Y-58039000D01*
X71939632Y-57922475D01*
X72146475Y-57715632D01*
X72308990Y-57472411D01*
X72420932Y-57202158D01*
X72478000Y-56915260D01*
X72478000Y-56622740D01*
X72420932Y-56335842D01*
X72308990Y-56065589D01*
X72146475Y-55822368D01*
X71939632Y-55615525D01*
X71765240Y-55499000D01*
X71939632Y-55382475D01*
X72146475Y-55175632D01*
X72308990Y-54932411D01*
X72420932Y-54662158D01*
X72478000Y-54375260D01*
X72478000Y-54082740D01*
X72420932Y-53795842D01*
X72308990Y-53525589D01*
X72146475Y-53282368D01*
X71939632Y-53075525D01*
X71765240Y-52959000D01*
X71939632Y-52842475D01*
X72146475Y-52635632D01*
X72308990Y-52392411D01*
X72420932Y-52122158D01*
X72478000Y-51835260D01*
X72478000Y-51542740D01*
X72420932Y-51255842D01*
X72308990Y-50985589D01*
X72146475Y-50742368D01*
X71939632Y-50535525D01*
X71696411Y-50373010D01*
X71426158Y-50261068D01*
X71139260Y-50204000D01*
X70846740Y-50204000D01*
X70559842Y-50261068D01*
X70289589Y-50373010D01*
X70046368Y-50535525D01*
X69839525Y-50742368D01*
X69677010Y-50985589D01*
X69565068Y-51255842D01*
X69508000Y-51542740D01*
X69508000Y-51835260D01*
X69565068Y-52122158D01*
X69677010Y-52392411D01*
X69839525Y-52635632D01*
X70046368Y-52842475D01*
X70220760Y-52959000D01*
X70046368Y-53075525D01*
X69839525Y-53282368D01*
X69677010Y-53525589D01*
X69565068Y-53795842D01*
X69508000Y-54082740D01*
X69508000Y-54375260D01*
X69565068Y-54662158D01*
X69677010Y-54932411D01*
X69839525Y-55175632D01*
X70046368Y-55382475D01*
X70220760Y-55499000D01*
X70046368Y-55615525D01*
X69839525Y-55822368D01*
X69677010Y-56065589D01*
X69565068Y-56335842D01*
X69508000Y-56622740D01*
X69508000Y-56915260D01*
X69565068Y-57202158D01*
X69677010Y-57472411D01*
X69839525Y-57715632D01*
X70046368Y-57922475D01*
X70220760Y-58039000D01*
X70046368Y-58155525D01*
X69839525Y-58362368D01*
X69677010Y-58605589D01*
X69565068Y-58875842D01*
X69508000Y-59162740D01*
X69508000Y-59455260D01*
X69565068Y-59742158D01*
X69677010Y-60012411D01*
X69839525Y-60255632D01*
X70046368Y-60462475D01*
X70220760Y-60579000D01*
X70046368Y-60695525D01*
X69839525Y-60902368D01*
X69677010Y-61145589D01*
X69565068Y-61415842D01*
X69508000Y-61702740D01*
X69508000Y-61995260D01*
X69565068Y-62282158D01*
X69677010Y-62552411D01*
X69839525Y-62795632D01*
X70046368Y-63002475D01*
X70228534Y-63124195D01*
X70111645Y-63193822D01*
X69895412Y-63388731D01*
X69721359Y-63622080D01*
X69596175Y-63884901D01*
X69551524Y-64032110D01*
X69672845Y-64262000D01*
X70866000Y-64262000D01*
X70866000Y-64242000D01*
X71120000Y-64242000D01*
X71120000Y-64262000D01*
X71140000Y-64262000D01*
X71140000Y-64516000D01*
X71120000Y-64516000D01*
X71120000Y-64536000D01*
X70866000Y-64536000D01*
X70866000Y-64516000D01*
X69672845Y-64516000D01*
X69551524Y-64745890D01*
X69596175Y-64893099D01*
X69721359Y-65155920D01*
X69895412Y-65389269D01*
X70111645Y-65584178D01*
X70228534Y-65653805D01*
X70046368Y-65775525D01*
X69839525Y-65982368D01*
X69677010Y-66225589D01*
X69565068Y-66495842D01*
X69508000Y-66782740D01*
X69508000Y-67075260D01*
X69565068Y-67362158D01*
X69677010Y-67632411D01*
X69839525Y-67875632D01*
X69971380Y-68007487D01*
X69898820Y-68029498D01*
X69788506Y-68088463D01*
X69691815Y-68167815D01*
X69612463Y-68264506D01*
X69553498Y-68374820D01*
X69517188Y-68494518D01*
X69504928Y-68619000D01*
X62738000Y-68619000D01*
X62738000Y-49939849D01*
X76708000Y-49939849D01*
X76708000Y-50390151D01*
X76795850Y-50831802D01*
X76968173Y-51247827D01*
X77218348Y-51622240D01*
X77536760Y-51940652D01*
X77911173Y-52190827D01*
X78327198Y-52363150D01*
X78768849Y-52451000D01*
X79219151Y-52451000D01*
X79660802Y-52363150D01*
X80076827Y-52190827D01*
X80451240Y-51940652D01*
X80769652Y-51622240D01*
X81019827Y-51247827D01*
X81192150Y-50831802D01*
X81280000Y-50390151D01*
X81280000Y-49939849D01*
X97028000Y-49939849D01*
X97028000Y-50390151D01*
X97115850Y-50831802D01*
X97288173Y-51247827D01*
X97538348Y-51622240D01*
X97856760Y-51940652D01*
X98231173Y-52190827D01*
X98647198Y-52363150D01*
X99088849Y-52451000D01*
X99539151Y-52451000D01*
X99980802Y-52363150D01*
X100396827Y-52190827D01*
X100771240Y-51940652D01*
X101089652Y-51622240D01*
X101339827Y-51247827D01*
X101512150Y-50831802D01*
X101600000Y-50390151D01*
X101600000Y-49939849D01*
X101512150Y-49498198D01*
X101339827Y-49082173D01*
X101089652Y-48707760D01*
X100771240Y-48389348D01*
X100396827Y-48139173D01*
X99980802Y-47966850D01*
X99539151Y-47879000D01*
X99088849Y-47879000D01*
X98647198Y-47966850D01*
X98231173Y-48139173D01*
X97856760Y-48389348D01*
X97538348Y-48707760D01*
X97288173Y-49082173D01*
X97115850Y-49498198D01*
X97028000Y-49939849D01*
X81280000Y-49939849D01*
X81192150Y-49498198D01*
X81019827Y-49082173D01*
X80769652Y-48707760D01*
X80451240Y-48389348D01*
X80076827Y-48139173D01*
X79660802Y-47966850D01*
X79219151Y-47879000D01*
X78768849Y-47879000D01*
X78327198Y-47966850D01*
X77911173Y-48139173D01*
X77536760Y-48389348D01*
X77218348Y-48707760D01*
X76968173Y-49082173D01*
X76795850Y-49498198D01*
X76708000Y-49939849D01*
X62738000Y-49939849D01*
X62738000Y-47714000D01*
X104225928Y-47714000D01*
X104229000Y-48228250D01*
X104387750Y-48387000D01*
X105537000Y-48387000D01*
X105537000Y-47237750D01*
X105791000Y-47237750D01*
X105791000Y-48387000D01*
X106940250Y-48387000D01*
X107099000Y-48228250D01*
X107102072Y-47714000D01*
X107089812Y-47589518D01*
X107053502Y-47469820D01*
X106994537Y-47359506D01*
X106915185Y-47262815D01*
X106818494Y-47183463D01*
X106708180Y-47124498D01*
X106588482Y-47088188D01*
X106464000Y-47075928D01*
X105949750Y-47079000D01*
X105791000Y-47237750D01*
X105537000Y-47237750D01*
X105378250Y-47079000D01*
X104864000Y-47075928D01*
X104739518Y-47088188D01*
X104619820Y-47124498D01*
X104509506Y-47183463D01*
X104412815Y-47262815D01*
X104333463Y-47359506D01*
X104274498Y-47469820D01*
X104238188Y-47589518D01*
X104225928Y-47714000D01*
X62738000Y-47714000D01*
X62738000Y-46990000D01*
X163576000Y-46990000D01*
X163576000Y-65971893D01*
M02*
