%TF.GenerationSoftware,KiCad,Pcbnew,(5.1.6)-1*%
%TF.CreationDate,2022-02-17T17:54:20-08:00*%
%TF.ProjectId,ARESnoseConeSystem2022,41524553-6e6f-4736-9543-6f6e65537973,rev?*%
%TF.SameCoordinates,Original*%
%TF.FileFunction,Paste,Top*%
%TF.FilePolarity,Positive*%
%FSLAX46Y46*%
G04 Gerber Fmt 4.6, Leading zero omitted, Abs format (unit mm)*
G04 Created by KiCad (PCBNEW (5.1.6)-1) date 2022-02-17 17:54:20*
%MOMM*%
%LPD*%
G01*
G04 APERTURE LIST*
%ADD10R,2.750000X3.050000*%
%ADD11R,0.800000X2.200000*%
G04 APERTURE END LIST*
G36*
G01*
X125043250Y-67749000D02*
X124130750Y-67749000D01*
G75*
G02*
X123887000Y-67505250I0J243750D01*
G01*
X123887000Y-67017750D01*
G75*
G02*
X124130750Y-66774000I243750J0D01*
G01*
X125043250Y-66774000D01*
G75*
G02*
X125287000Y-67017750I0J-243750D01*
G01*
X125287000Y-67505250D01*
G75*
G02*
X125043250Y-67749000I-243750J0D01*
G01*
G37*
G36*
G01*
X125043250Y-69624000D02*
X124130750Y-69624000D01*
G75*
G02*
X123887000Y-69380250I0J243750D01*
G01*
X123887000Y-68892750D01*
G75*
G02*
X124130750Y-68649000I243750J0D01*
G01*
X125043250Y-68649000D01*
G75*
G02*
X125287000Y-68892750I0J-243750D01*
G01*
X125287000Y-69380250D01*
G75*
G02*
X125043250Y-69624000I-243750J0D01*
G01*
G37*
D10*
X130936000Y-55035000D03*
X133986000Y-58385000D03*
X133986000Y-55035000D03*
X130936000Y-58385000D03*
D11*
X130181000Y-50410000D03*
X131321000Y-50410000D03*
X132461000Y-50410000D03*
X133601000Y-50410000D03*
X134741000Y-50410000D03*
G36*
G01*
X138995999Y-57219000D02*
X139896001Y-57219000D01*
G75*
G02*
X140146000Y-57468999I0J-249999D01*
G01*
X140146000Y-58119001D01*
G75*
G02*
X139896001Y-58369000I-249999J0D01*
G01*
X138995999Y-58369000D01*
G75*
G02*
X138746000Y-58119001I0J249999D01*
G01*
X138746000Y-57468999D01*
G75*
G02*
X138995999Y-57219000I249999J0D01*
G01*
G37*
G36*
G01*
X138995999Y-55169000D02*
X139896001Y-55169000D01*
G75*
G02*
X140146000Y-55418999I0J-249999D01*
G01*
X140146000Y-56069001D01*
G75*
G02*
X139896001Y-56319000I-249999J0D01*
G01*
X138995999Y-56319000D01*
G75*
G02*
X138746000Y-56069001I0J249999D01*
G01*
X138746000Y-55418999D01*
G75*
G02*
X138995999Y-55169000I249999J0D01*
G01*
G37*
G36*
G01*
X126924750Y-52647000D02*
X127837250Y-52647000D01*
G75*
G02*
X128081000Y-52890750I0J-243750D01*
G01*
X128081000Y-53378250D01*
G75*
G02*
X127837250Y-53622000I-243750J0D01*
G01*
X126924750Y-53622000D01*
G75*
G02*
X126681000Y-53378250I0J243750D01*
G01*
X126681000Y-52890750D01*
G75*
G02*
X126924750Y-52647000I243750J0D01*
G01*
G37*
G36*
G01*
X126924750Y-50772000D02*
X127837250Y-50772000D01*
G75*
G02*
X128081000Y-51015750I0J-243750D01*
G01*
X128081000Y-51503250D01*
G75*
G02*
X127837250Y-51747000I-243750J0D01*
G01*
X126924750Y-51747000D01*
G75*
G02*
X126681000Y-51503250I0J243750D01*
G01*
X126681000Y-51015750D01*
G75*
G02*
X126924750Y-50772000I243750J0D01*
G01*
G37*
G36*
G01*
X138868999Y-50234000D02*
X139769001Y-50234000D01*
G75*
G02*
X140019000Y-50483999I0J-249999D01*
G01*
X140019000Y-51134001D01*
G75*
G02*
X139769001Y-51384000I-249999J0D01*
G01*
X138868999Y-51384000D01*
G75*
G02*
X138619000Y-51134001I0J249999D01*
G01*
X138619000Y-50483999D01*
G75*
G02*
X138868999Y-50234000I249999J0D01*
G01*
G37*
G36*
G01*
X138868999Y-48184000D02*
X139769001Y-48184000D01*
G75*
G02*
X140019000Y-48433999I0J-249999D01*
G01*
X140019000Y-49084001D01*
G75*
G02*
X139769001Y-49334000I-249999J0D01*
G01*
X138868999Y-49334000D01*
G75*
G02*
X138619000Y-49084001I0J249999D01*
G01*
X138619000Y-48433999D01*
G75*
G02*
X138868999Y-48184000I249999J0D01*
G01*
G37*
G36*
G01*
X123501999Y-50107000D02*
X124402001Y-50107000D01*
G75*
G02*
X124652000Y-50356999I0J-249999D01*
G01*
X124652000Y-51007001D01*
G75*
G02*
X124402001Y-51257000I-249999J0D01*
G01*
X123501999Y-51257000D01*
G75*
G02*
X123252000Y-51007001I0J249999D01*
G01*
X123252000Y-50356999D01*
G75*
G02*
X123501999Y-50107000I249999J0D01*
G01*
G37*
G36*
G01*
X123501999Y-48057000D02*
X124402001Y-48057000D01*
G75*
G02*
X124652000Y-48306999I0J-249999D01*
G01*
X124652000Y-48957001D01*
G75*
G02*
X124402001Y-49207000I-249999J0D01*
G01*
X123501999Y-49207000D01*
G75*
G02*
X123252000Y-48957001I0J249999D01*
G01*
X123252000Y-48306999D01*
G75*
G02*
X123501999Y-48057000I249999J0D01*
G01*
G37*
M02*
